<?xml version="1.0" encoding="utf-8" standalone="no"?>
<!DOCTYPE svg PUBLIC "-//W3C//DTD SVG 1.1//EN"
  "http://www.w3.org/Graphics/SVG/1.1/DTD/svg11.dtd">
<svg height="326.447656pt" version="1.1" viewBox="0 0 413.02475 326.447656" width="413.02475pt" xmlns="http://www.w3.org/2000/svg" xmlns:xlink="http://www.w3.org/1999/xlink">
 <metadata>
  <rdf:RDF xmlns:cc="http://creativecommons.org/ns#" xmlns:dc="http://purl.org/dc/elements/1.1/" xmlns:rdf="http://www.w3.org/1999/02/22-rdf-syntax-ns#">
   <cc:Work>
    <dc:type rdf:resource="http://purl.org/dc/dcmitype/StillImage"/>
    <dc:date>2023-02-20T13:13:37.482858</dc:date>
    <dc:format>image/svg+xml</dc:format>
    <dc:creator>
     <cc:Agent>
      <dc:title>Matplotlib v3.4.3, https://matplotlib.org/</dc:title>
     </cc:Agent>
    </dc:creator>
   </cc:Work>
  </rdf:RDF>
 </metadata>
 <defs>
  <style type="text/css">*{stroke-linecap:butt;stroke-linejoin:round;}</style>
 </defs>
 <g id="figure_1">
  <g id="patch_1">
   <path d="M 0 326.447656 
L 413.02475 326.447656 
L 413.02475 0 
L 0 0 
z
" style="fill:none;"/>
  </g>
  <g id="axes_1">
   <g id="patch_2">
    <path d="M 48.11375 287.048906 
L 325.566915 287.048906 
L 325.566915 5.318906 
L 48.11375 5.318906 
z
" style="fill:none;"/>
   </g>
   <g id="matplotlib.axis_1">
    <g id="xtick_1">
     <g id="line2d_1">
      <path clip-path="url(#p52aab5f75c)" d="M 60.725257 287.048906 
L 60.725257 5.318906 
" style="fill:none;stroke:#cccccc;stroke-linecap:round;stroke-width:0.8;"/>
     </g>
     <g id="line2d_2">
      <defs>
       <path d="M 0 0 
L 0 4.8 
" id="mc95797945a" style="stroke:#000000;"/>
      </defs>
      <g>
       <use style="stroke:#000000;" x="60.725257" xlink:href="#mc95797945a" y="287.048906"/>
      </g>
     </g>
     <g id="text_1">
      <!-- $\mathdefault{10^{0}}$ -->
      <g transform="translate(48.405257 305.986719)scale(0.14 -0.14)">
       <defs>
        <path d="M 794 531 
L 1825 531 
L 1825 4091 
L 703 3866 
L 703 4441 
L 1819 4666 
L 2450 4666 
L 2450 531 
L 3481 531 
L 3481 0 
L 794 0 
L 794 531 
z
" id="DejaVuSans-31" transform="scale(0.015625)"/>
        <path d="M 2034 4250 
Q 1547 4250 1301 3770 
Q 1056 3291 1056 2328 
Q 1056 1369 1301 889 
Q 1547 409 2034 409 
Q 2525 409 2770 889 
Q 3016 1369 3016 2328 
Q 3016 3291 2770 3770 
Q 2525 4250 2034 4250 
z
M 2034 4750 
Q 2819 4750 3233 4129 
Q 3647 3509 3647 2328 
Q 3647 1150 3233 529 
Q 2819 -91 2034 -91 
Q 1250 -91 836 529 
Q 422 1150 422 2328 
Q 422 3509 836 4129 
Q 1250 4750 2034 4750 
z
" id="DejaVuSans-30" transform="scale(0.015625)"/>
       </defs>
       <use transform="translate(0 0.765625)" xlink:href="#DejaVuSans-31"/>
       <use transform="translate(63.623047 0.765625)" xlink:href="#DejaVuSans-30"/>
       <use transform="translate(128.203125 39.046875)scale(0.7)" xlink:href="#DejaVuSans-30"/>
      </g>
     </g>
    </g>
    <g id="xtick_2">
     <g id="line2d_3">
      <path clip-path="url(#p52aab5f75c)" d="M 120.654621 287.048906 
L 120.654621 5.318906 
" style="fill:none;stroke:#cccccc;stroke-linecap:round;stroke-width:0.8;"/>
     </g>
     <g id="line2d_4">
      <g>
       <use style="stroke:#000000;" x="120.654621" xlink:href="#mc95797945a" y="287.048906"/>
      </g>
     </g>
     <g id="text_2">
      <!-- $\mathdefault{10^{1}}$ -->
      <g transform="translate(108.334621 305.986719)scale(0.14 -0.14)">
       <use transform="translate(0 0.684375)" xlink:href="#DejaVuSans-31"/>
       <use transform="translate(63.623047 0.684375)" xlink:href="#DejaVuSans-30"/>
       <use transform="translate(128.203125 38.965625)scale(0.7)" xlink:href="#DejaVuSans-31"/>
      </g>
     </g>
    </g>
    <g id="xtick_3">
     <g id="line2d_5">
      <path clip-path="url(#p52aab5f75c)" d="M 180.583984 287.048906 
L 180.583984 5.318906 
" style="fill:none;stroke:#cccccc;stroke-linecap:round;stroke-width:0.8;"/>
     </g>
     <g id="line2d_6">
      <g>
       <use style="stroke:#000000;" x="180.583984" xlink:href="#mc95797945a" y="287.048906"/>
      </g>
     </g>
     <g id="text_3">
      <!-- $\mathdefault{10^{2}}$ -->
      <g transform="translate(168.263984 305.986719)scale(0.14 -0.14)">
       <defs>
        <path d="M 1228 531 
L 3431 531 
L 3431 0 
L 469 0 
L 469 531 
Q 828 903 1448 1529 
Q 2069 2156 2228 2338 
Q 2531 2678 2651 2914 
Q 2772 3150 2772 3378 
Q 2772 3750 2511 3984 
Q 2250 4219 1831 4219 
Q 1534 4219 1204 4116 
Q 875 4013 500 3803 
L 500 4441 
Q 881 4594 1212 4672 
Q 1544 4750 1819 4750 
Q 2544 4750 2975 4387 
Q 3406 4025 3406 3419 
Q 3406 3131 3298 2873 
Q 3191 2616 2906 2266 
Q 2828 2175 2409 1742 
Q 1991 1309 1228 531 
z
" id="DejaVuSans-32" transform="scale(0.015625)"/>
       </defs>
       <use transform="translate(0 0.765625)" xlink:href="#DejaVuSans-31"/>
       <use transform="translate(63.623047 0.765625)" xlink:href="#DejaVuSans-30"/>
       <use transform="translate(128.203125 39.046875)scale(0.7)" xlink:href="#DejaVuSans-32"/>
      </g>
     </g>
    </g>
    <g id="xtick_4">
     <g id="line2d_7">
      <path clip-path="url(#p52aab5f75c)" d="M 240.513347 287.048906 
L 240.513347 5.318906 
" style="fill:none;stroke:#cccccc;stroke-linecap:round;stroke-width:0.8;"/>
     </g>
     <g id="line2d_8">
      <g>
       <use style="stroke:#000000;" x="240.513347" xlink:href="#mc95797945a" y="287.048906"/>
      </g>
     </g>
     <g id="text_4">
      <!-- $\mathdefault{10^{3}}$ -->
      <g transform="translate(228.193347 305.986719)scale(0.14 -0.14)">
       <defs>
        <path d="M 2597 2516 
Q 3050 2419 3304 2112 
Q 3559 1806 3559 1356 
Q 3559 666 3084 287 
Q 2609 -91 1734 -91 
Q 1441 -91 1130 -33 
Q 819 25 488 141 
L 488 750 
Q 750 597 1062 519 
Q 1375 441 1716 441 
Q 2309 441 2620 675 
Q 2931 909 2931 1356 
Q 2931 1769 2642 2001 
Q 2353 2234 1838 2234 
L 1294 2234 
L 1294 2753 
L 1863 2753 
Q 2328 2753 2575 2939 
Q 2822 3125 2822 3475 
Q 2822 3834 2567 4026 
Q 2313 4219 1838 4219 
Q 1578 4219 1281 4162 
Q 984 4106 628 3988 
L 628 4550 
Q 988 4650 1302 4700 
Q 1616 4750 1894 4750 
Q 2613 4750 3031 4423 
Q 3450 4097 3450 3541 
Q 3450 3153 3228 2886 
Q 3006 2619 2597 2516 
z
" id="DejaVuSans-33" transform="scale(0.015625)"/>
       </defs>
       <use transform="translate(0 0.765625)" xlink:href="#DejaVuSans-31"/>
       <use transform="translate(63.623047 0.765625)" xlink:href="#DejaVuSans-30"/>
       <use transform="translate(128.203125 39.046875)scale(0.7)" xlink:href="#DejaVuSans-33"/>
      </g>
     </g>
    </g>
    <g id="xtick_5">
     <g id="line2d_9">
      <path clip-path="url(#p52aab5f75c)" d="M 300.44271 287.048906 
L 300.44271 5.318906 
" style="fill:none;stroke:#cccccc;stroke-linecap:round;stroke-width:0.8;"/>
     </g>
     <g id="line2d_10">
      <g>
       <use style="stroke:#000000;" x="300.44271" xlink:href="#mc95797945a" y="287.048906"/>
      </g>
     </g>
     <g id="text_5">
      <!-- $\mathdefault{10^{4}}$ -->
      <g transform="translate(288.12271 305.986719)scale(0.14 -0.14)">
       <defs>
        <path d="M 2419 4116 
L 825 1625 
L 2419 1625 
L 2419 4116 
z
M 2253 4666 
L 3047 4666 
L 3047 1625 
L 3713 1625 
L 3713 1100 
L 3047 1100 
L 3047 0 
L 2419 0 
L 2419 1100 
L 313 1100 
L 313 1709 
L 2253 4666 
z
" id="DejaVuSans-34" transform="scale(0.015625)"/>
       </defs>
       <use transform="translate(0 0.684375)" xlink:href="#DejaVuSans-31"/>
       <use transform="translate(63.623047 0.684375)" xlink:href="#DejaVuSans-30"/>
       <use transform="translate(128.203125 38.965625)scale(0.7)" xlink:href="#DejaVuSans-34"/>
      </g>
     </g>
    </g>
    <g id="xtick_6">
     <g id="line2d_11">
      <defs>
       <path d="M 0 0 
L 0 3.2 
" id="m04ac6b3a96" style="stroke:#000000;stroke-width:0.8;"/>
      </defs>
      <g>
       <use style="stroke:#000000;stroke-width:0.8;" x="51.442082" xlink:href="#m04ac6b3a96" y="287.048906"/>
      </g>
     </g>
    </g>
    <g id="xtick_7">
     <g id="line2d_12">
      <g>
       <use style="stroke:#000000;stroke-width:0.8;" x="54.917502" xlink:href="#m04ac6b3a96" y="287.048906"/>
      </g>
     </g>
    </g>
    <g id="xtick_8">
     <g id="line2d_13">
      <g>
       <use style="stroke:#000000;stroke-width:0.8;" x="57.98304" xlink:href="#m04ac6b3a96" y="287.048906"/>
      </g>
     </g>
    </g>
    <g id="xtick_9">
     <g id="line2d_14">
      <g>
       <use style="stroke:#000000;stroke-width:0.8;" x="78.765793" xlink:href="#m04ac6b3a96" y="287.048906"/>
      </g>
     </g>
    </g>
    <g id="xtick_10">
     <g id="line2d_15">
      <g>
       <use style="stroke:#000000;stroke-width:0.8;" x="89.31883" xlink:href="#m04ac6b3a96" y="287.048906"/>
      </g>
     </g>
    </g>
    <g id="xtick_11">
     <g id="line2d_16">
      <g>
       <use style="stroke:#000000;stroke-width:0.8;" x="96.806329" xlink:href="#m04ac6b3a96" y="287.048906"/>
      </g>
     </g>
    </g>
    <g id="xtick_12">
     <g id="line2d_17">
      <g>
       <use style="stroke:#000000;stroke-width:0.8;" x="102.614085" xlink:href="#m04ac6b3a96" y="287.048906"/>
      </g>
     </g>
    </g>
    <g id="xtick_13">
     <g id="line2d_18">
      <g>
       <use style="stroke:#000000;stroke-width:0.8;" x="107.359366" xlink:href="#m04ac6b3a96" y="287.048906"/>
      </g>
     </g>
    </g>
    <g id="xtick_14">
     <g id="line2d_19">
      <g>
       <use style="stroke:#000000;stroke-width:0.8;" x="111.371445" xlink:href="#m04ac6b3a96" y="287.048906"/>
      </g>
     </g>
    </g>
    <g id="xtick_15">
     <g id="line2d_20">
      <g>
       <use style="stroke:#000000;stroke-width:0.8;" x="114.846865" xlink:href="#m04ac6b3a96" y="287.048906"/>
      </g>
     </g>
    </g>
    <g id="xtick_16">
     <g id="line2d_21">
      <g>
       <use style="stroke:#000000;stroke-width:0.8;" x="117.912403" xlink:href="#m04ac6b3a96" y="287.048906"/>
      </g>
     </g>
    </g>
    <g id="xtick_17">
     <g id="line2d_22">
      <g>
       <use style="stroke:#000000;stroke-width:0.8;" x="138.695156" xlink:href="#m04ac6b3a96" y="287.048906"/>
      </g>
     </g>
    </g>
    <g id="xtick_18">
     <g id="line2d_23">
      <g>
       <use style="stroke:#000000;stroke-width:0.8;" x="149.248193" xlink:href="#m04ac6b3a96" y="287.048906"/>
      </g>
     </g>
    </g>
    <g id="xtick_19">
     <g id="line2d_24">
      <g>
       <use style="stroke:#000000;stroke-width:0.8;" x="156.735692" xlink:href="#m04ac6b3a96" y="287.048906"/>
      </g>
     </g>
    </g>
    <g id="xtick_20">
     <g id="line2d_25">
      <g>
       <use style="stroke:#000000;stroke-width:0.8;" x="162.543448" xlink:href="#m04ac6b3a96" y="287.048906"/>
      </g>
     </g>
    </g>
    <g id="xtick_21">
     <g id="line2d_26">
      <g>
       <use style="stroke:#000000;stroke-width:0.8;" x="167.288729" xlink:href="#m04ac6b3a96" y="287.048906"/>
      </g>
     </g>
    </g>
    <g id="xtick_22">
     <g id="line2d_27">
      <g>
       <use style="stroke:#000000;stroke-width:0.8;" x="171.300808" xlink:href="#m04ac6b3a96" y="287.048906"/>
      </g>
     </g>
    </g>
    <g id="xtick_23">
     <g id="line2d_28">
      <g>
       <use style="stroke:#000000;stroke-width:0.8;" x="174.776228" xlink:href="#m04ac6b3a96" y="287.048906"/>
      </g>
     </g>
    </g>
    <g id="xtick_24">
     <g id="line2d_29">
      <g>
       <use style="stroke:#000000;stroke-width:0.8;" x="177.841766" xlink:href="#m04ac6b3a96" y="287.048906"/>
      </g>
     </g>
    </g>
    <g id="xtick_25">
     <g id="line2d_30">
      <g>
       <use style="stroke:#000000;stroke-width:0.8;" x="198.624519" xlink:href="#m04ac6b3a96" y="287.048906"/>
      </g>
     </g>
    </g>
    <g id="xtick_26">
     <g id="line2d_31">
      <g>
       <use style="stroke:#000000;stroke-width:0.8;" x="209.177556" xlink:href="#m04ac6b3a96" y="287.048906"/>
      </g>
     </g>
    </g>
    <g id="xtick_27">
     <g id="line2d_32">
      <g>
       <use style="stroke:#000000;stroke-width:0.8;" x="216.665055" xlink:href="#m04ac6b3a96" y="287.048906"/>
      </g>
     </g>
    </g>
    <g id="xtick_28">
     <g id="line2d_33">
      <g>
       <use style="stroke:#000000;stroke-width:0.8;" x="222.472811" xlink:href="#m04ac6b3a96" y="287.048906"/>
      </g>
     </g>
    </g>
    <g id="xtick_29">
     <g id="line2d_34">
      <g>
       <use style="stroke:#000000;stroke-width:0.8;" x="227.218092" xlink:href="#m04ac6b3a96" y="287.048906"/>
      </g>
     </g>
    </g>
    <g id="xtick_30">
     <g id="line2d_35">
      <g>
       <use style="stroke:#000000;stroke-width:0.8;" x="231.230171" xlink:href="#m04ac6b3a96" y="287.048906"/>
      </g>
     </g>
    </g>
    <g id="xtick_31">
     <g id="line2d_36">
      <g>
       <use style="stroke:#000000;stroke-width:0.8;" x="234.705591" xlink:href="#m04ac6b3a96" y="287.048906"/>
      </g>
     </g>
    </g>
    <g id="xtick_32">
     <g id="line2d_37">
      <g>
       <use style="stroke:#000000;stroke-width:0.8;" x="237.771129" xlink:href="#m04ac6b3a96" y="287.048906"/>
      </g>
     </g>
    </g>
    <g id="xtick_33">
     <g id="line2d_38">
      <g>
       <use style="stroke:#000000;stroke-width:0.8;" x="258.553882" xlink:href="#m04ac6b3a96" y="287.048906"/>
      </g>
     </g>
    </g>
    <g id="xtick_34">
     <g id="line2d_39">
      <g>
       <use style="stroke:#000000;stroke-width:0.8;" x="269.106919" xlink:href="#m04ac6b3a96" y="287.048906"/>
      </g>
     </g>
    </g>
    <g id="xtick_35">
     <g id="line2d_40">
      <g>
       <use style="stroke:#000000;stroke-width:0.8;" x="276.594418" xlink:href="#m04ac6b3a96" y="287.048906"/>
      </g>
     </g>
    </g>
    <g id="xtick_36">
     <g id="line2d_41">
      <g>
       <use style="stroke:#000000;stroke-width:0.8;" x="282.402174" xlink:href="#m04ac6b3a96" y="287.048906"/>
      </g>
     </g>
    </g>
    <g id="xtick_37">
     <g id="line2d_42">
      <g>
       <use style="stroke:#000000;stroke-width:0.8;" x="287.147455" xlink:href="#m04ac6b3a96" y="287.048906"/>
      </g>
     </g>
    </g>
    <g id="xtick_38">
     <g id="line2d_43">
      <g>
       <use style="stroke:#000000;stroke-width:0.8;" x="291.159534" xlink:href="#m04ac6b3a96" y="287.048906"/>
      </g>
     </g>
    </g>
    <g id="xtick_39">
     <g id="line2d_44">
      <g>
       <use style="stroke:#000000;stroke-width:0.8;" x="294.634954" xlink:href="#m04ac6b3a96" y="287.048906"/>
      </g>
     </g>
    </g>
    <g id="xtick_40">
     <g id="line2d_45">
      <g>
       <use style="stroke:#000000;stroke-width:0.8;" x="297.700492" xlink:href="#m04ac6b3a96" y="287.048906"/>
      </g>
     </g>
    </g>
    <g id="xtick_41">
     <g id="line2d_46">
      <g>
       <use style="stroke:#000000;stroke-width:0.8;" x="318.483246" xlink:href="#m04ac6b3a96" y="287.048906"/>
      </g>
     </g>
    </g>
    <g id="text_6">
     <!-- value -->
     <g style="fill:#262626;" transform="translate(167.719395 323.536094)scale(0.14 -0.14)">
      <defs>
       <path d="M 191 3500 
L 800 3500 
L 1894 563 
L 2988 3500 
L 3597 3500 
L 2284 0 
L 1503 0 
L 191 3500 
z
" id="DejaVuSans-76" transform="scale(0.015625)"/>
       <path d="M 2194 1759 
Q 1497 1759 1228 1600 
Q 959 1441 959 1056 
Q 959 750 1161 570 
Q 1363 391 1709 391 
Q 2188 391 2477 730 
Q 2766 1069 2766 1631 
L 2766 1759 
L 2194 1759 
z
M 3341 1997 
L 3341 0 
L 2766 0 
L 2766 531 
Q 2569 213 2275 61 
Q 1981 -91 1556 -91 
Q 1019 -91 701 211 
Q 384 513 384 1019 
Q 384 1609 779 1909 
Q 1175 2209 1959 2209 
L 2766 2209 
L 2766 2266 
Q 2766 2663 2505 2880 
Q 2244 3097 1772 3097 
Q 1472 3097 1187 3025 
Q 903 2953 641 2809 
L 641 3341 
Q 956 3463 1253 3523 
Q 1550 3584 1831 3584 
Q 2591 3584 2966 3190 
Q 3341 2797 3341 1997 
z
" id="DejaVuSans-61" transform="scale(0.015625)"/>
       <path d="M 603 4863 
L 1178 4863 
L 1178 0 
L 603 0 
L 603 4863 
z
" id="DejaVuSans-6c" transform="scale(0.015625)"/>
       <path d="M 544 1381 
L 544 3500 
L 1119 3500 
L 1119 1403 
Q 1119 906 1312 657 
Q 1506 409 1894 409 
Q 2359 409 2629 706 
Q 2900 1003 2900 1516 
L 2900 3500 
L 3475 3500 
L 3475 0 
L 2900 0 
L 2900 538 
Q 2691 219 2414 64 
Q 2138 -91 1772 -91 
Q 1169 -91 856 284 
Q 544 659 544 1381 
z
M 1991 3584 
L 1991 3584 
z
" id="DejaVuSans-75" transform="scale(0.015625)"/>
       <path d="M 3597 1894 
L 3597 1613 
L 953 1613 
Q 991 1019 1311 708 
Q 1631 397 2203 397 
Q 2534 397 2845 478 
Q 3156 559 3463 722 
L 3463 178 
Q 3153 47 2828 -22 
Q 2503 -91 2169 -91 
Q 1331 -91 842 396 
Q 353 884 353 1716 
Q 353 2575 817 3079 
Q 1281 3584 2069 3584 
Q 2775 3584 3186 3129 
Q 3597 2675 3597 1894 
z
M 3022 2063 
Q 3016 2534 2758 2815 
Q 2500 3097 2075 3097 
Q 1594 3097 1305 2825 
Q 1016 2553 972 2059 
L 3022 2063 
z
" id="DejaVuSans-65" transform="scale(0.015625)"/>
      </defs>
      <use xlink:href="#DejaVuSans-76"/>
      <use x="59.179688" xlink:href="#DejaVuSans-61"/>
      <use x="120.458984" xlink:href="#DejaVuSans-6c"/>
      <use x="148.242188" xlink:href="#DejaVuSans-75"/>
      <use x="211.621094" xlink:href="#DejaVuSans-65"/>
     </g>
    </g>
   </g>
   <g id="matplotlib.axis_2">
    <g id="ytick_1">
     <g id="line2d_47">
      <path clip-path="url(#p52aab5f75c)" d="M 48.11375 287.048906 
L 325.566915 287.048906 
" style="fill:none;stroke:#cccccc;stroke-linecap:round;stroke-width:0.8;"/>
     </g>
     <g id="line2d_48">
      <defs>
       <path d="M 0 0 
L -4.8 0 
" id="m82598c0f21" style="stroke:#000000;"/>
      </defs>
      <g>
       <use style="stroke:#000000;" x="48.11375" xlink:href="#m82598c0f21" y="287.048906"/>
      </g>
     </g>
     <g id="text_7">
      <!-- 0.0 -->
      <g transform="translate(17.549375 292.367812)scale(0.14 -0.14)">
       <defs>
        <path d="M 684 794 
L 1344 794 
L 1344 0 
L 684 0 
L 684 794 
z
" id="DejaVuSans-2e" transform="scale(0.015625)"/>
       </defs>
       <use xlink:href="#DejaVuSans-30"/>
       <use x="63.623047" xlink:href="#DejaVuSans-2e"/>
       <use x="95.410156" xlink:href="#DejaVuSans-30"/>
      </g>
     </g>
    </g>
    <g id="ytick_2">
     <g id="line2d_49">
      <path clip-path="url(#p52aab5f75c)" d="M 48.11375 230.702906 
L 325.566915 230.702906 
" style="fill:none;stroke:#cccccc;stroke-linecap:round;stroke-width:0.8;"/>
     </g>
     <g id="line2d_50">
      <g>
       <use style="stroke:#000000;" x="48.11375" xlink:href="#m82598c0f21" y="230.702906"/>
      </g>
     </g>
     <g id="text_8">
      <!-- 0.2 -->
      <g transform="translate(17.549375 236.021812)scale(0.14 -0.14)">
       <use xlink:href="#DejaVuSans-30"/>
       <use x="63.623047" xlink:href="#DejaVuSans-2e"/>
       <use x="95.410156" xlink:href="#DejaVuSans-32"/>
      </g>
     </g>
    </g>
    <g id="ytick_3">
     <g id="line2d_51">
      <path clip-path="url(#p52aab5f75c)" d="M 48.11375 174.356906 
L 325.566915 174.356906 
" style="fill:none;stroke:#cccccc;stroke-linecap:round;stroke-width:0.8;"/>
     </g>
     <g id="line2d_52">
      <g>
       <use style="stroke:#000000;" x="48.11375" xlink:href="#m82598c0f21" y="174.356906"/>
      </g>
     </g>
     <g id="text_9">
      <!-- 0.4 -->
      <g transform="translate(17.549375 179.675812)scale(0.14 -0.14)">
       <use xlink:href="#DejaVuSans-30"/>
       <use x="63.623047" xlink:href="#DejaVuSans-2e"/>
       <use x="95.410156" xlink:href="#DejaVuSans-34"/>
      </g>
     </g>
    </g>
    <g id="ytick_4">
     <g id="line2d_53">
      <path clip-path="url(#p52aab5f75c)" d="M 48.11375 118.010906 
L 325.566915 118.010906 
" style="fill:none;stroke:#cccccc;stroke-linecap:round;stroke-width:0.8;"/>
     </g>
     <g id="line2d_54">
      <g>
       <use style="stroke:#000000;" x="48.11375" xlink:href="#m82598c0f21" y="118.010906"/>
      </g>
     </g>
     <g id="text_10">
      <!-- 0.6 -->
      <g transform="translate(17.549375 123.329812)scale(0.14 -0.14)">
       <defs>
        <path d="M 2113 2584 
Q 1688 2584 1439 2293 
Q 1191 2003 1191 1497 
Q 1191 994 1439 701 
Q 1688 409 2113 409 
Q 2538 409 2786 701 
Q 3034 994 3034 1497 
Q 3034 2003 2786 2293 
Q 2538 2584 2113 2584 
z
M 3366 4563 
L 3366 3988 
Q 3128 4100 2886 4159 
Q 2644 4219 2406 4219 
Q 1781 4219 1451 3797 
Q 1122 3375 1075 2522 
Q 1259 2794 1537 2939 
Q 1816 3084 2150 3084 
Q 2853 3084 3261 2657 
Q 3669 2231 3669 1497 
Q 3669 778 3244 343 
Q 2819 -91 2113 -91 
Q 1303 -91 875 529 
Q 447 1150 447 2328 
Q 447 3434 972 4092 
Q 1497 4750 2381 4750 
Q 2619 4750 2861 4703 
Q 3103 4656 3366 4563 
z
" id="DejaVuSans-36" transform="scale(0.015625)"/>
       </defs>
       <use xlink:href="#DejaVuSans-30"/>
       <use x="63.623047" xlink:href="#DejaVuSans-2e"/>
       <use x="95.410156" xlink:href="#DejaVuSans-36"/>
      </g>
     </g>
    </g>
    <g id="ytick_5">
     <g id="line2d_55">
      <path clip-path="url(#p52aab5f75c)" d="M 48.11375 61.664906 
L 325.566915 61.664906 
" style="fill:none;stroke:#cccccc;stroke-linecap:round;stroke-width:0.8;"/>
     </g>
     <g id="line2d_56">
      <g>
       <use style="stroke:#000000;" x="48.11375" xlink:href="#m82598c0f21" y="61.664906"/>
      </g>
     </g>
     <g id="text_11">
      <!-- 0.8 -->
      <g transform="translate(17.549375 66.983812)scale(0.14 -0.14)">
       <defs>
        <path d="M 2034 2216 
Q 1584 2216 1326 1975 
Q 1069 1734 1069 1313 
Q 1069 891 1326 650 
Q 1584 409 2034 409 
Q 2484 409 2743 651 
Q 3003 894 3003 1313 
Q 3003 1734 2745 1975 
Q 2488 2216 2034 2216 
z
M 1403 2484 
Q 997 2584 770 2862 
Q 544 3141 544 3541 
Q 544 4100 942 4425 
Q 1341 4750 2034 4750 
Q 2731 4750 3128 4425 
Q 3525 4100 3525 3541 
Q 3525 3141 3298 2862 
Q 3072 2584 2669 2484 
Q 3125 2378 3379 2068 
Q 3634 1759 3634 1313 
Q 3634 634 3220 271 
Q 2806 -91 2034 -91 
Q 1263 -91 848 271 
Q 434 634 434 1313 
Q 434 1759 690 2068 
Q 947 2378 1403 2484 
z
M 1172 3481 
Q 1172 3119 1398 2916 
Q 1625 2713 2034 2713 
Q 2441 2713 2670 2916 
Q 2900 3119 2900 3481 
Q 2900 3844 2670 4047 
Q 2441 4250 2034 4250 
Q 1625 4250 1398 4047 
Q 1172 3844 1172 3481 
z
" id="DejaVuSans-38" transform="scale(0.015625)"/>
       </defs>
       <use xlink:href="#DejaVuSans-30"/>
       <use x="63.623047" xlink:href="#DejaVuSans-2e"/>
       <use x="95.410156" xlink:href="#DejaVuSans-38"/>
      </g>
     </g>
    </g>
    <g id="ytick_6">
     <g id="line2d_57">
      <path clip-path="url(#p52aab5f75c)" d="M 48.11375 5.318906 
L 325.566915 5.318906 
" style="fill:none;stroke:#cccccc;stroke-linecap:round;stroke-width:0.8;"/>
     </g>
     <g id="line2d_58">
      <g>
       <use style="stroke:#000000;" x="48.11375" xlink:href="#m82598c0f21" y="5.318906"/>
      </g>
     </g>
     <g id="text_12">
      <!-- 1.0 -->
      <g transform="translate(17.549375 10.637812)scale(0.14 -0.14)">
       <use xlink:href="#DejaVuSans-31"/>
       <use x="63.623047" xlink:href="#DejaVuSans-2e"/>
       <use x="95.410156" xlink:href="#DejaVuSans-30"/>
      </g>
     </g>
    </g>
    <g id="text_13">
     <!-- Proportion -->
     <g style="fill:#262626;" transform="translate(10.637812 182.298437)rotate(-90)scale(0.14 -0.14)">
      <defs>
       <path d="M 1259 4147 
L 1259 2394 
L 2053 2394 
Q 2494 2394 2734 2622 
Q 2975 2850 2975 3272 
Q 2975 3691 2734 3919 
Q 2494 4147 2053 4147 
L 1259 4147 
z
M 628 4666 
L 2053 4666 
Q 2838 4666 3239 4311 
Q 3641 3956 3641 3272 
Q 3641 2581 3239 2228 
Q 2838 1875 2053 1875 
L 1259 1875 
L 1259 0 
L 628 0 
L 628 4666 
z
" id="DejaVuSans-50" transform="scale(0.015625)"/>
       <path d="M 2631 2963 
Q 2534 3019 2420 3045 
Q 2306 3072 2169 3072 
Q 1681 3072 1420 2755 
Q 1159 2438 1159 1844 
L 1159 0 
L 581 0 
L 581 3500 
L 1159 3500 
L 1159 2956 
Q 1341 3275 1631 3429 
Q 1922 3584 2338 3584 
Q 2397 3584 2469 3576 
Q 2541 3569 2628 3553 
L 2631 2963 
z
" id="DejaVuSans-72" transform="scale(0.015625)"/>
       <path d="M 1959 3097 
Q 1497 3097 1228 2736 
Q 959 2375 959 1747 
Q 959 1119 1226 758 
Q 1494 397 1959 397 
Q 2419 397 2687 759 
Q 2956 1122 2956 1747 
Q 2956 2369 2687 2733 
Q 2419 3097 1959 3097 
z
M 1959 3584 
Q 2709 3584 3137 3096 
Q 3566 2609 3566 1747 
Q 3566 888 3137 398 
Q 2709 -91 1959 -91 
Q 1206 -91 779 398 
Q 353 888 353 1747 
Q 353 2609 779 3096 
Q 1206 3584 1959 3584 
z
" id="DejaVuSans-6f" transform="scale(0.015625)"/>
       <path d="M 1159 525 
L 1159 -1331 
L 581 -1331 
L 581 3500 
L 1159 3500 
L 1159 2969 
Q 1341 3281 1617 3432 
Q 1894 3584 2278 3584 
Q 2916 3584 3314 3078 
Q 3713 2572 3713 1747 
Q 3713 922 3314 415 
Q 2916 -91 2278 -91 
Q 1894 -91 1617 61 
Q 1341 213 1159 525 
z
M 3116 1747 
Q 3116 2381 2855 2742 
Q 2594 3103 2138 3103 
Q 1681 3103 1420 2742 
Q 1159 2381 1159 1747 
Q 1159 1113 1420 752 
Q 1681 391 2138 391 
Q 2594 391 2855 752 
Q 3116 1113 3116 1747 
z
" id="DejaVuSans-70" transform="scale(0.015625)"/>
       <path d="M 1172 4494 
L 1172 3500 
L 2356 3500 
L 2356 3053 
L 1172 3053 
L 1172 1153 
Q 1172 725 1289 603 
Q 1406 481 1766 481 
L 2356 481 
L 2356 0 
L 1766 0 
Q 1100 0 847 248 
Q 594 497 594 1153 
L 594 3053 
L 172 3053 
L 172 3500 
L 594 3500 
L 594 4494 
L 1172 4494 
z
" id="DejaVuSans-74" transform="scale(0.015625)"/>
       <path d="M 603 3500 
L 1178 3500 
L 1178 0 
L 603 0 
L 603 3500 
z
M 603 4863 
L 1178 4863 
L 1178 4134 
L 603 4134 
L 603 4863 
z
" id="DejaVuSans-69" transform="scale(0.015625)"/>
       <path d="M 3513 2113 
L 3513 0 
L 2938 0 
L 2938 2094 
Q 2938 2591 2744 2837 
Q 2550 3084 2163 3084 
Q 1697 3084 1428 2787 
Q 1159 2491 1159 1978 
L 1159 0 
L 581 0 
L 581 3500 
L 1159 3500 
L 1159 2956 
Q 1366 3272 1645 3428 
Q 1925 3584 2291 3584 
Q 2894 3584 3203 3211 
Q 3513 2838 3513 2113 
z
" id="DejaVuSans-6e" transform="scale(0.015625)"/>
      </defs>
      <use xlink:href="#DejaVuSans-50"/>
      <use x="58.552734" xlink:href="#DejaVuSans-72"/>
      <use x="97.416016" xlink:href="#DejaVuSans-6f"/>
      <use x="158.597656" xlink:href="#DejaVuSans-70"/>
      <use x="222.074219" xlink:href="#DejaVuSans-6f"/>
      <use x="283.255859" xlink:href="#DejaVuSans-72"/>
      <use x="324.369141" xlink:href="#DejaVuSans-74"/>
      <use x="363.578125" xlink:href="#DejaVuSans-69"/>
      <use x="391.361328" xlink:href="#DejaVuSans-6f"/>
      <use x="452.542969" xlink:href="#DejaVuSans-6e"/>
     </g>
    </g>
   </g>
   <g id="line2d_59">
    <path clip-path="url(#p52aab5f75c)" d="M -1 172.950859 
L 60.725257 172.950859 
L 60.725257 172.841523 
L 60.725257 126.501834 
L 78.765793 126.501834 
L 78.765793 126.392498 
L 78.765793 95.385184 
L 89.318828 95.385184 
L 89.318828 95.275848 
L 89.318828 72.701887 
L 96.806332 72.701887 
L 96.806332 72.592551 
L 96.806332 56.472973 
L 102.614085 56.472973 
L 102.614085 56.363638 
L 102.614085 44.86891 
L 107.359368 44.86891 
L 107.359368 44.759574 
L 107.359368 36.665159 
L 111.371443 36.665159 
L 111.371443 36.555824 
L 111.371443 30.997987 
L 114.846865 30.997987 
L 114.846865 30.888652 
L 114.846865 26.759447 
L 117.912403 26.759447 
L 117.912403 26.650112 
L 117.912403 23.836559 
L 120.654621 23.836559 
L 120.654621 23.727223 
L 120.654621 21.715458 
L 123.135258 21.715458 
L 123.135258 21.60614 
L 123.135258 20.217575 
L 125.3999 20.217575 
L 125.3999 20.108239 
L 125.3999 19.011258 
L 127.483173 19.011258 
L 127.483173 18.901923 
L 127.483173 18.038171 
L 129.411982 18.038171 
L 129.411982 17.928836 
L 129.411982 17.407683 
L 131.207661 17.407683 
L 131.207661 17.298348 
L 131.207661 16.88287 
L 132.887404 16.88287 
L 132.887404 16.773534 
L 132.887404 16.427308 
L 134.465281 16.427308 
L 134.465281 16.317973 
L 134.465281 16.015491 
L 135.952939 16.015491 
L 135.952939 15.906155 
L 135.952939 15.698416 
L 137.360149 15.698416 
L 137.360149 15.589081 
L 137.360149 15.44695 
L 138.695159 15.44695 
L 138.695159 15.337615 
L 138.695159 15.253787 
L 139.965015 15.253787 
L 139.965015 15.144451 
L 139.965015 15.0752 
L 141.175796 15.0752 
L 141.175796 14.965864 
L 141.175796 14.918493 
L 143.440438 14.834665 
L 143.440438 14.809157 
L 143.440438 14.699822 
L 144.502914 14.699822 
L 144.502914 14.590486 
L 144.502914 14.583199 
L 146.50598 14.488439 
L 146.50598 14.473863 
L 146.50598 14.404611 
L 149.248192 14.298936 
L 149.248192 14.295293 
L 149.248192 14.240616 
L 150.927935 14.149501 
L 150.927935 14.131281 
L 150.927935 14.091197 
L 152.505811 14.011014 
L 152.505811 13.981862 
L 152.505811 13.956354 
L 154.706591 13.861595 
L 154.706591 13.847019 
L 154.706591 13.817851 
L 157.378369 13.715803 
L 157.378369 13.708515 
L 157.378369 13.683007 
L 159.801233 13.595536 
L 159.801233 13.573672 
L 159.801233 13.566384 
L 162.01763 13.460693 
L 162.01763 13.457049 
L 162.01763 13.431541 
L 165.024081 13.32585 
L 165.024081 13.322206 
L 165.024081 13.311274 
L 168.558587 13.205582 
L 168.558587 13.201938 
L 168.558587 13.191006 
L 171.669994 13.092603 
L 171.669994 13.081671 
L 171.669994 13.074383 
L 175.734385 12.968692 
L 175.734385 12.965048 
L 175.734385 12.961404 
L 179.79122 12.859356 
L 179.79122 12.852068 
L 179.79122 12.848424 
L 182.344927 12.742733 
L 182.344927 12.739089 
L 182.344927 12.720869 
L 184.670315 12.611534 
L 184.670315 12.60789 
L 188.006328 12.498554 
L 188.006328 12.487622 
L 190.433548 12.381931 
L 190.433548 12.378287 
L 190.433548 12.363711 
L 192.978932 12.254376 
L 192.978932 12.232495 
L 194.999951 12.126821 
L 194.999951 12.123177 
L 194.999951 12.115872 
L 197.831758 12.006553 
L 197.831758 11.988317 
L 200.141086 11.886269 
L 200.141086 11.878981 
L 200.141086 11.875337 
L 202.599385 11.77329 
L 202.599385 11.766002 
L 202.599385 11.762358 
L 204.32795 11.653023 
L 204.432284 11.634803 
L 206.046872 11.532755 
L 206.046872 11.525467 
L 206.144535 11.507248 
L 207.933712 11.397912 
L 208.024557 11.379692 
L 209.264164 11.281289 
L 209.264164 11.270357 
L 209.350494 11.255781 
L 211.019462 11.146446 
L 211.100164 11.120938 
L 212.815142 11.018891 
L 212.815142 11.011603 
L 212.890471 11.000671 
L 214.067039 10.894979 
L 214.067039 10.891335 
L 214.138838 10.873116 
L 215.192697 10.771068 
L 215.192697 10.76378 
L 215.261467 10.749204 
L 216.271691 10.647157 
L 216.271691 10.639869 
L 216.337674 10.632564 
L 217.24418 10.52689 
L 217.24418 10.523246 
L 217.307734 10.515941 
L 218.242928 10.406622 
L 218.304096 10.388386 
L 219.322551 10.282694 
L 219.322551 10.27905 
L 219.381233 10.264474 
L 220.639929 10.162427 
L 220.639929 10.155139 
L 220.695711 10.136919 
L 221.733655 10.031228 
L 221.733655 10.027584 
L 221.840545 10.002076 
L 222.368497 9.896385 
L 222.368497 9.892741 
L 222.472815 9.874521 
L 223.443505 9.768829 
L 223.443505 9.765186 
L 223.543606 9.754254 
L 224.475875 9.648562 
L 224.475875 9.644918 
L 224.57209 9.619411 
L 225.422415 9.513719 
L 225.422415 9.510075 
L 225.515203 9.488195 
L 226.335737 9.38252 
L 226.335737 9.378876 
L 226.425336 9.364283 
L 227.174673 9.258592 
L 227.174673 9.254948 
L 227.261429 9.22944 
L 228.197141 9.127393 
L 228.197141 9.120105 
L 228.280569 9.098241 
L 228.897838 8.996194 
L 228.897838 8.988906 
L 228.979038 8.963398 
L 229.698725 8.857707 
L 229.698725 8.854063 
L 229.73813 8.843131 
L 230.475719 8.733795 
L 230.552148 8.715576 
L 231.192963 8.609884 
L 231.192963 8.60624 
L 231.230169 8.598952 
L 232.250966 8.493261 
L 232.250966 8.489617 
L 232.358 8.475041 
L 233.198779 8.365706 
L 233.301999 8.343825 
L 234.079993 8.249082 
L 234.079993 8.234506 
L 234.179769 8.219914 
L 234.964566 8.114222 
L 234.964566 8.110578 
L 235.061026 8.081427 
L 235.851226 7.972091 
L 235.944442 7.961159 
L 236.828873 7.8664 
L 236.828873 7.851824 
L 236.888768 7.837248 
L 237.655192 7.731557 
L 237.655192 7.727913 
L 237.742193 7.709693 
L 238.427915 7.604002 
L 238.427915 7.600358 
L 238.427915 7.596714 
L 239.369413 7.487378 
L 239.423751 7.476446 
L 240.304295 7.367111 
L 240.409028 7.337959 
L 241.408706 7.228624 
L 241.509112 7.195811 
L 242.322898 7.086476 
L 242.41983 7.0719 
L 243.555734 6.962565 
L 243.625119 6.951633 
L 244.931238 6.842297 
L 245.018953 6.831366 
L 246.279423 6.72203 
L 246.279423 6.718386 
L 247.896526 6.609051 
L 247.916115 6.598119 
L 249.307864 6.488784 
L 249.400511 6.470564 
L 251.049033 6.361228 
L 251.11839 6.346653 
L 252.582952 6.237317 
L 252.680984 6.219097 
L 254.59814 6.113406 
L 254.59814 6.109762 
L 254.59814 6.106118 
L 256.998771 5.996783 
L 257.053967 5.989495 
L 259.120266 5.880159 
L 259.209253 5.869227 
L 262.405582 5.759892 
L 262.484038 5.752604 
L 267.02148 5.643269 
L 267.02148 5.639625 
L 270.672549 5.530289 
L 270.68888 5.523001 
L 281.241913 5.413666 
L 281.350548 5.406378 
L 312.955407 5.32255 
L 312.955407 5.318906 
" style="fill:none;stroke:#ff7f0e;stroke-linecap:round;stroke-width:1.5;"/>
   </g>
   <g id="line2d_60">
    <path clip-path="url(#p52aab5f75c)" d="M -1 128.983736 
L 60.725257 128.983736 
L 60.725257 128.874401 
L 60.725257 97.025198 
L 78.765793 97.025198 
L 78.765793 96.915863 
L 78.765793 76.608777 
L 89.318828 76.608777 
L 89.318828 76.499441 
L 89.318828 60.649549 
L 96.806332 60.649549 
L 96.806332 60.540214 
L 96.806332 48.353051 
L 102.614085 48.353051 
L 102.614085 48.243715 
L 102.614085 39.249109 
L 107.359368 39.249109 
L 107.359368 39.139774 
L 107.359368 32.561462 
L 111.371443 32.561462 
L 111.371443 32.452127 
L 111.371443 27.900173 
L 114.846865 27.900173 
L 114.846865 27.790837 
L 114.846865 24.492571 
L 117.912403 24.492571 
L 117.912403 24.383236 
L 117.912403 21.948722 
L 120.654621 21.948722 
L 120.654621 21.839386 
L 120.654621 20.195711 
L 123.135258 20.195711 
L 123.135258 20.086376 
L 123.135258 18.814451 
L 125.3999 18.814451 
L 125.3999 18.705115 
L 125.3999 17.80128 
L 127.483173 17.80128 
L 127.483173 17.691945 
L 127.483173 17.025001 
L 129.411982 17.025001 
L 129.411982 16.915665 
L 129.411982 16.489272 
L 131.207661 16.489272 
L 131.207661 16.379937 
L 131.207661 16.037355 
L 132.887404 16.037355 
L 132.887404 15.928019 
L 132.887404 15.70206 
L 134.465281 15.70206 
L 134.465281 15.592725 
L 134.465281 15.374054 
L 135.952939 15.374054 
L 135.952939 15.264719 
L 135.952939 15.082487 
L 137.360149 15.082487 
L 137.360149 14.973152 
L 137.360149 14.885697 
L 138.695159 14.885697 
L 138.695159 14.776362 
L 138.695159 14.718042 
L 139.965015 14.718042 
L 139.965015 14.608706 
L 139.965015 14.543115 
L 141.175796 14.543115 
L 141.175796 14.43378 
L 141.175796 14.422848 
L 143.440438 14.331732 
L 143.440438 14.313512 
L 143.440438 14.196889 
L 145.523711 14.109417 
L 145.523711 14.087554 
L 145.523711 14.029233 
L 148.365841 13.919898 
L 148.365841 13.861595 
L 150.101617 13.803275 
L 150.101617 13.752259 
L 150.101617 13.730396 
L 151.728831 13.664788 
L 151.728831 13.62106 
L 151.728831 13.617416 
L 153.993478 13.515369 
L 153.993478 13.508081 
L 153.993478 13.482556 
L 157.378369 13.373221 
L 157.378369 13.336781 
L 160.933021 13.23109 
L 160.933021 13.227446 
L 160.933021 13.223802 
L 163.564243 13.125398 
L 163.564243 13.114467 
L 163.564243 13.107179 
L 168.142155 12.997843 
L 168.142155 12.97598 
L 173.096485 12.870288 
L 173.096485 12.866644 
L 173.096485 12.859356 
L 178.129358 12.753665 
L 178.129358 12.750021 
L 178.129358 12.742733 
L 181.604781 12.640685 
L 181.604781 12.633397 
L 181.604781 12.622466 
L 183.994252 12.520418 
L 183.994252 12.51313 
L 183.994252 12.505842 
L 187.611972 12.400151 
L 187.611972 12.396507 
L 187.611972 12.385575 
L 190.433548 12.27624 
L 190.433548 12.261664 
L 192.816762 12.155972 
L 192.816762 12.152328 
L 192.816762 12.14504 
L 195.149092 12.035705 
L 195.149092 12.032061 
L 197.831758 11.92637 
L 197.831758 11.922726 
L 197.831758 11.911794 
L 200.263566 11.802458 
L 200.263566 11.784239 
L 202.821853 11.682191 
L 202.821853 11.674903 
L 202.932357 11.66031 
L 204.74274 11.554636 
L 204.74274 11.550992 
L 204.845415 11.540043 
L 206.435342 11.430708 
L 206.53156 11.412488 
L 208.295204 11.303153 
L 208.384792 11.288577 
L 209.862514 11.179241 
L 209.946886 11.157378 
L 211.499979 11.048042 
L 211.499979 11.044398 
L 213.040483 10.942351 
L 213.040483 10.935063 
L 213.115168 10.927775 
L 214.281835 10.825727 
L 214.281835 10.818439 
L 214.353046 10.803864 
L 215.534715 10.694528 
L 215.534715 10.683596 
L 216.665061 10.577905 
L 216.665061 10.574261 
L 216.730044 10.563329 
L 217.560421 10.457638 
L 217.560421 10.453994 
L 217.623218 10.439418 
L 218.607808 10.330082 
L 218.66812 10.308219 
L 219.788364 10.202527 
L 219.788364 10.198883 
L 219.846016 10.184307 
L 221.027985 10.074972 
L 221.137804 10.053091 
L 222.053011 9.958349 
L 222.053011 9.943756 
L 222.158603 9.918248 
L 222.834666 9.808913 
L 222.937127 9.783405 
L 224.087405 9.67407 
L 224.185065 9.652206 
L 225.14205 9.546515 
L 225.14205 9.542871 
L 225.235838 9.513719 
L 225.974242 9.411672 
L 225.974242 9.404384 
L 226.065087 9.397096 
L 226.868732 9.291404 
L 226.868732 9.28776 
L 226.956518 9.280472 
L 227.605593 9.171137 
L 227.605593 9.156561 
L 228.487951 9.047226 
L 228.570451 9.032633 
L 229.100389 8.923315 
L 229.180961 8.89779 
L 230.012309 8.792099 
L 230.012309 8.788455 
L 230.090123 8.777523 
L 230.742268 8.671831 
L 230.742268 8.668187 
L 230.817925 8.64268 
L 231.854695 8.533344 
L 231.927194 8.515124 
L 232.746742 8.405789 
L 232.85176 8.383925 
L 233.812017 8.278234 
L 233.812017 8.27459 
L 233.912836 8.249082 
L 234.673043 8.143391 
L 234.673043 8.139747 
L 234.705591 8.132459 
L 235.443311 8.026767 
L 235.443311 8.023123 
L 235.474916 8.008548 
L 236.496928 7.902856 
L 236.496928 7.899212 
L 236.587886 7.88462 
L 237.186236 7.782589 
L 237.186236 7.775284 
L 237.27481 7.757064 
L 238.14438 7.647729 
L 238.201332 7.629509 
L 239.068516 7.520174 
L 239.150932 7.494666 
L 240.146396 7.388975 
L 240.146396 7.385331 
L 240.251771 7.356179 
L 241.079734 7.246844 
L 241.105195 7.232268 
L 242.029905 7.13022 
L 242.029905 7.122932 
L 242.103474 7.108357 
L 243.135558 6.999021 
L 243.206071 6.977157 
L 244.308869 6.867822 
L 244.376267 6.856873 
L 245.922459 6.747538 
L 245.943591 6.74025 
L 247.521458 6.630915 
L 247.600874 6.619983 
L 249.027901 6.510647 
L 249.121559 6.499715 
L 250.646591 6.39038 
L 250.752166 6.37216 
L 252.220316 6.262825 
L 252.270066 6.255537 
L 254.031482 6.146201 
L 254.108782 6.131626 
L 256.510713 6.02229 
L 256.510713 6.018646 
L 258.722509 5.909311 
L 258.799966 5.891091 
L 261.351995 5.781756 
L 261.456969 5.774468 
L 266.699923 5.665132 
L 266.804385 5.6542 
L 270.426305 5.544865 
L 270.533295 5.530289 
L 280.305447 5.420954 
L 280.305447 5.41731 
L 312.948949 5.32255 
L 312.948949 5.318906 
" style="fill:none;stroke:#1f77b4;stroke-linecap:round;stroke-width:1.5;"/>
   </g>
   <g id="patch_3">
    <path d="M 48.11375 287.048906 
L 48.11375 5.318906 
" style="fill:none;stroke:#000000;stroke-linecap:square;stroke-linejoin:miter;stroke-width:0.8;"/>
   </g>
   <g id="patch_4">
    <path d="M 48.11375 287.048906 
L 325.566915 287.048906 
" style="fill:none;stroke:#000000;stroke-linecap:square;stroke-linejoin:miter;stroke-width:0.8;"/>
   </g>
  </g>
  <g id="legend_1">
   <g id="text_14">
    <!-- variable -->
    <g style="fill:#262626;" transform="translate(349.89995 146.967403)scale(0.096 -0.096)">
     <defs>
      <path d="M 3116 1747 
Q 3116 2381 2855 2742 
Q 2594 3103 2138 3103 
Q 1681 3103 1420 2742 
Q 1159 2381 1159 1747 
Q 1159 1113 1420 752 
Q 1681 391 2138 391 
Q 2594 391 2855 752 
Q 3116 1113 3116 1747 
z
M 1159 2969 
Q 1341 3281 1617 3432 
Q 1894 3584 2278 3584 
Q 2916 3584 3314 3078 
Q 3713 2572 3713 1747 
Q 3713 922 3314 415 
Q 2916 -91 2278 -91 
Q 1894 -91 1617 61 
Q 1341 213 1159 525 
L 1159 0 
L 581 0 
L 581 4863 
L 1159 4863 
L 1159 2969 
z
" id="DejaVuSans-62" transform="scale(0.015625)"/>
     </defs>
     <use xlink:href="#DejaVuSans-76"/>
     <use x="59.179688" xlink:href="#DejaVuSans-61"/>
     <use x="120.458984" xlink:href="#DejaVuSans-72"/>
     <use x="161.572266" xlink:href="#DejaVuSans-69"/>
     <use x="189.355469" xlink:href="#DejaVuSans-61"/>
     <use x="250.634766" xlink:href="#DejaVuSans-62"/>
     <use x="314.111328" xlink:href="#DejaVuSans-6c"/>
     <use x="341.894531" xlink:href="#DejaVuSans-65"/>
    </g>
   </g>
   <g id="line2d_61">
    <path d="M 337.09715 160.682691 
L 343.53715 160.682691 
" style="fill:none;stroke:#1f77b4;stroke-linecap:round;stroke-width:1.5;"/>
   </g>
   <g id="line2d_62"/>
   <g id="text_15">
    <!-- cbender -->
    <g style="fill:#262626;" transform="translate(348.68915 165.190691)scale(0.1288 -0.1288)">
     <defs>
      <path d="M 3122 3366 
L 3122 2828 
Q 2878 2963 2633 3030 
Q 2388 3097 2138 3097 
Q 1578 3097 1268 2742 
Q 959 2388 959 1747 
Q 959 1106 1268 751 
Q 1578 397 2138 397 
Q 2388 397 2633 464 
Q 2878 531 3122 666 
L 3122 134 
Q 2881 22 2623 -34 
Q 2366 -91 2075 -91 
Q 1284 -91 818 406 
Q 353 903 353 1747 
Q 353 2603 823 3093 
Q 1294 3584 2113 3584 
Q 2378 3584 2631 3529 
Q 2884 3475 3122 3366 
z
" id="DejaVuSans-63" transform="scale(0.015625)"/>
      <path d="M 2906 2969 
L 2906 4863 
L 3481 4863 
L 3481 0 
L 2906 0 
L 2906 525 
Q 2725 213 2448 61 
Q 2172 -91 1784 -91 
Q 1150 -91 751 415 
Q 353 922 353 1747 
Q 353 2572 751 3078 
Q 1150 3584 1784 3584 
Q 2172 3584 2448 3432 
Q 2725 3281 2906 2969 
z
M 947 1747 
Q 947 1113 1208 752 
Q 1469 391 1925 391 
Q 2381 391 2643 752 
Q 2906 1113 2906 1747 
Q 2906 2381 2643 2742 
Q 2381 3103 1925 3103 
Q 1469 3103 1208 2742 
Q 947 2381 947 1747 
z
" id="DejaVuSans-64" transform="scale(0.015625)"/>
     </defs>
     <use xlink:href="#DejaVuSans-63"/>
     <use x="54.980469" xlink:href="#DejaVuSans-62"/>
     <use x="118.457031" xlink:href="#DejaVuSans-65"/>
     <use x="179.980469" xlink:href="#DejaVuSans-6e"/>
     <use x="243.359375" xlink:href="#DejaVuSans-64"/>
     <use x="306.835938" xlink:href="#DejaVuSans-65"/>
     <use x="368.359375" xlink:href="#DejaVuSans-72"/>
    </g>
   </g>
   <g id="line2d_63">
    <path d="M 337.09715 179.588116 
L 343.53715 179.588116 
" style="fill:none;stroke:#ff7f0e;stroke-linecap:round;stroke-width:1.5;"/>
   </g>
   <g id="line2d_64"/>
   <g id="text_16">
    <!-- umi -->
    <g style="fill:#262626;" transform="translate(348.68915 184.096116)scale(0.1288 -0.1288)">
     <defs>
      <path d="M 3328 2828 
Q 3544 3216 3844 3400 
Q 4144 3584 4550 3584 
Q 5097 3584 5394 3201 
Q 5691 2819 5691 2113 
L 5691 0 
L 5113 0 
L 5113 2094 
Q 5113 2597 4934 2840 
Q 4756 3084 4391 3084 
Q 3944 3084 3684 2787 
Q 3425 2491 3425 1978 
L 3425 0 
L 2847 0 
L 2847 2094 
Q 2847 2600 2669 2842 
Q 2491 3084 2119 3084 
Q 1678 3084 1418 2786 
Q 1159 2488 1159 1978 
L 1159 0 
L 581 0 
L 581 3500 
L 1159 3500 
L 1159 2956 
Q 1356 3278 1631 3431 
Q 1906 3584 2284 3584 
Q 2666 3584 2933 3390 
Q 3200 3197 3328 2828 
z
" id="DejaVuSans-6d" transform="scale(0.015625)"/>
     </defs>
     <use xlink:href="#DejaVuSans-75"/>
     <use x="63.378906" xlink:href="#DejaVuSans-6d"/>
     <use x="160.791016" xlink:href="#DejaVuSans-69"/>
    </g>
   </g>
  </g>
 </g>
 <defs>
  <clipPath id="p52aab5f75c">
   <rect height="281.73" width="277.453165" x="48.11375" y="5.318906"/>
  </clipPath>
 </defs>
</svg>
