<?xml version="1.0" encoding="utf-8" standalone="no"?>
<!DOCTYPE svg PUBLIC "-//W3C//DTD SVG 1.1//EN"
  "http://www.w3.org/Graphics/SVG/1.1/DTD/svg11.dtd">
<svg height="326.447656pt" version="1.1" viewBox="0 0 413.02475 326.447656" width="413.02475pt" xmlns="http://www.w3.org/2000/svg" xmlns:xlink="http://www.w3.org/1999/xlink">
 <metadata>
  <rdf:RDF xmlns:cc="http://creativecommons.org/ns#" xmlns:dc="http://purl.org/dc/elements/1.1/" xmlns:rdf="http://www.w3.org/1999/02/22-rdf-syntax-ns#">
   <cc:Work>
    <dc:type rdf:resource="http://purl.org/dc/dcmitype/StillImage"/>
    <dc:date>2023-02-20T13:02:47.992356</dc:date>
    <dc:format>image/svg+xml</dc:format>
    <dc:creator>
     <cc:Agent>
      <dc:title>Matplotlib v3.4.3, https://matplotlib.org/</dc:title>
     </cc:Agent>
    </dc:creator>
   </cc:Work>
  </rdf:RDF>
 </metadata>
 <defs>
  <style type="text/css">*{stroke-linecap:butt;stroke-linejoin:round;}</style>
 </defs>
 <g id="figure_1">
  <g id="patch_1">
   <path d="M 0 326.447656 
L 413.02475 326.447656 
L 413.02475 0 
L 0 0 
z
" style="fill:none;"/>
  </g>
  <g id="axes_1">
   <g id="patch_2">
    <path d="M 48.11375 287.048906 
L 325.566915 287.048906 
L 325.566915 5.318906 
L 48.11375 5.318906 
z
" style="fill:none;"/>
   </g>
   <g id="matplotlib.axis_1">
    <g id="xtick_1">
     <g id="line2d_1">
      <path clip-path="url(#pcb4b31481a)" d="M 60.725257 287.048906 
L 60.725257 5.318906 
" style="fill:none;stroke:#cccccc;stroke-linecap:round;stroke-width:0.8;"/>
     </g>
     <g id="line2d_2">
      <defs>
       <path d="M 0 0 
L 0 4.8 
" id="ma1a4670f64" style="stroke:#000000;"/>
      </defs>
      <g>
       <use style="stroke:#000000;" x="60.725257" xlink:href="#ma1a4670f64" y="287.048906"/>
      </g>
     </g>
     <g id="text_1">
      <!-- $\mathdefault{10^{0}}$ -->
      <g transform="translate(48.405257 305.986719)scale(0.14 -0.14)">
       <defs>
        <path d="M 794 531 
L 1825 531 
L 1825 4091 
L 703 3866 
L 703 4441 
L 1819 4666 
L 2450 4666 
L 2450 531 
L 3481 531 
L 3481 0 
L 794 0 
L 794 531 
z
" id="DejaVuSans-31" transform="scale(0.015625)"/>
        <path d="M 2034 4250 
Q 1547 4250 1301 3770 
Q 1056 3291 1056 2328 
Q 1056 1369 1301 889 
Q 1547 409 2034 409 
Q 2525 409 2770 889 
Q 3016 1369 3016 2328 
Q 3016 3291 2770 3770 
Q 2525 4250 2034 4250 
z
M 2034 4750 
Q 2819 4750 3233 4129 
Q 3647 3509 3647 2328 
Q 3647 1150 3233 529 
Q 2819 -91 2034 -91 
Q 1250 -91 836 529 
Q 422 1150 422 2328 
Q 422 3509 836 4129 
Q 1250 4750 2034 4750 
z
" id="DejaVuSans-30" transform="scale(0.015625)"/>
       </defs>
       <use transform="translate(0 0.765625)" xlink:href="#DejaVuSans-31"/>
       <use transform="translate(63.623047 0.765625)" xlink:href="#DejaVuSans-30"/>
       <use transform="translate(128.203125 39.046875)scale(0.7)" xlink:href="#DejaVuSans-30"/>
      </g>
     </g>
    </g>
    <g id="xtick_2">
     <g id="line2d_3">
      <path clip-path="url(#pcb4b31481a)" d="M 161.967144 287.048906 
L 161.967144 5.318906 
" style="fill:none;stroke:#cccccc;stroke-linecap:round;stroke-width:0.8;"/>
     </g>
     <g id="line2d_4">
      <g>
       <use style="stroke:#000000;" x="161.967144" xlink:href="#ma1a4670f64" y="287.048906"/>
      </g>
     </g>
     <g id="text_2">
      <!-- $\mathdefault{10^{1}}$ -->
      <g transform="translate(149.647144 305.986719)scale(0.14 -0.14)">
       <use transform="translate(0 0.684375)" xlink:href="#DejaVuSans-31"/>
       <use transform="translate(63.623047 0.684375)" xlink:href="#DejaVuSans-30"/>
       <use transform="translate(128.203125 38.965625)scale(0.7)" xlink:href="#DejaVuSans-31"/>
      </g>
     </g>
    </g>
    <g id="xtick_3">
     <g id="line2d_5">
      <path clip-path="url(#pcb4b31481a)" d="M 263.209031 287.048906 
L 263.209031 5.318906 
" style="fill:none;stroke:#cccccc;stroke-linecap:round;stroke-width:0.8;"/>
     </g>
     <g id="line2d_6">
      <g>
       <use style="stroke:#000000;" x="263.209031" xlink:href="#ma1a4670f64" y="287.048906"/>
      </g>
     </g>
     <g id="text_3">
      <!-- $\mathdefault{10^{2}}$ -->
      <g transform="translate(250.889031 305.986719)scale(0.14 -0.14)">
       <defs>
        <path d="M 1228 531 
L 3431 531 
L 3431 0 
L 469 0 
L 469 531 
Q 828 903 1448 1529 
Q 2069 2156 2228 2338 
Q 2531 2678 2651 2914 
Q 2772 3150 2772 3378 
Q 2772 3750 2511 3984 
Q 2250 4219 1831 4219 
Q 1534 4219 1204 4116 
Q 875 4013 500 3803 
L 500 4441 
Q 881 4594 1212 4672 
Q 1544 4750 1819 4750 
Q 2544 4750 2975 4387 
Q 3406 4025 3406 3419 
Q 3406 3131 3298 2873 
Q 3191 2616 2906 2266 
Q 2828 2175 2409 1742 
Q 1991 1309 1228 531 
z
" id="DejaVuSans-32" transform="scale(0.015625)"/>
       </defs>
       <use transform="translate(0 0.765625)" xlink:href="#DejaVuSans-31"/>
       <use transform="translate(63.623047 0.765625)" xlink:href="#DejaVuSans-30"/>
       <use transform="translate(128.203125 39.046875)scale(0.7)" xlink:href="#DejaVuSans-32"/>
      </g>
     </g>
    </g>
    <g id="xtick_4">
     <g id="line2d_7">
      <defs>
       <path d="M 0 0 
L 0 3.2 
" id="m7039e2b7a6" style="stroke:#000000;stroke-width:0.8;"/>
      </defs>
      <g>
       <use style="stroke:#000000;stroke-width:0.8;" x="50.913905" xlink:href="#m7039e2b7a6" y="287.048906"/>
      </g>
     </g>
    </g>
    <g id="xtick_5">
     <g id="line2d_8">
      <g>
       <use style="stroke:#000000;stroke-width:0.8;" x="56.092683" xlink:href="#m7039e2b7a6" y="287.048906"/>
      </g>
     </g>
    </g>
    <g id="xtick_6">
     <g id="line2d_9">
      <g>
       <use style="stroke:#000000;stroke-width:0.8;" x="91.202102" xlink:href="#m7039e2b7a6" y="287.048906"/>
      </g>
     </g>
    </g>
    <g id="xtick_7">
     <g id="line2d_10">
      <g>
       <use style="stroke:#000000;stroke-width:0.8;" x="109.029914" xlink:href="#m7039e2b7a6" y="287.048906"/>
      </g>
     </g>
    </g>
    <g id="xtick_8">
     <g id="line2d_11">
      <g>
       <use style="stroke:#000000;stroke-width:0.8;" x="121.678947" xlink:href="#m7039e2b7a6" y="287.048906"/>
      </g>
     </g>
    </g>
    <g id="xtick_9">
     <g id="line2d_12">
      <g>
       <use style="stroke:#000000;stroke-width:0.8;" x="131.4903" xlink:href="#m7039e2b7a6" y="287.048906"/>
      </g>
     </g>
    </g>
    <g id="xtick_10">
     <g id="line2d_13">
      <g>
       <use style="stroke:#000000;stroke-width:0.8;" x="139.506758" xlink:href="#m7039e2b7a6" y="287.048906"/>
      </g>
     </g>
    </g>
    <g id="xtick_11">
     <g id="line2d_14">
      <g>
       <use style="stroke:#000000;stroke-width:0.8;" x="146.284578" xlink:href="#m7039e2b7a6" y="287.048906"/>
      </g>
     </g>
    </g>
    <g id="xtick_12">
     <g id="line2d_15">
      <g>
       <use style="stroke:#000000;stroke-width:0.8;" x="152.155792" xlink:href="#m7039e2b7a6" y="287.048906"/>
      </g>
     </g>
    </g>
    <g id="xtick_13">
     <g id="line2d_16">
      <g>
       <use style="stroke:#000000;stroke-width:0.8;" x="157.33457" xlink:href="#m7039e2b7a6" y="287.048906"/>
      </g>
     </g>
    </g>
    <g id="xtick_14">
     <g id="line2d_17">
      <g>
       <use style="stroke:#000000;stroke-width:0.8;" x="192.443989" xlink:href="#m7039e2b7a6" y="287.048906"/>
      </g>
     </g>
    </g>
    <g id="xtick_15">
     <g id="line2d_18">
      <g>
       <use style="stroke:#000000;stroke-width:0.8;" x="210.2718" xlink:href="#m7039e2b7a6" y="287.048906"/>
      </g>
     </g>
    </g>
    <g id="xtick_16">
     <g id="line2d_19">
      <g>
       <use style="stroke:#000000;stroke-width:0.8;" x="222.920834" xlink:href="#m7039e2b7a6" y="287.048906"/>
      </g>
     </g>
    </g>
    <g id="xtick_17">
     <g id="line2d_20">
      <g>
       <use style="stroke:#000000;stroke-width:0.8;" x="232.732186" xlink:href="#m7039e2b7a6" y="287.048906"/>
      </g>
     </g>
    </g>
    <g id="xtick_18">
     <g id="line2d_21">
      <g>
       <use style="stroke:#000000;stroke-width:0.8;" x="240.748645" xlink:href="#m7039e2b7a6" y="287.048906"/>
      </g>
     </g>
    </g>
    <g id="xtick_19">
     <g id="line2d_22">
      <g>
       <use style="stroke:#000000;stroke-width:0.8;" x="247.526464" xlink:href="#m7039e2b7a6" y="287.048906"/>
      </g>
     </g>
    </g>
    <g id="xtick_20">
     <g id="line2d_23">
      <g>
       <use style="stroke:#000000;stroke-width:0.8;" x="253.397679" xlink:href="#m7039e2b7a6" y="287.048906"/>
      </g>
     </g>
    </g>
    <g id="xtick_21">
     <g id="line2d_24">
      <g>
       <use style="stroke:#000000;stroke-width:0.8;" x="258.576456" xlink:href="#m7039e2b7a6" y="287.048906"/>
      </g>
     </g>
    </g>
    <g id="xtick_22">
     <g id="line2d_25">
      <g>
       <use style="stroke:#000000;stroke-width:0.8;" x="293.685876" xlink:href="#m7039e2b7a6" y="287.048906"/>
      </g>
     </g>
    </g>
    <g id="xtick_23">
     <g id="line2d_26">
      <g>
       <use style="stroke:#000000;stroke-width:0.8;" x="311.513687" xlink:href="#m7039e2b7a6" y="287.048906"/>
      </g>
     </g>
    </g>
    <g id="xtick_24">
     <g id="line2d_27">
      <g>
       <use style="stroke:#000000;stroke-width:0.8;" x="324.162721" xlink:href="#m7039e2b7a6" y="287.048906"/>
      </g>
     </g>
    </g>
    <g id="text_4">
     <!-- value -->
     <g style="fill:#262626;" transform="translate(167.719395 323.536094)scale(0.14 -0.14)">
      <defs>
       <path d="M 191 3500 
L 800 3500 
L 1894 563 
L 2988 3500 
L 3597 3500 
L 2284 0 
L 1503 0 
L 191 3500 
z
" id="DejaVuSans-76" transform="scale(0.015625)"/>
       <path d="M 2194 1759 
Q 1497 1759 1228 1600 
Q 959 1441 959 1056 
Q 959 750 1161 570 
Q 1363 391 1709 391 
Q 2188 391 2477 730 
Q 2766 1069 2766 1631 
L 2766 1759 
L 2194 1759 
z
M 3341 1997 
L 3341 0 
L 2766 0 
L 2766 531 
Q 2569 213 2275 61 
Q 1981 -91 1556 -91 
Q 1019 -91 701 211 
Q 384 513 384 1019 
Q 384 1609 779 1909 
Q 1175 2209 1959 2209 
L 2766 2209 
L 2766 2266 
Q 2766 2663 2505 2880 
Q 2244 3097 1772 3097 
Q 1472 3097 1187 3025 
Q 903 2953 641 2809 
L 641 3341 
Q 956 3463 1253 3523 
Q 1550 3584 1831 3584 
Q 2591 3584 2966 3190 
Q 3341 2797 3341 1997 
z
" id="DejaVuSans-61" transform="scale(0.015625)"/>
       <path d="M 603 4863 
L 1178 4863 
L 1178 0 
L 603 0 
L 603 4863 
z
" id="DejaVuSans-6c" transform="scale(0.015625)"/>
       <path d="M 544 1381 
L 544 3500 
L 1119 3500 
L 1119 1403 
Q 1119 906 1312 657 
Q 1506 409 1894 409 
Q 2359 409 2629 706 
Q 2900 1003 2900 1516 
L 2900 3500 
L 3475 3500 
L 3475 0 
L 2900 0 
L 2900 538 
Q 2691 219 2414 64 
Q 2138 -91 1772 -91 
Q 1169 -91 856 284 
Q 544 659 544 1381 
z
M 1991 3584 
L 1991 3584 
z
" id="DejaVuSans-75" transform="scale(0.015625)"/>
       <path d="M 3597 1894 
L 3597 1613 
L 953 1613 
Q 991 1019 1311 708 
Q 1631 397 2203 397 
Q 2534 397 2845 478 
Q 3156 559 3463 722 
L 3463 178 
Q 3153 47 2828 -22 
Q 2503 -91 2169 -91 
Q 1331 -91 842 396 
Q 353 884 353 1716 
Q 353 2575 817 3079 
Q 1281 3584 2069 3584 
Q 2775 3584 3186 3129 
Q 3597 2675 3597 1894 
z
M 3022 2063 
Q 3016 2534 2758 2815 
Q 2500 3097 2075 3097 
Q 1594 3097 1305 2825 
Q 1016 2553 972 2059 
L 3022 2063 
z
" id="DejaVuSans-65" transform="scale(0.015625)"/>
      </defs>
      <use xlink:href="#DejaVuSans-76"/>
      <use x="59.179688" xlink:href="#DejaVuSans-61"/>
      <use x="120.458984" xlink:href="#DejaVuSans-6c"/>
      <use x="148.242188" xlink:href="#DejaVuSans-75"/>
      <use x="211.621094" xlink:href="#DejaVuSans-65"/>
     </g>
    </g>
   </g>
   <g id="matplotlib.axis_2">
    <g id="ytick_1">
     <g id="line2d_28">
      <path clip-path="url(#pcb4b31481a)" d="M 48.11375 287.048906 
L 325.566915 287.048906 
" style="fill:none;stroke:#cccccc;stroke-linecap:round;stroke-width:0.8;"/>
     </g>
     <g id="line2d_29">
      <defs>
       <path d="M 0 0 
L -4.8 0 
" id="m489a68fae4" style="stroke:#000000;"/>
      </defs>
      <g>
       <use style="stroke:#000000;" x="48.11375" xlink:href="#m489a68fae4" y="287.048906"/>
      </g>
     </g>
     <g id="text_5">
      <!-- 0.0 -->
      <g transform="translate(17.549375 292.367812)scale(0.14 -0.14)">
       <defs>
        <path d="M 684 794 
L 1344 794 
L 1344 0 
L 684 0 
L 684 794 
z
" id="DejaVuSans-2e" transform="scale(0.015625)"/>
       </defs>
       <use xlink:href="#DejaVuSans-30"/>
       <use x="63.623047" xlink:href="#DejaVuSans-2e"/>
       <use x="95.410156" xlink:href="#DejaVuSans-30"/>
      </g>
     </g>
    </g>
    <g id="ytick_2">
     <g id="line2d_30">
      <path clip-path="url(#pcb4b31481a)" d="M 48.11375 230.702906 
L 325.566915 230.702906 
" style="fill:none;stroke:#cccccc;stroke-linecap:round;stroke-width:0.8;"/>
     </g>
     <g id="line2d_31">
      <g>
       <use style="stroke:#000000;" x="48.11375" xlink:href="#m489a68fae4" y="230.702906"/>
      </g>
     </g>
     <g id="text_6">
      <!-- 0.2 -->
      <g transform="translate(17.549375 236.021812)scale(0.14 -0.14)">
       <use xlink:href="#DejaVuSans-30"/>
       <use x="63.623047" xlink:href="#DejaVuSans-2e"/>
       <use x="95.410156" xlink:href="#DejaVuSans-32"/>
      </g>
     </g>
    </g>
    <g id="ytick_3">
     <g id="line2d_32">
      <path clip-path="url(#pcb4b31481a)" d="M 48.11375 174.356906 
L 325.566915 174.356906 
" style="fill:none;stroke:#cccccc;stroke-linecap:round;stroke-width:0.8;"/>
     </g>
     <g id="line2d_33">
      <g>
       <use style="stroke:#000000;" x="48.11375" xlink:href="#m489a68fae4" y="174.356906"/>
      </g>
     </g>
     <g id="text_7">
      <!-- 0.4 -->
      <g transform="translate(17.549375 179.675812)scale(0.14 -0.14)">
       <defs>
        <path d="M 2419 4116 
L 825 1625 
L 2419 1625 
L 2419 4116 
z
M 2253 4666 
L 3047 4666 
L 3047 1625 
L 3713 1625 
L 3713 1100 
L 3047 1100 
L 3047 0 
L 2419 0 
L 2419 1100 
L 313 1100 
L 313 1709 
L 2253 4666 
z
" id="DejaVuSans-34" transform="scale(0.015625)"/>
       </defs>
       <use xlink:href="#DejaVuSans-30"/>
       <use x="63.623047" xlink:href="#DejaVuSans-2e"/>
       <use x="95.410156" xlink:href="#DejaVuSans-34"/>
      </g>
     </g>
    </g>
    <g id="ytick_4">
     <g id="line2d_34">
      <path clip-path="url(#pcb4b31481a)" d="M 48.11375 118.010906 
L 325.566915 118.010906 
" style="fill:none;stroke:#cccccc;stroke-linecap:round;stroke-width:0.8;"/>
     </g>
     <g id="line2d_35">
      <g>
       <use style="stroke:#000000;" x="48.11375" xlink:href="#m489a68fae4" y="118.010906"/>
      </g>
     </g>
     <g id="text_8">
      <!-- 0.6 -->
      <g transform="translate(17.549375 123.329812)scale(0.14 -0.14)">
       <defs>
        <path d="M 2113 2584 
Q 1688 2584 1439 2293 
Q 1191 2003 1191 1497 
Q 1191 994 1439 701 
Q 1688 409 2113 409 
Q 2538 409 2786 701 
Q 3034 994 3034 1497 
Q 3034 2003 2786 2293 
Q 2538 2584 2113 2584 
z
M 3366 4563 
L 3366 3988 
Q 3128 4100 2886 4159 
Q 2644 4219 2406 4219 
Q 1781 4219 1451 3797 
Q 1122 3375 1075 2522 
Q 1259 2794 1537 2939 
Q 1816 3084 2150 3084 
Q 2853 3084 3261 2657 
Q 3669 2231 3669 1497 
Q 3669 778 3244 343 
Q 2819 -91 2113 -91 
Q 1303 -91 875 529 
Q 447 1150 447 2328 
Q 447 3434 972 4092 
Q 1497 4750 2381 4750 
Q 2619 4750 2861 4703 
Q 3103 4656 3366 4563 
z
" id="DejaVuSans-36" transform="scale(0.015625)"/>
       </defs>
       <use xlink:href="#DejaVuSans-30"/>
       <use x="63.623047" xlink:href="#DejaVuSans-2e"/>
       <use x="95.410156" xlink:href="#DejaVuSans-36"/>
      </g>
     </g>
    </g>
    <g id="ytick_5">
     <g id="line2d_36">
      <path clip-path="url(#pcb4b31481a)" d="M 48.11375 61.664906 
L 325.566915 61.664906 
" style="fill:none;stroke:#cccccc;stroke-linecap:round;stroke-width:0.8;"/>
     </g>
     <g id="line2d_37">
      <g>
       <use style="stroke:#000000;" x="48.11375" xlink:href="#m489a68fae4" y="61.664906"/>
      </g>
     </g>
     <g id="text_9">
      <!-- 0.8 -->
      <g transform="translate(17.549375 66.983812)scale(0.14 -0.14)">
       <defs>
        <path d="M 2034 2216 
Q 1584 2216 1326 1975 
Q 1069 1734 1069 1313 
Q 1069 891 1326 650 
Q 1584 409 2034 409 
Q 2484 409 2743 651 
Q 3003 894 3003 1313 
Q 3003 1734 2745 1975 
Q 2488 2216 2034 2216 
z
M 1403 2484 
Q 997 2584 770 2862 
Q 544 3141 544 3541 
Q 544 4100 942 4425 
Q 1341 4750 2034 4750 
Q 2731 4750 3128 4425 
Q 3525 4100 3525 3541 
Q 3525 3141 3298 2862 
Q 3072 2584 2669 2484 
Q 3125 2378 3379 2068 
Q 3634 1759 3634 1313 
Q 3634 634 3220 271 
Q 2806 -91 2034 -91 
Q 1263 -91 848 271 
Q 434 634 434 1313 
Q 434 1759 690 2068 
Q 947 2378 1403 2484 
z
M 1172 3481 
Q 1172 3119 1398 2916 
Q 1625 2713 2034 2713 
Q 2441 2713 2670 2916 
Q 2900 3119 2900 3481 
Q 2900 3844 2670 4047 
Q 2441 4250 2034 4250 
Q 1625 4250 1398 4047 
Q 1172 3844 1172 3481 
z
" id="DejaVuSans-38" transform="scale(0.015625)"/>
       </defs>
       <use xlink:href="#DejaVuSans-30"/>
       <use x="63.623047" xlink:href="#DejaVuSans-2e"/>
       <use x="95.410156" xlink:href="#DejaVuSans-38"/>
      </g>
     </g>
    </g>
    <g id="ytick_6">
     <g id="line2d_38">
      <path clip-path="url(#pcb4b31481a)" d="M 48.11375 5.318906 
L 325.566915 5.318906 
" style="fill:none;stroke:#cccccc;stroke-linecap:round;stroke-width:0.8;"/>
     </g>
     <g id="line2d_39">
      <g>
       <use style="stroke:#000000;" x="48.11375" xlink:href="#m489a68fae4" y="5.318906"/>
      </g>
     </g>
     <g id="text_10">
      <!-- 1.0 -->
      <g transform="translate(17.549375 10.637812)scale(0.14 -0.14)">
       <use xlink:href="#DejaVuSans-31"/>
       <use x="63.623047" xlink:href="#DejaVuSans-2e"/>
       <use x="95.410156" xlink:href="#DejaVuSans-30"/>
      </g>
     </g>
    </g>
    <g id="text_11">
     <!-- Proportion -->
     <g style="fill:#262626;" transform="translate(10.637812 182.298437)rotate(-90)scale(0.14 -0.14)">
      <defs>
       <path d="M 1259 4147 
L 1259 2394 
L 2053 2394 
Q 2494 2394 2734 2622 
Q 2975 2850 2975 3272 
Q 2975 3691 2734 3919 
Q 2494 4147 2053 4147 
L 1259 4147 
z
M 628 4666 
L 2053 4666 
Q 2838 4666 3239 4311 
Q 3641 3956 3641 3272 
Q 3641 2581 3239 2228 
Q 2838 1875 2053 1875 
L 1259 1875 
L 1259 0 
L 628 0 
L 628 4666 
z
" id="DejaVuSans-50" transform="scale(0.015625)"/>
       <path d="M 2631 2963 
Q 2534 3019 2420 3045 
Q 2306 3072 2169 3072 
Q 1681 3072 1420 2755 
Q 1159 2438 1159 1844 
L 1159 0 
L 581 0 
L 581 3500 
L 1159 3500 
L 1159 2956 
Q 1341 3275 1631 3429 
Q 1922 3584 2338 3584 
Q 2397 3584 2469 3576 
Q 2541 3569 2628 3553 
L 2631 2963 
z
" id="DejaVuSans-72" transform="scale(0.015625)"/>
       <path d="M 1959 3097 
Q 1497 3097 1228 2736 
Q 959 2375 959 1747 
Q 959 1119 1226 758 
Q 1494 397 1959 397 
Q 2419 397 2687 759 
Q 2956 1122 2956 1747 
Q 2956 2369 2687 2733 
Q 2419 3097 1959 3097 
z
M 1959 3584 
Q 2709 3584 3137 3096 
Q 3566 2609 3566 1747 
Q 3566 888 3137 398 
Q 2709 -91 1959 -91 
Q 1206 -91 779 398 
Q 353 888 353 1747 
Q 353 2609 779 3096 
Q 1206 3584 1959 3584 
z
" id="DejaVuSans-6f" transform="scale(0.015625)"/>
       <path d="M 1159 525 
L 1159 -1331 
L 581 -1331 
L 581 3500 
L 1159 3500 
L 1159 2969 
Q 1341 3281 1617 3432 
Q 1894 3584 2278 3584 
Q 2916 3584 3314 3078 
Q 3713 2572 3713 1747 
Q 3713 922 3314 415 
Q 2916 -91 2278 -91 
Q 1894 -91 1617 61 
Q 1341 213 1159 525 
z
M 3116 1747 
Q 3116 2381 2855 2742 
Q 2594 3103 2138 3103 
Q 1681 3103 1420 2742 
Q 1159 2381 1159 1747 
Q 1159 1113 1420 752 
Q 1681 391 2138 391 
Q 2594 391 2855 752 
Q 3116 1113 3116 1747 
z
" id="DejaVuSans-70" transform="scale(0.015625)"/>
       <path d="M 1172 4494 
L 1172 3500 
L 2356 3500 
L 2356 3053 
L 1172 3053 
L 1172 1153 
Q 1172 725 1289 603 
Q 1406 481 1766 481 
L 2356 481 
L 2356 0 
L 1766 0 
Q 1100 0 847 248 
Q 594 497 594 1153 
L 594 3053 
L 172 3053 
L 172 3500 
L 594 3500 
L 594 4494 
L 1172 4494 
z
" id="DejaVuSans-74" transform="scale(0.015625)"/>
       <path d="M 603 3500 
L 1178 3500 
L 1178 0 
L 603 0 
L 603 3500 
z
M 603 4863 
L 1178 4863 
L 1178 4134 
L 603 4134 
L 603 4863 
z
" id="DejaVuSans-69" transform="scale(0.015625)"/>
       <path d="M 3513 2113 
L 3513 0 
L 2938 0 
L 2938 2094 
Q 2938 2591 2744 2837 
Q 2550 3084 2163 3084 
Q 1697 3084 1428 2787 
Q 1159 2491 1159 1978 
L 1159 0 
L 581 0 
L 581 3500 
L 1159 3500 
L 1159 2956 
Q 1366 3272 1645 3428 
Q 1925 3584 2291 3584 
Q 2894 3584 3203 3211 
Q 3513 2838 3513 2113 
z
" id="DejaVuSans-6e" transform="scale(0.015625)"/>
      </defs>
      <use xlink:href="#DejaVuSans-50"/>
      <use x="58.552734" xlink:href="#DejaVuSans-72"/>
      <use x="97.416016" xlink:href="#DejaVuSans-6f"/>
      <use x="158.597656" xlink:href="#DejaVuSans-70"/>
      <use x="222.074219" xlink:href="#DejaVuSans-6f"/>
      <use x="283.255859" xlink:href="#DejaVuSans-72"/>
      <use x="324.369141" xlink:href="#DejaVuSans-74"/>
      <use x="363.578125" xlink:href="#DejaVuSans-69"/>
      <use x="391.361328" xlink:href="#DejaVuSans-6f"/>
      <use x="452.542969" xlink:href="#DejaVuSans-6e"/>
     </g>
    </g>
   </g>
   <g id="line2d_40">
    <path clip-path="url(#pcb4b31481a)" d="M -1 112.24838 
L 60.725257 112.24838 
L 60.725257 112.138037 
L 60.725257 77.280927 
L 91.202102 77.280927 
L 91.202102 77.170584 
L 91.202102 65.809019 
L 109.02991 65.809019 
L 109.02991 65.698676 
L 109.02991 60.038322 
L 121.678952 60.038322 
L 121.678952 59.927979 
L 121.678952 55.832913 
L 131.4903 55.832913 
L 131.4903 55.72257 
L 131.4903 52.154702 
L 139.506762 52.154702 
L 139.506762 52.04436 
L 139.506762 48.98327 
L 146.284575 48.98327 
L 146.284575 48.872927 
L 146.284575 46.069315 
L 152.155792 46.069315 
L 152.155792 45.958972 
L 152.155792 43.429195 
L 157.33457 43.425098 
L 157.33457 43.318835 
L 157.33457 41.066955 
L 161.967144 41.066955 
L 161.967144 40.956612 
L 161.967144 39.035778 
L 166.157818 39.035778 
L 166.157818 38.925435 
L 166.157818 37.143541 
L 169.9836 37.143541 
L 169.9836 37.033199 
L 169.9836 35.369826 
L 173.502984 35.365745 
L 173.502984 35.259483 
L 173.502984 33.751423 
L 176.761425 33.751423 
L 176.761425 33.64108 
L 176.761425 32.247444 
L 179.794961 32.247444 
L 179.794961 32.137101 
L 179.794961 30.780257 
L 182.632642 30.780257 
L 182.632642 30.669914 
L 182.632642 29.492883 
L 185.298233 29.492883 
L 185.298233 29.38254 
L 185.298233 28.262721 
L 187.811414 28.262721 
L 187.811414 28.152378 
L 187.811414 27.134741 
L 190.188689 27.134741 
L 190.188689 27.024398 
L 190.188689 26.100764 
L 192.443993 26.100764 
L 192.443993 25.990421 
L 192.443993 25.095386 
L 194.58923 25.095386 
L 194.58923 24.985043 
L 194.58923 24.171752 
L 196.634666 24.171752 
L 196.634666 24.061393 
L 196.634666 23.354365 
L 198.589153 23.354365 
L 198.589153 23.244022 
L 198.589153 22.532896 
L 200.460448 22.528816 
L 200.460448 22.422553 
L 200.460448 21.784996 
L 202.255345 21.784996 
L 202.255345 21.674653 
L 202.255345 21.098404 
L 203.979832 21.098404 
L 203.979832 20.988061 
L 203.979832 20.383198 
L 205.639232 20.383198 
L 205.639232 20.272855 
L 205.639232 19.745641 
L 207.238273 19.745641 
L 207.238273 19.635298 
L 207.238273 19.079469 
L 208.781196 19.079469 
L 208.781196 18.969126 
L 208.781196 18.466445 
L 210.271798 18.466445 
L 210.271798 18.356102 
L 210.271798 17.93515 
L 211.713535 17.93515 
L 211.713535 17.824807 
L 211.713535 17.379321 
L 213.109479 17.379321 
L 213.109479 17.268978 
L 213.109479 16.868462 
L 214.462474 16.868462 
L 214.462474 16.758119 
L 214.462474 16.3617 
L 215.775068 16.3617 
L 215.775068 16.25134 
L 215.775068 15.859002 
L 217.049624 15.859002 
L 217.049624 15.748659 
L 217.049624 15.429889 
L 218.288264 15.429889 
L 218.288264 15.319529 
L 218.288264 14.996678 
L 219.492964 14.996678 
L 219.492964 14.886318 
L 219.492964 14.616582 
L 220.665525 14.616582 
L 220.665525 14.506239 
L 220.665525 14.252858 
L 221.807636 14.252858 
L 221.807636 14.142515 
L 221.807636 13.958605 
L 222.92083 13.958605 
L 222.92083 13.848245 
L 222.92083 13.631639 
L 224.006542 13.631639 
L 224.006542 13.521296 
L 224.006542 13.325127 
L 225.066078 13.325127 
L 225.066078 13.214784 
L 225.066078 12.973662 
L 226.10069 12.973662 
L 226.10069 12.863319 
L 226.10069 12.683489 
L 227.111504 12.683489 
L 227.111504 12.573146 
L 227.111504 12.413753 
L 228.099615 12.413753 
L 228.099615 12.30341 
L 228.099615 12.131758 
L 229.066001 12.131758 
L 229.066001 12.021415 
L 229.066001 11.890635 
L 230.011607 11.890635 
L 230.011607 11.780292 
L 230.011607 11.698547 
L 230.937296 11.698547 
L 230.937296 11.588204 
L 230.937296 11.441069 
L 231.843894 11.441069 
L 231.843894 11.330726 
L 231.843894 11.199946 
L 232.732183 11.199946 
L 232.732183 11.089603 
L 232.732183 10.962905 
L 233.602887 10.962905 
L 233.602887 10.852562 
L 233.602887 10.75038 
L 234.456671 10.746299 
L 234.456671 10.640037 
L 234.456671 10.525613 
L 235.294197 10.525613 
L 235.294197 10.41527 
L 235.294197 10.341703 
L 236.116067 10.341703 
L 236.116067 10.23136 
L 236.116067 10.145534 
L 236.922854 10.145534 
L 236.922854 10.035174 
L 236.922854 9.941187 
L 237.715112 9.941187 
L 237.715112 9.830844 
L 237.715112 9.732759 
L 238.493344 9.732759 
L 238.493344 9.6224 
L 238.493344 9.618319 
L 239.258032 9.618319 
L 239.258032 9.507976 
L 239.258032 9.475281 
L 240.009665 9.475281 
L 240.009665 9.364938 
L 240.009665 9.324066 
L 240.748648 9.324066 
L 240.748648 9.213723 
L 240.748648 9.160591 
L 241.475416 9.160591 
L 241.475416 9.050232 
L 241.475416 9.021634 
L 242.190382 9.021634 
L 242.190382 8.911291 
L 242.190382 8.870418 
L 243.586331 8.772334 
L 243.586331 8.760075 
L 243.586331 8.690588 
L 244.939319 8.588423 
L 244.939319 8.580245 
L 244.939319 8.469902 
L 245.600521 8.469902 
L 245.600521 8.359559 
L 245.600521 8.351382 
L 246.251917 8.351382 
L 246.251917 8.241039 
L 246.251917 8.236941 
L 246.893809 8.236941 
L 246.893809 8.126598 
L 246.893809 8.122518 
L 248.15015 8.032611 
L 248.15015 8.012175 
L 248.15015 7.959044 
L 249.37158 7.860959 
L 249.37158 7.848701 
L 249.37158 7.783311 
L 250.559998 7.693388 
L 250.559998 7.672951 
L 250.559998 7.607561 
L 251.717134 7.525833 
L 251.717134 7.497219 
L 251.717134 7.448185 
L 252.844609 7.395053 
L 252.844609 7.337825 
L 252.844609 7.30513 
L 253.943886 7.231579 
L 253.943886 7.194787 
L 253.943886 7.145753 
L 255.016345 7.080364 
L 255.016345 7.035393 
L 255.016345 7.031313 
L 256.577527 6.92097 
L 256.577527 6.847402 
L 258.085184 6.769754 
L 258.085184 6.737059 
L 258.085184 6.716623 
L 259.542839 6.60628 
L 259.542839 6.569488 
L 260.953727 6.487759 
L 260.953727 6.459145 
L 260.953727 6.434628 
L 262.320743 6.35698 
L 262.320743 6.324285 
L 262.320743 6.320188 
L 264.079735 6.209845 
L 264.079735 6.173069 
L 266.183888 6.066807 
L 266.183888 6.062726 
L 266.183888 6.034112 
L 268.58279 5.923769 
L 268.58279 5.899252 
L 271.225484 5.801168 
L 271.225484 5.788892 
L 271.225484 5.784812 
L 274.744871 5.674469 
L 274.744871 5.666291 
L 279.241939 5.564126 
L 279.241939 5.555948 
L 279.241939 5.551867 
L 286.280707 5.441508 
L 286.280707 5.437427 
L 309.258392 5.327084 
L 309.258392 5.322987 
L 312.955407 5.322987 
L 312.955407 5.318906 
" style="fill:none;stroke:#ff7f0e;stroke-linecap:round;stroke-width:1.5;"/>
   </g>
   <g id="line2d_41">
    <path clip-path="url(#pcb4b31481a)" d="M -1 76.900847 
L 60.725257 76.900847 
L 60.725257 76.790504 
L 60.725257 67.406986 
L 91.202102 67.406986 
L 91.202102 67.296643 
L 91.202102 62.110372 
L 109.02991 62.110372 
L 109.02991 62.000029 
L 109.02991 57.884527 
L 121.678952 57.884527 
L 121.678952 57.774184 
L 121.678952 54.263545 
L 131.4903 54.263545 
L 131.4903 54.153202 
L 131.4903 50.973591 
L 139.506762 50.973591 
L 139.506762 50.863248 
L 139.506762 47.892082 
L 146.284575 47.892082 
L 146.284575 47.781722 
L 146.284575 45.080292 
L 152.155792 45.080292 
L 152.155792 44.96995 
L 152.155792 42.673116 
L 157.33457 42.669019 
L 157.33457 42.562773 
L 157.33457 40.388542 
L 161.967144 40.388542 
L 161.967144 40.278199 
L 161.967144 38.443174 
L 166.157818 38.443174 
L 166.157818 38.332831 
L 166.157818 36.530518 
L 169.9836 36.530518 
L 169.9836 36.420158 
L 169.9836 34.871225 
L 173.502984 34.867145 
L 173.502984 34.760882 
L 173.502984 33.330471 
L 176.761425 33.330471 
L 176.761425 33.220128 
L 176.761425 31.83875 
L 179.794961 31.83875 
L 179.794961 31.728407 
L 179.794961 30.424694 
L 182.632642 30.424694 
L 182.632642 30.314351 
L 182.632642 29.141401 
L 185.298233 29.141401 
L 185.298233 29.031058 
L 185.298233 27.923514 
L 187.811414 27.923514 
L 187.811414 27.813171 
L 187.811414 26.856843 
L 190.188689 26.856843 
L 190.188689 26.746483 
L 190.188689 25.900498 
L 192.443993 25.900498 
L 192.443993 25.790155 
L 192.443993 24.862424 
L 194.58923 24.862424 
L 194.58923 24.752081 
L 194.58923 23.918355 
L 196.634666 23.918355 
L 196.634666 23.808012 
L 196.634666 23.137759 
L 198.589153 23.137759 
L 198.589153 23.027416 
L 198.589153 22.316291 
L 200.460448 22.312211 
L 200.460448 22.205948 
L 200.460448 21.597005 
L 202.255345 21.597005 
L 202.255345 21.486662 
L 202.255345 20.93493 
L 203.979832 20.93493 
L 203.979832 20.824587 
L 203.979832 20.240161 
L 205.639232 20.240161 
L 205.639232 20.129801 
L 205.639232 19.598506 
L 207.238273 19.598506 
L 207.238273 19.488163 
L 207.238273 18.903736 
L 208.781196 18.903736 
L 208.781196 18.793393 
L 208.781196 18.323407 
L 210.271798 18.323407 
L 210.271798 18.213047 
L 210.271798 17.808451 
L 211.713535 17.808451 
L 211.713535 17.698108 
L 211.713535 17.236283 
L 213.109479 17.236283 
L 213.109479 17.12594 
L 213.109479 16.766297 
L 214.462474 16.766297 
L 214.462474 16.655954 
L 214.462474 16.194129 
L 215.775068 16.194129 
L 215.775068 16.083786 
L 215.775068 15.715965 
L 217.049624 15.715965 
L 217.049624 15.605622 
L 217.049624 15.295012 
L 218.288264 15.295012 
L 218.288264 15.184669 
L 218.288264 14.898577 
L 219.492964 14.898577 
L 219.492964 14.788234 
L 219.492964 14.518497 
L 220.665525 14.518497 
L 220.665525 14.408154 
L 220.665525 14.179291 
L 221.807636 14.179291 
L 221.807636 14.068948 
L 221.807636 13.876859 
L 222.92083 13.876859 
L 222.92083 13.766516 
L 222.92083 13.54583 
L 224.006542 13.54583 
L 224.006542 13.43547 
L 224.006542 13.222962 
L 225.066078 13.222962 
L 225.066078 13.112619 
L 225.066078 12.924612 
L 226.10069 12.924612 
L 226.10069 12.814269 
L 226.10069 12.626277 
L 227.111504 12.626277 
L 227.111504 12.515918 
L 227.111504 12.348363 
L 228.099615 12.348363 
L 228.099615 12.23802 
L 228.099615 12.045932 
L 229.066001 12.045932 
L 229.066001 11.935589 
L 229.066001 11.812987 
L 230.011607 11.812987 
L 230.011607 11.702627 
L 230.011607 11.629077 
L 230.937296 11.629077 
L 230.937296 11.518717 
L 230.937296 11.387937 
L 231.843894 11.387937 
L 231.843894 11.277595 
L 231.843894 11.134557 
L 232.732183 11.134557 
L 232.732183 11.024214 
L 232.732183 10.905693 
L 233.602887 10.905693 
L 233.602887 10.79535 
L 233.602887 10.660473 
L 234.456671 10.656393 
L 234.456671 10.55013 
L 234.456671 10.456126 
L 235.294197 10.456126 
L 235.294197 10.345783 
L 235.294197 10.272216 
L 236.116067 10.272216 
L 236.116067 10.161873 
L 236.116067 10.084225 
L 236.922854 10.084225 
L 236.922854 9.973882 
L 236.922854 9.908492 
L 237.715112 9.908492 
L 237.715112 9.798149 
L 237.715112 9.691887 
L 239.258032 9.585624 
L 239.258032 9.581544 
L 239.258032 9.413972 
L 240.009665 9.413972 
L 240.009665 9.303629 
L 240.009665 9.270934 
L 240.748648 9.270934 
L 240.748648 9.160591 
L 240.748648 9.131977 
L 241.475416 9.131977 
L 241.475416 9.021634 
L 241.475416 9.009376 
L 242.190382 9.009376 
L 242.190382 8.899033 
L 242.190382 8.833643 
L 243.586331 8.747817 
L 243.586331 8.723283 
L 243.586331 8.666071 
L 244.939319 8.559809 
L 244.939319 8.555729 
L 244.939319 8.441288 
L 245.600521 8.441288 
L 245.600521 8.330945 
L 245.600521 8.326865 
L 246.251917 8.326865 
L 246.251917 8.216522 
L 246.251917 8.204246 
L 246.893809 8.204246 
L 246.893809 8.093903 
L 246.893809 8.085726 
L 248.15015 8.008077 
L 248.15015 7.975383 
L 248.15015 7.926349 
L 249.37158 7.816006 
L 249.37158 7.746519 
L 250.559998 7.66479 
L 250.559998 7.636176 
L 250.559998 7.570786 
L 251.717134 7.509477 
L 251.717134 7.460443 
L 251.717134 7.423651 
L 252.844609 7.362359 
L 252.844609 7.313308 
L 252.844609 7.284694 
L 253.943886 7.215223 
L 253.943886 7.174351 
L 253.943886 7.133495 
L 255.542927 7.023135 
L 255.542927 6.953665 
L 256.577527 6.912792 
L 256.577527 6.843322 
L 256.577527 6.831063 
L 258.085184 6.757496 
L 258.085184 6.720704 
L 258.085184 6.708445 
L 259.062301 6.630797 
L 259.062301 6.598102 
L 259.062301 6.594022 
L 260.488444 6.512276 
L 260.488444 6.483679 
L 260.488444 6.463242 
L 261.869773 6.389675 
L 261.869773 6.352883 
L 261.869773 6.332463 
L 263.646532 6.226201 
L 263.646532 6.222103 
L 263.646532 6.205764 
L 265.354266 6.103582 
L 265.354266 6.095421 
L 265.354266 6.087243 
L 266.998157 6.009595 
L 266.998157 5.9769 
L 266.998157 5.972803 
L 269.354189 5.882896 
L 269.354189 5.86246 
L 269.354189 5.854282 
L 272.311186 5.752117 
L 272.311186 5.743939 
L 272.311186 5.735761 
L 276.728767 5.633596 
L 276.728767 5.625418 
L 276.728767 5.621338 
L 280.74274 5.519156 
L 280.74274 5.510995 
L 280.74274 5.506897 
L 288.808338 5.400652 
L 288.808338 5.396554 
L 288.808338 5.388376 
L 312.955407 5.322987 
L 312.955407 5.318906 
" style="fill:none;stroke:#1f77b4;stroke-linecap:round;stroke-width:1.5;"/>
   </g>
   <g id="patch_3">
    <path d="M 48.11375 287.048906 
L 48.11375 5.318906 
" style="fill:none;stroke:#000000;stroke-linecap:square;stroke-linejoin:miter;stroke-width:0.8;"/>
   </g>
   <g id="patch_4">
    <path d="M 48.11375 287.048906 
L 325.566915 287.048906 
" style="fill:none;stroke:#000000;stroke-linecap:square;stroke-linejoin:miter;stroke-width:0.8;"/>
   </g>
  </g>
  <g id="legend_1">
   <g id="text_12">
    <!-- variable -->
    <g style="fill:#262626;" transform="translate(349.89995 146.967403)scale(0.096 -0.096)">
     <defs>
      <path d="M 3116 1747 
Q 3116 2381 2855 2742 
Q 2594 3103 2138 3103 
Q 1681 3103 1420 2742 
Q 1159 2381 1159 1747 
Q 1159 1113 1420 752 
Q 1681 391 2138 391 
Q 2594 391 2855 752 
Q 3116 1113 3116 1747 
z
M 1159 2969 
Q 1341 3281 1617 3432 
Q 1894 3584 2278 3584 
Q 2916 3584 3314 3078 
Q 3713 2572 3713 1747 
Q 3713 922 3314 415 
Q 2916 -91 2278 -91 
Q 1894 -91 1617 61 
Q 1341 213 1159 525 
L 1159 0 
L 581 0 
L 581 4863 
L 1159 4863 
L 1159 2969 
z
" id="DejaVuSans-62" transform="scale(0.015625)"/>
     </defs>
     <use xlink:href="#DejaVuSans-76"/>
     <use x="59.179688" xlink:href="#DejaVuSans-61"/>
     <use x="120.458984" xlink:href="#DejaVuSans-72"/>
     <use x="161.572266" xlink:href="#DejaVuSans-69"/>
     <use x="189.355469" xlink:href="#DejaVuSans-61"/>
     <use x="250.634766" xlink:href="#DejaVuSans-62"/>
     <use x="314.111328" xlink:href="#DejaVuSans-6c"/>
     <use x="341.894531" xlink:href="#DejaVuSans-65"/>
    </g>
   </g>
   <g id="line2d_42">
    <path d="M 337.09715 160.682691 
L 343.53715 160.682691 
" style="fill:none;stroke:#1f77b4;stroke-linecap:round;stroke-width:1.5;"/>
   </g>
   <g id="line2d_43"/>
   <g id="text_13">
    <!-- cbender -->
    <g style="fill:#262626;" transform="translate(348.68915 165.190691)scale(0.1288 -0.1288)">
     <defs>
      <path d="M 3122 3366 
L 3122 2828 
Q 2878 2963 2633 3030 
Q 2388 3097 2138 3097 
Q 1578 3097 1268 2742 
Q 959 2388 959 1747 
Q 959 1106 1268 751 
Q 1578 397 2138 397 
Q 2388 397 2633 464 
Q 2878 531 3122 666 
L 3122 134 
Q 2881 22 2623 -34 
Q 2366 -91 2075 -91 
Q 1284 -91 818 406 
Q 353 903 353 1747 
Q 353 2603 823 3093 
Q 1294 3584 2113 3584 
Q 2378 3584 2631 3529 
Q 2884 3475 3122 3366 
z
" id="DejaVuSans-63" transform="scale(0.015625)"/>
      <path d="M 2906 2969 
L 2906 4863 
L 3481 4863 
L 3481 0 
L 2906 0 
L 2906 525 
Q 2725 213 2448 61 
Q 2172 -91 1784 -91 
Q 1150 -91 751 415 
Q 353 922 353 1747 
Q 353 2572 751 3078 
Q 1150 3584 1784 3584 
Q 2172 3584 2448 3432 
Q 2725 3281 2906 2969 
z
M 947 1747 
Q 947 1113 1208 752 
Q 1469 391 1925 391 
Q 2381 391 2643 752 
Q 2906 1113 2906 1747 
Q 2906 2381 2643 2742 
Q 2381 3103 1925 3103 
Q 1469 3103 1208 2742 
Q 947 2381 947 1747 
z
" id="DejaVuSans-64" transform="scale(0.015625)"/>
     </defs>
     <use xlink:href="#DejaVuSans-63"/>
     <use x="54.980469" xlink:href="#DejaVuSans-62"/>
     <use x="118.457031" xlink:href="#DejaVuSans-65"/>
     <use x="179.980469" xlink:href="#DejaVuSans-6e"/>
     <use x="243.359375" xlink:href="#DejaVuSans-64"/>
     <use x="306.835938" xlink:href="#DejaVuSans-65"/>
     <use x="368.359375" xlink:href="#DejaVuSans-72"/>
    </g>
   </g>
   <g id="line2d_44">
    <path d="M 337.09715 179.588116 
L 343.53715 179.588116 
" style="fill:none;stroke:#ff7f0e;stroke-linecap:round;stroke-width:1.5;"/>
   </g>
   <g id="line2d_45"/>
   <g id="text_14">
    <!-- umi -->
    <g style="fill:#262626;" transform="translate(348.68915 184.096116)scale(0.1288 -0.1288)">
     <defs>
      <path d="M 3328 2828 
Q 3544 3216 3844 3400 
Q 4144 3584 4550 3584 
Q 5097 3584 5394 3201 
Q 5691 2819 5691 2113 
L 5691 0 
L 5113 0 
L 5113 2094 
Q 5113 2597 4934 2840 
Q 4756 3084 4391 3084 
Q 3944 3084 3684 2787 
Q 3425 2491 3425 1978 
L 3425 0 
L 2847 0 
L 2847 2094 
Q 2847 2600 2669 2842 
Q 2491 3084 2119 3084 
Q 1678 3084 1418 2786 
Q 1159 2488 1159 1978 
L 1159 0 
L 581 0 
L 581 3500 
L 1159 3500 
L 1159 2956 
Q 1356 3278 1631 3431 
Q 1906 3584 2284 3584 
Q 2666 3584 2933 3390 
Q 3200 3197 3328 2828 
z
" id="DejaVuSans-6d" transform="scale(0.015625)"/>
     </defs>
     <use xlink:href="#DejaVuSans-75"/>
     <use x="63.378906" xlink:href="#DejaVuSans-6d"/>
     <use x="160.791016" xlink:href="#DejaVuSans-69"/>
    </g>
   </g>
  </g>
 </g>
 <defs>
  <clipPath id="pcb4b31481a">
   <rect height="281.73" width="277.453165" x="48.11375" y="5.318906"/>
  </clipPath>
 </defs>
</svg>
