<?xml version="1.0" encoding="utf-8" standalone="no"?>
<!DOCTYPE svg PUBLIC "-//W3C//DTD SVG 1.1//EN"
  "http://www.w3.org/Graphics/SVG/1.1/DTD/svg11.dtd">
<svg height="401.165313pt" version="1.1" viewBox="0 0 401.217812 401.165313" width="401.217812pt" xmlns="http://www.w3.org/2000/svg" xmlns:xlink="http://www.w3.org/1999/xlink">
 <metadata>
  <rdf:RDF xmlns:cc="http://creativecommons.org/ns#" xmlns:dc="http://purl.org/dc/elements/1.1/" xmlns:rdf="http://www.w3.org/1999/02/22-rdf-syntax-ns#">
   <cc:Work>
    <dc:type rdf:resource="http://purl.org/dc/dcmitype/StillImage"/>
    <dc:date>2023-02-20T12:56:46.440217</dc:date>
    <dc:format>image/svg+xml</dc:format>
    <dc:creator>
     <cc:Agent>
      <dc:title>Matplotlib v3.4.3, https://matplotlib.org/</dc:title>
     </cc:Agent>
    </dc:creator>
   </cc:Work>
  </rdf:RDF>
 </metadata>
 <defs>
  <style type="text/css">*{stroke-linecap:butt;stroke-linejoin:round;}</style>
 </defs>
 <g id="figure_1">
  <g id="patch_1">
   <path d="M 0 401.165313 
L 401.217812 401.165313 
L 401.217812 0 
L 0 0 
z
" style="fill:none;"/>
  </g>
  <g id="axes_1">
   <g id="patch_2">
    <path d="M 48.503125 361.377188 
L 340.752437 361.377188 
L 340.752437 61.950375 
L 48.503125 61.950375 
z
" style="fill:none;"/>
   </g>
   <g id="matplotlib.axis_1">
    <g id="xtick_1">
     <g id="line2d_1">
      <path clip-path="url(#p68333b0450)" d="M 81.385238 361.377188 
L 81.385238 61.950375 
" style="fill:none;stroke:#cccccc;stroke-linecap:round;stroke-width:0.8;"/>
     </g>
     <g id="line2d_2">
      <defs>
       <path d="M 0 0 
L 0 4.8 
" id="mee6ddc7175" style="stroke:#000000;"/>
      </defs>
      <g>
       <use style="stroke:#000000;" x="81.385238" xlink:href="#mee6ddc7175" y="361.377188"/>
      </g>
     </g>
     <g id="text_1">
      <!-- 0.00 -->
      <g transform="translate(65.7993 380.315)scale(0.14 -0.14)">
       <defs>
        <path d="M 2034 4250 
Q 1547 4250 1301 3770 
Q 1056 3291 1056 2328 
Q 1056 1369 1301 889 
Q 1547 409 2034 409 
Q 2525 409 2770 889 
Q 3016 1369 3016 2328 
Q 3016 3291 2770 3770 
Q 2525 4250 2034 4250 
z
M 2034 4750 
Q 2819 4750 3233 4129 
Q 3647 3509 3647 2328 
Q 3647 1150 3233 529 
Q 2819 -91 2034 -91 
Q 1250 -91 836 529 
Q 422 1150 422 2328 
Q 422 3509 836 4129 
Q 1250 4750 2034 4750 
z
" id="DejaVuSans-30" transform="scale(0.015625)"/>
        <path d="M 684 794 
L 1344 794 
L 1344 0 
L 684 0 
L 684 794 
z
" id="DejaVuSans-2e" transform="scale(0.015625)"/>
       </defs>
       <use xlink:href="#DejaVuSans-30"/>
       <use x="63.623047" xlink:href="#DejaVuSans-2e"/>
       <use x="95.410156" xlink:href="#DejaVuSans-30"/>
       <use x="159.033203" xlink:href="#DejaVuSans-30"/>
      </g>
     </g>
    </g>
    <g id="xtick_2">
     <g id="line2d_3">
      <path clip-path="url(#p68333b0450)" d="M 138.003428 361.377188 
L 138.003428 61.950375 
" style="fill:none;stroke:#cccccc;stroke-linecap:round;stroke-width:0.8;"/>
     </g>
     <g id="line2d_4">
      <g>
       <use style="stroke:#000000;" x="138.003428" xlink:href="#mee6ddc7175" y="361.377188"/>
      </g>
     </g>
     <g id="text_2">
      <!-- 0.25 -->
      <g transform="translate(122.417491 380.315)scale(0.14 -0.14)">
       <defs>
        <path d="M 1228 531 
L 3431 531 
L 3431 0 
L 469 0 
L 469 531 
Q 828 903 1448 1529 
Q 2069 2156 2228 2338 
Q 2531 2678 2651 2914 
Q 2772 3150 2772 3378 
Q 2772 3750 2511 3984 
Q 2250 4219 1831 4219 
Q 1534 4219 1204 4116 
Q 875 4013 500 3803 
L 500 4441 
Q 881 4594 1212 4672 
Q 1544 4750 1819 4750 
Q 2544 4750 2975 4387 
Q 3406 4025 3406 3419 
Q 3406 3131 3298 2873 
Q 3191 2616 2906 2266 
Q 2828 2175 2409 1742 
Q 1991 1309 1228 531 
z
" id="DejaVuSans-32" transform="scale(0.015625)"/>
        <path d="M 691 4666 
L 3169 4666 
L 3169 4134 
L 1269 4134 
L 1269 2991 
Q 1406 3038 1543 3061 
Q 1681 3084 1819 3084 
Q 2600 3084 3056 2656 
Q 3513 2228 3513 1497 
Q 3513 744 3044 326 
Q 2575 -91 1722 -91 
Q 1428 -91 1123 -41 
Q 819 9 494 109 
L 494 744 
Q 775 591 1075 516 
Q 1375 441 1709 441 
Q 2250 441 2565 725 
Q 2881 1009 2881 1497 
Q 2881 1984 2565 2268 
Q 2250 2553 1709 2553 
Q 1456 2553 1204 2497 
Q 953 2441 691 2322 
L 691 4666 
z
" id="DejaVuSans-35" transform="scale(0.015625)"/>
       </defs>
       <use xlink:href="#DejaVuSans-30"/>
       <use x="63.623047" xlink:href="#DejaVuSans-2e"/>
       <use x="95.410156" xlink:href="#DejaVuSans-32"/>
       <use x="159.033203" xlink:href="#DejaVuSans-35"/>
      </g>
     </g>
    </g>
    <g id="xtick_3">
     <g id="line2d_5">
      <path clip-path="url(#p68333b0450)" d="M 194.621618 361.377188 
L 194.621618 61.950375 
" style="fill:none;stroke:#cccccc;stroke-linecap:round;stroke-width:0.8;"/>
     </g>
     <g id="line2d_6">
      <g>
       <use style="stroke:#000000;" x="194.621618" xlink:href="#mee6ddc7175" y="361.377188"/>
      </g>
     </g>
     <g id="text_3">
      <!-- 0.50 -->
      <g transform="translate(179.035681 380.315)scale(0.14 -0.14)">
       <use xlink:href="#DejaVuSans-30"/>
       <use x="63.623047" xlink:href="#DejaVuSans-2e"/>
       <use x="95.410156" xlink:href="#DejaVuSans-35"/>
       <use x="159.033203" xlink:href="#DejaVuSans-30"/>
      </g>
     </g>
    </g>
    <g id="xtick_4">
     <g id="line2d_7">
      <path clip-path="url(#p68333b0450)" d="M 251.239809 361.377188 
L 251.239809 61.950375 
" style="fill:none;stroke:#cccccc;stroke-linecap:round;stroke-width:0.8;"/>
     </g>
     <g id="line2d_8">
      <g>
       <use style="stroke:#000000;" x="251.239809" xlink:href="#mee6ddc7175" y="361.377188"/>
      </g>
     </g>
     <g id="text_4">
      <!-- 0.75 -->
      <g transform="translate(235.653871 380.315)scale(0.14 -0.14)">
       <defs>
        <path d="M 525 4666 
L 3525 4666 
L 3525 4397 
L 1831 0 
L 1172 0 
L 2766 4134 
L 525 4134 
L 525 4666 
z
" id="DejaVuSans-37" transform="scale(0.015625)"/>
       </defs>
       <use xlink:href="#DejaVuSans-30"/>
       <use x="63.623047" xlink:href="#DejaVuSans-2e"/>
       <use x="95.410156" xlink:href="#DejaVuSans-37"/>
       <use x="159.033203" xlink:href="#DejaVuSans-35"/>
      </g>
     </g>
    </g>
    <g id="xtick_5">
     <g id="line2d_9">
      <path clip-path="url(#p68333b0450)" d="M 307.857999 361.377188 
L 307.857999 61.950375 
" style="fill:none;stroke:#cccccc;stroke-linecap:round;stroke-width:0.8;"/>
     </g>
     <g id="line2d_10">
      <g>
       <use style="stroke:#000000;" x="307.857999" xlink:href="#mee6ddc7175" y="361.377188"/>
      </g>
     </g>
     <g id="text_5">
      <!-- 1.00 -->
      <g transform="translate(292.272061 380.315)scale(0.14 -0.14)">
       <defs>
        <path d="M 794 531 
L 1825 531 
L 1825 4091 
L 703 3866 
L 703 4441 
L 1819 4666 
L 2450 4666 
L 2450 531 
L 3481 531 
L 3481 0 
L 794 0 
L 794 531 
z
" id="DejaVuSans-31" transform="scale(0.015625)"/>
       </defs>
       <use xlink:href="#DejaVuSans-31"/>
       <use x="63.623047" xlink:href="#DejaVuSans-2e"/>
       <use x="95.410156" xlink:href="#DejaVuSans-30"/>
       <use x="159.033203" xlink:href="#DejaVuSans-30"/>
      </g>
     </g>
    </g>
    <g id="text_6">
     <!-- Immune_All_Low_conf_score -->
     <g style="fill:#262626;" transform="translate(95.444344 397.864375)scale(0.14 -0.14)">
      <defs>
       <path d="M 628 4666 
L 1259 4666 
L 1259 0 
L 628 0 
L 628 4666 
z
" id="DejaVuSans-49" transform="scale(0.015625)"/>
       <path d="M 3328 2828 
Q 3544 3216 3844 3400 
Q 4144 3584 4550 3584 
Q 5097 3584 5394 3201 
Q 5691 2819 5691 2113 
L 5691 0 
L 5113 0 
L 5113 2094 
Q 5113 2597 4934 2840 
Q 4756 3084 4391 3084 
Q 3944 3084 3684 2787 
Q 3425 2491 3425 1978 
L 3425 0 
L 2847 0 
L 2847 2094 
Q 2847 2600 2669 2842 
Q 2491 3084 2119 3084 
Q 1678 3084 1418 2786 
Q 1159 2488 1159 1978 
L 1159 0 
L 581 0 
L 581 3500 
L 1159 3500 
L 1159 2956 
Q 1356 3278 1631 3431 
Q 1906 3584 2284 3584 
Q 2666 3584 2933 3390 
Q 3200 3197 3328 2828 
z
" id="DejaVuSans-6d" transform="scale(0.015625)"/>
       <path d="M 544 1381 
L 544 3500 
L 1119 3500 
L 1119 1403 
Q 1119 906 1312 657 
Q 1506 409 1894 409 
Q 2359 409 2629 706 
Q 2900 1003 2900 1516 
L 2900 3500 
L 3475 3500 
L 3475 0 
L 2900 0 
L 2900 538 
Q 2691 219 2414 64 
Q 2138 -91 1772 -91 
Q 1169 -91 856 284 
Q 544 659 544 1381 
z
M 1991 3584 
L 1991 3584 
z
" id="DejaVuSans-75" transform="scale(0.015625)"/>
       <path d="M 3513 2113 
L 3513 0 
L 2938 0 
L 2938 2094 
Q 2938 2591 2744 2837 
Q 2550 3084 2163 3084 
Q 1697 3084 1428 2787 
Q 1159 2491 1159 1978 
L 1159 0 
L 581 0 
L 581 3500 
L 1159 3500 
L 1159 2956 
Q 1366 3272 1645 3428 
Q 1925 3584 2291 3584 
Q 2894 3584 3203 3211 
Q 3513 2838 3513 2113 
z
" id="DejaVuSans-6e" transform="scale(0.015625)"/>
       <path d="M 3597 1894 
L 3597 1613 
L 953 1613 
Q 991 1019 1311 708 
Q 1631 397 2203 397 
Q 2534 397 2845 478 
Q 3156 559 3463 722 
L 3463 178 
Q 3153 47 2828 -22 
Q 2503 -91 2169 -91 
Q 1331 -91 842 396 
Q 353 884 353 1716 
Q 353 2575 817 3079 
Q 1281 3584 2069 3584 
Q 2775 3584 3186 3129 
Q 3597 2675 3597 1894 
z
M 3022 2063 
Q 3016 2534 2758 2815 
Q 2500 3097 2075 3097 
Q 1594 3097 1305 2825 
Q 1016 2553 972 2059 
L 3022 2063 
z
" id="DejaVuSans-65" transform="scale(0.015625)"/>
       <path d="M 3263 -1063 
L 3263 -1509 
L -63 -1509 
L -63 -1063 
L 3263 -1063 
z
" id="DejaVuSans-5f" transform="scale(0.015625)"/>
       <path d="M 2188 4044 
L 1331 1722 
L 3047 1722 
L 2188 4044 
z
M 1831 4666 
L 2547 4666 
L 4325 0 
L 3669 0 
L 3244 1197 
L 1141 1197 
L 716 0 
L 50 0 
L 1831 4666 
z
" id="DejaVuSans-41" transform="scale(0.015625)"/>
       <path d="M 603 4863 
L 1178 4863 
L 1178 0 
L 603 0 
L 603 4863 
z
" id="DejaVuSans-6c" transform="scale(0.015625)"/>
       <path d="M 628 4666 
L 1259 4666 
L 1259 531 
L 3531 531 
L 3531 0 
L 628 0 
L 628 4666 
z
" id="DejaVuSans-4c" transform="scale(0.015625)"/>
       <path d="M 1959 3097 
Q 1497 3097 1228 2736 
Q 959 2375 959 1747 
Q 959 1119 1226 758 
Q 1494 397 1959 397 
Q 2419 397 2687 759 
Q 2956 1122 2956 1747 
Q 2956 2369 2687 2733 
Q 2419 3097 1959 3097 
z
M 1959 3584 
Q 2709 3584 3137 3096 
Q 3566 2609 3566 1747 
Q 3566 888 3137 398 
Q 2709 -91 1959 -91 
Q 1206 -91 779 398 
Q 353 888 353 1747 
Q 353 2609 779 3096 
Q 1206 3584 1959 3584 
z
" id="DejaVuSans-6f" transform="scale(0.015625)"/>
       <path d="M 269 3500 
L 844 3500 
L 1563 769 
L 2278 3500 
L 2956 3500 
L 3675 769 
L 4391 3500 
L 4966 3500 
L 4050 0 
L 3372 0 
L 2619 2869 
L 1863 0 
L 1184 0 
L 269 3500 
z
" id="DejaVuSans-77" transform="scale(0.015625)"/>
       <path d="M 3122 3366 
L 3122 2828 
Q 2878 2963 2633 3030 
Q 2388 3097 2138 3097 
Q 1578 3097 1268 2742 
Q 959 2388 959 1747 
Q 959 1106 1268 751 
Q 1578 397 2138 397 
Q 2388 397 2633 464 
Q 2878 531 3122 666 
L 3122 134 
Q 2881 22 2623 -34 
Q 2366 -91 2075 -91 
Q 1284 -91 818 406 
Q 353 903 353 1747 
Q 353 2603 823 3093 
Q 1294 3584 2113 3584 
Q 2378 3584 2631 3529 
Q 2884 3475 3122 3366 
z
" id="DejaVuSans-63" transform="scale(0.015625)"/>
       <path d="M 2375 4863 
L 2375 4384 
L 1825 4384 
Q 1516 4384 1395 4259 
Q 1275 4134 1275 3809 
L 1275 3500 
L 2222 3500 
L 2222 3053 
L 1275 3053 
L 1275 0 
L 697 0 
L 697 3053 
L 147 3053 
L 147 3500 
L 697 3500 
L 697 3744 
Q 697 4328 969 4595 
Q 1241 4863 1831 4863 
L 2375 4863 
z
" id="DejaVuSans-66" transform="scale(0.015625)"/>
       <path d="M 2834 3397 
L 2834 2853 
Q 2591 2978 2328 3040 
Q 2066 3103 1784 3103 
Q 1356 3103 1142 2972 
Q 928 2841 928 2578 
Q 928 2378 1081 2264 
Q 1234 2150 1697 2047 
L 1894 2003 
Q 2506 1872 2764 1633 
Q 3022 1394 3022 966 
Q 3022 478 2636 193 
Q 2250 -91 1575 -91 
Q 1294 -91 989 -36 
Q 684 19 347 128 
L 347 722 
Q 666 556 975 473 
Q 1284 391 1588 391 
Q 1994 391 2212 530 
Q 2431 669 2431 922 
Q 2431 1156 2273 1281 
Q 2116 1406 1581 1522 
L 1381 1569 
Q 847 1681 609 1914 
Q 372 2147 372 2553 
Q 372 3047 722 3315 
Q 1072 3584 1716 3584 
Q 2034 3584 2315 3537 
Q 2597 3491 2834 3397 
z
" id="DejaVuSans-73" transform="scale(0.015625)"/>
       <path d="M 2631 2963 
Q 2534 3019 2420 3045 
Q 2306 3072 2169 3072 
Q 1681 3072 1420 2755 
Q 1159 2438 1159 1844 
L 1159 0 
L 581 0 
L 581 3500 
L 1159 3500 
L 1159 2956 
Q 1341 3275 1631 3429 
Q 1922 3584 2338 3584 
Q 2397 3584 2469 3576 
Q 2541 3569 2628 3553 
L 2631 2963 
z
" id="DejaVuSans-72" transform="scale(0.015625)"/>
      </defs>
      <use xlink:href="#DejaVuSans-49"/>
      <use x="29.492188" xlink:href="#DejaVuSans-6d"/>
      <use x="126.904297" xlink:href="#DejaVuSans-6d"/>
      <use x="224.316406" xlink:href="#DejaVuSans-75"/>
      <use x="287.695312" xlink:href="#DejaVuSans-6e"/>
      <use x="351.074219" xlink:href="#DejaVuSans-65"/>
      <use x="412.597656" xlink:href="#DejaVuSans-5f"/>
      <use x="462.597656" xlink:href="#DejaVuSans-41"/>
      <use x="531.005859" xlink:href="#DejaVuSans-6c"/>
      <use x="558.789062" xlink:href="#DejaVuSans-6c"/>
      <use x="586.572266" xlink:href="#DejaVuSans-5f"/>
      <use x="636.572266" xlink:href="#DejaVuSans-4c"/>
      <use x="690.535156" xlink:href="#DejaVuSans-6f"/>
      <use x="751.716797" xlink:href="#DejaVuSans-77"/>
      <use x="833.503906" xlink:href="#DejaVuSans-5f"/>
      <use x="883.503906" xlink:href="#DejaVuSans-63"/>
      <use x="938.484375" xlink:href="#DejaVuSans-6f"/>
      <use x="999.666016" xlink:href="#DejaVuSans-6e"/>
      <use x="1063.044922" xlink:href="#DejaVuSans-66"/>
      <use x="1098.25" xlink:href="#DejaVuSans-5f"/>
      <use x="1148.25" xlink:href="#DejaVuSans-73"/>
      <use x="1200.349609" xlink:href="#DejaVuSans-63"/>
      <use x="1255.330078" xlink:href="#DejaVuSans-6f"/>
      <use x="1316.511719" xlink:href="#DejaVuSans-72"/>
      <use x="1355.375" xlink:href="#DejaVuSans-65"/>
     </g>
    </g>
   </g>
   <g id="matplotlib.axis_2">
    <g id="ytick_1">
     <g id="line2d_11">
      <path clip-path="url(#p68333b0450)" d="M 48.503125 331.809087 
L 340.752437 331.809087 
" style="fill:none;stroke:#cccccc;stroke-linecap:round;stroke-width:0.8;"/>
     </g>
     <g id="line2d_12">
      <defs>
       <path d="M 0 0 
L -4.8 0 
" id="m5378fadf87" style="stroke:#000000;"/>
      </defs>
      <g>
       <use style="stroke:#000000;" x="48.503125" xlink:href="#m5378fadf87" y="331.809087"/>
      </g>
     </g>
     <g id="text_7">
      <!-- 0.0 -->
      <g transform="translate(17.93875 337.127993)scale(0.14 -0.14)">
       <use xlink:href="#DejaVuSans-30"/>
       <use x="63.623047" xlink:href="#DejaVuSans-2e"/>
       <use x="95.410156" xlink:href="#DejaVuSans-30"/>
      </g>
     </g>
    </g>
    <g id="ytick_2">
     <g id="line2d_13">
      <path clip-path="url(#p68333b0450)" d="M 48.503125 283.753347 
L 340.752437 283.753347 
" style="fill:none;stroke:#cccccc;stroke-linecap:round;stroke-width:0.8;"/>
     </g>
     <g id="line2d_14">
      <g>
       <use style="stroke:#000000;" x="48.503125" xlink:href="#m5378fadf87" y="283.753347"/>
      </g>
     </g>
     <g id="text_8">
      <!-- 0.2 -->
      <g transform="translate(17.93875 289.072253)scale(0.14 -0.14)">
       <use xlink:href="#DejaVuSans-30"/>
       <use x="63.623047" xlink:href="#DejaVuSans-2e"/>
       <use x="95.410156" xlink:href="#DejaVuSans-32"/>
      </g>
     </g>
    </g>
    <g id="ytick_3">
     <g id="line2d_15">
      <path clip-path="url(#p68333b0450)" d="M 48.503125 235.697607 
L 340.752437 235.697607 
" style="fill:none;stroke:#cccccc;stroke-linecap:round;stroke-width:0.8;"/>
     </g>
     <g id="line2d_16">
      <g>
       <use style="stroke:#000000;" x="48.503125" xlink:href="#m5378fadf87" y="235.697607"/>
      </g>
     </g>
     <g id="text_9">
      <!-- 0.4 -->
      <g transform="translate(17.93875 241.016513)scale(0.14 -0.14)">
       <defs>
        <path d="M 2419 4116 
L 825 1625 
L 2419 1625 
L 2419 4116 
z
M 2253 4666 
L 3047 4666 
L 3047 1625 
L 3713 1625 
L 3713 1100 
L 3047 1100 
L 3047 0 
L 2419 0 
L 2419 1100 
L 313 1100 
L 313 1709 
L 2253 4666 
z
" id="DejaVuSans-34" transform="scale(0.015625)"/>
       </defs>
       <use xlink:href="#DejaVuSans-30"/>
       <use x="63.623047" xlink:href="#DejaVuSans-2e"/>
       <use x="95.410156" xlink:href="#DejaVuSans-34"/>
      </g>
     </g>
    </g>
    <g id="ytick_4">
     <g id="line2d_17">
      <path clip-path="url(#p68333b0450)" d="M 48.503125 187.641867 
L 340.752437 187.641867 
" style="fill:none;stroke:#cccccc;stroke-linecap:round;stroke-width:0.8;"/>
     </g>
     <g id="line2d_18">
      <g>
       <use style="stroke:#000000;" x="48.503125" xlink:href="#m5378fadf87" y="187.641867"/>
      </g>
     </g>
     <g id="text_10">
      <!-- 0.6 -->
      <g transform="translate(17.93875 192.960773)scale(0.14 -0.14)">
       <defs>
        <path d="M 2113 2584 
Q 1688 2584 1439 2293 
Q 1191 2003 1191 1497 
Q 1191 994 1439 701 
Q 1688 409 2113 409 
Q 2538 409 2786 701 
Q 3034 994 3034 1497 
Q 3034 2003 2786 2293 
Q 2538 2584 2113 2584 
z
M 3366 4563 
L 3366 3988 
Q 3128 4100 2886 4159 
Q 2644 4219 2406 4219 
Q 1781 4219 1451 3797 
Q 1122 3375 1075 2522 
Q 1259 2794 1537 2939 
Q 1816 3084 2150 3084 
Q 2853 3084 3261 2657 
Q 3669 2231 3669 1497 
Q 3669 778 3244 343 
Q 2819 -91 2113 -91 
Q 1303 -91 875 529 
Q 447 1150 447 2328 
Q 447 3434 972 4092 
Q 1497 4750 2381 4750 
Q 2619 4750 2861 4703 
Q 3103 4656 3366 4563 
z
" id="DejaVuSans-36" transform="scale(0.015625)"/>
       </defs>
       <use xlink:href="#DejaVuSans-30"/>
       <use x="63.623047" xlink:href="#DejaVuSans-2e"/>
       <use x="95.410156" xlink:href="#DejaVuSans-36"/>
      </g>
     </g>
    </g>
    <g id="ytick_5">
     <g id="line2d_19">
      <path clip-path="url(#p68333b0450)" d="M 48.503125 139.586127 
L 340.752437 139.586127 
" style="fill:none;stroke:#cccccc;stroke-linecap:round;stroke-width:0.8;"/>
     </g>
     <g id="line2d_20">
      <g>
       <use style="stroke:#000000;" x="48.503125" xlink:href="#m5378fadf87" y="139.586127"/>
      </g>
     </g>
     <g id="text_11">
      <!-- 0.8 -->
      <g transform="translate(17.93875 144.905033)scale(0.14 -0.14)">
       <defs>
        <path d="M 2034 2216 
Q 1584 2216 1326 1975 
Q 1069 1734 1069 1313 
Q 1069 891 1326 650 
Q 1584 409 2034 409 
Q 2484 409 2743 651 
Q 3003 894 3003 1313 
Q 3003 1734 2745 1975 
Q 2488 2216 2034 2216 
z
M 1403 2484 
Q 997 2584 770 2862 
Q 544 3141 544 3541 
Q 544 4100 942 4425 
Q 1341 4750 2034 4750 
Q 2731 4750 3128 4425 
Q 3525 4100 3525 3541 
Q 3525 3141 3298 2862 
Q 3072 2584 2669 2484 
Q 3125 2378 3379 2068 
Q 3634 1759 3634 1313 
Q 3634 634 3220 271 
Q 2806 -91 2034 -91 
Q 1263 -91 848 271 
Q 434 634 434 1313 
Q 434 1759 690 2068 
Q 947 2378 1403 2484 
z
M 1172 3481 
Q 1172 3119 1398 2916 
Q 1625 2713 2034 2713 
Q 2441 2713 2670 2916 
Q 2900 3119 2900 3481 
Q 2900 3844 2670 4047 
Q 2441 4250 2034 4250 
Q 1625 4250 1398 4047 
Q 1172 3844 1172 3481 
z
" id="DejaVuSans-38" transform="scale(0.015625)"/>
       </defs>
       <use xlink:href="#DejaVuSans-30"/>
       <use x="63.623047" xlink:href="#DejaVuSans-2e"/>
       <use x="95.410156" xlink:href="#DejaVuSans-38"/>
      </g>
     </g>
    </g>
    <g id="ytick_6">
     <g id="line2d_21">
      <path clip-path="url(#p68333b0450)" d="M 48.503125 91.530387 
L 340.752437 91.530387 
" style="fill:none;stroke:#cccccc;stroke-linecap:round;stroke-width:0.8;"/>
     </g>
     <g id="line2d_22">
      <g>
       <use style="stroke:#000000;" x="48.503125" xlink:href="#m5378fadf87" y="91.530387"/>
      </g>
     </g>
     <g id="text_12">
      <!-- 1.0 -->
      <g transform="translate(17.93875 96.849293)scale(0.14 -0.14)">
       <use xlink:href="#DejaVuSans-31"/>
       <use x="63.623047" xlink:href="#DejaVuSans-2e"/>
       <use x="95.410156" xlink:href="#DejaVuSans-30"/>
      </g>
     </g>
    </g>
    <g id="text_13">
     <!-- Immune_All_High_conf_score -->
     <g style="fill:#262626;" transform="translate(10.637812 313.150656)rotate(-90)scale(0.14 -0.14)">
      <defs>
       <path d="M 628 4666 
L 1259 4666 
L 1259 2753 
L 3553 2753 
L 3553 4666 
L 4184 4666 
L 4184 0 
L 3553 0 
L 3553 2222 
L 1259 2222 
L 1259 0 
L 628 0 
L 628 4666 
z
" id="DejaVuSans-48" transform="scale(0.015625)"/>
       <path d="M 603 3500 
L 1178 3500 
L 1178 0 
L 603 0 
L 603 3500 
z
M 603 4863 
L 1178 4863 
L 1178 4134 
L 603 4134 
L 603 4863 
z
" id="DejaVuSans-69" transform="scale(0.015625)"/>
       <path d="M 2906 1791 
Q 2906 2416 2648 2759 
Q 2391 3103 1925 3103 
Q 1463 3103 1205 2759 
Q 947 2416 947 1791 
Q 947 1169 1205 825 
Q 1463 481 1925 481 
Q 2391 481 2648 825 
Q 2906 1169 2906 1791 
z
M 3481 434 
Q 3481 -459 3084 -895 
Q 2688 -1331 1869 -1331 
Q 1566 -1331 1297 -1286 
Q 1028 -1241 775 -1147 
L 775 -588 
Q 1028 -725 1275 -790 
Q 1522 -856 1778 -856 
Q 2344 -856 2625 -561 
Q 2906 -266 2906 331 
L 2906 616 
Q 2728 306 2450 153 
Q 2172 0 1784 0 
Q 1141 0 747 490 
Q 353 981 353 1791 
Q 353 2603 747 3093 
Q 1141 3584 1784 3584 
Q 2172 3584 2450 3431 
Q 2728 3278 2906 2969 
L 2906 3500 
L 3481 3500 
L 3481 434 
z
" id="DejaVuSans-67" transform="scale(0.015625)"/>
       <path d="M 3513 2113 
L 3513 0 
L 2938 0 
L 2938 2094 
Q 2938 2591 2744 2837 
Q 2550 3084 2163 3084 
Q 1697 3084 1428 2787 
Q 1159 2491 1159 1978 
L 1159 0 
L 581 0 
L 581 4863 
L 1159 4863 
L 1159 2956 
Q 1366 3272 1645 3428 
Q 1925 3584 2291 3584 
Q 2894 3584 3203 3211 
Q 3513 2838 3513 2113 
z
" id="DejaVuSans-68" transform="scale(0.015625)"/>
      </defs>
      <use xlink:href="#DejaVuSans-49"/>
      <use x="29.492188" xlink:href="#DejaVuSans-6d"/>
      <use x="126.904297" xlink:href="#DejaVuSans-6d"/>
      <use x="224.316406" xlink:href="#DejaVuSans-75"/>
      <use x="287.695312" xlink:href="#DejaVuSans-6e"/>
      <use x="351.074219" xlink:href="#DejaVuSans-65"/>
      <use x="412.597656" xlink:href="#DejaVuSans-5f"/>
      <use x="462.597656" xlink:href="#DejaVuSans-41"/>
      <use x="531.005859" xlink:href="#DejaVuSans-6c"/>
      <use x="558.789062" xlink:href="#DejaVuSans-6c"/>
      <use x="586.572266" xlink:href="#DejaVuSans-5f"/>
      <use x="636.572266" xlink:href="#DejaVuSans-48"/>
      <use x="711.767578" xlink:href="#DejaVuSans-69"/>
      <use x="739.550781" xlink:href="#DejaVuSans-67"/>
      <use x="803.027344" xlink:href="#DejaVuSans-68"/>
      <use x="866.40625" xlink:href="#DejaVuSans-5f"/>
      <use x="916.40625" xlink:href="#DejaVuSans-63"/>
      <use x="971.386719" xlink:href="#DejaVuSans-6f"/>
      <use x="1032.568359" xlink:href="#DejaVuSans-6e"/>
      <use x="1095.947266" xlink:href="#DejaVuSans-66"/>
      <use x="1131.152344" xlink:href="#DejaVuSans-5f"/>
      <use x="1181.152344" xlink:href="#DejaVuSans-73"/>
      <use x="1233.251953" xlink:href="#DejaVuSans-63"/>
      <use x="1288.232422" xlink:href="#DejaVuSans-6f"/>
      <use x="1349.414062" xlink:href="#DejaVuSans-72"/>
      <use x="1388.277344" xlink:href="#DejaVuSans-65"/>
     </g>
    </g>
   </g>
   <g id="LineCollection_1">
    <path clip-path="url(#p68333b0450)" d="M 312.350572 61.950375 
L 309.912058 62.921371 
L 308.443468 63.611015 
L 306.974879 64.18254 
L 305.381776 64.95969 
L 302.56911 65.999739 
L 301.100521 66.5762 
L 295.226163 68.175741 
L 287.883215 69.378619 
L 284.946036 69.736782 
L 268.791552 71.531529 
L 255.574246 72.675005 
L 233.545403 73.946362 
L 205.642203 74.753564 
L 196.830666 74.936693 
L 189.487718 75.158349 
L 176.270412 75.725001 
L 170.396054 75.703309 
L 149.835801 75.355698 
L 126.338369 74.878027 
L 117.526832 74.233011 
L 110.183884 73.728564 
L 107.246705 73.718608 
L 103.817988 73.987634 
L 101.372347 74.308155 
L 98.435168 74.943466 
L 94.0294 76.361141 
L 89.364202 78.501606 
L 88.155042 79.098667 
L 83.749273 81.822004 
L 80.125712 84.520235 
L 77.874915 86.430203 
L 74.937736 89.288405 
L 72.468385 92.043522 
L 70.202134 95.052837 
L 68.317935 98.062151 
L 66.852679 101.071466 
L 65.825703 104.080781 
L 65.46224 105.585438 
L 65.231748 107.090095 
L 65.125864 108.594753 
L 65.142484 110.09941 
L 65.281693 111.604068 
L 65.541581 113.108725 
L 66.354638 116.11804 
L 69.599638 126.650641 
L 70.590053 131.164613 
L 71.537795 137.183242 
L 72.295877 143.201872 
L 72.620259 147.715844 
L 72.66538 152.229816 
L 72.721485 158.248445 
L 72.953749 161.25776 
L 73.576447 165.771732 
L 74.160881 170.285704 
L 74.443355 174.799676 
L 75.006406 191.350907 
L 75.394512 200.378851 
L 75.318826 204.892823 
L 74.937736 209.590579 
L 74.022816 218.434739 
L 73.849479 222.948711 
L 73.694649 230.471998 
L 73.361967 234.98597 
L 72.211585 247.023229 
L 72.000557 252.260842 
L 71.993909 257.55583 
L 71.979964 263.57446 
L 71.741567 268.088432 
L 71.133593 274.107061 
L 69.618989 287.648977 
L 68.674028 298.181579 
L 67.780461 304.200208 
L 66.906152 308.71418 
L 65.27263 316.237467 
L 64.157619 320.751439 
L 60.541651 334.293355 
L 59.832523 338.807327 
L 59.758704 340.311985 
L 59.809329 341.816642 
L 60.251841 344.158898 
L 60.434129 344.825957 
L 61.131974 346.330614 
L 62.326622 347.835271 
L 63.18902 348.566588 
L 64.65761 349.405817 
L 66.126199 349.952638 
L 67.594789 350.267832 
L 69.063378 350.419822 
L 72.000557 350.388119 
L 74.937736 350.029538 
L 78.020036 349.339929 
L 80.812094 348.669349 
L 86.686452 346.854228 
L 89.623631 345.890697 
L 101.372347 342.198471 
L 104.309526 341.342708 
L 111.652474 339.378324 
L 116.058242 338.418498 
L 135.149906 334.841192 
L 146.898622 332.101322 
L 155.754675 329.779383 
L 164.521696 327.20059 
L 179.207591 322.774959 
L 182.14477 322.183094 
L 183.61336 322.017285 
L 185.081949 322.017321 
L 186.550539 322.270808 
L 188.019128 322.782974 
L 190.956307 324.142105 
L 192.424897 324.523431 
L 193.893486 324.676994 
L 195.362076 324.618066 
L 196.830666 324.388318 
L 199.123678 323.760754 
L 201.236434 322.844873 
L 202.705024 322.079362 
L 204.698292 320.751439 
L 206.429987 319.246782 
L 207.767384 317.742124 
L 208.809602 316.237467 
L 210.047971 313.706492 
L 210.251287 313.228152 
L 210.71622 311.723495 
L 211.031643 310.218838 
L 211.118904 308.71418 
L 210.711196 307.209523 
L 210.047971 306.470257 
L 208.579382 305.850504 
L 207.110792 305.669245 
L 202.705024 305.425667 
L 201.236434 305.001411 
L 199.767845 304.024592 
L 197.299244 301.190894 
L 196.830666 300.835178 
L 195.362076 300.066743 
L 193.893486 299.67445 
L 190.956307 299.463413 
L 188.019128 299.371234 
L 186.550539 299.216933 
L 185.081949 298.880388 
L 183.539864 298.181579 
L 182.108275 296.676921 
L 181.379041 295.172264 
L 180.676181 293.413305 
L 180.028721 292.162949 
L 179.207591 291.148264 
L 178.65301 290.658292 
L 177.739002 290.069958 
L 172.950114 287.648977 
L 171.500899 286.14432 
L 170.396054 284.047081 
L 168.660584 280.125691 
L 166.734219 277.116376 
L 164.521696 273.67922 
L 163.616973 272.602404 
L 163.053107 272.152921 
L 160.93568 271.097747 
L 158.647338 270.589221 
L 152.77298 269.468343 
L 147.757758 268.088432 
L 143.961443 267.082483 
L 141.024264 266.249535 
L 139.555675 265.57562 
L 138.834357 265.079117 
L 138.087085 264.319459 
L 137.614347 263.57446 
L 137.154788 262.069802 
L 137.071866 260.565145 
L 137.22407 259.060488 
L 137.917755 256.051173 
L 138.975522 253.041858 
L 140.239624 250.032544 
L 142.492854 245.301788 
L 145.340422 239.499942 
L 147.19183 234.98597 
L 148.093987 231.976655 
L 148.623397 228.967341 
L 148.690167 227.462683 
L 148.577613 225.958026 
L 148.197381 224.453369 
L 147.332764 222.948711 
L 146.898622 222.446013 
L 145.430033 221.581889 
L 143.961443 221.221854 
L 139.555675 220.741105 
L 138.087085 220.41651 
L 135.149906 219.31734 
L 132.212727 217.851193 
L 130.612854 216.930082 
L 128.686531 215.425425 
L 127.631042 213.920767 
L 127.250626 212.41611 
L 127.265706 210.911453 
L 127.806959 208.456798 
L 128.491684 206.397481 
L 130.039347 201.883508 
L 130.366516 200.378851 
L 130.449811 198.874194 
L 130.112689 197.369536 
L 129.19589 195.864879 
L 127.806959 194.161868 
L 127.014563 192.855564 
L 126.283593 191.350907 
L 124.786615 186.836935 
L 124.457912 185.332278 
L 124.243477 183.82762 
L 124.166098 182.322963 
L 124.22243 180.818306 
L 124.670258 177.808991 
L 125.527451 174.799676 
L 126.71057 171.790361 
L 128.216315 168.781047 
L 130.027095 165.771732 
L 132.142257 162.762417 
L 132.212727 162.658735 
L 135.149906 159.035288 
L 138.087085 156.120386 
L 141.024264 154.03642 
L 143.961443 152.599968 
L 154.24157 149.058507 
L 157.178749 147.56213 
L 160.115928 145.539584 
L 163.053107 143.091508 
L 170.396054 136.655623 
L 173.613731 134.173928 
L 176.270412 132.40886 
L 179.207591 130.803375 
L 182.14477 129.617427 
L 183.61336 129.250097 
L 185.081949 129.021733 
L 186.550539 128.96085 
L 188.019128 129.088402 
L 190.294279 129.659956 
L 192.424897 130.576273 
L 195.362076 132.117143 
L 198.299255 133.849758 
L 201.236434 135.782137 
L 203.089623 137.183242 
L 204.679152 138.6879 
L 205.821223 140.192557 
L 206.561336 141.697215 
L 207.110792 143.691263 
L 207.271468 144.706529 
L 207.34592 146.211187 
L 207.143842 149.220501 
L 206.633348 153.734473 
L 206.87021 155.239131 
L 207.110792 155.624376 
L 208.579382 156.743788 
L 210.047971 157.086114 
L 211.516561 157.234106 
L 214.45374 157.226416 
L 218.859508 156.835437 
L 227.671045 155.732732 
L 230.608224 155.593456 
L 232.076814 155.690973 
L 233.545403 155.992386 
L 235.223675 156.743788 
L 236.562698 158.248445 
L 237.12965 159.753103 
L 237.403461 161.25776 
L 237.951172 166.197227 
L 238.309421 167.276389 
L 239.419761 169.013211 
L 240.888351 170.317701 
L 243.429614 171.790361 
L 245.294119 172.512415 
L 251.168477 174.521092 
L 252.637067 175.347231 
L 254.105656 176.703624 
L 254.75554 177.808991 
L 255.198108 179.313648 
L 255.261889 180.818306 
L 255.047878 182.322963 
L 254.641107 183.82762 
L 254.105482 185.332278 
L 252.637067 188.403315 
L 249.403125 194.360222 
L 248.061367 197.369536 
L 247.545345 198.874194 
L 247.207153 200.378851 
L 247.060718 201.883508 
L 247.144185 203.388166 
L 247.524887 204.892823 
L 248.297917 206.397481 
L 249.699888 208.091148 
L 251.168477 209.429902 
L 255.574246 212.854228 
L 256.631899 213.920767 
L 257.042835 214.493375 
L 257.574086 215.425425 
L 257.983039 216.930082 
L 258.020758 218.434739 
L 257.808703 219.939397 
L 257.042835 222.580332 
L 256.362388 224.453369 
L 254.105656 230.211096 
L 254.012481 230.471998 
L 253.655661 231.976655 
L 253.510893 233.481313 
L 253.806496 234.98597 
L 254.105656 235.469462 
L 255.574246 236.219511 
L 257.042835 236.130336 
L 258.511425 235.651355 
L 261.448604 233.990615 
L 264.385783 231.92412 
L 267.322962 230.059087 
L 269.669076 228.967341 
L 270.260141 228.770391 
L 271.728731 228.686012 
L 272.324814 228.967341 
L 273.028474 230.471998 
L 272.65528 231.976655 
L 271.728731 233.9132 
L 269.907811 236.490628 
L 267.322962 239.631221 
L 264.979937 242.509257 
L 264.037875 244.013914 
L 263.357864 245.518572 
L 263.064922 247.023229 
L 263.284287 248.527886 
L 264.436896 250.032544 
L 265.854372 250.79713 
L 268.08306 251.537201 
L 270.260141 251.886678 
L 274.66591 252.23783 
L 277.603089 252.519703 
L 279.879811 253.041858 
L 280.540268 253.293242 
L 282.36293 254.546516 
L 283.477447 256.417454 
L 283.760534 257.55583 
L 283.847841 259.060488 
L 283.717374 260.565145 
L 283.417926 262.069802 
L 282.415365 265.079117 
L 281.085232 268.088432 
L 279.071678 272.019006 
L 272.211435 284.639663 
L 271.710156 286.14432 
L 271.555699 287.648977 
L 272.004562 289.153635 
L 274.353141 292.162949 
L 274.66591 292.695079 
L 275.046202 293.667607 
L 275.384649 295.172264 
L 275.528043 296.676921 
L 275.527425 299.686236 
L 275.357207 308.71418 
L 275.373679 311.723495 
L 275.503627 313.228152 
L 275.83685 314.73281 
L 276.498784 316.237467 
L 277.700078 317.742124 
L 279.602911 319.246782 
L 283.477447 321.54222 
L 286.639056 323.760754 
L 289.351805 325.759937 
L 291.006055 326.770068 
L 292.288984 327.334734 
L 293.757573 327.762149 
L 295.226163 327.956598 
L 296.694752 327.9264 
L 298.163342 327.687599 
L 299.631931 327.256375 
L 301.100521 326.634587 
L 303.340221 325.265411 
L 304.0377 324.750539 
L 305.506289 323.458281 
L 306.974879 321.845595 
L 308.443468 319.7898 
L 308.779079 319.246782 
L 309.912058 316.951912 
L 310.208223 316.237467 
L 310.701812 314.73281 
L 311.338509 311.723495 
L 311.555223 308.71418 
L 311.48056 305.704866 
L 311.046976 301.190894 
L 310.160513 293.667607 
L 310.164782 290.658292 
L 310.526523 287.648977 
L 311.491566 283.135005 
L 312.447302 278.621033 
L 312.857513 275.611719 
L 312.963507 272.602404 
L 312.744919 269.593089 
L 312.261227 266.583774 
L 310.562909 257.55583 
L 310.21469 254.546516 
L 310.078968 251.537201 
L 309.993495 242.509257 
L 309.628395 239.499942 
L 309.262565 236.490628 
L 309.19976 233.481313 
L 309.509206 230.471998 
L 310.08984 227.462683 
L 311.380647 222.3743 
L 314.431264 210.911453 
L 315.029536 207.902138 
L 315.460109 204.892823 
L 315.843961 200.378851 
L 316.495856 191.350907 
L 317.628705 180.818306 
L 318.817583 170.285704 
L 320.033691 158.248445 
L 320.917776 152.229816 
L 323.129363 136.985355 
L 324.785202 123.641326 
L 326.23911 116.11804 
L 327.689287 110.09941 
L 329.250789 105.585438 
L 330.671914 102.576123 
L 333.40949 97.927694 
L 335.34538 95.052837 
L 337.815258 91.224493 
L 338.293796 90.538865 
L 340.752437 86.382452 
L 340.752437 86.382452 
" style="fill:none;stroke:#1f77b4;stroke-width:1.5;"/>
    <path clip-path="url(#p68333b0450)" d="M 185.081949 170.330203 
L 185.171513 170.285704 
L 185.081949 170.227934 
L 185.022249 170.285704 
L 185.081949 170.330203 
" style="fill:none;stroke:#1f77b4;stroke-width:1.5;"/>
    <path clip-path="url(#p68333b0450)" d="M 186.550539 168.850769 
L 186.635459 168.781047 
L 186.550539 168.755232 
L 186.507943 168.781047 
L 186.550539 168.850769 
" style="fill:none;stroke:#1f77b4;stroke-width:1.5;"/>
    <path clip-path="url(#p68333b0450)" d="M 130.744138 150.904605 
L 130.120664 150.725159 
L 129.275548 150.368846 
L 128.323604 149.220501 
L 128.01383 147.715844 
L 128.227443 146.211187 
L 128.715937 144.706529 
L 129.275548 143.441208 
L 129.395169 143.201872 
L 130.36359 141.697215 
L 130.744138 141.186426 
L 131.5844 140.192557 
L 132.212727 139.540555 
L 133.16356 138.6879 
L 133.681317 138.281299 
L 135.149906 137.325605 
L 135.451113 137.183242 
L 136.618496 136.711647 
L 138.087085 136.352203 
L 139.555675 136.281114 
L 141.024264 136.575876 
L 142.246146 137.183242 
L 142.492854 137.433185 
L 143.302095 138.6879 
L 143.509553 140.192557 
L 143.259556 141.697215 
L 142.702613 143.201872 
L 142.492854 143.607579 
L 141.873806 144.706529 
L 141.024264 145.917629 
L 140.790396 146.211187 
L 139.555675 147.555369 
L 139.378485 147.715844 
L 138.087085 148.786544 
L 137.400482 149.220501 
L 136.618496 149.692211 
L 135.149906 150.3209 
L 133.740357 150.725159 
L 133.681317 150.741503 
L 132.212727 150.954291 
L 130.744138 150.904605 
" style="fill:none;stroke:#1f77b4;stroke-width:1.5;"/>
   </g>
   <g id="LineCollection_2">
    <path clip-path="url(#p68333b0450)" d="M 318.948328 61.950375 
L 317.255005 62.459576 
L 312.849237 64.24055 
L 311.380647 64.988272 
L 309.912058 65.56478 
L 308.194363 66.464347 
L 306.974879 66.962432 
L 301.844995 69.473662 
L 294.337931 72.482976 
L 290.820394 73.416002 
L 287.883215 74.081425 
L 276.134499 75.994768 
L 262.917193 77.856039 
L 254.105656 78.938029 
L 240.888351 80.207144 
L 230.608224 81.118614 
L 224.733866 81.372955 
L 212.98515 81.753202 
L 202.705024 82.38593 
L 196.830666 82.670901 
L 183.61336 83.135008 
L 170.396054 84.025894 
L 165.990286 84.028736 
L 158.647338 83.706231 
L 151.304391 83.445986 
L 139.555675 83.072995 
L 129.275548 82.830395 
L 124.86978 82.635158 
L 120.464011 82.248854 
L 113.121063 81.30856 
L 107.246705 80.565688 
L 104.309526 80.394634 
L 101.372347 80.465888 
L 98.435168 80.831435 
L 95.497989 81.536643 
L 92.56081 82.529715 
L 89.623631 83.868558 
L 86.686452 85.558771 
L 83.749273 87.642607 
L 80.812094 90.174946 
L 78.996014 92.043522 
L 77.727901 93.548179 
L 76.406326 95.368451 
L 75.626477 96.557494 
L 74.124279 99.566809 
L 73.469147 101.675697 
L 73.240312 102.576123 
L 73.041707 104.080781 
L 73.027065 105.585438 
L 73.20462 107.090095 
L 73.579088 108.594753 
L 74.14367 110.09941 
L 74.937736 111.705721 
L 76.736138 114.613382 
L 80.812094 120.428112 
L 82.057022 122.136669 
L 83.749273 124.584974 
L 84.182183 125.145984 
L 86.686452 128.718552 
L 88.155042 130.423986 
L 89.623631 131.658969 
L 91.092221 132.339638 
L 92.56081 132.426854 
L 94.0294 131.956087 
L 95.497989 130.994076 
L 97.00471 129.659956 
L 99.903758 126.624118 
L 102.840937 123.495042 
L 105.879973 120.632012 
L 108.715295 118.4676 
L 110.183884 117.495557 
L 113.121063 115.887102 
L 116.058242 114.586342 
L 120.464011 113.079612 
L 124.86978 111.955847 
L 127.806959 111.356921 
L 133.681317 110.479867 
L 142.492854 109.480645 
L 149.835801 108.75338 
L 155.710159 108.425382 
L 164.521696 108.267554 
L 171.864644 108.038606 
L 180.676181 107.687298 
L 186.550539 107.740716 
L 204.173613 108.376696 
L 208.579382 108.82522 
L 214.45374 109.742457 
L 220.328098 110.845312 
L 224.733866 111.788187 
L 230.608224 113.402441 
L 236.482582 115.134504 
L 239.419761 115.826462 
L 245.294119 116.841512 
L 252.637067 117.947311 
L 255.574246 118.591881 
L 257.516697 119.127354 
L 259.980014 120.126337 
L 261.448604 120.914038 
L 263.177418 122.136669 
L 264.863324 123.641326 
L 271.140356 129.659956 
L 275.949642 134.173928 
L 277.072234 135.678585 
L 277.993877 137.183242 
L 279.483245 140.192557 
L 282.008857 145.534314 
L 285.297694 152.229816 
L 287.923368 158.248445 
L 289.56421 161.25776 
L 291.592946 164.267075 
L 292.724863 165.771732 
L 293.922541 167.276389 
L 295.257717 168.781047 
L 296.694752 170.051304 
L 298.163342 170.800942 
L 299.631931 170.880324 
L 301.100521 170.213496 
L 302.586873 168.781047 
L 304.0377 166.720227 
L 306.071953 162.762417 
L 307.396849 159.753103 
L 309.147806 155.239131 
L 310.701338 150.725159 
L 312.024224 146.211187 
L 313.069305 141.697215 
L 315.178571 131.164613 
L 316.365341 126.650641 
L 318.629872 119.127354 
L 320.192184 114.585322 
L 322.176966 110.09941 
L 323.129363 108.292191 
L 325.789908 104.080781 
L 329.003721 99.538475 
L 332.347746 95.052837 
L 337.360004 87.52955 
L 340.752437 80.806865 
L 340.752437 80.806865 
" style="fill:none;stroke:#1f77b4;stroke-width:1.5;"/>
    <path clip-path="url(#p68333b0450)" d="M 340.752437 63.03815 
L 339.564436 61.950375 
" style="fill:none;stroke:#1f77b4;stroke-width:1.5;"/>
    <path clip-path="url(#p68333b0450)" d="M 70.531968 343.982748 
L 72.000557 344.387148 
L 73.469147 344.565403 
L 74.937736 344.584713 
L 77.874915 344.288213 
L 80.812094 343.639662 
L 85.217863 342.261129 
L 92.56081 339.279301 
L 104.309526 333.716103 
L 110.183884 330.599461 
L 114.589653 327.989004 
L 118.617917 325.265411 
L 122.035035 322.256096 
L 123.40119 320.490385 
L 124.141841 319.246782 
L 124.649951 317.742124 
L 124.875987 316.237467 
L 124.86978 314.223935 
L 124.597325 311.723495 
L 123.900162 308.71418 
L 122.737913 305.704866 
L 121.910661 304.200208 
L 120.464011 302.029522 
L 118.686716 299.686236 
L 113.763335 293.667607 
L 110.921597 290.658292 
L 106.570231 286.14432 
L 105.329346 284.639663 
L 104.239682 283.135005 
L 102.47712 280.125691 
L 101.149874 277.116376 
L 100.144527 274.107061 
L 98.067223 266.583774 
L 96.966579 264.37753 
L 95.497989 262.8011 
L 94.0294 262.083659 
L 92.56081 262.069802 
L 91.092221 262.752612 
L 89.623631 264.185292 
L 88.079945 266.583774 
L 86.658103 269.593089 
L 85.04026 274.107061 
L 83.37228 280.125691 
L 81.107739 289.153635 
L 78.841279 296.676921 
L 74.79606 308.71418 
L 70.496786 320.751439 
L 68.828627 325.265411 
L 67.594789 329.039716 
L 66.939085 331.284041 
L 66.354775 334.293355 
L 66.207701 335.798013 
L 66.187833 337.30267 
L 66.342523 338.807327 
L 66.755363 340.311985 
L 67.594789 341.843199 
L 69.200686 343.321299 
L 70.531968 343.982748 
L 70.531968 343.982748 
" style="fill:none;stroke:#1f77b4;stroke-width:1.5;"/>
   </g>
   <g id="LineCollection_3">
    <path clip-path="url(#p68333b0450)" d="M 77.874915 335.812106 
L 79.343505 336.14578 
L 80.812094 336.179411 
L 82.280684 336.005804 
L 83.185579 335.798013 
L 83.749273 335.670679 
L 85.217863 335.208932 
L 86.686452 334.644301 
L 87.463778 334.293355 
L 88.155042 333.977189 
L 89.623631 333.223917 
L 90.393387 332.788698 
L 91.092221 332.376512 
L 92.56081 331.443521 
L 92.799913 331.284041 
L 94.0294 330.403136 
L 94.860943 329.779383 
L 95.497989 329.25012 
L 96.643715 328.274726 
L 96.966579 327.960237 
L 98.183995 326.770068 
L 98.435168 326.479036 
L 99.499832 325.265411 
L 99.903758 324.697731 
L 100.594524 323.760754 
L 101.372347 322.398488 
L 101.458133 322.256096 
L 102.118037 320.751439 
L 102.538014 319.246782 
L 102.719244 317.742124 
L 102.638722 316.237467 
L 102.251911 314.73281 
L 101.498183 313.228152 
L 101.372347 313.049342 
L 100.226133 311.723495 
L 99.903758 311.427748 
L 98.435168 310.401554 
L 98.058621 310.218838 
L 96.966579 309.719533 
L 95.497989 309.309973 
L 94.0294 309.143757 
L 92.56081 309.20788 
L 91.092221 309.505851 
L 89.623631 310.057381 
L 89.332382 310.218838 
L 88.155042 310.828293 
L 86.897237 311.723495 
L 86.686452 311.865732 
L 85.217863 313.132186 
L 85.126163 313.228152 
L 83.749273 314.631208 
L 83.664347 314.73281 
L 82.386958 316.237467 
L 82.280684 316.362145 
L 81.24152 317.742124 
L 80.812094 318.324555 
L 80.192529 319.246782 
L 79.343505 320.566073 
L 79.231676 320.751439 
L 78.358869 322.256096 
L 77.874915 323.162905 
L 77.566289 323.760754 
L 76.866837 325.265411 
L 76.406326 326.414481 
L 76.263965 326.770068 
L 75.78227 328.274726 
L 75.445861 329.779383 
L 75.297661 331.284041 
L 75.427007 332.788698 
L 76.01667 334.293355 
L 76.406326 334.779986 
L 77.844156 335.798013 
L 77.874915 335.812106 
" style="fill:none;stroke:#1f77b4;stroke-width:1.5;"/>
    <path clip-path="url(#p68333b0450)" d="M 292.288984 125.198751 
L 295.226163 125.503508 
L 296.694752 125.534134 
L 298.163342 125.431753 
L 299.631931 125.145984 
L 301.100521 124.733759 
L 303.196559 123.641326 
L 304.0377 123.15791 
L 305.506289 122.006056 
L 308.443468 119.192045 
L 309.912058 117.595071 
L 321.788011 104.080781 
L 328.157584 96.557494 
L 332.555429 90.538865 
L 336.081478 84.520235 
L 338.575722 78.501606 
L 338.961734 76.996948 
L 339.430559 73.987634 
L 339.493267 72.482976 
L 339.283848 70.541353 
L 339.08317 69.473662 
L 338.533067 67.969004 
L 337.570037 66.464347 
L 335.979793 64.95969 
L 334.878079 64.25256 
L 332.659633 63.455032 
L 331.9409 63.253326 
L 330.472311 63.00861 
L 329.003721 62.911869 
L 326.066542 63.057767 
L 323.129363 63.561589 
L 320.192184 64.231728 
L 315.786416 65.719179 
L 306.974879 69.779388 
L 301.100521 72.926118 
L 296.482353 75.492291 
L 289.351805 78.838938 
L 284.946036 80.397806 
L 280.540268 81.646509 
L 265.854372 85.401209 
L 258.295409 87.52955 
L 252.637067 89.435541 
L 249.699888 90.595538 
L 246.762709 92.064792 
L 244.727893 93.548179 
L 243.745379 95.052837 
L 243.82553 96.689131 
L 244.572827 98.062151 
L 246.762709 100.027672 
L 248.262285 101.071466 
L 251.168477 102.598721 
L 254.809259 104.080781 
L 264.385783 107.458818 
L 266.408335 108.594753 
L 267.322962 109.251849 
L 268.791552 110.7188 
L 270.422518 113.108725 
L 272.200399 116.11804 
L 273.270025 117.622697 
L 274.66591 119.247105 
L 276.245086 120.632012 
L 277.603089 121.576135 
L 280.540268 122.968032 
L 283.477447 123.802925 
L 286.414626 124.437223 
L 290.820394 125.031532 
L 292.288984 125.198751 
L 292.288984 125.198751 
" style="fill:none;stroke:#1f77b4;stroke-width:1.5;"/>
   </g>
   <g id="LineCollection_4">
    <path clip-path="url(#p68333b0450)" d="M 289.351805 113.466575 
L 290.820394 113.658972 
L 292.288984 113.692585 
L 293.757573 113.59426 
L 295.226163 113.373805 
L 296.357614 113.108725 
L 296.694752 113.04742 
L 298.163342 112.690695 
L 299.631931 112.221179 
L 301.100521 111.604068 
L 302.56911 111.028952 
L 304.0377 110.283337 
L 304.353016 110.09941 
L 305.506289 109.535803 
L 306.974879 108.623218 
L 307.016821 108.594753 
L 308.443468 107.757174 
L 309.371852 107.090095 
L 309.912058 106.745996 
L 311.380647 105.64328 
L 311.452304 105.585438 
L 312.849237 104.55314 
L 313.407132 104.080781 
L 314.317826 103.357056 
L 315.197035 102.576123 
L 315.786416 102.072149 
L 316.859626 101.071466 
L 317.255005 100.707311 
L 318.418941 99.566809 
L 318.723595 99.26415 
L 319.889254 98.062151 
L 320.192184 97.736977 
L 321.277251 96.557494 
L 321.660774 96.111767 
L 322.583071 95.052837 
L 323.129363 94.363846 
L 323.800443 93.548179 
L 324.597953 92.4538 
L 324.915996 92.043522 
L 325.948364 90.538865 
L 326.066542 90.344982 
L 326.950936 89.034207 
L 327.535132 87.971857 
L 327.811225 87.52955 
L 328.611137 86.024893 
L 329.003721 85.099059 
L 329.29386 84.520235 
L 329.896084 83.015578 
L 330.337312 81.510921 
L 330.472311 80.836279 
L 330.680013 80.006263 
L 330.870793 78.501606 
L 330.85673 76.996948 
L 330.581936 75.492291 
L 330.472311 75.199231 
L 329.96544 73.987634 
L 329.003721 72.753631 
L 328.714916 72.482976 
L 327.535132 71.669465 
L 326.066542 71.087494 
L 325.555147 70.978319 
L 324.597953 70.77723 
L 323.129363 70.66344 
L 321.660774 70.709871 
L 320.192184 70.892856 
L 319.78713 70.978319 
L 318.723595 71.152125 
L 317.255005 71.483657 
L 315.786416 71.917888 
L 314.317826 72.479151 
L 314.309093 72.482976 
L 312.849237 72.9993 
L 311.380647 73.649098 
L 310.725575 73.987634 
L 309.912058 74.33796 
L 308.443468 75.083822 
L 307.747952 75.492291 
L 306.974879 75.882712 
L 305.506289 76.751008 
L 305.12728 76.996948 
L 304.0377 77.624243 
L 302.754114 78.501606 
L 302.56911 78.616855 
L 301.100521 79.588667 
L 300.532646 80.006263 
L 299.631931 80.629011 
L 298.491617 81.510921 
L 298.163342 81.75625 
L 296.694752 82.934751 
L 296.595468 83.015578 
L 295.226163 84.12721 
L 294.767718 84.520235 
L 293.757573 85.408805 
L 293.077768 86.024893 
L 292.288984 86.780259 
L 291.510628 87.52955 
L 290.820394 88.253453 
L 290.061501 89.034207 
L 289.351805 89.855637 
L 288.735236 90.538865 
L 287.883215 91.63812 
L 287.546979 92.043522 
L 286.494843 93.548179 
L 286.414626 93.682765 
L 285.502762 95.052837 
L 284.946036 96.143764 
L 284.704552 96.557494 
L 283.987351 98.062151 
L 283.477447 99.537587 
L 283.4654 99.566809 
L 282.981181 101.071466 
L 282.667994 102.576123 
L 282.506256 104.080781 
L 282.500368 105.585438 
L 282.681034 107.090095 
L 283.114022 108.594753 
L 283.477447 109.338593 
L 283.884877 110.09941 
L 284.946036 111.348426 
L 285.230118 111.604068 
L 286.414626 112.434325 
L 287.883215 113.070801 
L 288.02287 113.108725 
L 289.351805 113.466575 
" style="fill:none;stroke:#1f77b4;stroke-width:1.5;"/>
   </g>
   <g id="LineCollection_5">
    <path clip-path="url(#p68333b0450)" d="M 293.757573 108.798936 
L 295.226163 108.865601 
L 296.694752 108.753173 
L 297.553962 108.594753 
L 298.163342 108.501313 
L 299.631931 108.156839 
L 301.100521 107.692964 
L 302.562145 107.090095 
L 302.56911 107.087622 
L 304.0377 106.469431 
L 305.506289 105.695327 
L 305.689732 105.585438 
L 306.974879 104.898286 
L 308.235732 104.080781 
L 308.443468 103.957312 
L 309.912058 102.984596 
L 310.45351 102.576123 
L 311.380647 101.914362 
L 312.423168 101.071466 
L 312.849237 100.736628 
L 314.198031 99.566809 
L 314.317826 99.463017 
L 315.786416 98.10185 
L 315.82742 98.062151 
L 317.255005 96.637185 
L 317.332077 96.557494 
L 318.708333 95.052837 
L 318.723595 95.034871 
L 319.991988 93.548179 
L 320.192184 93.285422 
L 321.167038 92.043522 
L 321.660774 91.317658 
L 322.220656 90.538865 
L 323.129363 89.034207 
L 323.988861 87.52955 
L 324.597953 86.163598 
L 324.667774 86.024893 
L 325.259871 84.520235 
L 325.666253 83.015578 
L 325.886724 81.510921 
L 325.880445 80.006263 
L 325.544241 78.501606 
L 324.660717 76.996948 
L 324.597953 76.929793 
L 323.129363 75.848024 
L 322.176582 75.492291 
L 321.660774 75.333115 
L 320.192184 75.132122 
L 318.723595 75.144182 
L 317.255005 75.32297 
L 316.496947 75.492291 
L 315.786416 75.625396 
L 314.317826 76.011556 
L 312.849237 76.511837 
L 311.713977 76.996948 
L 311.380647 77.120648 
L 309.912058 77.757754 
L 308.514466 78.501606 
L 308.443468 78.535477 
L 306.974879 79.310214 
L 305.865733 80.006263 
L 305.506289 80.214963 
L 304.0377 81.158982 
L 303.544387 81.510921 
L 302.56911 82.175423 
L 301.470116 83.015578 
L 301.100521 83.29316 
L 299.631931 84.494907 
L 299.60189 84.520235 
L 298.163342 85.75071 
L 297.859639 86.024893 
L 296.694752 87.123421 
L 296.276259 87.52955 
L 295.226163 88.626439 
L 294.837125 89.034207 
L 293.757573 90.290545 
L 293.53951 90.538865 
L 292.372606 92.043522 
L 292.288984 92.167752 
L 291.29926 93.548179 
L 290.820394 94.369492 
L 290.385239 95.052837 
L 289.613911 96.557494 
L 289.351805 97.216919 
L 288.96951 98.062151 
L 288.479694 99.566809 
L 288.176257 101.071466 
L 288.067124 102.576123 
L 288.201211 104.080781 
L 288.689338 105.585438 
L 289.351805 106.601738 
L 289.780162 107.090095 
L 290.820394 107.876025 
L 292.288984 108.505604 
L 292.707492 108.594753 
L 293.757573 108.798936 
" style="fill:none;stroke:#1f77b4;stroke-width:1.5;"/>
   </g>
   <g id="LineCollection_6">
    <path clip-path="url(#p68333b0450)" d="M 293.757573 104.584997 
L 295.226163 105.262255 
L 296.694752 105.511124 
L 298.163342 105.494123 
L 299.631931 105.293242 
L 301.100521 104.945236 
L 302.56911 104.457849 
L 303.44524 104.080781 
L 304.0377 103.849526 
L 305.506289 103.153869 
L 306.518044 102.576123 
L 306.974879 102.332118 
L 308.443468 101.428759 
L 308.953158 101.071466 
L 309.912058 100.422906 
L 311.027661 99.566809 
L 311.380647 99.29788 
L 312.849237 98.062151 
L 314.317826 96.72338 
L 314.489317 96.557494 
L 315.786416 95.234787 
L 315.958997 95.052837 
L 317.255005 93.569088 
L 317.273133 93.548179 
L 318.465721 92.043522 
L 318.723595 91.666911 
L 319.521345 90.538865 
L 320.192184 89.400009 
L 320.420591 89.034207 
L 321.185241 87.52955 
L 321.660774 86.293968 
L 321.775008 86.024893 
L 322.189123 84.520235 
L 322.35526 83.015578 
L 322.19013 81.510921 
L 321.660774 80.307521 
L 321.470556 80.006263 
L 320.192184 78.966858 
L 318.913839 78.501606 
L 318.723595 78.449203 
L 317.255005 78.31659 
L 315.786416 78.416498 
L 315.357183 78.501606 
L 314.317826 78.684569 
L 312.849237 79.079563 
L 311.380647 79.601625 
L 310.473386 80.006263 
L 309.912058 80.235836 
L 308.443468 80.946811 
L 307.457676 81.510921 
L 306.974879 81.772346 
L 305.506289 82.672963 
L 305.007551 83.015578 
L 304.0377 83.666244 
L 302.900887 84.520235 
L 302.56911 84.770978 
L 301.100521 85.975661 
L 301.043223 86.024893 
L 299.631931 87.28453 
L 299.370478 87.52955 
L 298.163342 88.741366 
L 297.878274 89.034207 
L 296.694752 90.378782 
L 296.553477 90.538865 
L 295.376279 92.043522 
L 295.226163 92.268942 
L 294.336801 93.548179 
L 293.757573 94.579281 
L 293.472646 95.052837 
L 292.763104 96.557494 
L 292.288984 97.95618 
L 292.248939 98.062151 
L 291.922315 99.566809 
L 291.867208 101.071466 
L 292.175323 102.576123 
L 292.288984 102.809363 
L 293.144385 104.080781 
L 293.757573 104.584997 
" style="fill:none;stroke:#1f77b4;stroke-width:1.5;"/>
   </g>
   <g id="LineCollection_7">
    <path clip-path="url(#p68333b0450)" d="M 298.163342 102.751698 
L 299.631931 102.822344 
L 301.100521 102.63982 
L 301.33613 102.576123 
L 302.56911 102.264771 
L 304.0377 101.742429 
L 305.506289 101.071466 
L 306.974879 100.289129 
L 308.126133 99.566809 
L 308.443468 99.369425 
L 309.912058 98.335961 
L 310.261721 98.062151 
L 311.380647 97.166923 
L 312.078363 96.557494 
L 312.849237 95.847771 
L 313.661837 95.052837 
L 314.317826 94.354188 
L 315.049449 93.548179 
L 315.786416 92.633809 
L 316.258776 92.043522 
L 317.255005 90.590183 
L 317.290869 90.538865 
L 318.155201 89.034207 
L 318.723595 87.746042 
L 318.824855 87.52955 
L 319.267361 86.024893 
L 319.413441 84.520235 
L 319.11418 83.015578 
L 318.723595 82.389486 
L 317.733358 81.510921 
L 317.255005 81.272557 
L 315.786416 80.973212 
L 314.317826 81.005468 
L 312.849237 81.262259 
L 312.02697 81.510921 
L 311.380647 81.695692 
L 309.912058 82.261968 
L 308.443468 82.962574 
L 308.349437 83.015578 
L 306.974879 83.7702 
L 305.794369 84.520235 
L 305.506289 84.704195 
L 304.0377 85.746613 
L 303.680187 86.024893 
L 302.56911 86.92167 
L 301.869779 87.52955 
L 301.100521 88.245921 
L 300.293358 89.034207 
L 299.631931 89.750407 
L 298.919018 90.538865 
L 298.163342 91.499996 
L 297.733819 92.043522 
L 296.739627 93.548179 
L 296.694752 93.634384 
L 295.92314 95.052837 
L 295.325759 96.557494 
L 295.226163 97.00373 
L 294.969739 98.062151 
L 294.943669 99.566809 
L 295.226163 100.549848 
L 295.440529 101.071466 
L 296.694752 102.249734 
L 297.515674 102.576123 
L 298.163342 102.751698 
" style="fill:none;stroke:#1f77b4;stroke-width:1.5;"/>
   </g>
   <g id="LineCollection_8">
    <path clip-path="url(#p68333b0450)" d="M 299.631931 100.157191 
L 301.100521 100.355445 
L 302.56911 100.192131 
L 304.0377 99.793307 
L 304.586043 99.566809 
L 305.506289 99.187364 
L 306.974879 98.428209 
L 307.564062 98.062151 
L 308.443468 97.500936 
L 309.742588 96.557494 
L 309.912058 96.426529 
L 311.380647 95.171766 
L 311.509284 95.052837 
L 312.849237 93.696902 
L 312.989049 93.548179 
L 314.232001 92.043522 
L 314.317826 91.917593 
L 315.24531 90.538865 
L 315.786416 89.511847 
L 316.041831 89.034207 
L 316.552538 87.52955 
L 316.709238 86.024893 
L 316.227504 84.520235 
L 315.786416 84.069113 
L 314.317826 83.442237 
L 312.849237 83.404831 
L 311.380647 83.67501 
L 309.912058 84.146545 
L 309.069136 84.520235 
L 308.443468 84.800961 
L 306.974879 85.605617 
L 306.319987 86.024893 
L 305.506289 86.568037 
L 304.218031 87.52955 
L 304.0377 87.675141 
L 302.56911 88.963657 
L 302.493669 89.034207 
L 301.100521 90.486497 
L 301.052061 90.538865 
L 299.857087 92.043522 
L 299.631931 92.395302 
L 298.893271 93.548179 
L 298.163342 95.052837 
L 297.75014 96.557494 
L 297.740293 98.062151 
L 298.163342 99.072925 
L 298.549415 99.566809 
L 299.631931 100.157191 
" style="fill:none;stroke:#1f77b4;stroke-width:1.5;"/>
   </g>
   <g id="LineCollection_9">
    <path clip-path="url(#p68333b0450)" d="M 301.100521 96.572956 
L 302.56911 97.417723 
L 304.0377 97.375649 
L 305.506289 96.956536 
L 306.372092 96.557494 
L 306.974879 96.2525 
L 308.443468 95.317773 
L 308.794382 95.052837 
L 309.912058 94.104194 
L 310.506056 93.548179 
L 311.380647 92.580791 
L 311.835111 92.043522 
L 312.849237 90.538865 
L 313.416321 89.034207 
L 313.458817 87.52955 
L 312.849237 86.661823 
L 311.380647 86.196956 
L 309.912058 86.444175 
L 308.443468 86.985076 
L 307.373327 87.52955 
L 306.974879 87.755851 
L 305.506289 88.771108 
L 305.174669 89.034207 
L 304.0377 90.067383 
L 303.558728 90.538865 
L 302.56911 91.715734 
L 302.306885 92.043522 
L 301.426269 93.548179 
L 301.100521 94.5272 
L 300.929153 95.052837 
L 301.089734 96.557494 
L 301.100521 96.572956 
" style="fill:none;stroke:#1f77b4;stroke-width:1.5;"/>
   </g>
   <g id="LineCollection_10"/>
   <g id="patch_3">
    <path d="M 48.503125 361.377188 
L 48.503125 61.950375 
" style="fill:none;stroke:#000000;stroke-linecap:square;stroke-linejoin:miter;stroke-width:0.8;"/>
   </g>
   <g id="patch_4">
    <path d="M 48.503125 361.377188 
L 340.752437 361.377188 
" style="fill:none;stroke:#000000;stroke-linecap:square;stroke-linejoin:miter;stroke-width:0.8;"/>
   </g>
  </g>
  <g id="axes_2">
   <g id="patch_5">
    <path d="M 48.503125 51.625313 
L 340.752437 51.625313 
L 340.752437 0 
L 48.503125 0 
z
" style="fill:none;"/>
   </g>
   <g id="matplotlib.axis_3">
    <g id="xtick_6">
     <g id="line2d_23">
      <path clip-path="url(#peb3b106ad8)" d="M 81.385238 51.625313 
L 81.385238 0 
" style="fill:none;stroke:#cccccc;stroke-linecap:round;stroke-width:0.8;"/>
     </g>
     <g id="line2d_24">
      <g>
       <use style="stroke:#000000;" x="81.385238" xlink:href="#mee6ddc7175" y="51.625313"/>
      </g>
     </g>
    </g>
    <g id="xtick_7">
     <g id="line2d_25">
      <path clip-path="url(#peb3b106ad8)" d="M 138.003428 51.625313 
L 138.003428 0 
" style="fill:none;stroke:#cccccc;stroke-linecap:round;stroke-width:0.8;"/>
     </g>
     <g id="line2d_26">
      <g>
       <use style="stroke:#000000;" x="138.003428" xlink:href="#mee6ddc7175" y="51.625313"/>
      </g>
     </g>
    </g>
    <g id="xtick_8">
     <g id="line2d_27">
      <path clip-path="url(#peb3b106ad8)" d="M 194.621618 51.625313 
L 194.621618 0 
" style="fill:none;stroke:#cccccc;stroke-linecap:round;stroke-width:0.8;"/>
     </g>
     <g id="line2d_28">
      <g>
       <use style="stroke:#000000;" x="194.621618" xlink:href="#mee6ddc7175" y="51.625313"/>
      </g>
     </g>
    </g>
    <g id="xtick_9">
     <g id="line2d_29">
      <path clip-path="url(#peb3b106ad8)" d="M 251.239809 51.625313 
L 251.239809 0 
" style="fill:none;stroke:#cccccc;stroke-linecap:round;stroke-width:0.8;"/>
     </g>
     <g id="line2d_30">
      <g>
       <use style="stroke:#000000;" x="251.239809" xlink:href="#mee6ddc7175" y="51.625313"/>
      </g>
     </g>
    </g>
    <g id="xtick_10">
     <g id="line2d_31">
      <path clip-path="url(#peb3b106ad8)" d="M 307.857999 51.625313 
L 307.857999 0 
" style="fill:none;stroke:#cccccc;stroke-linecap:round;stroke-width:0.8;"/>
     </g>
     <g id="line2d_32">
      <g>
       <use style="stroke:#000000;" x="307.857999" xlink:href="#mee6ddc7175" y="51.625313"/>
      </g>
     </g>
    </g>
   </g>
   <g id="matplotlib.axis_4">
    <g id="ytick_7"/>
    <g id="ytick_8"/>
   </g>
   <g id="line2d_33">
    <path clip-path="url(#peb3b106ad8)" d="M 58.707216 51.613653 
L 65.537395 51.479118 
L 69.635502 51.16191 
L 72.367574 50.762393 
L 75.099646 50.192286 
L 83.295861 48.165893 
L 86.027932 47.785736 
L 88.760004 47.679134 
L 91.492076 47.812754 
L 95.590183 48.273711 
L 102.420362 49.08749 
L 107.884506 49.528642 
L 116.080721 49.934253 
L 127.009007 50.212477 
L 146.133509 50.469621 
L 181.650441 50.622502 
L 214.435301 50.566227 
L 234.925838 50.395614 
L 254.05034 50.119022 
L 267.710698 49.711683 
L 275.906913 49.274556 
L 280.005021 48.891686 
L 282.737093 48.440599 
L 284.103128 48.094709 
L 285.469164 47.619936 
L 286.8352 46.963925 
L 288.201236 46.060258 
L 289.567272 44.82976 
L 290.933308 43.185224 
L 292.299343 41.040562 
L 293.665379 38.324688 
L 295.031415 34.999347 
L 296.397451 31.078652 
L 299.129523 21.868491 
L 301.861594 12.324192 
L 303.22763 8.220849 
L 304.593666 5.026686 
L 305.959702 3.038144 
L 307.325738 2.457793 
L 308.691773 3.36237 
L 310.057809 5.689454 
L 311.423845 9.245822 
L 312.789881 13.735853 
L 318.254024 34.001671 
L 319.62006 38.189344 
L 320.986096 41.705964 
L 322.352132 44.534223 
L 323.718168 46.716943 
L 325.084203 48.33575 
L 326.450239 49.490791 
L 327.816275 50.284367 
L 329.182311 50.809747 
L 330.548347 51.1451 
L 330.548347 51.1451 
" style="fill:none;stroke:#1f77b4;stroke-linecap:round;stroke-width:1.5;"/>
   </g>
   <g id="patch_6">
    <path d="M 48.503125 51.625313 
L 340.752437 51.625313 
" style="fill:none;stroke:#000000;stroke-linecap:square;stroke-linejoin:miter;stroke-width:0.8;"/>
   </g>
  </g>
  <g id="axes_3">
   <g id="patch_7">
    <path d="M 350.83 361.377188 
L 401.217812 361.377188 
L 401.217812 61.950375 
L 350.83 61.950375 
z
" style="fill:none;"/>
   </g>
   <g id="matplotlib.axis_5">
    <g id="xtick_11"/>
    <g id="xtick_12"/>
   </g>
   <g id="matplotlib.axis_6">
    <g id="ytick_9">
     <g id="line2d_34">
      <path clip-path="url(#p7237645421)" d="M 350.83 331.809087 
L 401.217812 331.809087 
" style="fill:none;stroke:#cccccc;stroke-linecap:round;stroke-width:0.8;"/>
     </g>
     <g id="line2d_35">
      <g>
       <use style="stroke:#000000;" x="350.83" xlink:href="#m5378fadf87" y="331.809087"/>
      </g>
     </g>
    </g>
    <g id="ytick_10">
     <g id="line2d_36">
      <path clip-path="url(#p7237645421)" d="M 350.83 283.753347 
L 401.217812 283.753347 
" style="fill:none;stroke:#cccccc;stroke-linecap:round;stroke-width:0.8;"/>
     </g>
     <g id="line2d_37">
      <g>
       <use style="stroke:#000000;" x="350.83" xlink:href="#m5378fadf87" y="283.753347"/>
      </g>
     </g>
    </g>
    <g id="ytick_11">
     <g id="line2d_38">
      <path clip-path="url(#p7237645421)" d="M 350.83 235.697607 
L 401.217812 235.697607 
" style="fill:none;stroke:#cccccc;stroke-linecap:round;stroke-width:0.8;"/>
     </g>
     <g id="line2d_39">
      <g>
       <use style="stroke:#000000;" x="350.83" xlink:href="#m5378fadf87" y="235.697607"/>
      </g>
     </g>
    </g>
    <g id="ytick_12">
     <g id="line2d_40">
      <path clip-path="url(#p7237645421)" d="M 350.83 187.641867 
L 401.217812 187.641867 
" style="fill:none;stroke:#cccccc;stroke-linecap:round;stroke-width:0.8;"/>
     </g>
     <g id="line2d_41">
      <g>
       <use style="stroke:#000000;" x="350.83" xlink:href="#m5378fadf87" y="187.641867"/>
      </g>
     </g>
    </g>
    <g id="ytick_13">
     <g id="line2d_42">
      <path clip-path="url(#p7237645421)" d="M 350.83 139.586127 
L 401.217812 139.586127 
" style="fill:none;stroke:#cccccc;stroke-linecap:round;stroke-width:0.8;"/>
     </g>
     <g id="line2d_43">
      <g>
       <use style="stroke:#000000;" x="350.83" xlink:href="#m5378fadf87" y="139.586127"/>
      </g>
     </g>
    </g>
    <g id="ytick_14">
     <g id="line2d_44">
      <path clip-path="url(#p7237645421)" d="M 350.83 91.530387 
L 401.217812 91.530387 
" style="fill:none;stroke:#cccccc;stroke-linecap:round;stroke-width:0.8;"/>
     </g>
     <g id="line2d_45">
      <g>
       <use style="stroke:#000000;" x="350.83" xlink:href="#m5378fadf87" y="91.530387"/>
      </g>
     </g>
    </g>
   </g>
   <g id="line2d_46">
    <path clip-path="url(#p7237645421)" d="M 350.834189 352.201256 
L 350.948416 343.726634 
L 351.200808 339.489323 
L 351.662003 335.252012 
L 352.480302 328.189828 
L 352.644764 323.952517 
L 352.554434 319.715206 
L 351.931747 302.765963 
L 351.684728 287.229157 
L 351.52363 261.805292 
L 351.504376 234.968991 
L 351.510577 201.070504 
L 351.602405 174.234203 
L 351.759127 153.047649 
L 352.138773 129.036221 
L 352.518704 120.561599 
L 352.89614 116.324289 
L 353.389152 113.499415 
L 353.804545 112.086978 
L 354.416838 110.674541 
L 355.320036 109.262104 
L 356.632825 107.849667 
L 358.49059 106.43723 
L 361.02734 105.024793 
L 364.346631 103.612356 
L 368.484001 102.199919 
L 373.367931 100.787482 
L 389.719718 96.550172 
L 394.219103 95.137735 
L 397.384212 93.725298 
L 398.818592 92.312861 
L 398.320675 90.900424 
L 395.92673 89.487987 
L 391.905442 88.07555 
L 386.705321 86.663113 
L 369.37619 82.425802 
L 364.501656 81.013365 
L 360.487399 79.600928 
L 357.366467 78.188492 
L 355.068833 76.776055 
L 353.463604 75.363618 
L 352.397616 73.951181 
L 351.723923 72.538744 
L 351.318339 71.126307 
L 351.318339 71.126307 
" style="fill:none;stroke:#1f77b4;stroke-linecap:round;stroke-width:1.5;"/>
   </g>
   <g id="patch_8">
    <path d="M 350.83 361.377188 
L 350.83 61.950375 
" style="fill:none;stroke:#000000;stroke-linecap:square;stroke-linejoin:miter;stroke-width:0.8;"/>
   </g>
  </g>
 </g>
 <defs>
  <clipPath id="p68333b0450">
   <rect height="299.426813" width="292.249312" x="48.503125" y="61.950375"/>
  </clipPath>
  <clipPath id="peb3b106ad8">
   <rect height="51.625313" width="292.249312" x="48.503125" y="0"/>
  </clipPath>
  <clipPath id="p7237645421">
   <rect height="299.426813" width="50.387812" x="350.83" y="61.950375"/>
  </clipPath>
 </defs>
</svg>
