<?xml version="1.0" encoding="utf-8" standalone="no"?>
<!DOCTYPE svg PUBLIC "-//W3C//DTD SVG 1.1//EN"
  "http://www.w3.org/Graphics/SVG/1.1/DTD/svg11.dtd">
<svg height="326.447656pt" version="1.1" viewBox="0 0 413.02475 326.447656" width="413.02475pt" xmlns="http://www.w3.org/2000/svg" xmlns:xlink="http://www.w3.org/1999/xlink">
 <metadata>
  <rdf:RDF xmlns:cc="http://creativecommons.org/ns#" xmlns:dc="http://purl.org/dc/elements/1.1/" xmlns:rdf="http://www.w3.org/1999/02/22-rdf-syntax-ns#">
   <cc:Work>
    <dc:type rdf:resource="http://purl.org/dc/dcmitype/StillImage"/>
    <dc:date>2023-02-20T13:02:46.825892</dc:date>
    <dc:format>image/svg+xml</dc:format>
    <dc:creator>
     <cc:Agent>
      <dc:title>Matplotlib v3.4.3, https://matplotlib.org/</dc:title>
     </cc:Agent>
    </dc:creator>
   </cc:Work>
  </rdf:RDF>
 </metadata>
 <defs>
  <style type="text/css">*{stroke-linecap:butt;stroke-linejoin:round;}</style>
 </defs>
 <g id="figure_1">
  <g id="patch_1">
   <path d="M 0 326.447656 
L 413.02475 326.447656 
L 413.02475 0 
L 0 0 
z
" style="fill:none;"/>
  </g>
  <g id="axes_1">
   <g id="patch_2">
    <path d="M 48.11375 287.048906 
L 325.566915 287.048906 
L 325.566915 5.318906 
L 48.11375 5.318906 
z
" style="fill:none;"/>
   </g>
   <g id="matplotlib.axis_1">
    <g id="xtick_1">
     <g id="line2d_1">
      <path clip-path="url(#p2f3df0ef80)" d="M 60.725257 287.048906 
L 60.725257 5.318906 
" style="fill:none;stroke:#cccccc;stroke-linecap:round;stroke-width:0.8;"/>
     </g>
     <g id="line2d_2">
      <defs>
       <path d="M 0 0 
L 0 4.8 
" id="mb598248494" style="stroke:#000000;"/>
      </defs>
      <g>
       <use style="stroke:#000000;" x="60.725257" xlink:href="#mb598248494" y="287.048906"/>
      </g>
     </g>
     <g id="text_1">
      <!-- $\mathdefault{10^{0}}$ -->
      <g transform="translate(48.405257 305.986719)scale(0.14 -0.14)">
       <defs>
        <path d="M 794 531 
L 1825 531 
L 1825 4091 
L 703 3866 
L 703 4441 
L 1819 4666 
L 2450 4666 
L 2450 531 
L 3481 531 
L 3481 0 
L 794 0 
L 794 531 
z
" id="DejaVuSans-31" transform="scale(0.015625)"/>
        <path d="M 2034 4250 
Q 1547 4250 1301 3770 
Q 1056 3291 1056 2328 
Q 1056 1369 1301 889 
Q 1547 409 2034 409 
Q 2525 409 2770 889 
Q 3016 1369 3016 2328 
Q 3016 3291 2770 3770 
Q 2525 4250 2034 4250 
z
M 2034 4750 
Q 2819 4750 3233 4129 
Q 3647 3509 3647 2328 
Q 3647 1150 3233 529 
Q 2819 -91 2034 -91 
Q 1250 -91 836 529 
Q 422 1150 422 2328 
Q 422 3509 836 4129 
Q 1250 4750 2034 4750 
z
" id="DejaVuSans-30" transform="scale(0.015625)"/>
       </defs>
       <use transform="translate(0 0.765625)" xlink:href="#DejaVuSans-31"/>
       <use transform="translate(63.623047 0.765625)" xlink:href="#DejaVuSans-30"/>
       <use transform="translate(128.203125 39.046875)scale(0.7)" xlink:href="#DejaVuSans-30"/>
      </g>
     </g>
    </g>
    <g id="xtick_2">
     <g id="line2d_3">
      <path clip-path="url(#p2f3df0ef80)" d="M 120.765552 287.048906 
L 120.765552 5.318906 
" style="fill:none;stroke:#cccccc;stroke-linecap:round;stroke-width:0.8;"/>
     </g>
     <g id="line2d_4">
      <g>
       <use style="stroke:#000000;" x="120.765552" xlink:href="#mb598248494" y="287.048906"/>
      </g>
     </g>
     <g id="text_2">
      <!-- $\mathdefault{10^{1}}$ -->
      <g transform="translate(108.445552 305.986719)scale(0.14 -0.14)">
       <use transform="translate(0 0.684375)" xlink:href="#DejaVuSans-31"/>
       <use transform="translate(63.623047 0.684375)" xlink:href="#DejaVuSans-30"/>
       <use transform="translate(128.203125 38.965625)scale(0.7)" xlink:href="#DejaVuSans-31"/>
      </g>
     </g>
    </g>
    <g id="xtick_3">
     <g id="line2d_5">
      <path clip-path="url(#p2f3df0ef80)" d="M 180.805847 287.048906 
L 180.805847 5.318906 
" style="fill:none;stroke:#cccccc;stroke-linecap:round;stroke-width:0.8;"/>
     </g>
     <g id="line2d_6">
      <g>
       <use style="stroke:#000000;" x="180.805847" xlink:href="#mb598248494" y="287.048906"/>
      </g>
     </g>
     <g id="text_3">
      <!-- $\mathdefault{10^{2}}$ -->
      <g transform="translate(168.485847 305.986719)scale(0.14 -0.14)">
       <defs>
        <path d="M 1228 531 
L 3431 531 
L 3431 0 
L 469 0 
L 469 531 
Q 828 903 1448 1529 
Q 2069 2156 2228 2338 
Q 2531 2678 2651 2914 
Q 2772 3150 2772 3378 
Q 2772 3750 2511 3984 
Q 2250 4219 1831 4219 
Q 1534 4219 1204 4116 
Q 875 4013 500 3803 
L 500 4441 
Q 881 4594 1212 4672 
Q 1544 4750 1819 4750 
Q 2544 4750 2975 4387 
Q 3406 4025 3406 3419 
Q 3406 3131 3298 2873 
Q 3191 2616 2906 2266 
Q 2828 2175 2409 1742 
Q 1991 1309 1228 531 
z
" id="DejaVuSans-32" transform="scale(0.015625)"/>
       </defs>
       <use transform="translate(0 0.765625)" xlink:href="#DejaVuSans-31"/>
       <use transform="translate(63.623047 0.765625)" xlink:href="#DejaVuSans-30"/>
       <use transform="translate(128.203125 39.046875)scale(0.7)" xlink:href="#DejaVuSans-32"/>
      </g>
     </g>
    </g>
    <g id="xtick_4">
     <g id="line2d_7">
      <path clip-path="url(#p2f3df0ef80)" d="M 240.846141 287.048906 
L 240.846141 5.318906 
" style="fill:none;stroke:#cccccc;stroke-linecap:round;stroke-width:0.8;"/>
     </g>
     <g id="line2d_8">
      <g>
       <use style="stroke:#000000;" x="240.846141" xlink:href="#mb598248494" y="287.048906"/>
      </g>
     </g>
     <g id="text_4">
      <!-- $\mathdefault{10^{3}}$ -->
      <g transform="translate(228.526141 305.986719)scale(0.14 -0.14)">
       <defs>
        <path d="M 2597 2516 
Q 3050 2419 3304 2112 
Q 3559 1806 3559 1356 
Q 3559 666 3084 287 
Q 2609 -91 1734 -91 
Q 1441 -91 1130 -33 
Q 819 25 488 141 
L 488 750 
Q 750 597 1062 519 
Q 1375 441 1716 441 
Q 2309 441 2620 675 
Q 2931 909 2931 1356 
Q 2931 1769 2642 2001 
Q 2353 2234 1838 2234 
L 1294 2234 
L 1294 2753 
L 1863 2753 
Q 2328 2753 2575 2939 
Q 2822 3125 2822 3475 
Q 2822 3834 2567 4026 
Q 2313 4219 1838 4219 
Q 1578 4219 1281 4162 
Q 984 4106 628 3988 
L 628 4550 
Q 988 4650 1302 4700 
Q 1616 4750 1894 4750 
Q 2613 4750 3031 4423 
Q 3450 4097 3450 3541 
Q 3450 3153 3228 2886 
Q 3006 2619 2597 2516 
z
" id="DejaVuSans-33" transform="scale(0.015625)"/>
       </defs>
       <use transform="translate(0 0.765625)" xlink:href="#DejaVuSans-31"/>
       <use transform="translate(63.623047 0.765625)" xlink:href="#DejaVuSans-30"/>
       <use transform="translate(128.203125 39.046875)scale(0.7)" xlink:href="#DejaVuSans-33"/>
      </g>
     </g>
    </g>
    <g id="xtick_5">
     <g id="line2d_9">
      <path clip-path="url(#p2f3df0ef80)" d="M 300.886436 287.048906 
L 300.886436 5.318906 
" style="fill:none;stroke:#cccccc;stroke-linecap:round;stroke-width:0.8;"/>
     </g>
     <g id="line2d_10">
      <g>
       <use style="stroke:#000000;" x="300.886436" xlink:href="#mb598248494" y="287.048906"/>
      </g>
     </g>
     <g id="text_5">
      <!-- $\mathdefault{10^{4}}$ -->
      <g transform="translate(288.566436 305.986719)scale(0.14 -0.14)">
       <defs>
        <path d="M 2419 4116 
L 825 1625 
L 2419 1625 
L 2419 4116 
z
M 2253 4666 
L 3047 4666 
L 3047 1625 
L 3713 1625 
L 3713 1100 
L 3047 1100 
L 3047 0 
L 2419 0 
L 2419 1100 
L 313 1100 
L 313 1709 
L 2253 4666 
z
" id="DejaVuSans-34" transform="scale(0.015625)"/>
       </defs>
       <use transform="translate(0 0.684375)" xlink:href="#DejaVuSans-31"/>
       <use transform="translate(63.623047 0.684375)" xlink:href="#DejaVuSans-30"/>
       <use transform="translate(128.203125 38.965625)scale(0.7)" xlink:href="#DejaVuSans-34"/>
      </g>
     </g>
    </g>
    <g id="xtick_6">
     <g id="line2d_11">
      <defs>
       <path d="M 0 0 
L 0 3.2 
" id="m09efe6545b" style="stroke:#000000;stroke-width:0.8;"/>
      </defs>
      <g>
       <use style="stroke:#000000;stroke-width:0.8;" x="51.424898" xlink:href="#m09efe6545b" y="287.048906"/>
      </g>
     </g>
    </g>
    <g id="xtick_7">
     <g id="line2d_12">
      <g>
       <use style="stroke:#000000;stroke-width:0.8;" x="54.906752" xlink:href="#m09efe6545b" y="287.048906"/>
      </g>
     </g>
    </g>
    <g id="xtick_8">
     <g id="line2d_13">
      <g>
       <use style="stroke:#000000;stroke-width:0.8;" x="57.977964" xlink:href="#m09efe6545b" y="287.048906"/>
      </g>
     </g>
    </g>
    <g id="xtick_9">
     <g id="line2d_14">
      <g>
       <use style="stroke:#000000;stroke-width:0.8;" x="78.799187" xlink:href="#m09efe6545b" y="287.048906"/>
      </g>
     </g>
    </g>
    <g id="xtick_10">
     <g id="line2d_15">
      <g>
       <use style="stroke:#000000;stroke-width:0.8;" x="89.371758" xlink:href="#m09efe6545b" y="287.048906"/>
      </g>
     </g>
    </g>
    <g id="xtick_11">
     <g id="line2d_16">
      <g>
       <use style="stroke:#000000;stroke-width:0.8;" x="96.873117" xlink:href="#m09efe6545b" y="287.048906"/>
      </g>
     </g>
    </g>
    <g id="xtick_12">
     <g id="line2d_17">
      <g>
       <use style="stroke:#000000;stroke-width:0.8;" x="102.691622" xlink:href="#m09efe6545b" y="287.048906"/>
      </g>
     </g>
    </g>
    <g id="xtick_13">
     <g id="line2d_18">
      <g>
       <use style="stroke:#000000;stroke-width:0.8;" x="107.445688" xlink:href="#m09efe6545b" y="287.048906"/>
      </g>
     </g>
    </g>
    <g id="xtick_14">
     <g id="line2d_19">
      <g>
       <use style="stroke:#000000;stroke-width:0.8;" x="111.465193" xlink:href="#m09efe6545b" y="287.048906"/>
      </g>
     </g>
    </g>
    <g id="xtick_15">
     <g id="line2d_20">
      <g>
       <use style="stroke:#000000;stroke-width:0.8;" x="114.947046" xlink:href="#m09efe6545b" y="287.048906"/>
      </g>
     </g>
    </g>
    <g id="xtick_16">
     <g id="line2d_21">
      <g>
       <use style="stroke:#000000;stroke-width:0.8;" x="118.018259" xlink:href="#m09efe6545b" y="287.048906"/>
      </g>
     </g>
    </g>
    <g id="xtick_17">
     <g id="line2d_22">
      <g>
       <use style="stroke:#000000;stroke-width:0.8;" x="138.839482" xlink:href="#m09efe6545b" y="287.048906"/>
      </g>
     </g>
    </g>
    <g id="xtick_18">
     <g id="line2d_23">
      <g>
       <use style="stroke:#000000;stroke-width:0.8;" x="149.412053" xlink:href="#m09efe6545b" y="287.048906"/>
      </g>
     </g>
    </g>
    <g id="xtick_19">
     <g id="line2d_24">
      <g>
       <use style="stroke:#000000;stroke-width:0.8;" x="156.913411" xlink:href="#m09efe6545b" y="287.048906"/>
      </g>
     </g>
    </g>
    <g id="xtick_20">
     <g id="line2d_25">
      <g>
       <use style="stroke:#000000;stroke-width:0.8;" x="162.731917" xlink:href="#m09efe6545b" y="287.048906"/>
      </g>
     </g>
    </g>
    <g id="xtick_21">
     <g id="line2d_26">
      <g>
       <use style="stroke:#000000;stroke-width:0.8;" x="167.485982" xlink:href="#m09efe6545b" y="287.048906"/>
      </g>
     </g>
    </g>
    <g id="xtick_22">
     <g id="line2d_27">
      <g>
       <use style="stroke:#000000;stroke-width:0.8;" x="171.505487" xlink:href="#m09efe6545b" y="287.048906"/>
      </g>
     </g>
    </g>
    <g id="xtick_23">
     <g id="line2d_28">
      <g>
       <use style="stroke:#000000;stroke-width:0.8;" x="174.987341" xlink:href="#m09efe6545b" y="287.048906"/>
      </g>
     </g>
    </g>
    <g id="xtick_24">
     <g id="line2d_29">
      <g>
       <use style="stroke:#000000;stroke-width:0.8;" x="178.058553" xlink:href="#m09efe6545b" y="287.048906"/>
      </g>
     </g>
    </g>
    <g id="xtick_25">
     <g id="line2d_30">
      <g>
       <use style="stroke:#000000;stroke-width:0.8;" x="198.879776" xlink:href="#m09efe6545b" y="287.048906"/>
      </g>
     </g>
    </g>
    <g id="xtick_26">
     <g id="line2d_31">
      <g>
       <use style="stroke:#000000;stroke-width:0.8;" x="209.452347" xlink:href="#m09efe6545b" y="287.048906"/>
      </g>
     </g>
    </g>
    <g id="xtick_27">
     <g id="line2d_32">
      <g>
       <use style="stroke:#000000;stroke-width:0.8;" x="216.953706" xlink:href="#m09efe6545b" y="287.048906"/>
      </g>
     </g>
    </g>
    <g id="xtick_28">
     <g id="line2d_33">
      <g>
       <use style="stroke:#000000;stroke-width:0.8;" x="222.772212" xlink:href="#m09efe6545b" y="287.048906"/>
      </g>
     </g>
    </g>
    <g id="xtick_29">
     <g id="line2d_34">
      <g>
       <use style="stroke:#000000;stroke-width:0.8;" x="227.526277" xlink:href="#m09efe6545b" y="287.048906"/>
      </g>
     </g>
    </g>
    <g id="xtick_30">
     <g id="line2d_35">
      <g>
       <use style="stroke:#000000;stroke-width:0.8;" x="231.545782" xlink:href="#m09efe6545b" y="287.048906"/>
      </g>
     </g>
    </g>
    <g id="xtick_31">
     <g id="line2d_36">
      <g>
       <use style="stroke:#000000;stroke-width:0.8;" x="235.027636" xlink:href="#m09efe6545b" y="287.048906"/>
      </g>
     </g>
    </g>
    <g id="xtick_32">
     <g id="line2d_37">
      <g>
       <use style="stroke:#000000;stroke-width:0.8;" x="238.098848" xlink:href="#m09efe6545b" y="287.048906"/>
      </g>
     </g>
    </g>
    <g id="xtick_33">
     <g id="line2d_38">
      <g>
       <use style="stroke:#000000;stroke-width:0.8;" x="258.920071" xlink:href="#m09efe6545b" y="287.048906"/>
      </g>
     </g>
    </g>
    <g id="xtick_34">
     <g id="line2d_39">
      <g>
       <use style="stroke:#000000;stroke-width:0.8;" x="269.492642" xlink:href="#m09efe6545b" y="287.048906"/>
      </g>
     </g>
    </g>
    <g id="xtick_35">
     <g id="line2d_40">
      <g>
       <use style="stroke:#000000;stroke-width:0.8;" x="276.994" xlink:href="#m09efe6545b" y="287.048906"/>
      </g>
     </g>
    </g>
    <g id="xtick_36">
     <g id="line2d_41">
      <g>
       <use style="stroke:#000000;stroke-width:0.8;" x="282.812506" xlink:href="#m09efe6545b" y="287.048906"/>
      </g>
     </g>
    </g>
    <g id="xtick_37">
     <g id="line2d_42">
      <g>
       <use style="stroke:#000000;stroke-width:0.8;" x="287.566572" xlink:href="#m09efe6545b" y="287.048906"/>
      </g>
     </g>
    </g>
    <g id="xtick_38">
     <g id="line2d_43">
      <g>
       <use style="stroke:#000000;stroke-width:0.8;" x="291.586077" xlink:href="#m09efe6545b" y="287.048906"/>
      </g>
     </g>
    </g>
    <g id="xtick_39">
     <g id="line2d_44">
      <g>
       <use style="stroke:#000000;stroke-width:0.8;" x="295.06793" xlink:href="#m09efe6545b" y="287.048906"/>
      </g>
     </g>
    </g>
    <g id="xtick_40">
     <g id="line2d_45">
      <g>
       <use style="stroke:#000000;stroke-width:0.8;" x="298.139143" xlink:href="#m09efe6545b" y="287.048906"/>
      </g>
     </g>
    </g>
    <g id="xtick_41">
     <g id="line2d_46">
      <g>
       <use style="stroke:#000000;stroke-width:0.8;" x="318.960365" xlink:href="#m09efe6545b" y="287.048906"/>
      </g>
     </g>
    </g>
    <g id="text_6">
     <!-- value -->
     <g style="fill:#262626;" transform="translate(167.719395 323.536094)scale(0.14 -0.14)">
      <defs>
       <path d="M 191 3500 
L 800 3500 
L 1894 563 
L 2988 3500 
L 3597 3500 
L 2284 0 
L 1503 0 
L 191 3500 
z
" id="DejaVuSans-76" transform="scale(0.015625)"/>
       <path d="M 2194 1759 
Q 1497 1759 1228 1600 
Q 959 1441 959 1056 
Q 959 750 1161 570 
Q 1363 391 1709 391 
Q 2188 391 2477 730 
Q 2766 1069 2766 1631 
L 2766 1759 
L 2194 1759 
z
M 3341 1997 
L 3341 0 
L 2766 0 
L 2766 531 
Q 2569 213 2275 61 
Q 1981 -91 1556 -91 
Q 1019 -91 701 211 
Q 384 513 384 1019 
Q 384 1609 779 1909 
Q 1175 2209 1959 2209 
L 2766 2209 
L 2766 2266 
Q 2766 2663 2505 2880 
Q 2244 3097 1772 3097 
Q 1472 3097 1187 3025 
Q 903 2953 641 2809 
L 641 3341 
Q 956 3463 1253 3523 
Q 1550 3584 1831 3584 
Q 2591 3584 2966 3190 
Q 3341 2797 3341 1997 
z
" id="DejaVuSans-61" transform="scale(0.015625)"/>
       <path d="M 603 4863 
L 1178 4863 
L 1178 0 
L 603 0 
L 603 4863 
z
" id="DejaVuSans-6c" transform="scale(0.015625)"/>
       <path d="M 544 1381 
L 544 3500 
L 1119 3500 
L 1119 1403 
Q 1119 906 1312 657 
Q 1506 409 1894 409 
Q 2359 409 2629 706 
Q 2900 1003 2900 1516 
L 2900 3500 
L 3475 3500 
L 3475 0 
L 2900 0 
L 2900 538 
Q 2691 219 2414 64 
Q 2138 -91 1772 -91 
Q 1169 -91 856 284 
Q 544 659 544 1381 
z
M 1991 3584 
L 1991 3584 
z
" id="DejaVuSans-75" transform="scale(0.015625)"/>
       <path d="M 3597 1894 
L 3597 1613 
L 953 1613 
Q 991 1019 1311 708 
Q 1631 397 2203 397 
Q 2534 397 2845 478 
Q 3156 559 3463 722 
L 3463 178 
Q 3153 47 2828 -22 
Q 2503 -91 2169 -91 
Q 1331 -91 842 396 
Q 353 884 353 1716 
Q 353 2575 817 3079 
Q 1281 3584 2069 3584 
Q 2775 3584 3186 3129 
Q 3597 2675 3597 1894 
z
M 3022 2063 
Q 3016 2534 2758 2815 
Q 2500 3097 2075 3097 
Q 1594 3097 1305 2825 
Q 1016 2553 972 2059 
L 3022 2063 
z
" id="DejaVuSans-65" transform="scale(0.015625)"/>
      </defs>
      <use xlink:href="#DejaVuSans-76"/>
      <use x="59.179688" xlink:href="#DejaVuSans-61"/>
      <use x="120.458984" xlink:href="#DejaVuSans-6c"/>
      <use x="148.242188" xlink:href="#DejaVuSans-75"/>
      <use x="211.621094" xlink:href="#DejaVuSans-65"/>
     </g>
    </g>
   </g>
   <g id="matplotlib.axis_2">
    <g id="ytick_1">
     <g id="line2d_47">
      <path clip-path="url(#p2f3df0ef80)" d="M 48.11375 287.048906 
L 325.566915 287.048906 
" style="fill:none;stroke:#cccccc;stroke-linecap:round;stroke-width:0.8;"/>
     </g>
     <g id="line2d_48">
      <defs>
       <path d="M 0 0 
L -4.8 0 
" id="m6433e3c861" style="stroke:#000000;"/>
      </defs>
      <g>
       <use style="stroke:#000000;" x="48.11375" xlink:href="#m6433e3c861" y="287.048906"/>
      </g>
     </g>
     <g id="text_7">
      <!-- 0.0 -->
      <g transform="translate(17.549375 292.367812)scale(0.14 -0.14)">
       <defs>
        <path d="M 684 794 
L 1344 794 
L 1344 0 
L 684 0 
L 684 794 
z
" id="DejaVuSans-2e" transform="scale(0.015625)"/>
       </defs>
       <use xlink:href="#DejaVuSans-30"/>
       <use x="63.623047" xlink:href="#DejaVuSans-2e"/>
       <use x="95.410156" xlink:href="#DejaVuSans-30"/>
      </g>
     </g>
    </g>
    <g id="ytick_2">
     <g id="line2d_49">
      <path clip-path="url(#p2f3df0ef80)" d="M 48.11375 230.702906 
L 325.566915 230.702906 
" style="fill:none;stroke:#cccccc;stroke-linecap:round;stroke-width:0.8;"/>
     </g>
     <g id="line2d_50">
      <g>
       <use style="stroke:#000000;" x="48.11375" xlink:href="#m6433e3c861" y="230.702906"/>
      </g>
     </g>
     <g id="text_8">
      <!-- 0.2 -->
      <g transform="translate(17.549375 236.021812)scale(0.14 -0.14)">
       <use xlink:href="#DejaVuSans-30"/>
       <use x="63.623047" xlink:href="#DejaVuSans-2e"/>
       <use x="95.410156" xlink:href="#DejaVuSans-32"/>
      </g>
     </g>
    </g>
    <g id="ytick_3">
     <g id="line2d_51">
      <path clip-path="url(#p2f3df0ef80)" d="M 48.11375 174.356906 
L 325.566915 174.356906 
" style="fill:none;stroke:#cccccc;stroke-linecap:round;stroke-width:0.8;"/>
     </g>
     <g id="line2d_52">
      <g>
       <use style="stroke:#000000;" x="48.11375" xlink:href="#m6433e3c861" y="174.356906"/>
      </g>
     </g>
     <g id="text_9">
      <!-- 0.4 -->
      <g transform="translate(17.549375 179.675812)scale(0.14 -0.14)">
       <use xlink:href="#DejaVuSans-30"/>
       <use x="63.623047" xlink:href="#DejaVuSans-2e"/>
       <use x="95.410156" xlink:href="#DejaVuSans-34"/>
      </g>
     </g>
    </g>
    <g id="ytick_4">
     <g id="line2d_53">
      <path clip-path="url(#p2f3df0ef80)" d="M 48.11375 118.010906 
L 325.566915 118.010906 
" style="fill:none;stroke:#cccccc;stroke-linecap:round;stroke-width:0.8;"/>
     </g>
     <g id="line2d_54">
      <g>
       <use style="stroke:#000000;" x="48.11375" xlink:href="#m6433e3c861" y="118.010906"/>
      </g>
     </g>
     <g id="text_10">
      <!-- 0.6 -->
      <g transform="translate(17.549375 123.329812)scale(0.14 -0.14)">
       <defs>
        <path d="M 2113 2584 
Q 1688 2584 1439 2293 
Q 1191 2003 1191 1497 
Q 1191 994 1439 701 
Q 1688 409 2113 409 
Q 2538 409 2786 701 
Q 3034 994 3034 1497 
Q 3034 2003 2786 2293 
Q 2538 2584 2113 2584 
z
M 3366 4563 
L 3366 3988 
Q 3128 4100 2886 4159 
Q 2644 4219 2406 4219 
Q 1781 4219 1451 3797 
Q 1122 3375 1075 2522 
Q 1259 2794 1537 2939 
Q 1816 3084 2150 3084 
Q 2853 3084 3261 2657 
Q 3669 2231 3669 1497 
Q 3669 778 3244 343 
Q 2819 -91 2113 -91 
Q 1303 -91 875 529 
Q 447 1150 447 2328 
Q 447 3434 972 4092 
Q 1497 4750 2381 4750 
Q 2619 4750 2861 4703 
Q 3103 4656 3366 4563 
z
" id="DejaVuSans-36" transform="scale(0.015625)"/>
       </defs>
       <use xlink:href="#DejaVuSans-30"/>
       <use x="63.623047" xlink:href="#DejaVuSans-2e"/>
       <use x="95.410156" xlink:href="#DejaVuSans-36"/>
      </g>
     </g>
    </g>
    <g id="ytick_5">
     <g id="line2d_55">
      <path clip-path="url(#p2f3df0ef80)" d="M 48.11375 61.664906 
L 325.566915 61.664906 
" style="fill:none;stroke:#cccccc;stroke-linecap:round;stroke-width:0.8;"/>
     </g>
     <g id="line2d_56">
      <g>
       <use style="stroke:#000000;" x="48.11375" xlink:href="#m6433e3c861" y="61.664906"/>
      </g>
     </g>
     <g id="text_11">
      <!-- 0.8 -->
      <g transform="translate(17.549375 66.983812)scale(0.14 -0.14)">
       <defs>
        <path d="M 2034 2216 
Q 1584 2216 1326 1975 
Q 1069 1734 1069 1313 
Q 1069 891 1326 650 
Q 1584 409 2034 409 
Q 2484 409 2743 651 
Q 3003 894 3003 1313 
Q 3003 1734 2745 1975 
Q 2488 2216 2034 2216 
z
M 1403 2484 
Q 997 2584 770 2862 
Q 544 3141 544 3541 
Q 544 4100 942 4425 
Q 1341 4750 2034 4750 
Q 2731 4750 3128 4425 
Q 3525 4100 3525 3541 
Q 3525 3141 3298 2862 
Q 3072 2584 2669 2484 
Q 3125 2378 3379 2068 
Q 3634 1759 3634 1313 
Q 3634 634 3220 271 
Q 2806 -91 2034 -91 
Q 1263 -91 848 271 
Q 434 634 434 1313 
Q 434 1759 690 2068 
Q 947 2378 1403 2484 
z
M 1172 3481 
Q 1172 3119 1398 2916 
Q 1625 2713 2034 2713 
Q 2441 2713 2670 2916 
Q 2900 3119 2900 3481 
Q 2900 3844 2670 4047 
Q 2441 4250 2034 4250 
Q 1625 4250 1398 4047 
Q 1172 3844 1172 3481 
z
" id="DejaVuSans-38" transform="scale(0.015625)"/>
       </defs>
       <use xlink:href="#DejaVuSans-30"/>
       <use x="63.623047" xlink:href="#DejaVuSans-2e"/>
       <use x="95.410156" xlink:href="#DejaVuSans-38"/>
      </g>
     </g>
    </g>
    <g id="ytick_6">
     <g id="line2d_57">
      <path clip-path="url(#p2f3df0ef80)" d="M 48.11375 5.318906 
L 325.566915 5.318906 
" style="fill:none;stroke:#cccccc;stroke-linecap:round;stroke-width:0.8;"/>
     </g>
     <g id="line2d_58">
      <g>
       <use style="stroke:#000000;" x="48.11375" xlink:href="#m6433e3c861" y="5.318906"/>
      </g>
     </g>
     <g id="text_12">
      <!-- 1.0 -->
      <g transform="translate(17.549375 10.637812)scale(0.14 -0.14)">
       <use xlink:href="#DejaVuSans-31"/>
       <use x="63.623047" xlink:href="#DejaVuSans-2e"/>
       <use x="95.410156" xlink:href="#DejaVuSans-30"/>
      </g>
     </g>
    </g>
    <g id="text_13">
     <!-- Proportion -->
     <g style="fill:#262626;" transform="translate(10.637812 182.298437)rotate(-90)scale(0.14 -0.14)">
      <defs>
       <path d="M 1259 4147 
L 1259 2394 
L 2053 2394 
Q 2494 2394 2734 2622 
Q 2975 2850 2975 3272 
Q 2975 3691 2734 3919 
Q 2494 4147 2053 4147 
L 1259 4147 
z
M 628 4666 
L 2053 4666 
Q 2838 4666 3239 4311 
Q 3641 3956 3641 3272 
Q 3641 2581 3239 2228 
Q 2838 1875 2053 1875 
L 1259 1875 
L 1259 0 
L 628 0 
L 628 4666 
z
" id="DejaVuSans-50" transform="scale(0.015625)"/>
       <path d="M 2631 2963 
Q 2534 3019 2420 3045 
Q 2306 3072 2169 3072 
Q 1681 3072 1420 2755 
Q 1159 2438 1159 1844 
L 1159 0 
L 581 0 
L 581 3500 
L 1159 3500 
L 1159 2956 
Q 1341 3275 1631 3429 
Q 1922 3584 2338 3584 
Q 2397 3584 2469 3576 
Q 2541 3569 2628 3553 
L 2631 2963 
z
" id="DejaVuSans-72" transform="scale(0.015625)"/>
       <path d="M 1959 3097 
Q 1497 3097 1228 2736 
Q 959 2375 959 1747 
Q 959 1119 1226 758 
Q 1494 397 1959 397 
Q 2419 397 2687 759 
Q 2956 1122 2956 1747 
Q 2956 2369 2687 2733 
Q 2419 3097 1959 3097 
z
M 1959 3584 
Q 2709 3584 3137 3096 
Q 3566 2609 3566 1747 
Q 3566 888 3137 398 
Q 2709 -91 1959 -91 
Q 1206 -91 779 398 
Q 353 888 353 1747 
Q 353 2609 779 3096 
Q 1206 3584 1959 3584 
z
" id="DejaVuSans-6f" transform="scale(0.015625)"/>
       <path d="M 1159 525 
L 1159 -1331 
L 581 -1331 
L 581 3500 
L 1159 3500 
L 1159 2969 
Q 1341 3281 1617 3432 
Q 1894 3584 2278 3584 
Q 2916 3584 3314 3078 
Q 3713 2572 3713 1747 
Q 3713 922 3314 415 
Q 2916 -91 2278 -91 
Q 1894 -91 1617 61 
Q 1341 213 1159 525 
z
M 3116 1747 
Q 3116 2381 2855 2742 
Q 2594 3103 2138 3103 
Q 1681 3103 1420 2742 
Q 1159 2381 1159 1747 
Q 1159 1113 1420 752 
Q 1681 391 2138 391 
Q 2594 391 2855 752 
Q 3116 1113 3116 1747 
z
" id="DejaVuSans-70" transform="scale(0.015625)"/>
       <path d="M 1172 4494 
L 1172 3500 
L 2356 3500 
L 2356 3053 
L 1172 3053 
L 1172 1153 
Q 1172 725 1289 603 
Q 1406 481 1766 481 
L 2356 481 
L 2356 0 
L 1766 0 
Q 1100 0 847 248 
Q 594 497 594 1153 
L 594 3053 
L 172 3053 
L 172 3500 
L 594 3500 
L 594 4494 
L 1172 4494 
z
" id="DejaVuSans-74" transform="scale(0.015625)"/>
       <path d="M 603 3500 
L 1178 3500 
L 1178 0 
L 603 0 
L 603 3500 
z
M 603 4863 
L 1178 4863 
L 1178 4134 
L 603 4134 
L 603 4863 
z
" id="DejaVuSans-69" transform="scale(0.015625)"/>
       <path d="M 3513 2113 
L 3513 0 
L 2938 0 
L 2938 2094 
Q 2938 2591 2744 2837 
Q 2550 3084 2163 3084 
Q 1697 3084 1428 2787 
Q 1159 2491 1159 1978 
L 1159 0 
L 581 0 
L 581 3500 
L 1159 3500 
L 1159 2956 
Q 1366 3272 1645 3428 
Q 1925 3584 2291 3584 
Q 2894 3584 3203 3211 
Q 3513 2838 3513 2113 
z
" id="DejaVuSans-6e" transform="scale(0.015625)"/>
      </defs>
      <use xlink:href="#DejaVuSans-50"/>
      <use x="58.552734" xlink:href="#DejaVuSans-72"/>
      <use x="97.416016" xlink:href="#DejaVuSans-6f"/>
      <use x="158.597656" xlink:href="#DejaVuSans-70"/>
      <use x="222.074219" xlink:href="#DejaVuSans-6f"/>
      <use x="283.255859" xlink:href="#DejaVuSans-72"/>
      <use x="324.369141" xlink:href="#DejaVuSans-74"/>
      <use x="363.578125" xlink:href="#DejaVuSans-69"/>
      <use x="391.361328" xlink:href="#DejaVuSans-6f"/>
      <use x="452.542969" xlink:href="#DejaVuSans-6e"/>
     </g>
    </g>
   </g>
   <g id="line2d_59">
    <path clip-path="url(#p2f3df0ef80)" d="M -1 172.865192 
L 60.725257 172.865192 
L 60.725257 172.754841 
L 60.725257 121.366243 
L 78.799187 121.366243 
L 78.799187 121.2559 
L 78.799187 92.128614 
L 89.371756 92.128614 
L 89.371756 92.018271 
L 89.371756 73.966456 
L 96.87312 73.966456 
L 96.87312 73.856113 
L 96.87312 62.245249 
L 102.691622 62.245249 
L 102.691622 62.134906 
L 102.691622 54.353451 
L 107.44569 54.353451 
L 107.44569 54.243108 
L 107.44569 49.114049 
L 111.465191 49.114049 
L 111.465191 49.003706 
L 111.465191 45.480808 
L 114.947046 45.480808 
L 114.947046 45.370465 
L 114.947046 43.045018 
L 118.018259 43.045018 
L 118.018259 42.934675 
L 118.018259 41.09965 
L 120.765552 41.09965 
L 120.765552 40.989307 
L 120.765552 39.648819 
L 123.250781 39.648819 
L 123.250781 39.538459 
L 123.250781 38.439093 
L 125.519615 38.439093 
L 125.519615 38.32875 
L 125.519615 37.552235 
L 127.606745 37.552235 
L 127.606745 37.441892 
L 127.606745 36.861546 
L 129.539124 36.861546 
L 129.539124 36.751203 
L 129.539124 36.285298 
L 131.338126 36.285298 
L 131.338126 36.174955 
L 131.338126 35.929735 
L 133.020979 35.929735 
L 133.020979 35.819392 
L 133.020979 35.627304 
L 134.601776 35.627304 
L 134.601776 35.516961 
L 134.601776 35.337131 
L 136.092188 35.337131 
L 136.092188 35.226788 
L 136.092188 35.087831 
L 137.502003 35.087831 
L 137.502003 34.977488 
L 137.502003 34.912098 
L 138.839484 34.912098 
L 138.839484 34.801755 
L 138.839484 34.740446 
L 141.324713 34.642361 
L 141.324713 34.630103 
L 141.324713 34.527938 
L 143.593547 34.438015 
L 143.593547 34.417595 
L 143.593547 34.331769 
L 145.680676 34.245943 
L 145.680676 34.221409 
L 145.680676 34.151939 
L 146.664763 34.151939 
L 146.664763 34.041596 
L 146.664763 34.037499 
L 148.528068 33.947592 
L 148.528068 33.927156 
L 148.528068 33.878122 
L 150.267056 33.808635 
L 150.267056 33.767779 
L 150.267056 33.718728 
L 151.897282 33.64108 
L 151.897282 33.608385 
L 151.897282 33.555254 
L 153.431561 33.485784 
L 153.431561 33.444911 
L 153.431561 33.404038 
L 154.880554 33.32639 
L 154.880554 33.293695 
L 154.880554 33.269178 
L 156.253243 33.179255 
L 156.253243 33.158819 
L 156.253243 33.085268 
L 157.557278 32.987183 
L 157.557278 32.974908 
L 157.557278 32.913616 
L 158.799187 32.840048 
L 158.799187 32.803273 
L 158.799187 32.766481 
L 159.984626 32.664316 
L 159.984626 32.656138 
L 159.984626 32.627523 
L 161.11851 32.521261 
L 161.11851 32.51718 
L 161.11851 32.431354 
L 162.205126 32.337367 
L 162.205126 32.321011 
L 162.205126 32.243363 
L 163.248276 32.157537 
L 163.248276 32.13302 
L 163.248276 32.067631 
L 163.754602 32.067631 
L 163.754602 31.957271 
L 163.754602 31.94911 
L 164.738687 31.912318 
L 164.738687 31.83875 
L 164.738687 31.830589 
L 165.686982 31.761102 
L 165.686982 31.720246 
L 165.686982 31.716148 
L 166.601992 31.626242 
L 166.601992 31.605806 
L 166.601992 31.552674 
L 167.485984 31.507721 
L 167.485984 31.442331 
L 167.485984 31.434153 
L 168.340987 31.376942 
L 168.340987 31.32381 
L 168.340987 31.299294 
L 169.573106 31.20529 
L 169.573106 31.188934 
L 169.573106 31.135819 
L 170.36333 31.086769 
L 170.36333 31.02546 
L 170.36333 31.017298 
L 171.505487 30.911036 
L 171.505487 30.906939 
L 171.505487 30.861985 
L 172.954481 30.75982 
L 172.954481 30.751642 
L 172.954481 30.714867 
L 173.990714 30.620863 
L 173.990714 30.604524 
L 173.990714 30.588168 
L 175.311263 30.477825 
L 175.311263 30.44513 
L 176.873112 30.338868 
L 176.873112 30.334788 
L 176.873112 30.281656 
L 178.058551 30.179474 
L 178.058551 30.171313 
L 178.058551 30.118182 
L 178.913556 30.036437 
L 178.913556 30.007822 
L 178.913556 29.995564 
L 179.741404 29.922013 
L 179.741404 29.885221 
L 179.741404 29.868882 
L 180.54378 29.783056 
L 180.54378 29.758522 
L 180.54378 29.746264 
L 181.322207 29.676793 
L 181.322207 29.635921 
L 181.322207 29.615484 
L 182.57005 29.505141 
L 182.57005 29.464269 
L 183.527046 29.374362 
L 183.527046 29.353926 
L 183.527046 29.349845 
L 184.450159 29.239485 
L 184.450159 29.206791 
L 185.34171 29.108706 
L 185.34171 29.096448 
L 185.34171 29.080109 
L 186.414912 28.969766 
L 186.414912 28.95341 
L 187.038248 28.863503 
L 187.038248 28.843067 
L 187.038248 28.838986 
L 188.045144 28.736804 
L 188.045144 28.728626 
L 188.045144 28.716368 
L 188.631119 28.634639 
L 188.631119 28.606025 
L 188.631119 28.589669 
L 189.392503 28.479326 
L 189.392503 28.467068 
L 189.949289 28.397598 
L 189.949289 28.356725 
L 189.949289 28.344466 
L 190.673643 28.234123 
L 190.673643 28.18917 
L 191.378415 28.07881 
L 191.378415 28.050213 
L 192.064649 27.964387 
L 192.064649 27.93987 
L 192.064649 27.927595 
L 192.733274 27.82543 
L 192.733274 27.817252 
L 192.733274 27.788654 
L 193.385195 27.678294 
L 193.385195 27.637438 
L 194.021199 27.527079 
L 194.021199 27.494384 
L 194.795009 27.388138 
L 194.795009 27.384041 
L 194.795009 27.347265 
L 195.248499 27.241003 
L 195.248499 27.236923 
L 195.248499 27.204228 
L 195.69423 27.102046 
L 195.69423 27.093868 
L 195.69423 27.069351 
L 196.27694 26.963089 
L 196.27694 26.959008 
L 196.27694 26.926313 
L 196.846909 26.81597 
L 196.846909 26.775097 
L 197.26636 26.685191 
L 197.26636 26.664755 
L 197.26636 26.644318 
L 197.679167 26.558492 
L 197.679167 26.533975 
L 197.679167 26.513539 
L 198.352989 26.407276 
L 198.352989 26.403196 
L 198.352989 26.395018 
L 199.009821 26.284675 
L 199.009821 26.256061 
L 199.523634 26.145718 
L 199.523634 26.117103 
L 200.027526 26.019019 
L 200.027526 26.00676 
L 200.027526 25.974066 
L 200.521857 25.871901 
L 200.521857 25.863723 
L 200.521857 25.82693 
L 200.886552 25.75338 
L 200.886552 25.716587 
L 200.886552 25.712507 
L 201.365007 25.602164 
L 201.365007 25.569469 
L 201.834846 25.479546 
L 201.834846 25.459109 
L 201.834846 25.426415 
L 202.181749 25.336508 
L 202.181749 25.316072 
L 202.181749 25.287474 
L 202.524086 25.18939 
L 202.524086 25.177114 
L 202.524086 25.173034 
L 202.973682 25.07903 
L 202.973682 25.062691 
L 202.973682 25.050432 
L 203.415635 24.94825 
L 203.415635 24.940089 
L 203.52497 24.903297 
L 203.850229 24.813391 
L 203.850229 24.792954 
L 203.957763 24.735742 
L 204.488839 24.62948 
L 204.488839 24.625383 
L 204.593764 24.551832 
L 204.906055 24.453747 
L 204.906055 24.441489 
L 205.009321 24.372002 
L 205.418349 24.261659 
L 205.519612 24.175833 
L 205.920782 24.081829 
L 205.920782 24.06549 
L 206.020114 24.028698 
L 206.315868 23.926533 
L 206.315868 23.918355 
L 206.413711 23.852965 
L 206.801453 23.767139 
L 206.801453 23.742622 
L 206.897492 23.693571 
L 207.278161 23.587326 
L 207.278161 23.583229 
L 207.372468 23.534195 
L 207.746309 23.423852 
L 207.838941 23.378882 
L 208.206201 23.288975 
L 208.206201 23.268539 
L 208.297213 23.178632 
L 208.568361 23.117323 
L 208.568361 23.068289 
L 208.658116 23.047853 
L 209.014094 22.94159 
L 209.014094 22.93751 
L 209.102345 22.896637 
L 209.36529 22.802633 
L 209.36529 22.786294 
L 209.452353 22.720904 
L 209.797724 22.618722 
L 209.797724 22.610545 
L 209.883354 22.57785 
L 210.223101 22.487943 
L 210.223101 22.467507 
L 210.307342 22.430731 
L 210.55848 22.348986 
L 210.55848 22.320388 
L 210.641649 22.283596 
L 211.053583 22.214126 
L 211.053583 22.173253 
L 211.135205 22.136478 
L 211.378514 22.026135 
L 211.459119 21.977084 
L 211.858443 21.870822 
L 211.858443 21.866741 
L 211.937574 21.817691 
L 212.251741 21.711428 
L 212.251741 21.707348 
L 212.329699 21.646039 
L 212.639197 21.547954 
L 212.639197 21.535696 
L 212.715995 21.474403 
L 213.096666 21.372221 
L 213.096666 21.364043 
L 213.172134 21.323188 
L 213.471855 21.225103 
L 213.471855 21.212828 
L 213.546249 21.143358 
L 213.841719 21.053451 
L 213.841719 21.033015 
L 213.915067 20.959447 
L 214.278748 20.861363 
L 214.278748 20.849104 
L 214.35088 20.800053 
L 214.637417 20.706066 
L 214.637417 20.68971 
L 214.708561 20.669274 
L 214.99122 20.567109 
L 214.99122 20.558931 
L 215.061419 20.513978 
L 215.340299 20.428152 
L 215.340299 20.403635 
L 215.409553 20.383198 
L 215.684753 20.293292 
L 215.684753 20.272855 
L 215.753107 20.231983 
L 216.09218 20.142076 
L 216.09218 20.12164 
L 216.159473 20.088945 
L 216.426915 19.999022 
L 216.426915 19.978585 
L 216.49335 19.937729 
L 216.691638 19.847806 
L 216.691638 19.827386 
L 216.757399 19.753819 
L 217.083761 19.651637 
L 217.083761 19.643476 
L 217.148534 19.578069 
L 217.470057 19.479985 
L 217.470057 19.467726 
L 217.533902 19.443209 
L 217.787673 19.361464 
L 217.787673 19.332866 
L 217.850729 19.308349 
L 218.101452 19.214345 
L 218.101452 19.19799 
L 218.163764 19.144858 
L 218.473076 19.034516 
L 218.534499 18.981384 
L 218.778767 18.895558 
L 218.778767 18.871041 
L 218.839476 18.826088 
L 219.080921 18.736181 
L 219.080921 18.715745 
L 219.14093 18.666694 
L 219.320136 18.580868 
L 219.320136 18.556351 
L 219.379613 18.531835 
L 219.61612 18.421492 
L 219.674911 18.372441 
L 220.02492 18.286615 
L 220.02492 18.262098 
L 220.082795 18.241662 
L 220.370292 18.164013 
L 220.370292 18.131319 
L 220.427408 18.11906 
L 220.823783 18.020976 
L 220.823783 18.008717 
L 220.87991 17.976022 
L 221.158803 17.882018 
L 221.158803 17.865663 
L 221.269528 17.816629 
L 221.598896 17.726722 
L 221.598896 17.706286 
L 221.707773 17.644977 
L 221.924169 17.559151 
L 221.924169 17.534634 
L 222.031687 17.481502 
L 222.351635 17.379321 
L 222.351635 17.371159 
L 222.457422 17.313931 
L 222.772216 17.215846 
L 222.772216 17.203588 
L 222.876298 17.166813 
L 223.134737 17.068728 
L 223.134737 17.05647 
L 223.237387 17.015597 
L 223.593539 16.913415 
L 223.593539 16.905254 
L 223.694413 16.848025 
L 224.044423 16.762216 
L 224.044423 16.737682 
L 224.143566 16.709085 
L 224.487635 16.602822 
L 224.487635 16.598725 
L 224.585118 16.557869 
L 224.971415 16.447509 
L 225.06711 16.406653 
L 225.446392 16.300391 
L 225.446392 16.296294 
L 225.540354 16.271777 
L 225.912865 16.161434 
L 226.005167 16.104222 
L 226.461837 15.993879 
L 226.552219 15.908053 
L 227.088034 15.797693 
L 227.176269 15.756837 
L 227.569694 15.671011 
L 227.569694 15.646494 
L 227.656328 15.593363 
L 227.999995 15.50344 
L 227.999995 15.483003 
L 228.085211 15.450309 
L 228.507138 15.344063 
L 228.507138 15.339966 
L 228.59072 15.295012 
L 229.045644 15.184669 
L 229.127522 15.139716 
L 229.492779 15.029373 
L 229.573255 14.980322 
L 229.852994 14.882238 
L 229.852994 14.869979 
L 229.932368 14.845462 
L 230.325666 14.7392 
L 230.325666 14.735103 
L 230.403624 14.714666 
L 230.713122 14.616582 
L 230.713122 14.604323 
L 230.789934 14.55937 
L 231.09491 14.473544 
L 231.09491 14.449027 
L 231.170591 14.416332 
L 231.582999 14.305989 
L 231.657292 14.265117 
L 231.988992 14.154774 
L 232.098629 14.10982 
L 232.424806 14.003558 
L 232.424806 13.999461 
L 232.532624 13.938168 
L 232.888846 13.835986 
L 232.888846 13.827825 
L 232.994773 13.803292 
L 233.309999 13.709304 
L 233.309999 13.692949 
L 233.414224 13.639817 
L 233.929225 13.537652 
L 233.929225 13.529474 
L 234.031017 13.484521 
L 234.434247 13.390517 
L 234.434247 13.374178 
L 234.534078 13.345564 
L 235.060217 13.235221 
L 235.157686 13.214784 
L 235.639677 13.108522 
L 235.639677 13.104442 
L 235.735012 13.059488 
L 236.112922 12.949128 
L 236.206553 12.900095 
L 236.639088 12.789752 
L 236.730859 12.765218 
L 237.064564 12.663053 
L 237.064564 12.654875 
L 237.154847 12.638536 
L 237.542475 12.532274 
L 237.542475 12.528193 
L 237.631127 12.503659 
L 238.185621 12.401494 
L 238.185621 12.393316 
L 238.272111 12.37288 
L 238.813279 12.266617 
L 238.813279 12.262537 
L 238.897707 12.23802 
L 239.481205 12.131758 
L 239.481205 12.127677 
L 239.590869 12.086804 
L 240.105627 11.976461 
L 240.2127 11.939669 
L 240.610407 11.833407 
L 240.610407 11.829326 
L 240.715434 11.800712 
L 241.131405 11.690369 
L 241.234371 11.657674 
L 241.743158 11.551412 
L 241.743158 11.547331 
L 241.768339 11.522814 
L 242.340899 11.412471 
L 242.439212 11.392035 
L 243.021377 11.281692 
L 243.117145 11.224463 
L 243.56734 11.11412 
L 243.661145 11.089603 
L 244.125128 10.991519 
L 244.125128 10.97926 
L 244.19401 10.950646 
L 244.895432 10.840303 
L 244.98457 10.819867 
L 245.447651 10.709524 
L 245.556714 10.672732 
L 246.009834 10.562389 
L 246.073919 10.537872 
L 246.581078 10.427529 
L 246.664647 10.398915 
L 247.099068 10.296749 
L 247.099068 10.288572 
L 247.201449 10.264055 
L 247.807404 10.153695 
L 247.907034 10.116919 
L 248.535868 10.010657 
L 248.535868 10.006577 
L 248.632763 9.973882 
L 249.035851 9.863539 
L 249.111919 9.830844 
L 249.916021 9.720484 
L 250.026274 9.675531 
L 250.462686 9.565188 
L 250.534717 9.552929 
L 250.962784 9.450748 
L 250.962784 9.442586 
L 251.068698 9.430328 
L 251.695368 9.328146 
L 251.695368 9.319968 
L 251.781229 9.295451 
L 252.407942 9.185108 
L 252.508173 9.152413 
L 253.19916 9.046151 
L 253.19916 9.04207 
L 253.280224 9.025715 
L 253.919734 8.915372 
L 253.982834 8.886757 
L 254.697696 8.776414 
L 254.774236 8.731461 
L 255.542308 8.625199 
L 255.542308 8.621118 
L 255.645989 8.600682 
L 256.288405 8.502597 
L 256.288405 8.490339 
L 256.389167 8.469902 
L 256.92946 8.359559 
L 257.027774 8.335026 
L 257.500118 8.224683 
L 257.610026 8.200166 
L 258.112401 8.089823 
L 258.206362 8.073467 
L 258.998182 7.963124 
L 259.101963 7.942688 
L 259.690828 7.832345 
L 259.791891 7.803731 
L 260.817969 7.693388 
L 260.914765 7.652515 
L 261.711651 7.542172 
L 261.816864 7.505396 
L 262.643626 7.395053 
L 262.733896 7.374617 
L 263.608867 7.264274 
L 263.717559 7.227482 
L 264.686379 7.117139 
L 264.780271 7.096703 
L 265.539696 6.98636 
L 265.630565 6.957745 
L 266.424689 6.847402 
L 266.532019 6.822885 
L 267.684327 6.712542 
L 267.721559 6.700284 
L 268.581658 6.589924 
L 268.680488 6.569488 
L 270.254951 6.459145 
L 270.364457 6.438709 
L 271.95415 6.328366 
L 272.001561 6.316107 
L 273.385193 6.205764 
L 273.489791 6.189408 
L 274.68484 6.079065 
L 274.68484 6.074985 
L 276.546915 5.964642 
L 276.652801 5.956464 
L 278.982664 5.846121 
L 279.073103 5.837943 
L 281.165789 5.7276 
L 281.165789 5.723503 
L 284.248106 5.61316 
L 284.248106 5.609079 
L 288.656038 5.498736 
L 288.656038 5.494639 
L 295.133033 5.384296 
L 295.133033 5.380215 
L 312.955407 5.322987 
L 312.955407 5.318906 
" style="fill:none;stroke:#ff7f0e;stroke-linecap:round;stroke-width:1.5;"/>
   </g>
   <g id="line2d_60">
    <path clip-path="url(#p2f3df0ef80)" d="M -1 71.236412 
L 60.725257 71.236412 
L 60.725257 71.126069 
L 60.725257 57.36549 
L 78.799187 57.36549 
L 78.799187 57.255147 
L 78.799187 49.48187 
L 89.371756 49.48187 
L 89.371756 49.371527 
L 89.371756 44.598031 
L 96.87312 44.598031 
L 96.87312 44.487688 
L 96.87312 41.402082 
L 102.691622 41.402082 
L 102.691622 41.291739 
L 102.691622 39.215608 
L 107.44569 39.215608 
L 107.44569 39.105248 
L 107.44569 37.842408 
L 111.465191 37.842408 
L 111.465191 37.732065 
L 111.465191 37.09041 
L 114.947046 37.09041 
L 114.947046 36.980067 
L 114.947046 36.485547 
L 118.018259 36.485547 
L 118.018259 36.375204 
L 118.018259 36.035998 
L 120.765552 36.035998 
L 120.765552 35.925655 
L 120.765552 35.737647 
L 123.250781 35.737647 
L 123.250781 35.627304 
L 123.250781 35.508783 
L 125.519615 35.508783 
L 125.519615 35.39844 
L 125.519615 35.243144 
L 127.606745 35.243144 
L 127.606745 35.132801 
L 127.606745 35.034716 
L 129.539124 35.034716 
L 129.539124 34.924356 
L 129.539124 34.887581 
L 133.020979 34.789497 
L 133.020979 34.777238 
L 133.020979 34.679154 
L 134.601776 34.679154 
L 134.601776 34.568811 
L 134.601776 34.548374 
L 137.502003 34.438015 
L 137.502003 34.315413 
L 140.111691 34.20507 
L 140.111691 34.131503 
L 142.483798 34.053854 
L 142.483798 34.02116 
L 142.483798 33.947592 
L 144.657989 33.869944 
L 144.657989 33.837249 
L 144.657989 33.808635 
L 146.664763 33.714648 
L 146.664763 33.698292 
L 146.664763 33.608385 
L 148.528068 33.542995 
L 148.528068 33.498042 
L 148.528068 33.489864 
L 150.267056 33.39178 
L 150.267056 33.379521 
L 150.267056 33.338649 
L 151.897282 33.265081 
L 151.897282 33.228306 
L 151.897282 33.162916 
L 153.431561 33.07709 
L 153.431561 33.052573 
L 153.431561 32.974908 
L 154.880554 32.909518 
L 154.880554 32.864565 
L 154.880554 32.82779 
L 156.253243 32.766481 
L 156.253243 32.717447 
L 156.253243 32.660218 
L 157.557278 32.566231 
L 157.557278 32.549875 
L 157.557278 32.492663 
L 158.799187 32.415015 
L 158.799187 32.38232 
L 158.799187 32.308753 
L 159.984626 32.218846 
L 159.984626 32.19841 
L 159.984626 32.13302 
L 161.11851 32.063533 
L 161.11851 32.02266 
L 161.11851 31.981805 
L 162.205126 31.875542 
L 162.205126 31.871445 
L 162.205126 31.81833 
L 163.248276 31.744763 
L 163.248276 31.707971 
L 163.248276 31.650759 
L 164.251287 31.56903 
L 164.251287 31.540416 
L 164.251287 31.491365 
L 165.217142 31.413717 
L 165.217142 31.381022 
L 165.217142 31.352425 
L 166.601992 31.250243 
L 166.601992 31.242065 
L 166.601992 31.188934 
L 167.916985 31.082688 
L 167.916985 31.078591 
L 167.916985 31.037735 
L 168.758191 30.951909 
L 168.758191 30.927375 
L 168.758191 30.89468 
L 169.971211 30.817032 
L 169.971211 30.784337 
L 169.971211 30.755723 
L 171.130299 30.657639 
L 171.130299 30.64538 
L 171.130299 30.629041 
L 172.599711 30.518698 
L 172.599711 30.473728 
L 173.64986 30.404258 
L 173.64986 30.363385 
L 173.64986 30.33069 
L 175.311263 30.232606 
L 175.311263 30.220347 
L 175.311263 30.191733 
L 176.568138 30.085487 
L 176.568138 30.08139 
L 176.568138 30.044615 
L 177.76721 29.934272 
L 177.76721 29.893399 
L 178.631655 29.799395 
L 178.631655 29.783056 
L 178.631655 29.770797 
L 179.468365 29.684971 
L 179.468365 29.660438 
L 179.468365 29.656357 
L 180.279058 29.562353 
L 180.279058 29.546014 
L 180.279058 29.533756 
L 181.065301 29.456091 
L 181.065301 29.423396 
L 181.065301 29.398879 
L 182.078053 29.292617 
L 182.078053 29.288536 
L 182.078053 29.264019 
L 183.052943 29.153676 
L 183.052943 29.13732 
L 184.222427 29.031058 
L 184.222427 29.026977 
L 184.222427 29.006541 
L 185.121664 28.912537 
L 185.121664 28.896198 
L 185.121664 28.871681 
L 186.203771 28.769499 
L 186.203771 28.761321 
L 186.203771 28.740885 
L 187.038248 28.646898 
L 187.038248 28.630542 
L 187.038248 28.618283 
L 187.846844 28.52428 
L 187.846844 28.507941 
L 187.846844 28.487504 
L 188.631119 28.385339 
L 188.631119 28.377161 
L 188.631119 28.344466 
L 189.392503 28.246382 
L 189.392503 28.234123 
L 189.392503 28.225945 
L 189.949289 28.152378 
L 189.949289 28.115602 
L 189.949289 28.103344 
L 190.673643 27.992984 
L 190.673643 27.948031 
L 191.378415 27.837688 
L 191.378415 27.817252 
L 192.064649 27.723264 
L 192.064649 27.706909 
L 192.064649 27.682392 
L 192.733274 27.592468 
L 192.733274 27.572049 
L 192.733274 27.555693 
L 193.223738 27.465786 
L 193.223738 27.44535 
L 193.223738 27.420833 
L 193.863649 27.326829 
L 193.863649 27.310473 
L 193.863649 27.306393 
L 194.488229 27.20013 
L 194.488229 27.19605 
L 194.488229 27.179694 
L 194.947046 27.097965 
L 194.947046 27.069351 
L 194.947046 27.057093 
L 195.397916 26.979444 
L 195.397916 26.94675 
L 195.397916 26.926313 
L 195.98721 26.824131 
L 195.98721 26.81597 
L 195.98721 26.775097 
L 196.420603 26.689271 
L 196.420603 26.664755 
L 196.420603 26.644318 
L 196.987481 26.542136 
L 196.987481 26.533975 
L 196.987481 26.497183 
L 197.404697 26.407276 
L 197.404697 26.38684 
L 197.404697 26.354145 
L 198.085547 26.25198 
L 198.085547 26.243802 
L 198.085547 26.223366 
L 198.749077 26.125281 
L 198.749077 26.113023 
L 198.749077 26.096667 
L 199.139227 26.010841 
L 199.139227 25.986324 
L 199.139227 25.978146 
L 199.650533 25.871901 
L 199.650533 25.867803 
L 199.650533 25.839206 
L 200.151992 25.741121 
L 200.151992 25.728846 
L 200.151992 25.692071 
L 200.521857 25.614422 
L 200.521857 25.581728 
L 200.521857 25.57355 
L 201.006983 25.475465 
L 201.006983 25.463207 
L 201.006983 25.430512 
L 201.365007 25.352864 
L 201.365007 25.320169 
L 201.365007 25.316072 
L 201.834846 25.242504 
L 201.834846 25.205729 
L 201.834846 25.19347 
L 202.181749 25.111725 
L 202.181749 25.083127 
L 202.181749 25.070869 
L 202.524086 24.960509 
L 202.524086 24.94825 
L 202.973682 24.858344 
L 202.973682 24.837908 
L 202.973682 24.817471 
L 203.415635 24.719387 
L 203.415635 24.707128 
L 203.52497 24.649916 
L 203.850229 24.576349 
L 203.850229 24.539573 
L 203.957763 24.510959 
L 204.383481 24.408777 
L 204.383481 24.400616 
L 204.488839 24.347485 
L 204.802373 24.2494 
L 204.802373 24.237142 
L 204.906055 24.163574 
L 205.316701 24.06549 
L 205.316701 24.053231 
L 205.418349 23.971486 
L 205.821065 23.881579 
L 205.821065 23.861143 
L 205.920782 23.808012 
L 206.217657 23.709927 
L 206.217657 23.697669 
L 206.315868 23.648618 
L 206.705057 23.550534 
L 206.705057 23.538275 
L 206.801453 23.468805 
L 207.278161 23.378882 
L 207.278161 23.358462 
L 207.372468 23.317589 
L 207.746309 23.211327 
L 207.746309 23.207246 
L 207.838941 23.154115 
L 208.114872 23.07645 
L 208.114872 23.043755 
L 208.206201 22.986544 
L 208.568361 22.892556 
L 208.568361 22.876201 
L 208.658116 22.810811 
L 208.925558 22.733163 
L 208.925558 22.700468 
L 209.014094 22.680032 
L 209.277928 22.581947 
L 209.277928 22.569689 
L 209.36529 22.51246 
L 209.797724 22.406214 
L 209.797724 22.402117 
L 209.883354 22.340825 
L 210.223101 22.259079 
L 210.223101 22.230465 
L 210.307342 22.19369 
L 210.55848 22.124219 
L 210.55848 22.083347 
L 210.641649 22.066991 
L 211.053583 21.985262 
L 211.053583 21.956648 
L 211.135205 21.907614 
L 211.378514 21.81361 
L 211.378514 21.797254 
L 211.459119 21.752301 
L 211.858443 21.650136 
L 211.858443 21.641958 
L 211.937574 21.588827 
L 212.251741 21.486662 
L 212.251741 21.478484 
L 212.329699 21.413094 
L 212.639197 21.306832 
L 212.639197 21.302751 
L 212.715995 21.261878 
L 213.096666 21.155616 
L 213.096666 21.151535 
L 213.172134 21.114743 
L 213.471855 21.008498 
L 213.471855 21.0044 
L 213.546249 20.926752 
L 213.841719 20.82049 
L 213.841719 20.816409 
L 213.915067 20.738761 
L 214.278748 20.652935 
L 214.278748 20.628401 
L 214.35088 20.583448 
L 214.708561 20.473105 
L 214.779521 20.432232 
L 214.99122 20.362762 
L 214.99122 20.321889 
L 215.061419 20.297372 
L 215.409553 20.199288 
L 215.409553 20.187029 
L 215.478622 20.12164 
L 215.753107 20.027636 
L 215.753107 20.01128 
L 215.821273 19.986763 
L 216.159473 19.892776 
L 216.159473 19.87642 
L 216.226595 19.827386 
L 216.49335 19.737463 
L 216.49335 19.717026 
L 216.559613 19.659815 
L 216.757399 19.565811 
L 216.757399 19.549472 
L 216.823003 19.51268 
L 217.083761 19.414595 
L 217.083761 19.402337 
L 217.148534 19.345125 
L 217.533902 19.24296 
L 217.533902 19.234782 
L 217.597574 19.214345 
L 217.850729 19.112164 
L 217.850729 19.104003 
L 217.913642 19.054952 
L 218.163764 18.965045 
L 218.163764 18.944609 
L 218.225918 18.895558 
L 218.534499 18.797474 
L 218.534499 18.785215 
L 218.595781 18.715745 
L 218.839476 18.617661 
L 218.839476 18.605402 
L 218.900054 18.552271 
L 219.14093 18.462347 
L 219.14093 18.441928 
L 219.200808 18.380619 
L 219.438933 18.294793 
L 219.438933 18.270276 
L 219.498124 18.233484 
L 219.90877 18.123141 
L 219.966902 18.086365 
L 220.313046 17.976022 
L 220.370292 17.922891 
L 220.823783 17.812531 
L 220.87991 17.763497 
L 221.158803 17.653155 
L 221.269528 17.604104 
L 221.598896 17.493761 
L 221.707773 17.403854 
L 221.977978 17.30577 
L 221.977978 17.293511 
L 222.031687 17.248541 
L 222.404586 17.142296 
L 222.404586 17.138198 
L 222.510143 17.093245 
L 222.824307 16.999241 
L 222.824307 16.982902 
L 222.928189 16.92569 
L 223.288562 16.827606 
L 223.288562 16.81533 
L 223.390627 16.758119 
L 223.744702 16.651856 
L 223.744702 16.647776 
L 223.844989 16.594645 
L 224.192994 16.49656 
L 224.192994 16.484302 
L 224.29158 16.451607 
L 224.68223 16.357603 
L 224.68223 16.341264 
L 224.778984 16.296294 
L 225.162446 16.185951 
L 225.257438 16.13282 
L 225.773797 16.022477 
L 225.866586 15.953006 
L 226.280125 15.850824 
L 226.280125 15.842663 
L 226.371137 15.814049 
L 226.687207 15.707787 
L 226.687207 15.703706 
L 226.776818 15.666914 
L 227.308079 15.556571 
L 227.395571 15.507537 
L 227.742675 15.397177 
L 227.828719 15.335885 
L 228.212513 15.229623 
L 228.212513 15.225542 
L 228.297025 15.18875 
L 228.715574 15.078407 
L 228.798486 15.057971 
L 229.127522 14.955805 
L 229.127522 14.947628 
L 229.209132 14.914933 
L 229.533044 14.80867 
L 229.533044 14.80459 
L 229.613409 14.7392 
L 230.050979 14.628857 
L 230.129768 14.596162 
L 230.520117 14.4899 
L 230.520117 14.485802 
L 230.597487 14.457205 
L 230.82824 14.367282 
L 230.82824 14.346862 
L 230.904709 14.322328 
L 231.28372 14.216066 
L 231.28372 14.211985 
L 231.35886 14.171113 
L 231.768331 14.06077 
L 231.878899 13.999461 
L 232.244095 13.889118 
L 232.352673 13.835986 
L 232.639999 13.729741 
L 232.639999 13.725643 
L 232.746944 13.672512 
L 233.205343 13.56625 
L 233.205343 13.562169 
L 233.309999 13.49678 
L 233.861144 13.394614 
L 233.861144 13.386437 
L 233.963193 13.333305 
L 234.40088 13.222962 
L 234.50084 13.18209 
L 235.060217 13.075827 
L 235.060217 13.071747 
L 235.157686 13.05131 
L 235.607826 12.945048 
L 235.607826 12.940967 
L 235.703277 12.908273 
L 236.050322 12.806091 
L 236.050322 12.79793 
L 236.14417 12.744798 
L 236.577734 12.634439 
L 236.669707 12.609922 
L 237.154847 12.503659 
L 237.154847 12.499579 
L 237.244815 12.430108 
L 237.778181 12.332007 
L 237.778181 12.319749 
L 237.836786 12.30341 
L 238.47279 12.193067 
L 238.558334 12.156275 
L 239.121533 12.045932 
L 239.149375 12.017317 
L 239.808853 11.911072 
L 239.808853 11.906974 
L 239.890118 11.870199 
L 240.42556 11.763936 
L 240.42556 11.759856 
L 240.531347 11.710805 
L 240.924256 11.604543 
L 240.924256 11.600462 
L 241.028038 11.571848 
L 241.540834 11.461505 
L 241.642198 11.42881 
L 242.192741 11.318467 
L 242.291614 11.285772 
L 242.877043 11.17951 
L 242.877043 11.175429 
L 242.973353 11.142735 
L 243.260162 11.040553 
L 243.260162 11.032392 
L 243.355067 11.011955 
L 243.917351 10.901596 
L 244.009895 10.868901 
L 244.558391 10.758558 
L 244.626143 10.738121 
L 245.228164 10.631876 
L 245.228164 10.627778 
L 245.294213 10.603261 
L 245.795041 10.496999 
L 245.795041 10.492918 
L 245.902659 10.452046 
L 246.39205 10.349864 
L 246.39205 10.341703 
L 246.497235 10.309008 
L 246.996289 10.202746 
L 246.996289 10.198665 
L 247.099068 10.16597 
L 247.74744 10.05561 
L 247.8473 10.022916 
L 248.477548 9.912573 
L 248.57466 9.883958 
L 248.959538 9.773615 
L 249.054889 9.749098 
L 249.731217 9.642836 
L 249.731217 9.638755 
L 249.842256 9.606061 
L 250.263582 9.499798 
L 250.263582 9.495718 
L 250.354265 9.467103 
L 250.927369 9.35676 
L 250.998142 9.340405 
L 251.678163 9.230062 
L 251.746917 9.201447 
L 252.307338 9.091104 
L 252.407942 9.070668 
L 253.052634 8.960325 
L 253.134143 8.943986 
L 253.824813 8.833643 
L 253.903945 8.805029 
L 254.543956 8.698766 
L 254.543956 8.694686 
L 254.651673 8.670152 
L 255.363617 8.559809 
L 255.468 8.539373 
L 256.172785 8.42903 
L 256.187256 8.416771 
L 256.816647 8.306428 
L 256.91539 8.273733 
L 257.38975 8.167471 
L 257.38975 8.16339 
L 257.472561 8.147035 
L 258.004596 8.036692 
L 258.098945 8.020336 
L 258.907025 7.909993 
L 259.011179 7.893654 
L 259.576654 7.791472 
L 259.576654 7.783311 
L 259.678161 7.762875 
L 260.611065 7.652515 
L 260.708634 7.623917 
L 261.57071 7.517655 
L 261.57071 7.513574 
L 261.664756 7.489041 
L 262.416596 7.382795 
L 262.416596 7.378698 
L 262.473538 7.37052 
L 263.224831 7.260177 
L 263.335141 7.23974 
L 264.179839 7.129397 
L 264.222426 7.113058 
L 264.967034 7.002699 
L 265.059923 6.98636 
L 265.980974 6.876017 
L 266.09014 6.851483 
L 267.03348 6.74114 
L 267.100242 6.728882 
L 268.182594 6.618539 
L 268.292043 6.594022 
L 269.230573 6.483679 
L 269.283195 6.475501 
L 270.80621 6.365158 
L 270.896966 6.352883 
L 272.432175 6.24254 
L 272.439949 6.234378 
L 273.933375 6.124019 
L 274.028511 6.099502 
L 275.373651 5.989159 
L 275.47749 5.972803 
L 277.966491 5.86246 
L 277.966491 5.858379 
L 280.364793 5.748036 
L 280.473415 5.739859 
L 283.298166 5.629516 
L 283.298166 5.625418 
L 287.273765 5.515075 
L 287.27816 5.506897 
L 292.730265 5.396554 
L 292.730265 5.392474 
L 312.930786 5.322987 
L 312.930786 5.318906 
" style="fill:none;stroke:#1f77b4;stroke-linecap:round;stroke-width:1.5;"/>
   </g>
   <g id="patch_3">
    <path d="M 48.11375 287.048906 
L 48.11375 5.318906 
" style="fill:none;stroke:#000000;stroke-linecap:square;stroke-linejoin:miter;stroke-width:0.8;"/>
   </g>
   <g id="patch_4">
    <path d="M 48.11375 287.048906 
L 325.566915 287.048906 
" style="fill:none;stroke:#000000;stroke-linecap:square;stroke-linejoin:miter;stroke-width:0.8;"/>
   </g>
  </g>
  <g id="legend_1">
   <g id="text_14">
    <!-- variable -->
    <g style="fill:#262626;" transform="translate(349.89995 146.967403)scale(0.096 -0.096)">
     <defs>
      <path d="M 3116 1747 
Q 3116 2381 2855 2742 
Q 2594 3103 2138 3103 
Q 1681 3103 1420 2742 
Q 1159 2381 1159 1747 
Q 1159 1113 1420 752 
Q 1681 391 2138 391 
Q 2594 391 2855 752 
Q 3116 1113 3116 1747 
z
M 1159 2969 
Q 1341 3281 1617 3432 
Q 1894 3584 2278 3584 
Q 2916 3584 3314 3078 
Q 3713 2572 3713 1747 
Q 3713 922 3314 415 
Q 2916 -91 2278 -91 
Q 1894 -91 1617 61 
Q 1341 213 1159 525 
L 1159 0 
L 581 0 
L 581 4863 
L 1159 4863 
L 1159 2969 
z
" id="DejaVuSans-62" transform="scale(0.015625)"/>
     </defs>
     <use xlink:href="#DejaVuSans-76"/>
     <use x="59.179688" xlink:href="#DejaVuSans-61"/>
     <use x="120.458984" xlink:href="#DejaVuSans-72"/>
     <use x="161.572266" xlink:href="#DejaVuSans-69"/>
     <use x="189.355469" xlink:href="#DejaVuSans-61"/>
     <use x="250.634766" xlink:href="#DejaVuSans-62"/>
     <use x="314.111328" xlink:href="#DejaVuSans-6c"/>
     <use x="341.894531" xlink:href="#DejaVuSans-65"/>
    </g>
   </g>
   <g id="line2d_61">
    <path d="M 337.09715 160.682691 
L 343.53715 160.682691 
" style="fill:none;stroke:#1f77b4;stroke-linecap:round;stroke-width:1.5;"/>
   </g>
   <g id="line2d_62"/>
   <g id="text_15">
    <!-- cbender -->
    <g style="fill:#262626;" transform="translate(348.68915 165.190691)scale(0.1288 -0.1288)">
     <defs>
      <path d="M 3122 3366 
L 3122 2828 
Q 2878 2963 2633 3030 
Q 2388 3097 2138 3097 
Q 1578 3097 1268 2742 
Q 959 2388 959 1747 
Q 959 1106 1268 751 
Q 1578 397 2138 397 
Q 2388 397 2633 464 
Q 2878 531 3122 666 
L 3122 134 
Q 2881 22 2623 -34 
Q 2366 -91 2075 -91 
Q 1284 -91 818 406 
Q 353 903 353 1747 
Q 353 2603 823 3093 
Q 1294 3584 2113 3584 
Q 2378 3584 2631 3529 
Q 2884 3475 3122 3366 
z
" id="DejaVuSans-63" transform="scale(0.015625)"/>
      <path d="M 2906 2969 
L 2906 4863 
L 3481 4863 
L 3481 0 
L 2906 0 
L 2906 525 
Q 2725 213 2448 61 
Q 2172 -91 1784 -91 
Q 1150 -91 751 415 
Q 353 922 353 1747 
Q 353 2572 751 3078 
Q 1150 3584 1784 3584 
Q 2172 3584 2448 3432 
Q 2725 3281 2906 2969 
z
M 947 1747 
Q 947 1113 1208 752 
Q 1469 391 1925 391 
Q 2381 391 2643 752 
Q 2906 1113 2906 1747 
Q 2906 2381 2643 2742 
Q 2381 3103 1925 3103 
Q 1469 3103 1208 2742 
Q 947 2381 947 1747 
z
" id="DejaVuSans-64" transform="scale(0.015625)"/>
     </defs>
     <use xlink:href="#DejaVuSans-63"/>
     <use x="54.980469" xlink:href="#DejaVuSans-62"/>
     <use x="118.457031" xlink:href="#DejaVuSans-65"/>
     <use x="179.980469" xlink:href="#DejaVuSans-6e"/>
     <use x="243.359375" xlink:href="#DejaVuSans-64"/>
     <use x="306.835938" xlink:href="#DejaVuSans-65"/>
     <use x="368.359375" xlink:href="#DejaVuSans-72"/>
    </g>
   </g>
   <g id="line2d_63">
    <path d="M 337.09715 179.588116 
L 343.53715 179.588116 
" style="fill:none;stroke:#ff7f0e;stroke-linecap:round;stroke-width:1.5;"/>
   </g>
   <g id="line2d_64"/>
   <g id="text_16">
    <!-- umi -->
    <g style="fill:#262626;" transform="translate(348.68915 184.096116)scale(0.1288 -0.1288)">
     <defs>
      <path d="M 3328 2828 
Q 3544 3216 3844 3400 
Q 4144 3584 4550 3584 
Q 5097 3584 5394 3201 
Q 5691 2819 5691 2113 
L 5691 0 
L 5113 0 
L 5113 2094 
Q 5113 2597 4934 2840 
Q 4756 3084 4391 3084 
Q 3944 3084 3684 2787 
Q 3425 2491 3425 1978 
L 3425 0 
L 2847 0 
L 2847 2094 
Q 2847 2600 2669 2842 
Q 2491 3084 2119 3084 
Q 1678 3084 1418 2786 
Q 1159 2488 1159 1978 
L 1159 0 
L 581 0 
L 581 3500 
L 1159 3500 
L 1159 2956 
Q 1356 3278 1631 3431 
Q 1906 3584 2284 3584 
Q 2666 3584 2933 3390 
Q 3200 3197 3328 2828 
z
" id="DejaVuSans-6d" transform="scale(0.015625)"/>
     </defs>
     <use xlink:href="#DejaVuSans-75"/>
     <use x="63.378906" xlink:href="#DejaVuSans-6d"/>
     <use x="160.791016" xlink:href="#DejaVuSans-69"/>
    </g>
   </g>
  </g>
 </g>
 <defs>
  <clipPath id="p2f3df0ef80">
   <rect height="281.73" width="277.453165" x="48.11375" y="5.318906"/>
  </clipPath>
 </defs>
</svg>
