<?xml version="1.0" encoding="utf-8" standalone="no"?>
<!DOCTYPE svg PUBLIC "-//W3C//DTD SVG 1.1//EN"
  "http://www.w3.org/Graphics/SVG/1.1/DTD/svg11.dtd">
<svg height="401.165313pt" version="1.1" viewBox="0 0 401.217812 401.165313" width="401.217812pt" xmlns="http://www.w3.org/2000/svg" xmlns:xlink="http://www.w3.org/1999/xlink">
 <metadata>
  <rdf:RDF xmlns:cc="http://creativecommons.org/ns#" xmlns:dc="http://purl.org/dc/elements/1.1/" xmlns:rdf="http://www.w3.org/1999/02/22-rdf-syntax-ns#">
   <cc:Work>
    <dc:type rdf:resource="http://purl.org/dc/dcmitype/StillImage"/>
    <dc:date>2023-02-20T13:17:58.510006</dc:date>
    <dc:format>image/svg+xml</dc:format>
    <dc:creator>
     <cc:Agent>
      <dc:title>Matplotlib v3.4.3, https://matplotlib.org/</dc:title>
     </cc:Agent>
    </dc:creator>
   </cc:Work>
  </rdf:RDF>
 </metadata>
 <defs>
  <style type="text/css">*{stroke-linecap:butt;stroke-linejoin:round;}</style>
 </defs>
 <g id="figure_1">
  <g id="patch_1">
   <path d="M 0 401.165313 
L 401.217812 401.165313 
L 401.217812 0 
L 0 0 
z
" style="fill:none;"/>
  </g>
  <g id="axes_1">
   <g id="patch_2">
    <path d="M 48.503125 361.377188 
L 340.752437 361.377188 
L 340.752437 61.950375 
L 48.503125 61.950375 
z
" style="fill:none;"/>
   </g>
   <g id="matplotlib.axis_1">
    <g id="xtick_1">
     <g id="line2d_1">
      <path clip-path="url(#pccd12bded5)" d="M 68.567692 361.377188 
L 68.567692 61.950375 
" style="fill:none;stroke:#cccccc;stroke-linecap:round;stroke-width:0.8;"/>
     </g>
     <g id="line2d_2">
      <defs>
       <path d="M 0 0 
L 0 4.8 
" id="m47392556ae" style="stroke:#000000;"/>
      </defs>
      <g>
       <use style="stroke:#000000;" x="68.567692" xlink:href="#m47392556ae" y="361.377188"/>
      </g>
     </g>
     <g id="text_1">
      <!-- 0.0 -->
      <g transform="translate(57.435504 380.315)scale(0.14 -0.14)">
       <defs>
        <path d="M 2034 4250 
Q 1547 4250 1301 3770 
Q 1056 3291 1056 2328 
Q 1056 1369 1301 889 
Q 1547 409 2034 409 
Q 2525 409 2770 889 
Q 3016 1369 3016 2328 
Q 3016 3291 2770 3770 
Q 2525 4250 2034 4250 
z
M 2034 4750 
Q 2819 4750 3233 4129 
Q 3647 3509 3647 2328 
Q 3647 1150 3233 529 
Q 2819 -91 2034 -91 
Q 1250 -91 836 529 
Q 422 1150 422 2328 
Q 422 3509 836 4129 
Q 1250 4750 2034 4750 
z
" id="DejaVuSans-30" transform="scale(0.015625)"/>
        <path d="M 684 794 
L 1344 794 
L 1344 0 
L 684 0 
L 684 794 
z
" id="DejaVuSans-2e" transform="scale(0.015625)"/>
       </defs>
       <use xlink:href="#DejaVuSans-30"/>
       <use x="63.623047" xlink:href="#DejaVuSans-2e"/>
       <use x="95.410156" xlink:href="#DejaVuSans-30"/>
      </g>
     </g>
    </g>
    <g id="xtick_2">
     <g id="line2d_3">
      <path clip-path="url(#pccd12bded5)" d="M 118.98035 361.377188 
L 118.98035 61.950375 
" style="fill:none;stroke:#cccccc;stroke-linecap:round;stroke-width:0.8;"/>
     </g>
     <g id="line2d_4">
      <g>
       <use style="stroke:#000000;" x="118.98035" xlink:href="#m47392556ae" y="361.377188"/>
      </g>
     </g>
     <g id="text_2">
      <!-- 0.2 -->
      <g transform="translate(107.848162 380.315)scale(0.14 -0.14)">
       <defs>
        <path d="M 1228 531 
L 3431 531 
L 3431 0 
L 469 0 
L 469 531 
Q 828 903 1448 1529 
Q 2069 2156 2228 2338 
Q 2531 2678 2651 2914 
Q 2772 3150 2772 3378 
Q 2772 3750 2511 3984 
Q 2250 4219 1831 4219 
Q 1534 4219 1204 4116 
Q 875 4013 500 3803 
L 500 4441 
Q 881 4594 1212 4672 
Q 1544 4750 1819 4750 
Q 2544 4750 2975 4387 
Q 3406 4025 3406 3419 
Q 3406 3131 3298 2873 
Q 3191 2616 2906 2266 
Q 2828 2175 2409 1742 
Q 1991 1309 1228 531 
z
" id="DejaVuSans-32" transform="scale(0.015625)"/>
       </defs>
       <use xlink:href="#DejaVuSans-30"/>
       <use x="63.623047" xlink:href="#DejaVuSans-2e"/>
       <use x="95.410156" xlink:href="#DejaVuSans-32"/>
      </g>
     </g>
    </g>
    <g id="xtick_3">
     <g id="line2d_5">
      <path clip-path="url(#pccd12bded5)" d="M 169.393008 361.377188 
L 169.393008 61.950375 
" style="fill:none;stroke:#cccccc;stroke-linecap:round;stroke-width:0.8;"/>
     </g>
     <g id="line2d_6">
      <g>
       <use style="stroke:#000000;" x="169.393008" xlink:href="#m47392556ae" y="361.377188"/>
      </g>
     </g>
     <g id="text_3">
      <!-- 0.4 -->
      <g transform="translate(158.260821 380.315)scale(0.14 -0.14)">
       <defs>
        <path d="M 2419 4116 
L 825 1625 
L 2419 1625 
L 2419 4116 
z
M 2253 4666 
L 3047 4666 
L 3047 1625 
L 3713 1625 
L 3713 1100 
L 3047 1100 
L 3047 0 
L 2419 0 
L 2419 1100 
L 313 1100 
L 313 1709 
L 2253 4666 
z
" id="DejaVuSans-34" transform="scale(0.015625)"/>
       </defs>
       <use xlink:href="#DejaVuSans-30"/>
       <use x="63.623047" xlink:href="#DejaVuSans-2e"/>
       <use x="95.410156" xlink:href="#DejaVuSans-34"/>
      </g>
     </g>
    </g>
    <g id="xtick_4">
     <g id="line2d_7">
      <path clip-path="url(#pccd12bded5)" d="M 219.805666 361.377188 
L 219.805666 61.950375 
" style="fill:none;stroke:#cccccc;stroke-linecap:round;stroke-width:0.8;"/>
     </g>
     <g id="line2d_8">
      <g>
       <use style="stroke:#000000;" x="219.805666" xlink:href="#m47392556ae" y="361.377188"/>
      </g>
     </g>
     <g id="text_4">
      <!-- 0.6 -->
      <g transform="translate(208.673479 380.315)scale(0.14 -0.14)">
       <defs>
        <path d="M 2113 2584 
Q 1688 2584 1439 2293 
Q 1191 2003 1191 1497 
Q 1191 994 1439 701 
Q 1688 409 2113 409 
Q 2538 409 2786 701 
Q 3034 994 3034 1497 
Q 3034 2003 2786 2293 
Q 2538 2584 2113 2584 
z
M 3366 4563 
L 3366 3988 
Q 3128 4100 2886 4159 
Q 2644 4219 2406 4219 
Q 1781 4219 1451 3797 
Q 1122 3375 1075 2522 
Q 1259 2794 1537 2939 
Q 1816 3084 2150 3084 
Q 2853 3084 3261 2657 
Q 3669 2231 3669 1497 
Q 3669 778 3244 343 
Q 2819 -91 2113 -91 
Q 1303 -91 875 529 
Q 447 1150 447 2328 
Q 447 3434 972 4092 
Q 1497 4750 2381 4750 
Q 2619 4750 2861 4703 
Q 3103 4656 3366 4563 
z
" id="DejaVuSans-36" transform="scale(0.015625)"/>
       </defs>
       <use xlink:href="#DejaVuSans-30"/>
       <use x="63.623047" xlink:href="#DejaVuSans-2e"/>
       <use x="95.410156" xlink:href="#DejaVuSans-36"/>
      </g>
     </g>
    </g>
    <g id="xtick_5">
     <g id="line2d_9">
      <path clip-path="url(#pccd12bded5)" d="M 270.218324 361.377188 
L 270.218324 61.950375 
" style="fill:none;stroke:#cccccc;stroke-linecap:round;stroke-width:0.8;"/>
     </g>
     <g id="line2d_10">
      <g>
       <use style="stroke:#000000;" x="270.218324" xlink:href="#m47392556ae" y="361.377188"/>
      </g>
     </g>
     <g id="text_5">
      <!-- 0.8 -->
      <g transform="translate(259.086137 380.315)scale(0.14 -0.14)">
       <defs>
        <path d="M 2034 2216 
Q 1584 2216 1326 1975 
Q 1069 1734 1069 1313 
Q 1069 891 1326 650 
Q 1584 409 2034 409 
Q 2484 409 2743 651 
Q 3003 894 3003 1313 
Q 3003 1734 2745 1975 
Q 2488 2216 2034 2216 
z
M 1403 2484 
Q 997 2584 770 2862 
Q 544 3141 544 3541 
Q 544 4100 942 4425 
Q 1341 4750 2034 4750 
Q 2731 4750 3128 4425 
Q 3525 4100 3525 3541 
Q 3525 3141 3298 2862 
Q 3072 2584 2669 2484 
Q 3125 2378 3379 2068 
Q 3634 1759 3634 1313 
Q 3634 634 3220 271 
Q 2806 -91 2034 -91 
Q 1263 -91 848 271 
Q 434 634 434 1313 
Q 434 1759 690 2068 
Q 947 2378 1403 2484 
z
M 1172 3481 
Q 1172 3119 1398 2916 
Q 1625 2713 2034 2713 
Q 2441 2713 2670 2916 
Q 2900 3119 2900 3481 
Q 2900 3844 2670 4047 
Q 2441 4250 2034 4250 
Q 1625 4250 1398 4047 
Q 1172 3844 1172 3481 
z
" id="DejaVuSans-38" transform="scale(0.015625)"/>
       </defs>
       <use xlink:href="#DejaVuSans-30"/>
       <use x="63.623047" xlink:href="#DejaVuSans-2e"/>
       <use x="95.410156" xlink:href="#DejaVuSans-38"/>
      </g>
     </g>
    </g>
    <g id="xtick_6">
     <g id="line2d_11">
      <path clip-path="url(#pccd12bded5)" d="M 320.630983 361.377188 
L 320.630983 61.950375 
" style="fill:none;stroke:#cccccc;stroke-linecap:round;stroke-width:0.8;"/>
     </g>
     <g id="line2d_12">
      <g>
       <use style="stroke:#000000;" x="320.630983" xlink:href="#m47392556ae" y="361.377188"/>
      </g>
     </g>
     <g id="text_6">
      <!-- 1.0 -->
      <g transform="translate(309.498795 380.315)scale(0.14 -0.14)">
       <defs>
        <path d="M 794 531 
L 1825 531 
L 1825 4091 
L 703 3866 
L 703 4441 
L 1819 4666 
L 2450 4666 
L 2450 531 
L 3481 531 
L 3481 0 
L 794 0 
L 794 531 
z
" id="DejaVuSans-31" transform="scale(0.015625)"/>
       </defs>
       <use xlink:href="#DejaVuSans-31"/>
       <use x="63.623047" xlink:href="#DejaVuSans-2e"/>
       <use x="95.410156" xlink:href="#DejaVuSans-30"/>
      </g>
     </g>
    </g>
    <g id="text_7">
     <!-- Immune_All_Low_conf_score -->
     <g style="fill:#262626;" transform="translate(95.444344 397.864375)scale(0.14 -0.14)">
      <defs>
       <path d="M 628 4666 
L 1259 4666 
L 1259 0 
L 628 0 
L 628 4666 
z
" id="DejaVuSans-49" transform="scale(0.015625)"/>
       <path d="M 3328 2828 
Q 3544 3216 3844 3400 
Q 4144 3584 4550 3584 
Q 5097 3584 5394 3201 
Q 5691 2819 5691 2113 
L 5691 0 
L 5113 0 
L 5113 2094 
Q 5113 2597 4934 2840 
Q 4756 3084 4391 3084 
Q 3944 3084 3684 2787 
Q 3425 2491 3425 1978 
L 3425 0 
L 2847 0 
L 2847 2094 
Q 2847 2600 2669 2842 
Q 2491 3084 2119 3084 
Q 1678 3084 1418 2786 
Q 1159 2488 1159 1978 
L 1159 0 
L 581 0 
L 581 3500 
L 1159 3500 
L 1159 2956 
Q 1356 3278 1631 3431 
Q 1906 3584 2284 3584 
Q 2666 3584 2933 3390 
Q 3200 3197 3328 2828 
z
" id="DejaVuSans-6d" transform="scale(0.015625)"/>
       <path d="M 544 1381 
L 544 3500 
L 1119 3500 
L 1119 1403 
Q 1119 906 1312 657 
Q 1506 409 1894 409 
Q 2359 409 2629 706 
Q 2900 1003 2900 1516 
L 2900 3500 
L 3475 3500 
L 3475 0 
L 2900 0 
L 2900 538 
Q 2691 219 2414 64 
Q 2138 -91 1772 -91 
Q 1169 -91 856 284 
Q 544 659 544 1381 
z
M 1991 3584 
L 1991 3584 
z
" id="DejaVuSans-75" transform="scale(0.015625)"/>
       <path d="M 3513 2113 
L 3513 0 
L 2938 0 
L 2938 2094 
Q 2938 2591 2744 2837 
Q 2550 3084 2163 3084 
Q 1697 3084 1428 2787 
Q 1159 2491 1159 1978 
L 1159 0 
L 581 0 
L 581 3500 
L 1159 3500 
L 1159 2956 
Q 1366 3272 1645 3428 
Q 1925 3584 2291 3584 
Q 2894 3584 3203 3211 
Q 3513 2838 3513 2113 
z
" id="DejaVuSans-6e" transform="scale(0.015625)"/>
       <path d="M 3597 1894 
L 3597 1613 
L 953 1613 
Q 991 1019 1311 708 
Q 1631 397 2203 397 
Q 2534 397 2845 478 
Q 3156 559 3463 722 
L 3463 178 
Q 3153 47 2828 -22 
Q 2503 -91 2169 -91 
Q 1331 -91 842 396 
Q 353 884 353 1716 
Q 353 2575 817 3079 
Q 1281 3584 2069 3584 
Q 2775 3584 3186 3129 
Q 3597 2675 3597 1894 
z
M 3022 2063 
Q 3016 2534 2758 2815 
Q 2500 3097 2075 3097 
Q 1594 3097 1305 2825 
Q 1016 2553 972 2059 
L 3022 2063 
z
" id="DejaVuSans-65" transform="scale(0.015625)"/>
       <path d="M 3263 -1063 
L 3263 -1509 
L -63 -1509 
L -63 -1063 
L 3263 -1063 
z
" id="DejaVuSans-5f" transform="scale(0.015625)"/>
       <path d="M 2188 4044 
L 1331 1722 
L 3047 1722 
L 2188 4044 
z
M 1831 4666 
L 2547 4666 
L 4325 0 
L 3669 0 
L 3244 1197 
L 1141 1197 
L 716 0 
L 50 0 
L 1831 4666 
z
" id="DejaVuSans-41" transform="scale(0.015625)"/>
       <path d="M 603 4863 
L 1178 4863 
L 1178 0 
L 603 0 
L 603 4863 
z
" id="DejaVuSans-6c" transform="scale(0.015625)"/>
       <path d="M 628 4666 
L 1259 4666 
L 1259 531 
L 3531 531 
L 3531 0 
L 628 0 
L 628 4666 
z
" id="DejaVuSans-4c" transform="scale(0.015625)"/>
       <path d="M 1959 3097 
Q 1497 3097 1228 2736 
Q 959 2375 959 1747 
Q 959 1119 1226 758 
Q 1494 397 1959 397 
Q 2419 397 2687 759 
Q 2956 1122 2956 1747 
Q 2956 2369 2687 2733 
Q 2419 3097 1959 3097 
z
M 1959 3584 
Q 2709 3584 3137 3096 
Q 3566 2609 3566 1747 
Q 3566 888 3137 398 
Q 2709 -91 1959 -91 
Q 1206 -91 779 398 
Q 353 888 353 1747 
Q 353 2609 779 3096 
Q 1206 3584 1959 3584 
z
" id="DejaVuSans-6f" transform="scale(0.015625)"/>
       <path d="M 269 3500 
L 844 3500 
L 1563 769 
L 2278 3500 
L 2956 3500 
L 3675 769 
L 4391 3500 
L 4966 3500 
L 4050 0 
L 3372 0 
L 2619 2869 
L 1863 0 
L 1184 0 
L 269 3500 
z
" id="DejaVuSans-77" transform="scale(0.015625)"/>
       <path d="M 3122 3366 
L 3122 2828 
Q 2878 2963 2633 3030 
Q 2388 3097 2138 3097 
Q 1578 3097 1268 2742 
Q 959 2388 959 1747 
Q 959 1106 1268 751 
Q 1578 397 2138 397 
Q 2388 397 2633 464 
Q 2878 531 3122 666 
L 3122 134 
Q 2881 22 2623 -34 
Q 2366 -91 2075 -91 
Q 1284 -91 818 406 
Q 353 903 353 1747 
Q 353 2603 823 3093 
Q 1294 3584 2113 3584 
Q 2378 3584 2631 3529 
Q 2884 3475 3122 3366 
z
" id="DejaVuSans-63" transform="scale(0.015625)"/>
       <path d="M 2375 4863 
L 2375 4384 
L 1825 4384 
Q 1516 4384 1395 4259 
Q 1275 4134 1275 3809 
L 1275 3500 
L 2222 3500 
L 2222 3053 
L 1275 3053 
L 1275 0 
L 697 0 
L 697 3053 
L 147 3053 
L 147 3500 
L 697 3500 
L 697 3744 
Q 697 4328 969 4595 
Q 1241 4863 1831 4863 
L 2375 4863 
z
" id="DejaVuSans-66" transform="scale(0.015625)"/>
       <path d="M 2834 3397 
L 2834 2853 
Q 2591 2978 2328 3040 
Q 2066 3103 1784 3103 
Q 1356 3103 1142 2972 
Q 928 2841 928 2578 
Q 928 2378 1081 2264 
Q 1234 2150 1697 2047 
L 1894 2003 
Q 2506 1872 2764 1633 
Q 3022 1394 3022 966 
Q 3022 478 2636 193 
Q 2250 -91 1575 -91 
Q 1294 -91 989 -36 
Q 684 19 347 128 
L 347 722 
Q 666 556 975 473 
Q 1284 391 1588 391 
Q 1994 391 2212 530 
Q 2431 669 2431 922 
Q 2431 1156 2273 1281 
Q 2116 1406 1581 1522 
L 1381 1569 
Q 847 1681 609 1914 
Q 372 2147 372 2553 
Q 372 3047 722 3315 
Q 1072 3584 1716 3584 
Q 2034 3584 2315 3537 
Q 2597 3491 2834 3397 
z
" id="DejaVuSans-73" transform="scale(0.015625)"/>
       <path d="M 2631 2963 
Q 2534 3019 2420 3045 
Q 2306 3072 2169 3072 
Q 1681 3072 1420 2755 
Q 1159 2438 1159 1844 
L 1159 0 
L 581 0 
L 581 3500 
L 1159 3500 
L 1159 2956 
Q 1341 3275 1631 3429 
Q 1922 3584 2338 3584 
Q 2397 3584 2469 3576 
Q 2541 3569 2628 3553 
L 2631 2963 
z
" id="DejaVuSans-72" transform="scale(0.015625)"/>
      </defs>
      <use xlink:href="#DejaVuSans-49"/>
      <use x="29.492188" xlink:href="#DejaVuSans-6d"/>
      <use x="126.904297" xlink:href="#DejaVuSans-6d"/>
      <use x="224.316406" xlink:href="#DejaVuSans-75"/>
      <use x="287.695312" xlink:href="#DejaVuSans-6e"/>
      <use x="351.074219" xlink:href="#DejaVuSans-65"/>
      <use x="412.597656" xlink:href="#DejaVuSans-5f"/>
      <use x="462.597656" xlink:href="#DejaVuSans-41"/>
      <use x="531.005859" xlink:href="#DejaVuSans-6c"/>
      <use x="558.789062" xlink:href="#DejaVuSans-6c"/>
      <use x="586.572266" xlink:href="#DejaVuSans-5f"/>
      <use x="636.572266" xlink:href="#DejaVuSans-4c"/>
      <use x="690.535156" xlink:href="#DejaVuSans-6f"/>
      <use x="751.716797" xlink:href="#DejaVuSans-77"/>
      <use x="833.503906" xlink:href="#DejaVuSans-5f"/>
      <use x="883.503906" xlink:href="#DejaVuSans-63"/>
      <use x="938.484375" xlink:href="#DejaVuSans-6f"/>
      <use x="999.666016" xlink:href="#DejaVuSans-6e"/>
      <use x="1063.044922" xlink:href="#DejaVuSans-66"/>
      <use x="1098.25" xlink:href="#DejaVuSans-5f"/>
      <use x="1148.25" xlink:href="#DejaVuSans-73"/>
      <use x="1200.349609" xlink:href="#DejaVuSans-63"/>
      <use x="1255.330078" xlink:href="#DejaVuSans-6f"/>
      <use x="1316.511719" xlink:href="#DejaVuSans-72"/>
      <use x="1355.375" xlink:href="#DejaVuSans-65"/>
     </g>
    </g>
   </g>
   <g id="matplotlib.axis_2">
    <g id="ytick_1">
     <g id="line2d_13">
      <path clip-path="url(#pccd12bded5)" d="M 48.503125 348.96761 
L 340.752437 348.96761 
" style="fill:none;stroke:#cccccc;stroke-linecap:round;stroke-width:0.8;"/>
     </g>
     <g id="line2d_14">
      <defs>
       <path d="M 0 0 
L -4.8 0 
" id="mbf0fb9cc03" style="stroke:#000000;"/>
      </defs>
      <g>
       <use style="stroke:#000000;" x="48.503125" xlink:href="#mbf0fb9cc03" y="348.96761"/>
      </g>
     </g>
     <g id="text_8">
      <!-- 0.0 -->
      <g transform="translate(17.93875 354.286516)scale(0.14 -0.14)">
       <use xlink:href="#DejaVuSans-30"/>
       <use x="63.623047" xlink:href="#DejaVuSans-2e"/>
       <use x="95.410156" xlink:href="#DejaVuSans-30"/>
      </g>
     </g>
    </g>
    <g id="ytick_2">
     <g id="line2d_15">
      <path clip-path="url(#pccd12bded5)" d="M 48.503125 294.069446 
L 340.752437 294.069446 
" style="fill:none;stroke:#cccccc;stroke-linecap:round;stroke-width:0.8;"/>
     </g>
     <g id="line2d_16">
      <g>
       <use style="stroke:#000000;" x="48.503125" xlink:href="#mbf0fb9cc03" y="294.069446"/>
      </g>
     </g>
     <g id="text_9">
      <!-- 0.2 -->
      <g transform="translate(17.93875 299.388352)scale(0.14 -0.14)">
       <use xlink:href="#DejaVuSans-30"/>
       <use x="63.623047" xlink:href="#DejaVuSans-2e"/>
       <use x="95.410156" xlink:href="#DejaVuSans-32"/>
      </g>
     </g>
    </g>
    <g id="ytick_3">
     <g id="line2d_17">
      <path clip-path="url(#pccd12bded5)" d="M 48.503125 239.171281 
L 340.752437 239.171281 
" style="fill:none;stroke:#cccccc;stroke-linecap:round;stroke-width:0.8;"/>
     </g>
     <g id="line2d_18">
      <g>
       <use style="stroke:#000000;" x="48.503125" xlink:href="#mbf0fb9cc03" y="239.171281"/>
      </g>
     </g>
     <g id="text_10">
      <!-- 0.4 -->
      <g transform="translate(17.93875 244.490187)scale(0.14 -0.14)">
       <use xlink:href="#DejaVuSans-30"/>
       <use x="63.623047" xlink:href="#DejaVuSans-2e"/>
       <use x="95.410156" xlink:href="#DejaVuSans-34"/>
      </g>
     </g>
    </g>
    <g id="ytick_4">
     <g id="line2d_19">
      <path clip-path="url(#pccd12bded5)" d="M 48.503125 184.273117 
L 340.752437 184.273117 
" style="fill:none;stroke:#cccccc;stroke-linecap:round;stroke-width:0.8;"/>
     </g>
     <g id="line2d_20">
      <g>
       <use style="stroke:#000000;" x="48.503125" xlink:href="#mbf0fb9cc03" y="184.273117"/>
      </g>
     </g>
     <g id="text_11">
      <!-- 0.6 -->
      <g transform="translate(17.93875 189.592023)scale(0.14 -0.14)">
       <use xlink:href="#DejaVuSans-30"/>
       <use x="63.623047" xlink:href="#DejaVuSans-2e"/>
       <use x="95.410156" xlink:href="#DejaVuSans-36"/>
      </g>
     </g>
    </g>
    <g id="ytick_5">
     <g id="line2d_21">
      <path clip-path="url(#pccd12bded5)" d="M 48.503125 129.374953 
L 340.752437 129.374953 
" style="fill:none;stroke:#cccccc;stroke-linecap:round;stroke-width:0.8;"/>
     </g>
     <g id="line2d_22">
      <g>
       <use style="stroke:#000000;" x="48.503125" xlink:href="#mbf0fb9cc03" y="129.374953"/>
      </g>
     </g>
     <g id="text_12">
      <!-- 0.8 -->
      <g transform="translate(17.93875 134.693859)scale(0.14 -0.14)">
       <use xlink:href="#DejaVuSans-30"/>
       <use x="63.623047" xlink:href="#DejaVuSans-2e"/>
       <use x="95.410156" xlink:href="#DejaVuSans-38"/>
      </g>
     </g>
    </g>
    <g id="ytick_6">
     <g id="line2d_23">
      <path clip-path="url(#pccd12bded5)" d="M 48.503125 74.476788 
L 340.752437 74.476788 
" style="fill:none;stroke:#cccccc;stroke-linecap:round;stroke-width:0.8;"/>
     </g>
     <g id="line2d_24">
      <g>
       <use style="stroke:#000000;" x="48.503125" xlink:href="#mbf0fb9cc03" y="74.476788"/>
      </g>
     </g>
     <g id="text_13">
      <!-- 1.0 -->
      <g transform="translate(17.93875 79.795694)scale(0.14 -0.14)">
       <use xlink:href="#DejaVuSans-31"/>
       <use x="63.623047" xlink:href="#DejaVuSans-2e"/>
       <use x="95.410156" xlink:href="#DejaVuSans-30"/>
      </g>
     </g>
    </g>
    <g id="text_14">
     <!-- Immune_All_High_conf_score -->
     <g style="fill:#262626;" transform="translate(10.637812 313.150656)rotate(-90)scale(0.14 -0.14)">
      <defs>
       <path d="M 628 4666 
L 1259 4666 
L 1259 2753 
L 3553 2753 
L 3553 4666 
L 4184 4666 
L 4184 0 
L 3553 0 
L 3553 2222 
L 1259 2222 
L 1259 0 
L 628 0 
L 628 4666 
z
" id="DejaVuSans-48" transform="scale(0.015625)"/>
       <path d="M 603 3500 
L 1178 3500 
L 1178 0 
L 603 0 
L 603 3500 
z
M 603 4863 
L 1178 4863 
L 1178 4134 
L 603 4134 
L 603 4863 
z
" id="DejaVuSans-69" transform="scale(0.015625)"/>
       <path d="M 2906 1791 
Q 2906 2416 2648 2759 
Q 2391 3103 1925 3103 
Q 1463 3103 1205 2759 
Q 947 2416 947 1791 
Q 947 1169 1205 825 
Q 1463 481 1925 481 
Q 2391 481 2648 825 
Q 2906 1169 2906 1791 
z
M 3481 434 
Q 3481 -459 3084 -895 
Q 2688 -1331 1869 -1331 
Q 1566 -1331 1297 -1286 
Q 1028 -1241 775 -1147 
L 775 -588 
Q 1028 -725 1275 -790 
Q 1522 -856 1778 -856 
Q 2344 -856 2625 -561 
Q 2906 -266 2906 331 
L 2906 616 
Q 2728 306 2450 153 
Q 2172 0 1784 0 
Q 1141 0 747 490 
Q 353 981 353 1791 
Q 353 2603 747 3093 
Q 1141 3584 1784 3584 
Q 2172 3584 2450 3431 
Q 2728 3278 2906 2969 
L 2906 3500 
L 3481 3500 
L 3481 434 
z
" id="DejaVuSans-67" transform="scale(0.015625)"/>
       <path d="M 3513 2113 
L 3513 0 
L 2938 0 
L 2938 2094 
Q 2938 2591 2744 2837 
Q 2550 3084 2163 3084 
Q 1697 3084 1428 2787 
Q 1159 2491 1159 1978 
L 1159 0 
L 581 0 
L 581 4863 
L 1159 4863 
L 1159 2956 
Q 1366 3272 1645 3428 
Q 1925 3584 2291 3584 
Q 2894 3584 3203 3211 
Q 3513 2838 3513 2113 
z
" id="DejaVuSans-68" transform="scale(0.015625)"/>
      </defs>
      <use xlink:href="#DejaVuSans-49"/>
      <use x="29.492188" xlink:href="#DejaVuSans-6d"/>
      <use x="126.904297" xlink:href="#DejaVuSans-6d"/>
      <use x="224.316406" xlink:href="#DejaVuSans-75"/>
      <use x="287.695312" xlink:href="#DejaVuSans-6e"/>
      <use x="351.074219" xlink:href="#DejaVuSans-65"/>
      <use x="412.597656" xlink:href="#DejaVuSans-5f"/>
      <use x="462.597656" xlink:href="#DejaVuSans-41"/>
      <use x="531.005859" xlink:href="#DejaVuSans-6c"/>
      <use x="558.789062" xlink:href="#DejaVuSans-6c"/>
      <use x="586.572266" xlink:href="#DejaVuSans-5f"/>
      <use x="636.572266" xlink:href="#DejaVuSans-48"/>
      <use x="711.767578" xlink:href="#DejaVuSans-69"/>
      <use x="739.550781" xlink:href="#DejaVuSans-67"/>
      <use x="803.027344" xlink:href="#DejaVuSans-68"/>
      <use x="866.40625" xlink:href="#DejaVuSans-5f"/>
      <use x="916.40625" xlink:href="#DejaVuSans-63"/>
      <use x="971.386719" xlink:href="#DejaVuSans-6f"/>
      <use x="1032.568359" xlink:href="#DejaVuSans-6e"/>
      <use x="1095.947266" xlink:href="#DejaVuSans-66"/>
      <use x="1131.152344" xlink:href="#DejaVuSans-5f"/>
      <use x="1181.152344" xlink:href="#DejaVuSans-73"/>
      <use x="1233.251953" xlink:href="#DejaVuSans-63"/>
      <use x="1288.232422" xlink:href="#DejaVuSans-6f"/>
      <use x="1349.414062" xlink:href="#DejaVuSans-72"/>
      <use x="1388.277344" xlink:href="#DejaVuSans-65"/>
     </g>
    </g>
   </g>
   <g id="LineCollection_1">
    <path clip-path="url(#pccd12bded5)" d="M 316.037792 61.950375 
L 314.317826 62.237459 
L 311.380647 62.979166 
L 309.912058 63.456454 
L 297.849746 64.95969 
L 265.854372 66.688734 
L 230.608224 67.86197 
L 223.265277 68.060068 
L 193.893486 68.671563 
L 183.61336 69.099777 
L 176.270412 69.152841 
L 163.053107 69.108503 
L 154.24157 69.217149 
L 145.430033 69.194269 
L 133.681317 69.353078 
L 124.86978 69.316704 
L 107.246705 69.804068 
L 99.903758 70.091811 
L 92.56081 70.060033 
L 86.686452 70.143924 
L 82.280684 70.46993 
L 79.111749 70.978319 
L 76.406326 71.695019 
L 74.396956 72.482976 
L 73.469147 73.027101 
L 72.000557 74.084947 
L 70.992948 75.492291 
L 71.023665 76.996948 
L 72.000557 78.02513 
L 72.660814 78.501606 
L 73.469147 78.84284 
L 74.937736 79.276591 
L 77.874915 79.753024 
L 80.812094 79.954168 
L 85.217863 79.992112 
L 98.435168 79.765289 
L 110.183884 80.177596 
L 123.40119 80.221042 
L 132.212727 80.18169 
L 142.492854 80.349602 
L 151.304391 80.318839 
L 161.584517 80.528053 
L 173.333233 80.425897 
L 182.14477 80.731503 
L 195.362076 81.264969 
L 205.642203 81.39867 
L 221.796687 81.593026 
L 264.385783 83.379403 
L 281.134183 84.520235 
L 292.288984 86.046767 
L 297.568511 87.52955 
L 299.631931 88.484828 
L 301.200367 89.034207 
L 302.56911 89.790599 
L 304.50961 90.538865 
L 305.506289 91.182817 
L 307.144477 92.043522 
L 308.874001 93.548179 
L 311.64128 96.557494 
L 312.849237 97.559404 
L 314.317826 98.275981 
L 315.786416 98.54209 
L 317.255005 98.362468 
L 318.723595 97.75579 
L 320.353885 96.557494 
L 321.834248 95.052837 
L 324.082476 92.043522 
L 326.230061 89.034207 
L 327.591578 87.52955 
L 331.319727 84.520235 
L 331.9409 84.157172 
L 333.40949 82.946837 
L 336.346669 80.746239 
L 339.283848 77.94368 
L 340.169389 76.996948 
L 340.752437 76.197432 
L 340.752437 76.197432 
" style="fill:none;stroke:#1f77b4;stroke-width:1.5;"/>
    <path clip-path="url(#pccd12bded5)" d="M 340.752437 63.054389 
L 339.283848 62.101036 
L 338.955582 61.950375 
" style="fill:none;stroke:#1f77b4;stroke-width:1.5;"/>
   </g>
   <g id="LineCollection_2">
    <path clip-path="url(#pccd12bded5)" d="M 309.912058 86.196149 
L 311.380647 86.41986 
L 312.849237 86.520486 
L 314.317826 86.514918 
L 315.786416 86.402607 
L 317.255005 86.1643 
L 317.810003 86.024893 
L 318.723595 85.917467 
L 320.192184 85.664131 
L 321.660774 85.272957 
L 323.129363 84.655005 
L 323.39252 84.520235 
L 324.597953 84.171684 
L 326.066542 83.523422 
L 326.903541 83.015578 
L 327.535132 82.764253 
L 329.003721 81.970814 
L 329.658249 81.510921 
L 330.472311 81.071936 
L 331.867426 80.006263 
L 331.9409 79.956382 
L 333.40949 78.8532 
L 333.806089 78.501606 
L 334.878079 77.501824 
L 335.382634 76.996948 
L 336.346669 75.802679 
L 336.613191 75.492291 
L 337.588409 73.987634 
L 337.815258 73.396111 
L 338.292246 72.482976 
L 338.675015 70.978319 
L 338.69385 69.473662 
L 338.285236 67.969004 
L 337.815258 67.221158 
L 337.33512 66.464347 
L 336.346669 65.53694 
L 335.489861 64.95969 
L 334.878079 64.582725 
L 333.40949 63.932882 
L 331.9409 63.567551 
L 331.192045 63.455032 
L 330.472311 63.282701 
L 329.003721 63.073875 
L 327.535132 62.992721 
L 326.066542 63.015466 
L 324.597953 63.136781 
L 323.129363 63.367367 
L 322.739336 63.455032 
L 321.660774 63.5669 
L 320.192184 63.77786 
L 318.723595 64.077388 
L 317.255005 64.505686 
L 316.097342 64.95969 
L 315.786416 65.027453 
L 314.317826 65.389589 
L 312.849237 65.892231 
L 311.56481 66.464347 
L 311.380647 66.517917 
L 309.912058 66.94607 
L 308.443468 67.485909 
L 307.257639 67.969004 
L 306.974879 68.056289 
L 305.506289 68.468753 
L 304.0377 68.908124 
L 302.56911 69.345951 
L 302.078336 69.473662 
L 301.100521 69.697775 
L 299.631931 70.01526 
L 298.163342 70.327966 
L 296.694752 70.637573 
L 295.226163 70.947009 
L 295.068396 70.978319 
L 293.757573 71.262724 
L 292.288984 71.585869 
L 290.820394 71.915506 
L 289.351805 72.250749 
L 288.329059 72.482976 
L 287.883215 72.642159 
L 286.414626 73.156311 
L 284.946036 73.684153 
L 284.101403 73.987634 
L 283.477447 75.492291 
L 284.946036 76.271763 
L 286.254857 76.996948 
L 286.414626 77.042138 
L 287.883215 77.484423 
L 289.351805 77.936606 
L 290.820394 78.400389 
L 291.115551 78.501606 
L 292.288984 78.821068 
L 293.757573 79.2467 
L 295.226163 79.715905 
L 295.973007 80.006263 
L 296.694752 80.278855 
L 298.163342 80.960957 
L 299.144058 81.510921 
L 299.631931 81.786452 
L 301.100521 82.707253 
L 301.581497 83.015578 
L 302.56911 83.636726 
L 304.0377 84.384816 
L 304.354502 84.520235 
L 305.506289 85.090595 
L 306.974879 85.598752 
L 308.443468 85.917784 
L 309.201415 86.024893 
L 309.912058 86.196149 
" style="fill:none;stroke:#1f77b4;stroke-width:1.5;"/>
   </g>
   <g id="LineCollection_3">
    <path clip-path="url(#pccd12bded5)" d="M 311.380647 83.037205 
L 312.849237 83.305455 
L 314.317826 83.414295 
L 315.786416 83.390893 
L 317.255005 83.240221 
L 318.397174 83.015578 
L 318.723595 82.977582 
L 320.192184 82.728054 
L 321.660774 82.361147 
L 323.129363 81.816458 
L 323.765886 81.510921 
L 324.597953 81.223658 
L 326.066542 80.545462 
L 326.943333 80.006263 
L 327.535132 79.696201 
L 329.003721 78.712686 
L 329.279769 78.501606 
L 330.472311 77.576263 
L 331.116963 76.996948 
L 331.9409 76.101023 
L 332.494253 75.492291 
L 333.40949 74.001962 
L 333.419458 73.987634 
L 334.07849 72.482976 
L 334.241662 70.978319 
L 333.87161 69.473662 
L 333.40949 68.798794 
L 332.740979 67.969004 
L 331.9409 67.361886 
L 330.472311 66.638192 
L 329.891886 66.464347 
L 329.003721 66.175504 
L 327.535132 65.894434 
L 326.066542 65.775853 
L 324.597953 65.78019 
L 323.129363 65.892443 
L 321.660774 66.116624 
L 320.232114 66.464347 
L 320.192184 66.47034 
L 318.723595 66.752722 
L 317.255005 67.145475 
L 315.786416 67.69882 
L 315.191731 67.969004 
L 314.317826 68.265693 
L 312.849237 68.892099 
L 311.779495 69.473662 
L 311.380647 69.666349 
L 309.912058 70.45518 
L 309.079035 70.978319 
L 308.443468 71.406797 
L 307.019866 72.482976 
L 306.974879 72.528582 
L 305.506289 73.987634 
L 304.563819 75.492291 
L 304.351277 76.996948 
L 304.691234 78.501606 
L 305.506289 79.741834 
L 305.668057 80.006263 
L 306.974879 81.200199 
L 307.402939 81.510921 
L 308.443468 82.119623 
L 309.912058 82.696958 
L 311.302936 83.015578 
L 311.380647 83.037205 
" style="fill:none;stroke:#1f77b4;stroke-width:1.5;"/>
   </g>
   <g id="LineCollection_4">
    <path clip-path="url(#pccd12bded5)" d="M 314.317826 81.520316 
L 315.786416 81.598525 
L 317.255005 81.514056 
L 317.27454 81.510921 
L 318.723595 81.35192 
L 320.192184 81.085013 
L 321.660774 80.685902 
L 323.129363 80.099005 
L 323.320071 80.006263 
L 324.597953 79.489024 
L 326.066542 78.661107 
L 326.310214 78.501606 
L 327.535132 77.702228 
L 328.417869 76.996948 
L 329.003721 76.432921 
L 329.919292 75.492291 
L 330.472311 74.630393 
L 330.915941 73.987634 
L 331.423863 72.482976 
L 331.360666 70.978319 
L 330.475418 69.473662 
L 330.472311 69.470823 
L 329.003721 68.440353 
L 327.717028 67.969004 
L 327.535132 67.908436 
L 326.066542 67.610203 
L 324.597953 67.506833 
L 323.129363 67.554229 
L 321.660774 67.738664 
L 320.616582 67.969004 
L 320.192184 68.036197 
L 318.723595 68.359611 
L 317.255005 68.810673 
L 315.786416 69.442803 
L 315.722865 69.473662 
L 314.317826 70.070537 
L 312.849237 70.915147 
L 312.746919 70.978319 
L 311.380647 71.871311 
L 310.578836 72.482976 
L 309.912058 73.152405 
L 309.094295 73.987634 
L 308.443468 75.181573 
L 308.252581 75.492291 
L 307.982314 76.996948 
L 308.443468 78.501606 
L 309.798534 80.006263 
L 309.912058 80.083747 
L 311.380647 80.869907 
L 312.849237 81.307592 
L 314.26052 81.510921 
L 314.317826 81.520316 
" style="fill:none;stroke:#1f77b4;stroke-width:1.5;"/>
   </g>
   <g id="LineCollection_5">
    <path clip-path="url(#pccd12bded5)" d="M 314.317826 80.331551 
L 315.786416 80.508048 
L 317.255005 80.501979 
L 318.723595 80.336825 
L 320.192184 80.006263 
L 321.660774 79.618193 
L 323.129363 79.069938 
L 324.244794 78.501606 
L 324.597953 78.324041 
L 326.066542 77.432585 
L 326.659323 76.996948 
L 327.535132 76.219084 
L 328.279582 75.492291 
L 329.003721 74.392916 
L 329.282828 73.987634 
L 329.71289 72.482976 
L 329.404498 70.978319 
L 329.003721 70.480909 
L 327.804291 69.473662 
L 327.535132 69.334625 
L 326.066542 68.845324 
L 324.597953 68.634084 
L 323.129363 68.61142 
L 321.660774 68.736268 
L 320.192184 68.999391 
L 318.723595 69.417645 
L 318.571615 69.473662 
L 317.255005 69.891961 
L 315.786416 70.514759 
L 314.920108 70.978319 
L 314.317826 71.316331 
L 312.849237 72.297786 
L 312.597838 72.482976 
L 311.380647 73.661138 
L 311.056938 73.987634 
L 310.201708 75.492291 
L 310.042694 76.996948 
L 310.716285 78.501606 
L 311.380647 79.079288 
L 312.849237 79.912327 
L 313.135739 80.006263 
L 314.317826 80.331551 
" style="fill:none;stroke:#1f77b4;stroke-width:1.5;"/>
   </g>
   <g id="LineCollection_6">
    <path clip-path="url(#pccd12bded5)" d="M 312.849237 78.619318 
L 314.317826 79.280931 
L 315.786416 79.580803 
L 317.255005 79.641301 
L 318.723595 79.524682 
L 320.192184 79.2522 
L 321.660774 78.811622 
L 322.40026 78.501606 
L 323.129363 78.200381 
L 324.597953 77.42099 
L 325.242252 76.996948 
L 326.066542 76.336322 
L 326.993217 75.492291 
L 327.535132 74.695074 
L 328.022311 73.987634 
L 328.346405 72.482976 
L 327.737434 70.978319 
L 327.535132 70.797353 
L 326.066542 69.934526 
L 324.597953 69.562601 
L 323.129363 69.473662 
L 321.660774 69.568934 
L 320.192184 69.807565 
L 318.723595 70.185031 
L 317.255005 70.726175 
L 316.717329 70.978319 
L 315.786416 71.435622 
L 314.317826 72.336257 
L 314.105765 72.482976 
L 312.849237 73.63034 
L 312.484024 73.987634 
L 311.6442 75.492291 
L 311.594388 76.996948 
L 312.671251 78.501606 
L 312.849237 78.619318 
" style="fill:none;stroke:#1f77b4;stroke-width:1.5;"/>
   </g>
   <g id="LineCollection_7">
    <path clip-path="url(#pccd12bded5)" d="M 317.255005 78.673482 
L 318.723595 78.604544 
L 319.266007 78.501606 
L 320.192184 78.326951 
L 321.660774 77.871597 
L 323.129363 77.222349 
L 323.52809 76.996948 
L 324.597953 76.250345 
L 325.516273 75.492291 
L 326.066542 74.714998 
L 326.569314 73.987634 
L 326.725695 72.482976 
L 326.066542 71.547079 
L 325.352417 70.978319 
L 324.597953 70.686921 
L 323.129363 70.450326 
L 321.660774 70.473069 
L 320.192184 70.697442 
L 319.188394 70.978319 
L 318.723595 71.115714 
L 317.255005 71.713999 
L 315.833184 72.482976 
L 315.786416 72.517466 
L 314.317826 73.750827 
L 314.062637 73.987634 
L 313.242157 75.492291 
L 313.424626 76.996948 
L 314.317826 77.82399 
L 315.786416 78.501606 
L 317.255005 78.673482 
" style="fill:none;stroke:#1f77b4;stroke-width:1.5;"/>
   </g>
   <g id="LineCollection_8">
    <path clip-path="url(#pccd12bded5)" d="M 315.786416 77.220214 
L 317.255005 77.642702 
L 318.723595 77.68164 
L 320.192184 77.454122 
L 321.660774 76.996948 
L 323.129363 76.159789 
L 324.067203 75.492291 
L 324.597953 74.784995 
L 325.155136 73.987634 
L 325.025547 72.482976 
L 324.597953 72.113557 
L 323.129363 71.502149 
L 321.660774 71.400018 
L 320.192184 71.596089 
L 318.723595 72.013138 
L 317.621394 72.482976 
L 317.255005 72.703273 
L 315.786416 73.786917 
L 315.550757 73.987634 
L 314.772834 75.492291 
L 315.408727 76.996948 
L 315.786416 77.220214 
" style="fill:none;stroke:#1f77b4;stroke-width:1.5;"/>
   </g>
   <g id="LineCollection_9">
    <path clip-path="url(#pccd12bded5)" d="M 317.255005 76.253586 
L 318.723595 76.647819 
L 320.192184 76.440179 
L 321.660774 75.902848 
L 322.399665 75.492291 
L 323.129363 74.611854 
L 323.577418 73.987634 
L 323.129363 73.041135 
L 322.264147 72.482976 
L 321.660774 72.377375 
L 320.192184 72.482976 
L 318.723595 73.083394 
L 317.255005 73.919686 
L 317.162968 73.987634 
L 316.501142 75.492291 
L 317.255005 76.253586 
" style="fill:none;stroke:#1f77b4;stroke-width:1.5;"/>
   </g>
   <g id="LineCollection_10"/>
   <g id="patch_3">
    <path d="M 48.503125 361.377188 
L 48.503125 61.950375 
" style="fill:none;stroke:#000000;stroke-linecap:square;stroke-linejoin:miter;stroke-width:0.8;"/>
   </g>
   <g id="patch_4">
    <path d="M 48.503125 361.377188 
L 340.752437 361.377188 
" style="fill:none;stroke:#000000;stroke-linecap:square;stroke-linejoin:miter;stroke-width:0.8;"/>
   </g>
  </g>
  <g id="axes_2">
   <g id="patch_5">
    <path d="M 48.503125 51.625313 
L 340.752437 51.625313 
L 340.752437 0 
L 48.503125 0 
z
" style="fill:none;"/>
   </g>
   <g id="matplotlib.axis_3">
    <g id="xtick_7">
     <g id="line2d_25">
      <path clip-path="url(#p4ae23bbef1)" d="M 68.567692 51.625313 
L 68.567692 0 
" style="fill:none;stroke:#cccccc;stroke-linecap:round;stroke-width:0.8;"/>
     </g>
     <g id="line2d_26">
      <g>
       <use style="stroke:#000000;" x="68.567692" xlink:href="#m47392556ae" y="51.625313"/>
      </g>
     </g>
    </g>
    <g id="xtick_8">
     <g id="line2d_27">
      <path clip-path="url(#p4ae23bbef1)" d="M 118.98035 51.625313 
L 118.98035 0 
" style="fill:none;stroke:#cccccc;stroke-linecap:round;stroke-width:0.8;"/>
     </g>
     <g id="line2d_28">
      <g>
       <use style="stroke:#000000;" x="118.98035" xlink:href="#m47392556ae" y="51.625313"/>
      </g>
     </g>
    </g>
    <g id="xtick_9">
     <g id="line2d_29">
      <path clip-path="url(#p4ae23bbef1)" d="M 169.393008 51.625313 
L 169.393008 0 
" style="fill:none;stroke:#cccccc;stroke-linecap:round;stroke-width:0.8;"/>
     </g>
     <g id="line2d_30">
      <g>
       <use style="stroke:#000000;" x="169.393008" xlink:href="#m47392556ae" y="51.625313"/>
      </g>
     </g>
    </g>
    <g id="xtick_10">
     <g id="line2d_31">
      <path clip-path="url(#p4ae23bbef1)" d="M 219.805666 51.625313 
L 219.805666 0 
" style="fill:none;stroke:#cccccc;stroke-linecap:round;stroke-width:0.8;"/>
     </g>
     <g id="line2d_32">
      <g>
       <use style="stroke:#000000;" x="219.805666" xlink:href="#m47392556ae" y="51.625313"/>
      </g>
     </g>
    </g>
    <g id="xtick_11">
     <g id="line2d_33">
      <path clip-path="url(#p4ae23bbef1)" d="M 270.218324 51.625313 
L 270.218324 0 
" style="fill:none;stroke:#cccccc;stroke-linecap:round;stroke-width:0.8;"/>
     </g>
     <g id="line2d_34">
      <g>
       <use style="stroke:#000000;" x="270.218324" xlink:href="#m47392556ae" y="51.625313"/>
      </g>
     </g>
    </g>
    <g id="xtick_12">
     <g id="line2d_35">
      <path clip-path="url(#p4ae23bbef1)" d="M 320.630983 51.625313 
L 320.630983 0 
" style="fill:none;stroke:#cccccc;stroke-linecap:round;stroke-width:0.8;"/>
     </g>
     <g id="line2d_36">
      <g>
       <use style="stroke:#000000;" x="320.630983" xlink:href="#m47392556ae" y="51.625313"/>
      </g>
     </g>
    </g>
   </g>
   <g id="matplotlib.axis_4">
    <g id="ytick_7"/>
    <g id="ytick_8"/>
   </g>
   <g id="line2d_37">
    <path clip-path="url(#p4ae23bbef1)" d="M 54.853594 51.624802 
L 66.091719 51.515161 
L 77.329845 51.286406 
L 216.40165 51.277427 
L 255.735089 51.083509 
L 275.401809 50.83547 
L 289.449466 50.390707 
L 296.473295 49.960062 
L 300.687592 49.535785 
L 303.497123 49.065814 
L 304.901889 48.683848 
L 306.306655 48.085262 
L 307.71142 47.087751 
L 309.116186 45.402013 
L 310.520952 42.640298 
L 311.925718 38.400134 
L 313.330483 32.447616 
L 314.735249 24.966281 
L 316.140015 16.754429 
L 317.54478 9.208199 
L 318.949546 3.99016 
L 320.354312 2.458324 
L 321.759077 5.114647 
L 323.163843 11.374692 
L 327.37814 36.489752 
L 328.782906 42.532026 
L 330.187672 46.644105 
L 331.592437 49.137947 
L 332.997203 50.49328 
L 334.401969 51.155815 
L 334.401969 51.155815 
" style="fill:none;stroke:#1f77b4;stroke-linecap:round;stroke-width:1.5;"/>
   </g>
   <g id="patch_6">
    <path d="M 48.503125 51.625313 
L 340.752437 51.625313 
" style="fill:none;stroke:#000000;stroke-linecap:square;stroke-linejoin:miter;stroke-width:0.8;"/>
   </g>
  </g>
  <g id="axes_3">
   <g id="patch_7">
    <path d="M 350.83 361.377188 
L 401.217812 361.377188 
L 401.217812 61.950375 
L 350.83 61.950375 
z
" style="fill:none;"/>
   </g>
   <g id="matplotlib.axis_5">
    <g id="xtick_13"/>
    <g id="xtick_14"/>
   </g>
   <g id="matplotlib.axis_6">
    <g id="ytick_9">
     <g id="line2d_38">
      <path clip-path="url(#p9b3589d07a)" d="M 350.83 348.96761 
L 401.217812 348.96761 
" style="fill:none;stroke:#cccccc;stroke-linecap:round;stroke-width:0.8;"/>
     </g>
     <g id="line2d_39">
      <g>
       <use style="stroke:#000000;" x="350.83" xlink:href="#mbf0fb9cc03" y="348.96761"/>
      </g>
     </g>
    </g>
    <g id="ytick_10">
     <g id="line2d_40">
      <path clip-path="url(#p9b3589d07a)" d="M 350.83 294.069446 
L 401.217812 294.069446 
" style="fill:none;stroke:#cccccc;stroke-linecap:round;stroke-width:0.8;"/>
     </g>
     <g id="line2d_41">
      <g>
       <use style="stroke:#000000;" x="350.83" xlink:href="#mbf0fb9cc03" y="294.069446"/>
      </g>
     </g>
    </g>
    <g id="ytick_11">
     <g id="line2d_42">
      <path clip-path="url(#p9b3589d07a)" d="M 350.83 239.171281 
L 401.217812 239.171281 
" style="fill:none;stroke:#cccccc;stroke-linecap:round;stroke-width:0.8;"/>
     </g>
     <g id="line2d_43">
      <g>
       <use style="stroke:#000000;" x="350.83" xlink:href="#mbf0fb9cc03" y="239.171281"/>
      </g>
     </g>
    </g>
    <g id="ytick_12">
     <g id="line2d_44">
      <path clip-path="url(#p9b3589d07a)" d="M 350.83 184.273117 
L 401.217812 184.273117 
" style="fill:none;stroke:#cccccc;stroke-linecap:round;stroke-width:0.8;"/>
     </g>
     <g id="line2d_45">
      <g>
       <use style="stroke:#000000;" x="350.83" xlink:href="#mbf0fb9cc03" y="184.273117"/>
      </g>
     </g>
    </g>
    <g id="ytick_13">
     <g id="line2d_46">
      <path clip-path="url(#p9b3589d07a)" d="M 350.83 129.374953 
L 401.217812 129.374953 
" style="fill:none;stroke:#cccccc;stroke-linecap:round;stroke-width:0.8;"/>
     </g>
     <g id="line2d_47">
      <g>
       <use style="stroke:#000000;" x="350.83" xlink:href="#mbf0fb9cc03" y="129.374953"/>
      </g>
     </g>
    </g>
    <g id="ytick_14">
     <g id="line2d_48">
      <path clip-path="url(#p9b3589d07a)" d="M 350.83 74.476788 
L 401.217812 74.476788 
" style="fill:none;stroke:#cccccc;stroke-linecap:round;stroke-width:0.8;"/>
     </g>
     <g id="line2d_49">
      <g>
       <use style="stroke:#000000;" x="350.83" xlink:href="#mbf0fb9cc03" y="74.476788"/>
      </g>
     </g>
    </g>
   </g>
   <g id="line2d_50">
    <path clip-path="url(#p9b3589d07a)" d="M 350.830157 357.423766 
L 351.030111 95.202286 
L 351.203023 86.412739 
L 351.325212 84.947815 
L 351.717376 83.48289 
L 353.036794 82.017966 
L 356.793406 80.553041 
L 365.02009 79.088117 
L 391.901739 76.158268 
L 398.8184 74.693343 
L 394.136197 73.228419 
L 366.970149 70.29857 
L 357.4858 68.833646 
L 352.941977 67.368721 
L 351.345572 65.903797 
L 351.345572 65.903797 
" style="fill:none;stroke:#1f77b4;stroke-linecap:round;stroke-width:1.5;"/>
   </g>
   <g id="patch_8">
    <path d="M 350.83 361.377188 
L 350.83 61.950375 
" style="fill:none;stroke:#000000;stroke-linecap:square;stroke-linejoin:miter;stroke-width:0.8;"/>
   </g>
  </g>
 </g>
 <defs>
  <clipPath id="pccd12bded5">
   <rect height="299.426813" width="292.249312" x="48.503125" y="61.950375"/>
  </clipPath>
  <clipPath id="p4ae23bbef1">
   <rect height="51.625313" width="292.249312" x="48.503125" y="0"/>
  </clipPath>
  <clipPath id="p9b3589d07a">
   <rect height="299.426813" width="50.387812" x="350.83" y="61.950375"/>
  </clipPath>
 </defs>
</svg>
