<?xml version="1.0" encoding="utf-8" standalone="no"?>
<!DOCTYPE svg PUBLIC "-//W3C//DTD SVG 1.1//EN"
  "http://www.w3.org/Graphics/SVG/1.1/DTD/svg11.dtd">
<svg height="326.447656pt" version="1.1" viewBox="0 0 413.02475 326.447656" width="413.02475pt" xmlns="http://www.w3.org/2000/svg" xmlns:xlink="http://www.w3.org/1999/xlink">
 <metadata>
  <rdf:RDF xmlns:cc="http://creativecommons.org/ns#" xmlns:dc="http://purl.org/dc/elements/1.1/" xmlns:rdf="http://www.w3.org/1999/02/22-rdf-syntax-ns#">
   <cc:Work>
    <dc:type rdf:resource="http://purl.org/dc/dcmitype/StillImage"/>
    <dc:date>2023-02-20T13:25:41.498145</dc:date>
    <dc:format>image/svg+xml</dc:format>
    <dc:creator>
     <cc:Agent>
      <dc:title>Matplotlib v3.4.3, https://matplotlib.org/</dc:title>
     </cc:Agent>
    </dc:creator>
   </cc:Work>
  </rdf:RDF>
 </metadata>
 <defs>
  <style type="text/css">*{stroke-linecap:butt;stroke-linejoin:round;}</style>
 </defs>
 <g id="figure_1">
  <g id="patch_1">
   <path d="M 0 326.447656 
L 413.02475 326.447656 
L 413.02475 0 
L 0 0 
z
" style="fill:none;"/>
  </g>
  <g id="axes_1">
   <g id="patch_2">
    <path d="M 48.11375 287.048906 
L 324.389798 287.048906 
L 324.389798 5.318906 
L 48.11375 5.318906 
z
" style="fill:none;"/>
   </g>
   <g id="matplotlib.axis_1">
    <g id="xtick_1">
     <g id="line2d_1">
      <path clip-path="url(#p7969fa4a6b)" d="M 60.671752 287.048906 
L 60.671752 5.318906 
" style="fill:none;stroke:#cccccc;stroke-linecap:round;stroke-width:0.8;"/>
     </g>
     <g id="line2d_2">
      <defs>
       <path d="M 0 0 
L 0 4.8 
" id="m255b759116" style="stroke:#000000;"/>
      </defs>
      <g>
       <use style="stroke:#000000;" x="60.671752" xlink:href="#m255b759116" y="287.048906"/>
      </g>
     </g>
     <g id="text_1">
      <!-- $\mathdefault{10^{0}}$ -->
      <g transform="translate(48.351752 305.986719)scale(0.14 -0.14)">
       <defs>
        <path d="M 794 531 
L 1825 531 
L 1825 4091 
L 703 3866 
L 703 4441 
L 1819 4666 
L 2450 4666 
L 2450 531 
L 3481 531 
L 3481 0 
L 794 0 
L 794 531 
z
" id="DejaVuSans-31" transform="scale(0.015625)"/>
        <path d="M 2034 4250 
Q 1547 4250 1301 3770 
Q 1056 3291 1056 2328 
Q 1056 1369 1301 889 
Q 1547 409 2034 409 
Q 2525 409 2770 889 
Q 3016 1369 3016 2328 
Q 3016 3291 2770 3770 
Q 2525 4250 2034 4250 
z
M 2034 4750 
Q 2819 4750 3233 4129 
Q 3647 3509 3647 2328 
Q 3647 1150 3233 529 
Q 2819 -91 2034 -91 
Q 1250 -91 836 529 
Q 422 1150 422 2328 
Q 422 3509 836 4129 
Q 1250 4750 2034 4750 
z
" id="DejaVuSans-30" transform="scale(0.015625)"/>
       </defs>
       <use transform="translate(0 0.765625)" xlink:href="#DejaVuSans-31"/>
       <use transform="translate(63.623047 0.765625)" xlink:href="#DejaVuSans-30"/>
       <use transform="translate(128.203125 39.046875)scale(0.7)" xlink:href="#DejaVuSans-30"/>
      </g>
     </g>
    </g>
    <g id="xtick_2">
     <g id="line2d_3">
      <path clip-path="url(#p7969fa4a6b)" d="M 123.951501 287.048906 
L 123.951501 5.318906 
" style="fill:none;stroke:#cccccc;stroke-linecap:round;stroke-width:0.8;"/>
     </g>
     <g id="line2d_4">
      <g>
       <use style="stroke:#000000;" x="123.951501" xlink:href="#m255b759116" y="287.048906"/>
      </g>
     </g>
     <g id="text_2">
      <!-- $\mathdefault{10^{1}}$ -->
      <g transform="translate(111.631501 305.986719)scale(0.14 -0.14)">
       <use transform="translate(0 0.684375)" xlink:href="#DejaVuSans-31"/>
       <use transform="translate(63.623047 0.684375)" xlink:href="#DejaVuSans-30"/>
       <use transform="translate(128.203125 38.965625)scale(0.7)" xlink:href="#DejaVuSans-31"/>
      </g>
     </g>
    </g>
    <g id="xtick_3">
     <g id="line2d_5">
      <path clip-path="url(#p7969fa4a6b)" d="M 187.231249 287.048906 
L 187.231249 5.318906 
" style="fill:none;stroke:#cccccc;stroke-linecap:round;stroke-width:0.8;"/>
     </g>
     <g id="line2d_6">
      <g>
       <use style="stroke:#000000;" x="187.231249" xlink:href="#m255b759116" y="287.048906"/>
      </g>
     </g>
     <g id="text_3">
      <!-- $\mathdefault{10^{2}}$ -->
      <g transform="translate(174.911249 305.986719)scale(0.14 -0.14)">
       <defs>
        <path d="M 1228 531 
L 3431 531 
L 3431 0 
L 469 0 
L 469 531 
Q 828 903 1448 1529 
Q 2069 2156 2228 2338 
Q 2531 2678 2651 2914 
Q 2772 3150 2772 3378 
Q 2772 3750 2511 3984 
Q 2250 4219 1831 4219 
Q 1534 4219 1204 4116 
Q 875 4013 500 3803 
L 500 4441 
Q 881 4594 1212 4672 
Q 1544 4750 1819 4750 
Q 2544 4750 2975 4387 
Q 3406 4025 3406 3419 
Q 3406 3131 3298 2873 
Q 3191 2616 2906 2266 
Q 2828 2175 2409 1742 
Q 1991 1309 1228 531 
z
" id="DejaVuSans-32" transform="scale(0.015625)"/>
       </defs>
       <use transform="translate(0 0.765625)" xlink:href="#DejaVuSans-31"/>
       <use transform="translate(63.623047 0.765625)" xlink:href="#DejaVuSans-30"/>
       <use transform="translate(128.203125 39.046875)scale(0.7)" xlink:href="#DejaVuSans-32"/>
      </g>
     </g>
    </g>
    <g id="xtick_4">
     <g id="line2d_7">
      <path clip-path="url(#p7969fa4a6b)" d="M 250.510998 287.048906 
L 250.510998 5.318906 
" style="fill:none;stroke:#cccccc;stroke-linecap:round;stroke-width:0.8;"/>
     </g>
     <g id="line2d_8">
      <g>
       <use style="stroke:#000000;" x="250.510998" xlink:href="#m255b759116" y="287.048906"/>
      </g>
     </g>
     <g id="text_4">
      <!-- $\mathdefault{10^{3}}$ -->
      <g transform="translate(238.190998 305.986719)scale(0.14 -0.14)">
       <defs>
        <path d="M 2597 2516 
Q 3050 2419 3304 2112 
Q 3559 1806 3559 1356 
Q 3559 666 3084 287 
Q 2609 -91 1734 -91 
Q 1441 -91 1130 -33 
Q 819 25 488 141 
L 488 750 
Q 750 597 1062 519 
Q 1375 441 1716 441 
Q 2309 441 2620 675 
Q 2931 909 2931 1356 
Q 2931 1769 2642 2001 
Q 2353 2234 1838 2234 
L 1294 2234 
L 1294 2753 
L 1863 2753 
Q 2328 2753 2575 2939 
Q 2822 3125 2822 3475 
Q 2822 3834 2567 4026 
Q 2313 4219 1838 4219 
Q 1578 4219 1281 4162 
Q 984 4106 628 3988 
L 628 4550 
Q 988 4650 1302 4700 
Q 1616 4750 1894 4750 
Q 2613 4750 3031 4423 
Q 3450 4097 3450 3541 
Q 3450 3153 3228 2886 
Q 3006 2619 2597 2516 
z
" id="DejaVuSans-33" transform="scale(0.015625)"/>
       </defs>
       <use transform="translate(0 0.765625)" xlink:href="#DejaVuSans-31"/>
       <use transform="translate(63.623047 0.765625)" xlink:href="#DejaVuSans-30"/>
       <use transform="translate(128.203125 39.046875)scale(0.7)" xlink:href="#DejaVuSans-33"/>
      </g>
     </g>
    </g>
    <g id="xtick_5">
     <g id="line2d_9">
      <path clip-path="url(#p7969fa4a6b)" d="M 313.790746 287.048906 
L 313.790746 5.318906 
" style="fill:none;stroke:#cccccc;stroke-linecap:round;stroke-width:0.8;"/>
     </g>
     <g id="line2d_10">
      <g>
       <use style="stroke:#000000;" x="313.790746" xlink:href="#m255b759116" y="287.048906"/>
      </g>
     </g>
     <g id="text_5">
      <!-- $\mathdefault{10^{4}}$ -->
      <g transform="translate(301.470746 305.986719)scale(0.14 -0.14)">
       <defs>
        <path d="M 2419 4116 
L 825 1625 
L 2419 1625 
L 2419 4116 
z
M 2253 4666 
L 3047 4666 
L 3047 1625 
L 3713 1625 
L 3713 1100 
L 3047 1100 
L 3047 0 
L 2419 0 
L 2419 1100 
L 313 1100 
L 313 1709 
L 2253 4666 
z
" id="DejaVuSans-34" transform="scale(0.015625)"/>
       </defs>
       <use transform="translate(0 0.684375)" xlink:href="#DejaVuSans-31"/>
       <use transform="translate(63.623047 0.684375)" xlink:href="#DejaVuSans-30"/>
       <use transform="translate(128.203125 38.965625)scale(0.7)" xlink:href="#DejaVuSans-34"/>
      </g>
     </g>
    </g>
    <g id="xtick_6">
     <g id="line2d_11">
      <defs>
       <path d="M 0 0 
L 0 3.2 
" id="mde7dcff355" style="stroke:#000000;stroke-width:0.8;"/>
      </defs>
      <g>
       <use style="stroke:#000000;stroke-width:0.8;" x="50.869595" xlink:href="#mde7dcff355" y="287.048906"/>
      </g>
     </g>
    </g>
    <g id="xtick_7">
     <g id="line2d_12">
      <g>
       <use style="stroke:#000000;stroke-width:0.8;" x="54.539311" xlink:href="#mde7dcff355" y="287.048906"/>
      </g>
     </g>
    </g>
    <g id="xtick_8">
     <g id="line2d_13">
      <g>
       <use style="stroke:#000000;stroke-width:0.8;" x="57.77623" xlink:href="#mde7dcff355" y="287.048906"/>
      </g>
     </g>
    </g>
    <g id="xtick_9">
     <g id="line2d_14">
      <g>
       <use style="stroke:#000000;stroke-width:0.8;" x="79.720855" xlink:href="#mde7dcff355" y="287.048906"/>
      </g>
     </g>
    </g>
    <g id="xtick_10">
     <g id="line2d_15">
      <g>
       <use style="stroke:#000000;stroke-width:0.8;" x="90.863865" xlink:href="#mde7dcff355" y="287.048906"/>
      </g>
     </g>
    </g>
    <g id="xtick_11">
     <g id="line2d_16">
      <g>
       <use style="stroke:#000000;stroke-width:0.8;" x="98.769957" xlink:href="#mde7dcff355" y="287.048906"/>
      </g>
     </g>
    </g>
    <g id="xtick_12">
     <g id="line2d_17">
      <g>
       <use style="stroke:#000000;stroke-width:0.8;" x="104.902398" xlink:href="#mde7dcff355" y="287.048906"/>
      </g>
     </g>
    </g>
    <g id="xtick_13">
     <g id="line2d_18">
      <g>
       <use style="stroke:#000000;stroke-width:0.8;" x="109.912968" xlink:href="#mde7dcff355" y="287.048906"/>
      </g>
     </g>
    </g>
    <g id="xtick_14">
     <g id="line2d_19">
      <g>
       <use style="stroke:#000000;stroke-width:0.8;" x="114.149344" xlink:href="#mde7dcff355" y="287.048906"/>
      </g>
     </g>
    </g>
    <g id="xtick_15">
     <g id="line2d_20">
      <g>
       <use style="stroke:#000000;stroke-width:0.8;" x="117.819059" xlink:href="#mde7dcff355" y="287.048906"/>
      </g>
     </g>
    </g>
    <g id="xtick_16">
     <g id="line2d_21">
      <g>
       <use style="stroke:#000000;stroke-width:0.8;" x="121.055978" xlink:href="#mde7dcff355" y="287.048906"/>
      </g>
     </g>
    </g>
    <g id="xtick_17">
     <g id="line2d_22">
      <g>
       <use style="stroke:#000000;stroke-width:0.8;" x="143.000603" xlink:href="#mde7dcff355" y="287.048906"/>
      </g>
     </g>
    </g>
    <g id="xtick_18">
     <g id="line2d_23">
      <g>
       <use style="stroke:#000000;stroke-width:0.8;" x="154.143614" xlink:href="#mde7dcff355" y="287.048906"/>
      </g>
     </g>
    </g>
    <g id="xtick_19">
     <g id="line2d_24">
      <g>
       <use style="stroke:#000000;stroke-width:0.8;" x="162.049706" xlink:href="#mde7dcff355" y="287.048906"/>
      </g>
     </g>
    </g>
    <g id="xtick_20">
     <g id="line2d_25">
      <g>
       <use style="stroke:#000000;stroke-width:0.8;" x="168.182147" xlink:href="#mde7dcff355" y="287.048906"/>
      </g>
     </g>
    </g>
    <g id="xtick_21">
     <g id="line2d_26">
      <g>
       <use style="stroke:#000000;stroke-width:0.8;" x="173.192716" xlink:href="#mde7dcff355" y="287.048906"/>
      </g>
     </g>
    </g>
    <g id="xtick_22">
     <g id="line2d_27">
      <g>
       <use style="stroke:#000000;stroke-width:0.8;" x="177.429092" xlink:href="#mde7dcff355" y="287.048906"/>
      </g>
     </g>
    </g>
    <g id="xtick_23">
     <g id="line2d_28">
      <g>
       <use style="stroke:#000000;stroke-width:0.8;" x="181.098808" xlink:href="#mde7dcff355" y="287.048906"/>
      </g>
     </g>
    </g>
    <g id="xtick_24">
     <g id="line2d_29">
      <g>
       <use style="stroke:#000000;stroke-width:0.8;" x="184.335727" xlink:href="#mde7dcff355" y="287.048906"/>
      </g>
     </g>
    </g>
    <g id="xtick_25">
     <g id="line2d_30">
      <g>
       <use style="stroke:#000000;stroke-width:0.8;" x="206.280352" xlink:href="#mde7dcff355" y="287.048906"/>
      </g>
     </g>
    </g>
    <g id="xtick_26">
     <g id="line2d_31">
      <g>
       <use style="stroke:#000000;stroke-width:0.8;" x="217.423362" xlink:href="#mde7dcff355" y="287.048906"/>
      </g>
     </g>
    </g>
    <g id="xtick_27">
     <g id="line2d_32">
      <g>
       <use style="stroke:#000000;stroke-width:0.8;" x="225.329454" xlink:href="#mde7dcff355" y="287.048906"/>
      </g>
     </g>
    </g>
    <g id="xtick_28">
     <g id="line2d_33">
      <g>
       <use style="stroke:#000000;stroke-width:0.8;" x="231.461895" xlink:href="#mde7dcff355" y="287.048906"/>
      </g>
     </g>
    </g>
    <g id="xtick_29">
     <g id="line2d_34">
      <g>
       <use style="stroke:#000000;stroke-width:0.8;" x="236.472465" xlink:href="#mde7dcff355" y="287.048906"/>
      </g>
     </g>
    </g>
    <g id="xtick_30">
     <g id="line2d_35">
      <g>
       <use style="stroke:#000000;stroke-width:0.8;" x="240.708841" xlink:href="#mde7dcff355" y="287.048906"/>
      </g>
     </g>
    </g>
    <g id="xtick_31">
     <g id="line2d_36">
      <g>
       <use style="stroke:#000000;stroke-width:0.8;" x="244.378556" xlink:href="#mde7dcff355" y="287.048906"/>
      </g>
     </g>
    </g>
    <g id="xtick_32">
     <g id="line2d_37">
      <g>
       <use style="stroke:#000000;stroke-width:0.8;" x="247.615475" xlink:href="#mde7dcff355" y="287.048906"/>
      </g>
     </g>
    </g>
    <g id="xtick_33">
     <g id="line2d_38">
      <g>
       <use style="stroke:#000000;stroke-width:0.8;" x="269.5601" xlink:href="#mde7dcff355" y="287.048906"/>
      </g>
     </g>
    </g>
    <g id="xtick_34">
     <g id="line2d_39">
      <g>
       <use style="stroke:#000000;stroke-width:0.8;" x="280.703111" xlink:href="#mde7dcff355" y="287.048906"/>
      </g>
     </g>
    </g>
    <g id="xtick_35">
     <g id="line2d_40">
      <g>
       <use style="stroke:#000000;stroke-width:0.8;" x="288.609203" xlink:href="#mde7dcff355" y="287.048906"/>
      </g>
     </g>
    </g>
    <g id="xtick_36">
     <g id="line2d_41">
      <g>
       <use style="stroke:#000000;stroke-width:0.8;" x="294.741644" xlink:href="#mde7dcff355" y="287.048906"/>
      </g>
     </g>
    </g>
    <g id="xtick_37">
     <g id="line2d_42">
      <g>
       <use style="stroke:#000000;stroke-width:0.8;" x="299.752213" xlink:href="#mde7dcff355" y="287.048906"/>
      </g>
     </g>
    </g>
    <g id="xtick_38">
     <g id="line2d_43">
      <g>
       <use style="stroke:#000000;stroke-width:0.8;" x="303.988589" xlink:href="#mde7dcff355" y="287.048906"/>
      </g>
     </g>
    </g>
    <g id="xtick_39">
     <g id="line2d_44">
      <g>
       <use style="stroke:#000000;stroke-width:0.8;" x="307.658305" xlink:href="#mde7dcff355" y="287.048906"/>
      </g>
     </g>
    </g>
    <g id="xtick_40">
     <g id="line2d_45">
      <g>
       <use style="stroke:#000000;stroke-width:0.8;" x="310.895224" xlink:href="#mde7dcff355" y="287.048906"/>
      </g>
     </g>
    </g>
    <g id="text_6">
     <!-- value -->
     <g style="fill:#262626;" transform="translate(167.130837 323.536094)scale(0.14 -0.14)">
      <defs>
       <path d="M 191 3500 
L 800 3500 
L 1894 563 
L 2988 3500 
L 3597 3500 
L 2284 0 
L 1503 0 
L 191 3500 
z
" id="DejaVuSans-76" transform="scale(0.015625)"/>
       <path d="M 2194 1759 
Q 1497 1759 1228 1600 
Q 959 1441 959 1056 
Q 959 750 1161 570 
Q 1363 391 1709 391 
Q 2188 391 2477 730 
Q 2766 1069 2766 1631 
L 2766 1759 
L 2194 1759 
z
M 3341 1997 
L 3341 0 
L 2766 0 
L 2766 531 
Q 2569 213 2275 61 
Q 1981 -91 1556 -91 
Q 1019 -91 701 211 
Q 384 513 384 1019 
Q 384 1609 779 1909 
Q 1175 2209 1959 2209 
L 2766 2209 
L 2766 2266 
Q 2766 2663 2505 2880 
Q 2244 3097 1772 3097 
Q 1472 3097 1187 3025 
Q 903 2953 641 2809 
L 641 3341 
Q 956 3463 1253 3523 
Q 1550 3584 1831 3584 
Q 2591 3584 2966 3190 
Q 3341 2797 3341 1997 
z
" id="DejaVuSans-61" transform="scale(0.015625)"/>
       <path d="M 603 4863 
L 1178 4863 
L 1178 0 
L 603 0 
L 603 4863 
z
" id="DejaVuSans-6c" transform="scale(0.015625)"/>
       <path d="M 544 1381 
L 544 3500 
L 1119 3500 
L 1119 1403 
Q 1119 906 1312 657 
Q 1506 409 1894 409 
Q 2359 409 2629 706 
Q 2900 1003 2900 1516 
L 2900 3500 
L 3475 3500 
L 3475 0 
L 2900 0 
L 2900 538 
Q 2691 219 2414 64 
Q 2138 -91 1772 -91 
Q 1169 -91 856 284 
Q 544 659 544 1381 
z
M 1991 3584 
L 1991 3584 
z
" id="DejaVuSans-75" transform="scale(0.015625)"/>
       <path d="M 3597 1894 
L 3597 1613 
L 953 1613 
Q 991 1019 1311 708 
Q 1631 397 2203 397 
Q 2534 397 2845 478 
Q 3156 559 3463 722 
L 3463 178 
Q 3153 47 2828 -22 
Q 2503 -91 2169 -91 
Q 1331 -91 842 396 
Q 353 884 353 1716 
Q 353 2575 817 3079 
Q 1281 3584 2069 3584 
Q 2775 3584 3186 3129 
Q 3597 2675 3597 1894 
z
M 3022 2063 
Q 3016 2534 2758 2815 
Q 2500 3097 2075 3097 
Q 1594 3097 1305 2825 
Q 1016 2553 972 2059 
L 3022 2063 
z
" id="DejaVuSans-65" transform="scale(0.015625)"/>
      </defs>
      <use xlink:href="#DejaVuSans-76"/>
      <use x="59.179688" xlink:href="#DejaVuSans-61"/>
      <use x="120.458984" xlink:href="#DejaVuSans-6c"/>
      <use x="148.242188" xlink:href="#DejaVuSans-75"/>
      <use x="211.621094" xlink:href="#DejaVuSans-65"/>
     </g>
    </g>
   </g>
   <g id="matplotlib.axis_2">
    <g id="ytick_1">
     <g id="line2d_46">
      <path clip-path="url(#p7969fa4a6b)" d="M 48.11375 287.048906 
L 324.389798 287.048906 
" style="fill:none;stroke:#cccccc;stroke-linecap:round;stroke-width:0.8;"/>
     </g>
     <g id="line2d_47">
      <defs>
       <path d="M 0 0 
L -4.8 0 
" id="mad9cfb1123" style="stroke:#000000;"/>
      </defs>
      <g>
       <use style="stroke:#000000;" x="48.11375" xlink:href="#mad9cfb1123" y="287.048906"/>
      </g>
     </g>
     <g id="text_7">
      <!-- 0.0 -->
      <g transform="translate(17.549375 292.367812)scale(0.14 -0.14)">
       <defs>
        <path d="M 684 794 
L 1344 794 
L 1344 0 
L 684 0 
L 684 794 
z
" id="DejaVuSans-2e" transform="scale(0.015625)"/>
       </defs>
       <use xlink:href="#DejaVuSans-30"/>
       <use x="63.623047" xlink:href="#DejaVuSans-2e"/>
       <use x="95.410156" xlink:href="#DejaVuSans-30"/>
      </g>
     </g>
    </g>
    <g id="ytick_2">
     <g id="line2d_48">
      <path clip-path="url(#p7969fa4a6b)" d="M 48.11375 230.702906 
L 324.389798 230.702906 
" style="fill:none;stroke:#cccccc;stroke-linecap:round;stroke-width:0.8;"/>
     </g>
     <g id="line2d_49">
      <g>
       <use style="stroke:#000000;" x="48.11375" xlink:href="#mad9cfb1123" y="230.702906"/>
      </g>
     </g>
     <g id="text_8">
      <!-- 0.2 -->
      <g transform="translate(17.549375 236.021812)scale(0.14 -0.14)">
       <use xlink:href="#DejaVuSans-30"/>
       <use x="63.623047" xlink:href="#DejaVuSans-2e"/>
       <use x="95.410156" xlink:href="#DejaVuSans-32"/>
      </g>
     </g>
    </g>
    <g id="ytick_3">
     <g id="line2d_50">
      <path clip-path="url(#p7969fa4a6b)" d="M 48.11375 174.356906 
L 324.389798 174.356906 
" style="fill:none;stroke:#cccccc;stroke-linecap:round;stroke-width:0.8;"/>
     </g>
     <g id="line2d_51">
      <g>
       <use style="stroke:#000000;" x="48.11375" xlink:href="#mad9cfb1123" y="174.356906"/>
      </g>
     </g>
     <g id="text_9">
      <!-- 0.4 -->
      <g transform="translate(17.549375 179.675812)scale(0.14 -0.14)">
       <use xlink:href="#DejaVuSans-30"/>
       <use x="63.623047" xlink:href="#DejaVuSans-2e"/>
       <use x="95.410156" xlink:href="#DejaVuSans-34"/>
      </g>
     </g>
    </g>
    <g id="ytick_4">
     <g id="line2d_52">
      <path clip-path="url(#p7969fa4a6b)" d="M 48.11375 118.010906 
L 324.389798 118.010906 
" style="fill:none;stroke:#cccccc;stroke-linecap:round;stroke-width:0.8;"/>
     </g>
     <g id="line2d_53">
      <g>
       <use style="stroke:#000000;" x="48.11375" xlink:href="#mad9cfb1123" y="118.010906"/>
      </g>
     </g>
     <g id="text_10">
      <!-- 0.6 -->
      <g transform="translate(17.549375 123.329812)scale(0.14 -0.14)">
       <defs>
        <path d="M 2113 2584 
Q 1688 2584 1439 2293 
Q 1191 2003 1191 1497 
Q 1191 994 1439 701 
Q 1688 409 2113 409 
Q 2538 409 2786 701 
Q 3034 994 3034 1497 
Q 3034 2003 2786 2293 
Q 2538 2584 2113 2584 
z
M 3366 4563 
L 3366 3988 
Q 3128 4100 2886 4159 
Q 2644 4219 2406 4219 
Q 1781 4219 1451 3797 
Q 1122 3375 1075 2522 
Q 1259 2794 1537 2939 
Q 1816 3084 2150 3084 
Q 2853 3084 3261 2657 
Q 3669 2231 3669 1497 
Q 3669 778 3244 343 
Q 2819 -91 2113 -91 
Q 1303 -91 875 529 
Q 447 1150 447 2328 
Q 447 3434 972 4092 
Q 1497 4750 2381 4750 
Q 2619 4750 2861 4703 
Q 3103 4656 3366 4563 
z
" id="DejaVuSans-36" transform="scale(0.015625)"/>
       </defs>
       <use xlink:href="#DejaVuSans-30"/>
       <use x="63.623047" xlink:href="#DejaVuSans-2e"/>
       <use x="95.410156" xlink:href="#DejaVuSans-36"/>
      </g>
     </g>
    </g>
    <g id="ytick_5">
     <g id="line2d_54">
      <path clip-path="url(#p7969fa4a6b)" d="M 48.11375 61.664906 
L 324.389798 61.664906 
" style="fill:none;stroke:#cccccc;stroke-linecap:round;stroke-width:0.8;"/>
     </g>
     <g id="line2d_55">
      <g>
       <use style="stroke:#000000;" x="48.11375" xlink:href="#mad9cfb1123" y="61.664906"/>
      </g>
     </g>
     <g id="text_11">
      <!-- 0.8 -->
      <g transform="translate(17.549375 66.983812)scale(0.14 -0.14)">
       <defs>
        <path d="M 2034 2216 
Q 1584 2216 1326 1975 
Q 1069 1734 1069 1313 
Q 1069 891 1326 650 
Q 1584 409 2034 409 
Q 2484 409 2743 651 
Q 3003 894 3003 1313 
Q 3003 1734 2745 1975 
Q 2488 2216 2034 2216 
z
M 1403 2484 
Q 997 2584 770 2862 
Q 544 3141 544 3541 
Q 544 4100 942 4425 
Q 1341 4750 2034 4750 
Q 2731 4750 3128 4425 
Q 3525 4100 3525 3541 
Q 3525 3141 3298 2862 
Q 3072 2584 2669 2484 
Q 3125 2378 3379 2068 
Q 3634 1759 3634 1313 
Q 3634 634 3220 271 
Q 2806 -91 2034 -91 
Q 1263 -91 848 271 
Q 434 634 434 1313 
Q 434 1759 690 2068 
Q 947 2378 1403 2484 
z
M 1172 3481 
Q 1172 3119 1398 2916 
Q 1625 2713 2034 2713 
Q 2441 2713 2670 2916 
Q 2900 3119 2900 3481 
Q 2900 3844 2670 4047 
Q 2441 4250 2034 4250 
Q 1625 4250 1398 4047 
Q 1172 3844 1172 3481 
z
" id="DejaVuSans-38" transform="scale(0.015625)"/>
       </defs>
       <use xlink:href="#DejaVuSans-30"/>
       <use x="63.623047" xlink:href="#DejaVuSans-2e"/>
       <use x="95.410156" xlink:href="#DejaVuSans-38"/>
      </g>
     </g>
    </g>
    <g id="ytick_6">
     <g id="line2d_56">
      <path clip-path="url(#p7969fa4a6b)" d="M 48.11375 5.318906 
L 324.389798 5.318906 
" style="fill:none;stroke:#cccccc;stroke-linecap:round;stroke-width:0.8;"/>
     </g>
     <g id="line2d_57">
      <g>
       <use style="stroke:#000000;" x="48.11375" xlink:href="#mad9cfb1123" y="5.318906"/>
      </g>
     </g>
     <g id="text_12">
      <!-- 1.0 -->
      <g transform="translate(17.549375 10.637812)scale(0.14 -0.14)">
       <use xlink:href="#DejaVuSans-31"/>
       <use x="63.623047" xlink:href="#DejaVuSans-2e"/>
       <use x="95.410156" xlink:href="#DejaVuSans-30"/>
      </g>
     </g>
    </g>
    <g id="text_13">
     <!-- Proportion -->
     <g style="fill:#262626;" transform="translate(10.637812 182.298437)rotate(-90)scale(0.14 -0.14)">
      <defs>
       <path d="M 1259 4147 
L 1259 2394 
L 2053 2394 
Q 2494 2394 2734 2622 
Q 2975 2850 2975 3272 
Q 2975 3691 2734 3919 
Q 2494 4147 2053 4147 
L 1259 4147 
z
M 628 4666 
L 2053 4666 
Q 2838 4666 3239 4311 
Q 3641 3956 3641 3272 
Q 3641 2581 3239 2228 
Q 2838 1875 2053 1875 
L 1259 1875 
L 1259 0 
L 628 0 
L 628 4666 
z
" id="DejaVuSans-50" transform="scale(0.015625)"/>
       <path d="M 2631 2963 
Q 2534 3019 2420 3045 
Q 2306 3072 2169 3072 
Q 1681 3072 1420 2755 
Q 1159 2438 1159 1844 
L 1159 0 
L 581 0 
L 581 3500 
L 1159 3500 
L 1159 2956 
Q 1341 3275 1631 3429 
Q 1922 3584 2338 3584 
Q 2397 3584 2469 3576 
Q 2541 3569 2628 3553 
L 2631 2963 
z
" id="DejaVuSans-72" transform="scale(0.015625)"/>
       <path d="M 1959 3097 
Q 1497 3097 1228 2736 
Q 959 2375 959 1747 
Q 959 1119 1226 758 
Q 1494 397 1959 397 
Q 2419 397 2687 759 
Q 2956 1122 2956 1747 
Q 2956 2369 2687 2733 
Q 2419 3097 1959 3097 
z
M 1959 3584 
Q 2709 3584 3137 3096 
Q 3566 2609 3566 1747 
Q 3566 888 3137 398 
Q 2709 -91 1959 -91 
Q 1206 -91 779 398 
Q 353 888 353 1747 
Q 353 2609 779 3096 
Q 1206 3584 1959 3584 
z
" id="DejaVuSans-6f" transform="scale(0.015625)"/>
       <path d="M 1159 525 
L 1159 -1331 
L 581 -1331 
L 581 3500 
L 1159 3500 
L 1159 2969 
Q 1341 3281 1617 3432 
Q 1894 3584 2278 3584 
Q 2916 3584 3314 3078 
Q 3713 2572 3713 1747 
Q 3713 922 3314 415 
Q 2916 -91 2278 -91 
Q 1894 -91 1617 61 
Q 1341 213 1159 525 
z
M 3116 1747 
Q 3116 2381 2855 2742 
Q 2594 3103 2138 3103 
Q 1681 3103 1420 2742 
Q 1159 2381 1159 1747 
Q 1159 1113 1420 752 
Q 1681 391 2138 391 
Q 2594 391 2855 752 
Q 3116 1113 3116 1747 
z
" id="DejaVuSans-70" transform="scale(0.015625)"/>
       <path d="M 1172 4494 
L 1172 3500 
L 2356 3500 
L 2356 3053 
L 1172 3053 
L 1172 1153 
Q 1172 725 1289 603 
Q 1406 481 1766 481 
L 2356 481 
L 2356 0 
L 1766 0 
Q 1100 0 847 248 
Q 594 497 594 1153 
L 594 3053 
L 172 3053 
L 172 3500 
L 594 3500 
L 594 4494 
L 1172 4494 
z
" id="DejaVuSans-74" transform="scale(0.015625)"/>
       <path d="M 603 3500 
L 1178 3500 
L 1178 0 
L 603 0 
L 603 3500 
z
M 603 4863 
L 1178 4863 
L 1178 4134 
L 603 4134 
L 603 4863 
z
" id="DejaVuSans-69" transform="scale(0.015625)"/>
       <path d="M 3513 2113 
L 3513 0 
L 2938 0 
L 2938 2094 
Q 2938 2591 2744 2837 
Q 2550 3084 2163 3084 
Q 1697 3084 1428 2787 
Q 1159 2491 1159 1978 
L 1159 0 
L 581 0 
L 581 3500 
L 1159 3500 
L 1159 2956 
Q 1366 3272 1645 3428 
Q 1925 3584 2291 3584 
Q 2894 3584 3203 3211 
Q 3513 2838 3513 2113 
z
" id="DejaVuSans-6e" transform="scale(0.015625)"/>
      </defs>
      <use xlink:href="#DejaVuSans-50"/>
      <use x="58.552734" xlink:href="#DejaVuSans-72"/>
      <use x="97.416016" xlink:href="#DejaVuSans-6f"/>
      <use x="158.597656" xlink:href="#DejaVuSans-70"/>
      <use x="222.074219" xlink:href="#DejaVuSans-6f"/>
      <use x="283.255859" xlink:href="#DejaVuSans-72"/>
      <use x="324.369141" xlink:href="#DejaVuSans-74"/>
      <use x="363.578125" xlink:href="#DejaVuSans-69"/>
      <use x="391.361328" xlink:href="#DejaVuSans-6f"/>
      <use x="452.542969" xlink:href="#DejaVuSans-6e"/>
     </g>
    </g>
   </g>
   <g id="line2d_58">
    <path clip-path="url(#p7969fa4a6b)" d="M -1 136.89063 
L 60.671752 136.89063 
L 60.671752 136.780858 
L 60.671752 89.518602 
L 79.720855 89.518602 
L 79.720855 89.40883 
L 79.720855 63.968134 
L 90.863863 63.968134 
L 90.863863 63.858362 
L 90.863863 48.212968 
L 98.76996 48.212968 
L 98.76996 48.103196 
L 98.76996 38.550024 
L 104.902398 38.550024 
L 104.902398 38.440252 
L 104.902398 32.929182 
L 109.91297 32.929182 
L 109.91297 32.81941 
L 109.91297 29.0033 
L 114.149342 29.0033 
L 114.149342 28.893528 
L 114.149342 26.478594 
L 117.819059 26.478594 
L 117.819059 26.368839 
L 117.819059 24.725516 
L 121.055978 24.722292 
L 121.055978 24.615744 
L 121.055978 23.459939 
L 123.951501 23.459939 
L 123.951501 23.350167 
L 123.951501 22.513988 
L 126.570819 22.513988 
L 126.570819 22.404216 
L 126.570819 21.887648 
L 128.962068 21.887648 
L 128.962068 21.777876 
L 128.962068 21.396923 
L 131.161807 21.396923 
L 131.161807 21.287151 
L 131.161807 21.015953 
L 133.198448 21.015953 
L 133.198448 20.906181 
L 133.198448 20.722153 
L 135.094515 20.722153 
L 135.094515 20.612381 
L 135.094515 20.438042 
L 136.868165 20.438042 
L 136.868165 20.32827 
L 136.868165 20.244342 
L 138.534254 20.244342 
L 138.534254 20.13457 
L 138.534254 20.040935 
L 140.105081 20.040935 
L 140.105081 19.931163 
L 140.105081 19.863372 
L 143.000606 19.756825 
L 143.000606 19.7536 
L 143.000606 19.621226 
L 145.619924 19.511471 
L 145.619924 19.392009 
L 148.011172 19.298375 
L 148.011172 19.282237 
L 148.011172 19.240273 
L 150.210912 19.169241 
L 150.210912 19.130501 
L 150.210912 19.124036 
L 153.211933 19.017505 
L 153.211933 19.014264 
L 153.211933 18.940008 
L 155.917263 18.843166 
L 155.917263 18.830253 
L 155.917263 18.817339 
L 159.154186 18.717256 
L 159.154186 18.707567 
L 159.154186 18.697878 
L 162.049703 18.607484 
L 162.049703 18.588106 
L 162.049703 18.568744 
L 165.286627 18.47511 
L 165.286627 18.458972 
L 165.286627 18.455731 
L 168.726366 18.345976 
L 168.726366 18.329822 
L 171.783073 18.232963 
L 171.783073 18.22005 
L 171.783073 18.203912 
L 175.812035 18.097381 
L 175.812035 18.09414 
L 175.812035 18.081227 
L 179.325157 17.981144 
L 179.325157 17.971455 
L 179.325157 17.965006 
L 181.777409 17.874613 
L 181.777409 17.855234 
L 181.777409 17.848769 
L 184.335724 17.745462 
L 184.335724 17.739014 
L 184.335724 17.726101 
L 186.676037 17.619553 
L 186.676037 17.616329 
L 186.676037 17.600174 
L 188.572097 17.493643 
L 188.572097 17.490419 
L 188.572097 17.467817 
L 190.09927 17.367734 
L 190.09927 17.358045 
L 190.09927 17.35158 
L 191.779925 17.248273 
L 191.779925 17.241824 
L 191.779925 17.22567 
L 193.36369 17.135276 
L 193.36369 17.115898 
L 193.36369 17.10945 
L 194.86114 17.006143 
L 194.86114 16.999678 
L 194.86114 16.980299 
L 196.082757 16.896371 
L 196.082757 16.870544 
L 196.082757 16.867303 
L 197.631459 16.763996 
L 197.631459 16.757531 
L 197.631459 16.744618 
L 198.918477 16.634862 
L 198.918477 16.605795 
L 200.147908 16.502488 
L 200.147908 16.496023 
L 200.147908 16.479885 
L 201.159631 16.376578 
L 201.159631 16.370113 
L 201.159631 16.3572 
L 202.294752 16.247428 
L 202.294752 16.237755 
L 203.688494 16.137656 
L 203.688494 16.127983 
L 203.688494 16.124742 
L 204.579885 16.037573 
L 204.579885 16.014987 
L 204.579885 16.008522 
L 205.865 15.89875 
L 205.865 15.882612 
L 206.689523 15.788978 
L 206.689523 15.77284 
L 206.689523 15.766392 
L 207.490028 15.659844 
L 207.490028 15.65662 
L 207.490028 15.637242 
L 208.648685 15.533935 
L 208.648685 15.52747 
L 208.648685 15.521021 
L 209.517278 15.411249 
L 209.517278 15.395112 
L 210.595143 15.28534 
L 210.595143 15.259513 
L 211.518984 15.156189 
L 211.518984 15.149741 
L 211.518984 15.146517 
L 212.412803 15.046417 
L 212.412803 15.036745 
L 212.5225 15.014142 
L 213.384758 14.917284 
L 213.384758 14.90437 
L 213.490652 14.884992 
L 214.220778 14.791374 
L 214.220778 14.775237 
L 214.323505 14.739721 
L 215.032115 14.642862 
L 215.032115 14.629949 
L 215.131868 14.617035 
L 215.820187 14.510487 
L 215.820187 14.507263 
L 215.91712 14.481436 
L 216.774518 14.371664 
L 216.86815 14.345838 
L 217.69682 14.23929 
L 217.69682 14.236066 
L 217.787374 14.219928 
L 218.589176 14.116604 
L 218.589176 14.110156 
L 218.676832 14.090778 
L 219.538409 13.987471 
L 219.538409 13.981022 
L 219.623092 13.95842 
L 220.373796 13.851872 
L 220.373796 13.848648 
L 220.45596 13.822821 
L 221.024289 13.719497 
L 221.024289 13.713049 
L 221.104522 13.687222 
L 221.816329 13.583915 
L 221.816329 13.57745 
L 221.8943 13.545158 
L 222.433934 13.441852 
L 222.433934 13.435403 
L 222.510169 13.40956 
L 223.037961 13.306253 
L 223.037961 13.299804 
L 223.112535 13.286891 
L 223.774783 13.177119 
L 223.847397 13.164206 
L 224.563112 13.054434 
L 224.633673 13.018918 
L 225.466526 12.909146 
L 225.534794 12.883319 
L 226.008062 12.789684 
L 226.008062 12.773547 
L 226.075001 12.741272 
L 226.670308 12.637948 
L 226.670308 12.6315 
L 226.735665 12.612121 
L 227.252986 12.50559 
L 227.252986 12.502349 
L 227.31697 12.466833 
L 227.823564 12.357078 
L 227.88625 12.334476 
L 228.382538 12.227928 
L 228.382538 12.224704 
L 228.443958 12.205325 
L 228.930381 12.105242 
L 228.930381 12.09557 
L 228.990579 12.072967 
L 229.349047 11.963195 
L 229.408339 11.937369 
L 229.878135 11.834045 
L 229.878135 11.827597 
L 229.936296 11.811459 
L 230.454296 11.704911 
L 230.454296 11.701687 
L 230.511248 11.685533 
L 231.074435 11.575777 
L 231.130121 11.556399 
L 231.626288 11.446627 
L 231.735352 11.414352 
L 232.274232 11.30458 
L 232.380748 11.236772 
L 232.802749 11.133465 
L 232.802749 11.127 
L 232.90724 11.104414 
L 233.423838 11.004315 
L 233.423838 10.994642 
L 233.526009 10.965575 
L 233.930899 10.875181 
L 233.930899 10.855819 
L 234.031198 10.826752 
L 234.478077 10.723445 
L 234.478077 10.71698 
L 234.576399 10.687929 
L 235.014558 10.587846 
L 235.014558 10.578157 
L 235.110995 10.549106 
L 235.588123 10.445782 
L 235.588123 10.439334 
L 235.682569 10.413507 
L 236.196266 10.306959 
L 236.196266 10.303735 
L 236.288629 10.252082 
L 236.700538 10.145534 
L 236.700538 10.14231 
L 236.791224 10.116483 
L 237.284798 10.006711 
L 237.373601 9.97766 
L 237.987253 9.867888 
L 238.073808 9.835596 
L 238.502567 9.735513 
L 238.502567 9.725824 
L 238.587506 9.706462 
L 239.050107 9.59669 
L 239.133386 9.564399 
L 239.54605 9.467557 
L 239.54605 9.454643 
L 239.627837 9.448178 
L 240.113534 9.338406 
L 240.193661 9.315804 
L 240.748066 9.209273 
L 240.748066 9.206032 
L 240.826367 9.183446 
L 241.214542 9.086587 
L 241.214542 9.073674 
L 241.291516 9.047847 
L 241.824437 8.941299 
L 241.824437 8.938075 
L 241.899721 8.912248 
L 242.384168 8.81539 
L 242.384168 8.802476 
L 242.494755 8.763736 
L 243.113175 8.653964 
L 243.220882 8.621672 
L 243.753152 8.515141 
L 243.753152 8.5119 
L 243.85837 8.486074 
L 244.344189 8.392456 
L 244.344189 8.376318 
L 244.412896 8.363405 
L 244.990051 8.253633 
L 245.090652 8.224565 
L 245.719406 8.118034 
L 245.719406 8.114793 
L 245.817381 8.10188 
L 246.429916 7.998573 
L 246.429916 7.992125 
L 246.525387 7.966281 
L 247.153581 7.85975 
L 247.153581 7.856526 
L 247.246579 7.840372 
L 247.979477 7.737065 
L 247.979477 7.7306 
L 248.009593 7.714462 
L 248.810535 7.60469 
L 248.8981 7.582104 
L 249.560361 7.472332 
L 249.645573 7.452954 
L 250.373238 7.343182 
L 250.455975 7.327044 
L 251.350006 7.217272 
L 251.456413 7.188221 
L 252.318986 7.081673 
L 252.318986 7.078449 
L 252.344696 7.06876 
L 253.354261 6.958988 
L 253.453203 6.939626 
L 254.351939 6.829854 
L 254.447366 6.813717 
L 255.337743 6.703945 
L 255.429804 6.684566 
L 256.577403 6.578035 
L 256.577403 6.574794 
L 256.665421 6.555433 
L 257.931888 6.445661 
L 258.036592 6.429523 
L 259.402304 6.322975 
L 259.402304 6.319751 
L 259.501563 6.306838 
L 260.948819 6.197066 
L 261.042647 6.174463 
L 262.749491 6.067915 
L 262.749491 6.064691 
L 262.854919 6.058243 
L 264.784872 5.948471 
L 264.850185 5.935557 
L 266.679837 5.825785 
L 266.695091 5.81932 
L 268.68049 5.709565 
L 268.723019 5.699876 
L 272.316487 5.590104 
L 272.415745 5.583639 
L 277.969959 5.473867 
L 278.020515 5.460953 
L 292.871077 5.351198 
L 292.871077 5.347957 
L 311.831796 5.32213 
L 311.831796 5.318906 
" style="fill:none;stroke:#ff7f0e;stroke-linecap:round;stroke-width:1.5;"/>
   </g>
   <g id="line2d_59">
    <path clip-path="url(#p7969fa4a6b)" d="M -1 104.453727 
L 60.671752 104.453727 
L 60.671752 104.343955 
L 60.671752 67.952118 
L 79.720855 67.952118 
L 79.720855 67.842346 
L 79.720855 49.811086 
L 90.863863 49.811086 
L 90.863863 49.701314 
L 90.863863 39.12147 
L 98.76996 39.12147 
L 98.76996 39.011698 
L 98.76996 32.777429 
L 104.902398 32.777429 
L 104.902398 32.667674 
L 104.902398 29.193776 
L 109.91297 29.193776 
L 109.91297 29.084021 
L 109.91297 26.594831 
L 114.149342 26.594831 
L 114.149342 26.485059 
L 114.149342 24.793324 
L 117.819059 24.793324 
L 117.819059 24.683552 
L 117.819059 23.589072 
L 121.055978 23.585848 
L 121.055978 23.479317 
L 121.055978 22.675414 
L 123.951501 22.675414 
L 123.951501 22.565642 
L 123.951501 21.965128 
L 126.570819 21.965128 
L 126.570819 21.855373 
L 126.570819 21.474403 
L 128.962068 21.474403 
L 128.962068 21.364631 
L 128.962068 21.048229 
L 131.161807 21.048229 
L 131.161807 20.938473 
L 131.161807 20.770583 
L 133.198448 20.770583 
L 133.198448 20.660811 
L 133.198448 20.515539 
L 135.094515 20.515539 
L 135.094515 20.405767 
L 135.094515 20.273393 
L 136.868165 20.273393 
L 136.868165 20.163621 
L 136.868165 20.105502 
L 138.534254 20.105502 
L 138.534254 19.995747 
L 138.534254 19.927939 
L 140.105081 19.927939 
L 140.105081 19.818167 
L 140.105081 19.779427 
L 141.590961 19.779427 
L 141.590961 19.669655 
L 141.590961 19.656742 
L 143.000606 19.656742 
L 143.000606 19.54697 
L 143.000606 19.540521 
L 145.619924 19.437214 
L 145.619924 19.430749 
L 145.619924 19.340356 
L 148.011172 19.262876 
L 148.011172 19.230584 
L 148.011172 19.207981 
L 150.210912 19.117588 
L 150.210912 19.098209 
L 150.210912 19.065934 
L 153.211933 18.981989 
L 153.211933 18.956162 
L 153.211933 18.920646 
L 155.917263 18.823787 
L 155.917263 18.810874 
L 155.917263 18.791496 
L 159.154186 18.694654 
L 159.154186 18.68174 
L 159.154186 18.665586 
L 162.728312 18.559055 
L 162.728312 18.555814 
L 162.728312 18.533228 
L 166.481689 18.423456 
L 166.481689 18.407319 
L 169.26001 18.323373 
L 169.26001 18.297547 
L 169.26001 18.291082 
L 172.730827 18.187775 
L 172.730827 18.18131 
L 172.730827 18.158707 
L 177.429092 18.048952 
L 177.429092 18.039263 
L 180.403023 17.932715 
L 180.403023 17.929491 
L 180.403023 17.913353 
L 182.764897 17.816494 
L 182.764897 17.803581 
L 182.764897 17.784203 
L 185.530787 17.677671 
L 185.530787 17.674431 
L 185.530787 17.651845 
L 187.504703 17.554986 
L 187.504703 17.542073 
L 187.504703 17.538832 
L 189.090639 17.44199 
L 189.090639 17.429077 
L 189.090639 17.425836 
L 190.590038 17.319304 
L 190.590038 17.31608 
L 190.590038 17.299926 
L 192.241815 17.196619 
L 192.241815 17.190154 
L 192.241815 17.18693 
L 194.015466 17.077158 
L 194.015466 17.051331 
L 195.274406 16.954472 
L 195.274406 16.941559 
L 195.274406 16.935111 
L 196.673791 16.831787 
L 196.673791 16.825339 
L 196.673791 16.81565 
L 198.005362 16.722032 
L 198.005362 16.705878 
L 198.005362 16.702653 
L 199.097516 16.605795 
L 199.097516 16.592881 
L 199.097516 16.586433 
L 200.147908 16.496023 
L 200.147908 16.476661 
L 200.147908 16.466972 
L 201.159631 16.373337 
L 201.159631 16.3572 
L 201.159631 16.353976 
L 202.294752 16.244204 
L 202.294752 16.234514 
L 203.839093 16.124742 
L 203.839093 16.11507 
L 204.725685 16.008522 
L 204.725685 16.005298 
L 204.725685 15.998833 
L 205.865 15.889061 
L 205.865 15.872923 
L 206.689523 15.779306 
L 206.689523 15.763151 
L 206.689523 15.759927 
L 207.490028 15.653379 
L 207.490028 15.650155 
L 207.490028 15.637242 
L 208.648685 15.52747 
L 208.648685 15.511332 
L 209.517278 15.408025 
L 209.517278 15.40156 
L 209.517278 15.395112 
L 210.359241 15.288564 
L 210.359241 15.28534 
L 210.359241 15.282099 
L 211.290928 15.175568 
L 211.290928 15.172344 
L 211.290928 15.162654 
L 212.302636 15.062572 
L 212.302636 15.052882 
L 212.412803 15.03028 
L 213.278437 14.926973 
L 213.278437 14.920508 
L 213.384758 14.884992 
L 214.220778 14.775237 
L 214.323505 14.733256 
L 215.131868 14.623484 
L 215.231264 14.597657 
L 215.91712 14.49435 
L 215.91712 14.487885 
L 216.013723 14.462058 
L 216.774518 14.36844 
L 216.774518 14.352286 
L 216.86815 14.332924 
L 217.787374 14.226376 
L 217.787374 14.223152 
L 217.877624 14.207015 
L 218.589176 14.11338 
L 218.589176 14.097243 
L 218.676832 14.077864 
L 219.538409 13.981022 
L 219.538409 13.968109 
L 219.623092 13.948731 
L 220.373796 13.845424 
L 220.373796 13.838959 
L 220.45596 13.809908 
L 221.024289 13.700136 
L 221.104522 13.677533 
L 221.738149 13.57745 
L 221.738149 13.567761 
L 221.816329 13.545158 
L 222.433934 13.438627 
L 222.433934 13.435403 
L 222.510169 13.396646 
L 223.112535 13.286891 
L 223.186916 13.267513 
L 223.847397 13.157741 
L 223.919814 13.148051 
L 224.563112 13.038296 
L 224.633673 13.006004 
L 225.466526 12.899456 
L 225.466526 12.896232 
L 225.534794 12.870406 
L 226.008062 12.780012 
L 226.008062 12.760634 
L 226.075001 12.734807 
L 226.670308 12.6315 
L 226.670308 12.625035 
L 226.735665 12.595984 
L 227.252986 12.486212 
L 227.31697 12.457161 
L 227.823564 12.347389 
L 227.88625 12.318321 
L 228.443958 12.208566 
L 228.505226 12.182739 
L 228.990579 12.072967 
L 229.050654 12.030986 
L 229.467495 11.924455 
L 229.467495 11.921214 
L 229.526546 11.898628 
L 229.994336 11.80177 
L 229.994336 11.788856 
L 230.052254 11.766254 
L 230.624809 11.659706 
L 230.624809 11.656482 
L 230.681416 11.627431 
L 231.241162 11.527348 
L 231.241162 11.517659 
L 231.35175 11.495056 
L 231.789712 11.391749 
L 231.789712 11.385284 
L 231.898127 11.34332 
L 232.380748 11.249686 
L 232.380748 11.233548 
L 232.486857 11.194808 
L 233.011342 11.08826 
L 233.011342 11.085036 
L 233.115051 11.059209 
L 233.576942 10.952661 
L 233.576942 10.949437 
L 233.678536 10.913921 
L 234.081211 10.80739 
L 234.081211 10.804149 
L 234.180967 10.781563 
L 234.576399 10.684705 
L 234.576399 10.671791 
L 234.674375 10.649189 
L 235.110995 10.545882 
L 235.110995 10.539417 
L 235.207083 10.497452 
L 235.776679 10.390905 
L 235.776679 10.38768 
L 235.870478 10.345699 
L 236.334707 10.239168 
L 236.334707 10.235944 
L 236.426617 10.200428 
L 236.881629 10.090656 
L 236.971742 10.051916 
L 237.506248 9.948592 
L 237.506248 9.942144 
L 237.594339 9.916317 
L 238.116988 9.819459 
L 238.116988 9.806545 
L 238.203149 9.787167 
L 238.71445 9.677395 
L 238.798756 9.641896 
L 239.216426 9.538572 
L 239.216426 9.532124 
L 239.299193 9.503056 
L 239.912211 9.393301 
L 239.992912 9.338406 
L 240.551345 9.235099 
L 240.551345 9.228634 
L 240.630206 9.209273 
L 241.098659 9.102725 
L 241.098659 9.099501 
L 241.175964 9.067209 
L 241.711104 8.960678 
L 241.711104 8.957437 
L 241.786704 8.93161 
L 242.273127 8.841216 
L 242.273127 8.821838 
L 242.384168 8.779874 
L 242.968912 8.670102 
L 243.077178 8.647499 
L 243.576861 8.550657 
L 243.576861 8.537744 
L 243.682771 8.515141 
L 244.206248 8.405369 
L 244.309761 8.379542 
L 244.889074 8.26977 
L 244.990051 8.234254 
L 245.588239 8.130948 
L 245.588239 8.124482 
L 245.686666 8.108345 
L 246.334098 8.005038 
L 246.334098 7.998573 
L 246.429916 7.979211 
L 246.997883 7.879112 
L 246.997883 7.869439 
L 247.091408 7.850061 
L 247.858675 7.740289 
L 247.949334 7.724151 
L 248.663964 7.614379 
L 248.722683 7.598242 
L 249.360487 7.491694 
L 249.360487 7.48847 
L 249.417743 7.475556 
L 250.179218 7.369008 
L 250.179218 7.365784 
L 250.290259 7.346423 
L 251.189598 7.239875 
L 251.189598 7.236651 
L 251.296643 7.207583 
L 252.11234 7.097811 
L 252.215851 7.081673 
L 253.205172 6.971901 
L 253.254958 6.958988 
L 254.184154 6.849216 
L 254.280156 6.833078 
L 255.152669 6.723306 
L 255.199064 6.707169 
L 256.22251 6.597397 
L 256.31166 6.584484 
L 257.466454 6.474711 
L 257.572922 6.45535 
L 259.182698 6.345578 
L 259.28274 6.332664 
L 260.570284 6.222892 
L 260.6464 6.206755 
L 262.26998 6.100207 
L 262.26998 6.096983 
L 262.323673 6.090518 
L 263.870657 5.983987 
L 263.870657 5.980746 
L 263.870657 5.977522 
L 266.000091 5.86775 
L 266.109366 5.85806 
L 267.99089 5.748305 
L 268.078032 5.738616 
L 270.84856 5.628844 
L 270.940186 5.619155 
L 275.681552 5.509383 
L 275.681552 5.506158 
L 283.579391 5.396386 
L 283.579391 5.393162 
L 311.822941 5.32213 
L 311.822941 5.318906 
" style="fill:none;stroke:#1f77b4;stroke-linecap:round;stroke-width:1.5;"/>
   </g>
   <g id="patch_3">
    <path d="M 48.11375 287.048906 
L 48.11375 5.318906 
" style="fill:none;stroke:#000000;stroke-linecap:square;stroke-linejoin:miter;stroke-width:0.8;"/>
   </g>
   <g id="patch_4">
    <path d="M 48.11375 287.048906 
L 324.389798 287.048906 
" style="fill:none;stroke:#000000;stroke-linecap:square;stroke-linejoin:miter;stroke-width:0.8;"/>
   </g>
  </g>
  <g id="legend_1">
   <g id="text_14">
    <!-- variable -->
    <g style="fill:#262626;" transform="translate(349.89995 146.967403)scale(0.096 -0.096)">
     <defs>
      <path d="M 3116 1747 
Q 3116 2381 2855 2742 
Q 2594 3103 2138 3103 
Q 1681 3103 1420 2742 
Q 1159 2381 1159 1747 
Q 1159 1113 1420 752 
Q 1681 391 2138 391 
Q 2594 391 2855 752 
Q 3116 1113 3116 1747 
z
M 1159 2969 
Q 1341 3281 1617 3432 
Q 1894 3584 2278 3584 
Q 2916 3584 3314 3078 
Q 3713 2572 3713 1747 
Q 3713 922 3314 415 
Q 2916 -91 2278 -91 
Q 1894 -91 1617 61 
Q 1341 213 1159 525 
L 1159 0 
L 581 0 
L 581 4863 
L 1159 4863 
L 1159 2969 
z
" id="DejaVuSans-62" transform="scale(0.015625)"/>
     </defs>
     <use xlink:href="#DejaVuSans-76"/>
     <use x="59.179688" xlink:href="#DejaVuSans-61"/>
     <use x="120.458984" xlink:href="#DejaVuSans-72"/>
     <use x="161.572266" xlink:href="#DejaVuSans-69"/>
     <use x="189.355469" xlink:href="#DejaVuSans-61"/>
     <use x="250.634766" xlink:href="#DejaVuSans-62"/>
     <use x="314.111328" xlink:href="#DejaVuSans-6c"/>
     <use x="341.894531" xlink:href="#DejaVuSans-65"/>
    </g>
   </g>
   <g id="line2d_60">
    <path d="M 337.09715 160.682691 
L 343.53715 160.682691 
" style="fill:none;stroke:#1f77b4;stroke-linecap:round;stroke-width:1.5;"/>
   </g>
   <g id="line2d_61"/>
   <g id="text_15">
    <!-- cbender -->
    <g style="fill:#262626;" transform="translate(348.68915 165.190691)scale(0.1288 -0.1288)">
     <defs>
      <path d="M 3122 3366 
L 3122 2828 
Q 2878 2963 2633 3030 
Q 2388 3097 2138 3097 
Q 1578 3097 1268 2742 
Q 959 2388 959 1747 
Q 959 1106 1268 751 
Q 1578 397 2138 397 
Q 2388 397 2633 464 
Q 2878 531 3122 666 
L 3122 134 
Q 2881 22 2623 -34 
Q 2366 -91 2075 -91 
Q 1284 -91 818 406 
Q 353 903 353 1747 
Q 353 2603 823 3093 
Q 1294 3584 2113 3584 
Q 2378 3584 2631 3529 
Q 2884 3475 3122 3366 
z
" id="DejaVuSans-63" transform="scale(0.015625)"/>
      <path d="M 2906 2969 
L 2906 4863 
L 3481 4863 
L 3481 0 
L 2906 0 
L 2906 525 
Q 2725 213 2448 61 
Q 2172 -91 1784 -91 
Q 1150 -91 751 415 
Q 353 922 353 1747 
Q 353 2572 751 3078 
Q 1150 3584 1784 3584 
Q 2172 3584 2448 3432 
Q 2725 3281 2906 2969 
z
M 947 1747 
Q 947 1113 1208 752 
Q 1469 391 1925 391 
Q 2381 391 2643 752 
Q 2906 1113 2906 1747 
Q 2906 2381 2643 2742 
Q 2381 3103 1925 3103 
Q 1469 3103 1208 2742 
Q 947 2381 947 1747 
z
" id="DejaVuSans-64" transform="scale(0.015625)"/>
     </defs>
     <use xlink:href="#DejaVuSans-63"/>
     <use x="54.980469" xlink:href="#DejaVuSans-62"/>
     <use x="118.457031" xlink:href="#DejaVuSans-65"/>
     <use x="179.980469" xlink:href="#DejaVuSans-6e"/>
     <use x="243.359375" xlink:href="#DejaVuSans-64"/>
     <use x="306.835938" xlink:href="#DejaVuSans-65"/>
     <use x="368.359375" xlink:href="#DejaVuSans-72"/>
    </g>
   </g>
   <g id="line2d_62">
    <path d="M 337.09715 179.588116 
L 343.53715 179.588116 
" style="fill:none;stroke:#ff7f0e;stroke-linecap:round;stroke-width:1.5;"/>
   </g>
   <g id="line2d_63"/>
   <g id="text_16">
    <!-- umi -->
    <g style="fill:#262626;" transform="translate(348.68915 184.096116)scale(0.1288 -0.1288)">
     <defs>
      <path d="M 3328 2828 
Q 3544 3216 3844 3400 
Q 4144 3584 4550 3584 
Q 5097 3584 5394 3201 
Q 5691 2819 5691 2113 
L 5691 0 
L 5113 0 
L 5113 2094 
Q 5113 2597 4934 2840 
Q 4756 3084 4391 3084 
Q 3944 3084 3684 2787 
Q 3425 2491 3425 1978 
L 3425 0 
L 2847 0 
L 2847 2094 
Q 2847 2600 2669 2842 
Q 2491 3084 2119 3084 
Q 1678 3084 1418 2786 
Q 1159 2488 1159 1978 
L 1159 0 
L 581 0 
L 581 3500 
L 1159 3500 
L 1159 2956 
Q 1356 3278 1631 3431 
Q 1906 3584 2284 3584 
Q 2666 3584 2933 3390 
Q 3200 3197 3328 2828 
z
" id="DejaVuSans-6d" transform="scale(0.015625)"/>
     </defs>
     <use xlink:href="#DejaVuSans-75"/>
     <use x="63.378906" xlink:href="#DejaVuSans-6d"/>
     <use x="160.791016" xlink:href="#DejaVuSans-69"/>
    </g>
   </g>
  </g>
 </g>
 <defs>
  <clipPath id="p7969fa4a6b">
   <rect height="281.73" width="276.276048" x="48.11375" y="5.318906"/>
  </clipPath>
 </defs>
</svg>
