<?xml version="1.0" encoding="utf-8" standalone="no"?>
<!DOCTYPE svg PUBLIC "-//W3C//DTD SVG 1.1//EN"
  "http://www.w3.org/Graphics/SVG/1.1/DTD/svg11.dtd">
<svg height="326.447656pt" version="1.1" viewBox="0 0 413.02475 326.447656" width="413.02475pt" xmlns="http://www.w3.org/2000/svg" xmlns:xlink="http://www.w3.org/1999/xlink">
 <metadata>
  <rdf:RDF xmlns:cc="http://creativecommons.org/ns#" xmlns:dc="http://purl.org/dc/elements/1.1/" xmlns:rdf="http://www.w3.org/1999/02/22-rdf-syntax-ns#">
   <cc:Work>
    <dc:type rdf:resource="http://purl.org/dc/dcmitype/StillImage"/>
    <dc:date>2023-02-20T14:44:49.303659</dc:date>
    <dc:format>image/svg+xml</dc:format>
    <dc:creator>
     <cc:Agent>
      <dc:title>Matplotlib v3.4.3, https://matplotlib.org/</dc:title>
     </cc:Agent>
    </dc:creator>
   </cc:Work>
  </rdf:RDF>
 </metadata>
 <defs>
  <style type="text/css">*{stroke-linecap:butt;stroke-linejoin:round;}</style>
 </defs>
 <g id="figure_1">
  <g id="patch_1">
   <path d="M 0 326.447656 
L 413.02475 326.447656 
L 413.02475 0 
L 0 0 
z
" style="fill:none;"/>
  </g>
  <g id="axes_1">
   <g id="patch_2">
    <path d="M 48.11375 287.048906 
L 324.908648 287.048906 
L 324.908648 5.318906 
L 48.11375 5.318906 
z
" style="fill:none;"/>
   </g>
   <g id="matplotlib.axis_1">
    <g id="xtick_1">
     <g id="line2d_1">
      <path clip-path="url(#pf5a74ed049)" d="M 60.695336 287.048906 
L 60.695336 5.318906 
" style="fill:none;stroke:#cccccc;stroke-linecap:round;stroke-width:0.8;"/>
     </g>
     <g id="line2d_2">
      <defs>
       <path d="M 0 0 
L 0 4.8 
" id="mdcb907e049" style="stroke:#000000;"/>
      </defs>
      <g>
       <use style="stroke:#000000;" x="60.695336" xlink:href="#mdcb907e049" y="287.048906"/>
      </g>
     </g>
     <g id="text_1">
      <!-- $\mathdefault{10^{0}}$ -->
      <g transform="translate(48.375336 305.986719)scale(0.14 -0.14)">
       <defs>
        <path d="M 794 531 
L 1825 531 
L 1825 4091 
L 703 3866 
L 703 4441 
L 1819 4666 
L 2450 4666 
L 2450 531 
L 3481 531 
L 3481 0 
L 794 0 
L 794 531 
z
" id="DejaVuSans-31" transform="scale(0.015625)"/>
        <path d="M 2034 4250 
Q 1547 4250 1301 3770 
Q 1056 3291 1056 2328 
Q 1056 1369 1301 889 
Q 1547 409 2034 409 
Q 2525 409 2770 889 
Q 3016 1369 3016 2328 
Q 3016 3291 2770 3770 
Q 2525 4250 2034 4250 
z
M 2034 4750 
Q 2819 4750 3233 4129 
Q 3647 3509 3647 2328 
Q 3647 1150 3233 529 
Q 2819 -91 2034 -91 
Q 1250 -91 836 529 
Q 422 1150 422 2328 
Q 422 3509 836 4129 
Q 1250 4750 2034 4750 
z
" id="DejaVuSans-30" transform="scale(0.015625)"/>
       </defs>
       <use transform="translate(0 0.765625)" xlink:href="#DejaVuSans-31"/>
       <use transform="translate(63.623047 0.765625)" xlink:href="#DejaVuSans-30"/>
       <use transform="translate(128.203125 39.046875)scale(0.7)" xlink:href="#DejaVuSans-30"/>
      </g>
     </g>
    </g>
    <g id="xtick_2">
     <g id="line2d_3">
      <path clip-path="url(#pf5a74ed049)" d="M 123.974504 287.048906 
L 123.974504 5.318906 
" style="fill:none;stroke:#cccccc;stroke-linecap:round;stroke-width:0.8;"/>
     </g>
     <g id="line2d_4">
      <g>
       <use style="stroke:#000000;" x="123.974504" xlink:href="#mdcb907e049" y="287.048906"/>
      </g>
     </g>
     <g id="text_2">
      <!-- $\mathdefault{10^{1}}$ -->
      <g transform="translate(111.654504 305.986719)scale(0.14 -0.14)">
       <use transform="translate(0 0.684375)" xlink:href="#DejaVuSans-31"/>
       <use transform="translate(63.623047 0.684375)" xlink:href="#DejaVuSans-30"/>
       <use transform="translate(128.203125 38.965625)scale(0.7)" xlink:href="#DejaVuSans-31"/>
      </g>
     </g>
    </g>
    <g id="xtick_3">
     <g id="line2d_5">
      <path clip-path="url(#pf5a74ed049)" d="M 187.253672 287.048906 
L 187.253672 5.318906 
" style="fill:none;stroke:#cccccc;stroke-linecap:round;stroke-width:0.8;"/>
     </g>
     <g id="line2d_6">
      <g>
       <use style="stroke:#000000;" x="187.253672" xlink:href="#mdcb907e049" y="287.048906"/>
      </g>
     </g>
     <g id="text_3">
      <!-- $\mathdefault{10^{2}}$ -->
      <g transform="translate(174.933672 305.986719)scale(0.14 -0.14)">
       <defs>
        <path d="M 1228 531 
L 3431 531 
L 3431 0 
L 469 0 
L 469 531 
Q 828 903 1448 1529 
Q 2069 2156 2228 2338 
Q 2531 2678 2651 2914 
Q 2772 3150 2772 3378 
Q 2772 3750 2511 3984 
Q 2250 4219 1831 4219 
Q 1534 4219 1204 4116 
Q 875 4013 500 3803 
L 500 4441 
Q 881 4594 1212 4672 
Q 1544 4750 1819 4750 
Q 2544 4750 2975 4387 
Q 3406 4025 3406 3419 
Q 3406 3131 3298 2873 
Q 3191 2616 2906 2266 
Q 2828 2175 2409 1742 
Q 1991 1309 1228 531 
z
" id="DejaVuSans-32" transform="scale(0.015625)"/>
       </defs>
       <use transform="translate(0 0.765625)" xlink:href="#DejaVuSans-31"/>
       <use transform="translate(63.623047 0.765625)" xlink:href="#DejaVuSans-30"/>
       <use transform="translate(128.203125 39.046875)scale(0.7)" xlink:href="#DejaVuSans-32"/>
      </g>
     </g>
    </g>
    <g id="xtick_4">
     <g id="line2d_7">
      <path clip-path="url(#pf5a74ed049)" d="M 250.532839 287.048906 
L 250.532839 5.318906 
" style="fill:none;stroke:#cccccc;stroke-linecap:round;stroke-width:0.8;"/>
     </g>
     <g id="line2d_8">
      <g>
       <use style="stroke:#000000;" x="250.532839" xlink:href="#mdcb907e049" y="287.048906"/>
      </g>
     </g>
     <g id="text_4">
      <!-- $\mathdefault{10^{3}}$ -->
      <g transform="translate(238.212839 305.986719)scale(0.14 -0.14)">
       <defs>
        <path d="M 2597 2516 
Q 3050 2419 3304 2112 
Q 3559 1806 3559 1356 
Q 3559 666 3084 287 
Q 2609 -91 1734 -91 
Q 1441 -91 1130 -33 
Q 819 25 488 141 
L 488 750 
Q 750 597 1062 519 
Q 1375 441 1716 441 
Q 2309 441 2620 675 
Q 2931 909 2931 1356 
Q 2931 1769 2642 2001 
Q 2353 2234 1838 2234 
L 1294 2234 
L 1294 2753 
L 1863 2753 
Q 2328 2753 2575 2939 
Q 2822 3125 2822 3475 
Q 2822 3834 2567 4026 
Q 2313 4219 1838 4219 
Q 1578 4219 1281 4162 
Q 984 4106 628 3988 
L 628 4550 
Q 988 4650 1302 4700 
Q 1616 4750 1894 4750 
Q 2613 4750 3031 4423 
Q 3450 4097 3450 3541 
Q 3450 3153 3228 2886 
Q 3006 2619 2597 2516 
z
" id="DejaVuSans-33" transform="scale(0.015625)"/>
       </defs>
       <use transform="translate(0 0.765625)" xlink:href="#DejaVuSans-31"/>
       <use transform="translate(63.623047 0.765625)" xlink:href="#DejaVuSans-30"/>
       <use transform="translate(128.203125 39.046875)scale(0.7)" xlink:href="#DejaVuSans-33"/>
      </g>
     </g>
    </g>
    <g id="xtick_5">
     <g id="line2d_9">
      <path clip-path="url(#pf5a74ed049)" d="M 313.812007 287.048906 
L 313.812007 5.318906 
" style="fill:none;stroke:#cccccc;stroke-linecap:round;stroke-width:0.8;"/>
     </g>
     <g id="line2d_10">
      <g>
       <use style="stroke:#000000;" x="313.812007" xlink:href="#mdcb907e049" y="287.048906"/>
      </g>
     </g>
     <g id="text_5">
      <!-- $\mathdefault{10^{4}}$ -->
      <g transform="translate(301.492007 305.986719)scale(0.14 -0.14)">
       <defs>
        <path d="M 2419 4116 
L 825 1625 
L 2419 1625 
L 2419 4116 
z
M 2253 4666 
L 3047 4666 
L 3047 1625 
L 3713 1625 
L 3713 1100 
L 3047 1100 
L 3047 0 
L 2419 0 
L 2419 1100 
L 313 1100 
L 313 1709 
L 2253 4666 
z
" id="DejaVuSans-34" transform="scale(0.015625)"/>
       </defs>
       <use transform="translate(0 0.684375)" xlink:href="#DejaVuSans-31"/>
       <use transform="translate(63.623047 0.684375)" xlink:href="#DejaVuSans-30"/>
       <use transform="translate(128.203125 38.965625)scale(0.7)" xlink:href="#DejaVuSans-34"/>
      </g>
     </g>
    </g>
    <g id="xtick_6">
     <g id="line2d_11">
      <defs>
       <path d="M 0 0 
L 0 3.2 
" id="m6e7b2ccfba" style="stroke:#000000;stroke-width:0.8;"/>
      </defs>
      <g>
       <use style="stroke:#000000;stroke-width:0.8;" x="50.893269" xlink:href="#m6e7b2ccfba" y="287.048906"/>
      </g>
     </g>
    </g>
    <g id="xtick_7">
     <g id="line2d_12">
      <g>
       <use style="stroke:#000000;stroke-width:0.8;" x="54.562951" xlink:href="#m6e7b2ccfba" y="287.048906"/>
      </g>
     </g>
    </g>
    <g id="xtick_8">
     <g id="line2d_13">
      <g>
       <use style="stroke:#000000;stroke-width:0.8;" x="57.79984" xlink:href="#m6e7b2ccfba" y="287.048906"/>
      </g>
     </g>
    </g>
    <g id="xtick_9">
     <g id="line2d_14">
      <g>
       <use style="stroke:#000000;stroke-width:0.8;" x="79.744264" xlink:href="#m6e7b2ccfba" y="287.048906"/>
      </g>
     </g>
    </g>
    <g id="xtick_10">
     <g id="line2d_15">
      <g>
       <use style="stroke:#000000;stroke-width:0.8;" x="90.887172" xlink:href="#m6e7b2ccfba" y="287.048906"/>
      </g>
     </g>
    </g>
    <g id="xtick_11">
     <g id="line2d_16">
      <g>
       <use style="stroke:#000000;stroke-width:0.8;" x="98.793191" xlink:href="#m6e7b2ccfba" y="287.048906"/>
      </g>
     </g>
    </g>
    <g id="xtick_12">
     <g id="line2d_17">
      <g>
       <use style="stroke:#000000;stroke-width:0.8;" x="104.925576" xlink:href="#m6e7b2ccfba" y="287.048906"/>
      </g>
     </g>
    </g>
    <g id="xtick_13">
     <g id="line2d_18">
      <g>
       <use style="stroke:#000000;stroke-width:0.8;" x="109.9361" xlink:href="#m6e7b2ccfba" y="287.048906"/>
      </g>
     </g>
    </g>
    <g id="xtick_14">
     <g id="line2d_19">
      <g>
       <use style="stroke:#000000;stroke-width:0.8;" x="114.172437" xlink:href="#m6e7b2ccfba" y="287.048906"/>
      </g>
     </g>
    </g>
    <g id="xtick_15">
     <g id="line2d_20">
      <g>
       <use style="stroke:#000000;stroke-width:0.8;" x="117.842119" xlink:href="#m6e7b2ccfba" y="287.048906"/>
      </g>
     </g>
    </g>
    <g id="xtick_16">
     <g id="line2d_21">
      <g>
       <use style="stroke:#000000;stroke-width:0.8;" x="121.079008" xlink:href="#m6e7b2ccfba" y="287.048906"/>
      </g>
     </g>
    </g>
    <g id="xtick_17">
     <g id="line2d_22">
      <g>
       <use style="stroke:#000000;stroke-width:0.8;" x="143.023432" xlink:href="#m6e7b2ccfba" y="287.048906"/>
      </g>
     </g>
    </g>
    <g id="xtick_18">
     <g id="line2d_23">
      <g>
       <use style="stroke:#000000;stroke-width:0.8;" x="154.16634" xlink:href="#m6e7b2ccfba" y="287.048906"/>
      </g>
     </g>
    </g>
    <g id="xtick_19">
     <g id="line2d_24">
      <g>
       <use style="stroke:#000000;stroke-width:0.8;" x="162.072359" xlink:href="#m6e7b2ccfba" y="287.048906"/>
      </g>
     </g>
    </g>
    <g id="xtick_20">
     <g id="line2d_25">
      <g>
       <use style="stroke:#000000;stroke-width:0.8;" x="168.204744" xlink:href="#m6e7b2ccfba" y="287.048906"/>
      </g>
     </g>
    </g>
    <g id="xtick_21">
     <g id="line2d_26">
      <g>
       <use style="stroke:#000000;stroke-width:0.8;" x="173.215267" xlink:href="#m6e7b2ccfba" y="287.048906"/>
      </g>
     </g>
    </g>
    <g id="xtick_22">
     <g id="line2d_27">
      <g>
       <use style="stroke:#000000;stroke-width:0.8;" x="177.451605" xlink:href="#m6e7b2ccfba" y="287.048906"/>
      </g>
     </g>
    </g>
    <g id="xtick_23">
     <g id="line2d_28">
      <g>
       <use style="stroke:#000000;stroke-width:0.8;" x="181.121287" xlink:href="#m6e7b2ccfba" y="287.048906"/>
      </g>
     </g>
    </g>
    <g id="xtick_24">
     <g id="line2d_29">
      <g>
       <use style="stroke:#000000;stroke-width:0.8;" x="184.358176" xlink:href="#m6e7b2ccfba" y="287.048906"/>
      </g>
     </g>
    </g>
    <g id="xtick_25">
     <g id="line2d_30">
      <g>
       <use style="stroke:#000000;stroke-width:0.8;" x="206.302599" xlink:href="#m6e7b2ccfba" y="287.048906"/>
      </g>
     </g>
    </g>
    <g id="xtick_26">
     <g id="line2d_31">
      <g>
       <use style="stroke:#000000;stroke-width:0.8;" x="217.445507" xlink:href="#m6e7b2ccfba" y="287.048906"/>
      </g>
     </g>
    </g>
    <g id="xtick_27">
     <g id="line2d_32">
      <g>
       <use style="stroke:#000000;stroke-width:0.8;" x="225.351527" xlink:href="#m6e7b2ccfba" y="287.048906"/>
      </g>
     </g>
    </g>
    <g id="xtick_28">
     <g id="line2d_33">
      <g>
       <use style="stroke:#000000;stroke-width:0.8;" x="231.483912" xlink:href="#m6e7b2ccfba" y="287.048906"/>
      </g>
     </g>
    </g>
    <g id="xtick_29">
     <g id="line2d_34">
      <g>
       <use style="stroke:#000000;stroke-width:0.8;" x="236.494435" xlink:href="#m6e7b2ccfba" y="287.048906"/>
      </g>
     </g>
    </g>
    <g id="xtick_30">
     <g id="line2d_35">
      <g>
       <use style="stroke:#000000;stroke-width:0.8;" x="240.730772" xlink:href="#m6e7b2ccfba" y="287.048906"/>
      </g>
     </g>
    </g>
    <g id="xtick_31">
     <g id="line2d_36">
      <g>
       <use style="stroke:#000000;stroke-width:0.8;" x="244.400454" xlink:href="#m6e7b2ccfba" y="287.048906"/>
      </g>
     </g>
    </g>
    <g id="xtick_32">
     <g id="line2d_37">
      <g>
       <use style="stroke:#000000;stroke-width:0.8;" x="247.637343" xlink:href="#m6e7b2ccfba" y="287.048906"/>
      </g>
     </g>
    </g>
    <g id="xtick_33">
     <g id="line2d_38">
      <g>
       <use style="stroke:#000000;stroke-width:0.8;" x="269.581767" xlink:href="#m6e7b2ccfba" y="287.048906"/>
      </g>
     </g>
    </g>
    <g id="xtick_34">
     <g id="line2d_39">
      <g>
       <use style="stroke:#000000;stroke-width:0.8;" x="280.724675" xlink:href="#m6e7b2ccfba" y="287.048906"/>
      </g>
     </g>
    </g>
    <g id="xtick_35">
     <g id="line2d_40">
      <g>
       <use style="stroke:#000000;stroke-width:0.8;" x="288.630694" xlink:href="#m6e7b2ccfba" y="287.048906"/>
      </g>
     </g>
    </g>
    <g id="xtick_36">
     <g id="line2d_41">
      <g>
       <use style="stroke:#000000;stroke-width:0.8;" x="294.763079" xlink:href="#m6e7b2ccfba" y="287.048906"/>
      </g>
     </g>
    </g>
    <g id="xtick_37">
     <g id="line2d_42">
      <g>
       <use style="stroke:#000000;stroke-width:0.8;" x="299.773603" xlink:href="#m6e7b2ccfba" y="287.048906"/>
      </g>
     </g>
    </g>
    <g id="xtick_38">
     <g id="line2d_43">
      <g>
       <use style="stroke:#000000;stroke-width:0.8;" x="304.00994" xlink:href="#m6e7b2ccfba" y="287.048906"/>
      </g>
     </g>
    </g>
    <g id="xtick_39">
     <g id="line2d_44">
      <g>
       <use style="stroke:#000000;stroke-width:0.8;" x="307.679622" xlink:href="#m6e7b2ccfba" y="287.048906"/>
      </g>
     </g>
    </g>
    <g id="xtick_40">
     <g id="line2d_45">
      <g>
       <use style="stroke:#000000;stroke-width:0.8;" x="310.916511" xlink:href="#m6e7b2ccfba" y="287.048906"/>
      </g>
     </g>
    </g>
    <g id="text_6">
     <!-- value -->
     <g style="fill:#262626;" transform="translate(167.390261 323.536094)scale(0.14 -0.14)">
      <defs>
       <path d="M 191 3500 
L 800 3500 
L 1894 563 
L 2988 3500 
L 3597 3500 
L 2284 0 
L 1503 0 
L 191 3500 
z
" id="DejaVuSans-76" transform="scale(0.015625)"/>
       <path d="M 2194 1759 
Q 1497 1759 1228 1600 
Q 959 1441 959 1056 
Q 959 750 1161 570 
Q 1363 391 1709 391 
Q 2188 391 2477 730 
Q 2766 1069 2766 1631 
L 2766 1759 
L 2194 1759 
z
M 3341 1997 
L 3341 0 
L 2766 0 
L 2766 531 
Q 2569 213 2275 61 
Q 1981 -91 1556 -91 
Q 1019 -91 701 211 
Q 384 513 384 1019 
Q 384 1609 779 1909 
Q 1175 2209 1959 2209 
L 2766 2209 
L 2766 2266 
Q 2766 2663 2505 2880 
Q 2244 3097 1772 3097 
Q 1472 3097 1187 3025 
Q 903 2953 641 2809 
L 641 3341 
Q 956 3463 1253 3523 
Q 1550 3584 1831 3584 
Q 2591 3584 2966 3190 
Q 3341 2797 3341 1997 
z
" id="DejaVuSans-61" transform="scale(0.015625)"/>
       <path d="M 603 4863 
L 1178 4863 
L 1178 0 
L 603 0 
L 603 4863 
z
" id="DejaVuSans-6c" transform="scale(0.015625)"/>
       <path d="M 544 1381 
L 544 3500 
L 1119 3500 
L 1119 1403 
Q 1119 906 1312 657 
Q 1506 409 1894 409 
Q 2359 409 2629 706 
Q 2900 1003 2900 1516 
L 2900 3500 
L 3475 3500 
L 3475 0 
L 2900 0 
L 2900 538 
Q 2691 219 2414 64 
Q 2138 -91 1772 -91 
Q 1169 -91 856 284 
Q 544 659 544 1381 
z
M 1991 3584 
L 1991 3584 
z
" id="DejaVuSans-75" transform="scale(0.015625)"/>
       <path d="M 3597 1894 
L 3597 1613 
L 953 1613 
Q 991 1019 1311 708 
Q 1631 397 2203 397 
Q 2534 397 2845 478 
Q 3156 559 3463 722 
L 3463 178 
Q 3153 47 2828 -22 
Q 2503 -91 2169 -91 
Q 1331 -91 842 396 
Q 353 884 353 1716 
Q 353 2575 817 3079 
Q 1281 3584 2069 3584 
Q 2775 3584 3186 3129 
Q 3597 2675 3597 1894 
z
M 3022 2063 
Q 3016 2534 2758 2815 
Q 2500 3097 2075 3097 
Q 1594 3097 1305 2825 
Q 1016 2553 972 2059 
L 3022 2063 
z
" id="DejaVuSans-65" transform="scale(0.015625)"/>
      </defs>
      <use xlink:href="#DejaVuSans-76"/>
      <use x="59.179688" xlink:href="#DejaVuSans-61"/>
      <use x="120.458984" xlink:href="#DejaVuSans-6c"/>
      <use x="148.242188" xlink:href="#DejaVuSans-75"/>
      <use x="211.621094" xlink:href="#DejaVuSans-65"/>
     </g>
    </g>
   </g>
   <g id="matplotlib.axis_2">
    <g id="ytick_1">
     <g id="line2d_46">
      <path clip-path="url(#pf5a74ed049)" d="M 48.11375 287.048906 
L 324.908648 287.048906 
" style="fill:none;stroke:#cccccc;stroke-linecap:round;stroke-width:0.8;"/>
     </g>
     <g id="line2d_47">
      <defs>
       <path d="M 0 0 
L -4.8 0 
" id="meed3a29d20" style="stroke:#000000;"/>
      </defs>
      <g>
       <use style="stroke:#000000;" x="48.11375" xlink:href="#meed3a29d20" y="287.048906"/>
      </g>
     </g>
     <g id="text_7">
      <!-- 0.0 -->
      <g transform="translate(17.549375 292.367812)scale(0.14 -0.14)">
       <defs>
        <path d="M 684 794 
L 1344 794 
L 1344 0 
L 684 0 
L 684 794 
z
" id="DejaVuSans-2e" transform="scale(0.015625)"/>
       </defs>
       <use xlink:href="#DejaVuSans-30"/>
       <use x="63.623047" xlink:href="#DejaVuSans-2e"/>
       <use x="95.410156" xlink:href="#DejaVuSans-30"/>
      </g>
     </g>
    </g>
    <g id="ytick_2">
     <g id="line2d_48">
      <path clip-path="url(#pf5a74ed049)" d="M 48.11375 230.702906 
L 324.908648 230.702906 
" style="fill:none;stroke:#cccccc;stroke-linecap:round;stroke-width:0.8;"/>
     </g>
     <g id="line2d_49">
      <g>
       <use style="stroke:#000000;" x="48.11375" xlink:href="#meed3a29d20" y="230.702906"/>
      </g>
     </g>
     <g id="text_8">
      <!-- 0.2 -->
      <g transform="translate(17.549375 236.021812)scale(0.14 -0.14)">
       <use xlink:href="#DejaVuSans-30"/>
       <use x="63.623047" xlink:href="#DejaVuSans-2e"/>
       <use x="95.410156" xlink:href="#DejaVuSans-32"/>
      </g>
     </g>
    </g>
    <g id="ytick_3">
     <g id="line2d_50">
      <path clip-path="url(#pf5a74ed049)" d="M 48.11375 174.356906 
L 324.908648 174.356906 
" style="fill:none;stroke:#cccccc;stroke-linecap:round;stroke-width:0.8;"/>
     </g>
     <g id="line2d_51">
      <g>
       <use style="stroke:#000000;" x="48.11375" xlink:href="#meed3a29d20" y="174.356906"/>
      </g>
     </g>
     <g id="text_9">
      <!-- 0.4 -->
      <g transform="translate(17.549375 179.675812)scale(0.14 -0.14)">
       <use xlink:href="#DejaVuSans-30"/>
       <use x="63.623047" xlink:href="#DejaVuSans-2e"/>
       <use x="95.410156" xlink:href="#DejaVuSans-34"/>
      </g>
     </g>
    </g>
    <g id="ytick_4">
     <g id="line2d_52">
      <path clip-path="url(#pf5a74ed049)" d="M 48.11375 118.010906 
L 324.908648 118.010906 
" style="fill:none;stroke:#cccccc;stroke-linecap:round;stroke-width:0.8;"/>
     </g>
     <g id="line2d_53">
      <g>
       <use style="stroke:#000000;" x="48.11375" xlink:href="#meed3a29d20" y="118.010906"/>
      </g>
     </g>
     <g id="text_10">
      <!-- 0.6 -->
      <g transform="translate(17.549375 123.329812)scale(0.14 -0.14)">
       <defs>
        <path d="M 2113 2584 
Q 1688 2584 1439 2293 
Q 1191 2003 1191 1497 
Q 1191 994 1439 701 
Q 1688 409 2113 409 
Q 2538 409 2786 701 
Q 3034 994 3034 1497 
Q 3034 2003 2786 2293 
Q 2538 2584 2113 2584 
z
M 3366 4563 
L 3366 3988 
Q 3128 4100 2886 4159 
Q 2644 4219 2406 4219 
Q 1781 4219 1451 3797 
Q 1122 3375 1075 2522 
Q 1259 2794 1537 2939 
Q 1816 3084 2150 3084 
Q 2853 3084 3261 2657 
Q 3669 2231 3669 1497 
Q 3669 778 3244 343 
Q 2819 -91 2113 -91 
Q 1303 -91 875 529 
Q 447 1150 447 2328 
Q 447 3434 972 4092 
Q 1497 4750 2381 4750 
Q 2619 4750 2861 4703 
Q 3103 4656 3366 4563 
z
" id="DejaVuSans-36" transform="scale(0.015625)"/>
       </defs>
       <use xlink:href="#DejaVuSans-30"/>
       <use x="63.623047" xlink:href="#DejaVuSans-2e"/>
       <use x="95.410156" xlink:href="#DejaVuSans-36"/>
      </g>
     </g>
    </g>
    <g id="ytick_5">
     <g id="line2d_54">
      <path clip-path="url(#pf5a74ed049)" d="M 48.11375 61.664906 
L 324.908648 61.664906 
" style="fill:none;stroke:#cccccc;stroke-linecap:round;stroke-width:0.8;"/>
     </g>
     <g id="line2d_55">
      <g>
       <use style="stroke:#000000;" x="48.11375" xlink:href="#meed3a29d20" y="61.664906"/>
      </g>
     </g>
     <g id="text_11">
      <!-- 0.8 -->
      <g transform="translate(17.549375 66.983812)scale(0.14 -0.14)">
       <defs>
        <path d="M 2034 2216 
Q 1584 2216 1326 1975 
Q 1069 1734 1069 1313 
Q 1069 891 1326 650 
Q 1584 409 2034 409 
Q 2484 409 2743 651 
Q 3003 894 3003 1313 
Q 3003 1734 2745 1975 
Q 2488 2216 2034 2216 
z
M 1403 2484 
Q 997 2584 770 2862 
Q 544 3141 544 3541 
Q 544 4100 942 4425 
Q 1341 4750 2034 4750 
Q 2731 4750 3128 4425 
Q 3525 4100 3525 3541 
Q 3525 3141 3298 2862 
Q 3072 2584 2669 2484 
Q 3125 2378 3379 2068 
Q 3634 1759 3634 1313 
Q 3634 634 3220 271 
Q 2806 -91 2034 -91 
Q 1263 -91 848 271 
Q 434 634 434 1313 
Q 434 1759 690 2068 
Q 947 2378 1403 2484 
z
M 1172 3481 
Q 1172 3119 1398 2916 
Q 1625 2713 2034 2713 
Q 2441 2713 2670 2916 
Q 2900 3119 2900 3481 
Q 2900 3844 2670 4047 
Q 2441 4250 2034 4250 
Q 1625 4250 1398 4047 
Q 1172 3844 1172 3481 
z
" id="DejaVuSans-38" transform="scale(0.015625)"/>
       </defs>
       <use xlink:href="#DejaVuSans-30"/>
       <use x="63.623047" xlink:href="#DejaVuSans-2e"/>
       <use x="95.410156" xlink:href="#DejaVuSans-38"/>
      </g>
     </g>
    </g>
    <g id="ytick_6">
     <g id="line2d_56">
      <path clip-path="url(#pf5a74ed049)" d="M 48.11375 5.318906 
L 324.908648 5.318906 
" style="fill:none;stroke:#cccccc;stroke-linecap:round;stroke-width:0.8;"/>
     </g>
     <g id="line2d_57">
      <g>
       <use style="stroke:#000000;" x="48.11375" xlink:href="#meed3a29d20" y="5.318906"/>
      </g>
     </g>
     <g id="text_12">
      <!-- 1.0 -->
      <g transform="translate(17.549375 10.637812)scale(0.14 -0.14)">
       <use xlink:href="#DejaVuSans-31"/>
       <use x="63.623047" xlink:href="#DejaVuSans-2e"/>
       <use x="95.410156" xlink:href="#DejaVuSans-30"/>
      </g>
     </g>
    </g>
    <g id="text_13">
     <!-- Proportion -->
     <g style="fill:#262626;" transform="translate(10.637812 182.298437)rotate(-90)scale(0.14 -0.14)">
      <defs>
       <path d="M 1259 4147 
L 1259 2394 
L 2053 2394 
Q 2494 2394 2734 2622 
Q 2975 2850 2975 3272 
Q 2975 3691 2734 3919 
Q 2494 4147 2053 4147 
L 1259 4147 
z
M 628 4666 
L 2053 4666 
Q 2838 4666 3239 4311 
Q 3641 3956 3641 3272 
Q 3641 2581 3239 2228 
Q 2838 1875 2053 1875 
L 1259 1875 
L 1259 0 
L 628 0 
L 628 4666 
z
" id="DejaVuSans-50" transform="scale(0.015625)"/>
       <path d="M 2631 2963 
Q 2534 3019 2420 3045 
Q 2306 3072 2169 3072 
Q 1681 3072 1420 2755 
Q 1159 2438 1159 1844 
L 1159 0 
L 581 0 
L 581 3500 
L 1159 3500 
L 1159 2956 
Q 1341 3275 1631 3429 
Q 1922 3584 2338 3584 
Q 2397 3584 2469 3576 
Q 2541 3569 2628 3553 
L 2631 2963 
z
" id="DejaVuSans-72" transform="scale(0.015625)"/>
       <path d="M 1959 3097 
Q 1497 3097 1228 2736 
Q 959 2375 959 1747 
Q 959 1119 1226 758 
Q 1494 397 1959 397 
Q 2419 397 2687 759 
Q 2956 1122 2956 1747 
Q 2956 2369 2687 2733 
Q 2419 3097 1959 3097 
z
M 1959 3584 
Q 2709 3584 3137 3096 
Q 3566 2609 3566 1747 
Q 3566 888 3137 398 
Q 2709 -91 1959 -91 
Q 1206 -91 779 398 
Q 353 888 353 1747 
Q 353 2609 779 3096 
Q 1206 3584 1959 3584 
z
" id="DejaVuSans-6f" transform="scale(0.015625)"/>
       <path d="M 1159 525 
L 1159 -1331 
L 581 -1331 
L 581 3500 
L 1159 3500 
L 1159 2969 
Q 1341 3281 1617 3432 
Q 1894 3584 2278 3584 
Q 2916 3584 3314 3078 
Q 3713 2572 3713 1747 
Q 3713 922 3314 415 
Q 2916 -91 2278 -91 
Q 1894 -91 1617 61 
Q 1341 213 1159 525 
z
M 3116 1747 
Q 3116 2381 2855 2742 
Q 2594 3103 2138 3103 
Q 1681 3103 1420 2742 
Q 1159 2381 1159 1747 
Q 1159 1113 1420 752 
Q 1681 391 2138 391 
Q 2594 391 2855 752 
Q 3116 1113 3116 1747 
z
" id="DejaVuSans-70" transform="scale(0.015625)"/>
       <path d="M 1172 4494 
L 1172 3500 
L 2356 3500 
L 2356 3053 
L 1172 3053 
L 1172 1153 
Q 1172 725 1289 603 
Q 1406 481 1766 481 
L 2356 481 
L 2356 0 
L 1766 0 
Q 1100 0 847 248 
Q 594 497 594 1153 
L 594 3053 
L 172 3053 
L 172 3500 
L 594 3500 
L 594 4494 
L 1172 4494 
z
" id="DejaVuSans-74" transform="scale(0.015625)"/>
       <path d="M 603 3500 
L 1178 3500 
L 1178 0 
L 603 0 
L 603 3500 
z
M 603 4863 
L 1178 4863 
L 1178 4134 
L 603 4134 
L 603 4863 
z
" id="DejaVuSans-69" transform="scale(0.015625)"/>
       <path d="M 3513 2113 
L 3513 0 
L 2938 0 
L 2938 2094 
Q 2938 2591 2744 2837 
Q 2550 3084 2163 3084 
Q 1697 3084 1428 2787 
Q 1159 2491 1159 1978 
L 1159 0 
L 581 0 
L 581 3500 
L 1159 3500 
L 1159 2956 
Q 1366 3272 1645 3428 
Q 1925 3584 2291 3584 
Q 2894 3584 3203 3211 
Q 3513 2838 3513 2113 
z
" id="DejaVuSans-6e" transform="scale(0.015625)"/>
      </defs>
      <use xlink:href="#DejaVuSans-50"/>
      <use x="58.552734" xlink:href="#DejaVuSans-72"/>
      <use x="97.416016" xlink:href="#DejaVuSans-6f"/>
      <use x="158.597656" xlink:href="#DejaVuSans-70"/>
      <use x="222.074219" xlink:href="#DejaVuSans-6f"/>
      <use x="283.255859" xlink:href="#DejaVuSans-72"/>
      <use x="324.369141" xlink:href="#DejaVuSans-74"/>
      <use x="363.578125" xlink:href="#DejaVuSans-69"/>
      <use x="391.361328" xlink:href="#DejaVuSans-6f"/>
      <use x="452.542969" xlink:href="#DejaVuSans-6e"/>
     </g>
    </g>
   </g>
   <g id="line2d_58">
    <path clip-path="url(#pf5a74ed049)" d="M -1 163.351398 
L 60.695336 163.351398 
L 60.695336 163.241374 
L 60.695336 107.158229 
L 79.744264 107.158229 
L 79.744264 107.048222 
L 79.744264 72.659704 
L 90.88717 72.659704 
L 90.88717 72.549697 
L 90.88717 51.607354 
L 98.793195 51.607354 
L 98.793195 51.49733 
L 98.793195 37.920342 
L 104.925576 37.920342 
L 104.925576 37.810318 
L 104.925576 29.08607 
L 109.936102 29.08607 
L 109.936102 28.976063 
L 109.936102 23.329378 
L 114.172435 23.329378 
L 114.172435 23.21937 
L 114.172435 19.71659 
L 117.842119 19.71659 
L 117.842119 19.606566 
L 117.842119 17.192085 
L 121.079008 17.192085 
L 121.079008 17.082061 
L 121.079008 15.443659 
L 123.974504 15.443659 
L 123.974504 15.333652 
L 123.974504 14.165067 
L 126.593799 14.165067 
L 126.593799 14.055043 
L 126.593799 13.237337 
L 128.985025 13.237337 
L 128.985025 13.127313 
L 128.985025 12.52072 
L 131.184744 12.52072 
L 131.184744 12.410696 
L 131.184744 12.006301 
L 133.221366 12.006301 
L 133.221366 11.896278 
L 133.221366 11.652452 
L 135.117416 11.652452 
L 135.117416 11.542445 
L 135.117416 11.346192 
L 136.89105 11.346192 
L 136.89105 11.236168 
L 136.89105 11.117227 
L 138.557123 11.117227 
L 138.557123 11.007203 
L 138.557123 10.929891 
L 140.127936 10.929891 
L 140.127936 10.819884 
L 140.127936 10.793117 
L 141.613803 10.793117 
L 141.613803 10.683093 
L 141.613803 10.641464 
L 144.36427 10.552263 
L 144.36427 10.53144 
L 144.36427 10.445211 
L 146.86434 10.367899 
L 146.86434 10.335204 
L 146.86434 10.305465 
L 149.155819 10.237069 
L 149.155819 10.195441 
L 149.155819 10.162729 
L 152.270296 10.061639 
L 152.270296 10.052722 
L 152.270296 10.028927 
L 155.067466 9.924848 
L 155.067466 9.918903 
L 155.067466 9.895125 
L 159.176866 9.788074 
L 159.176866 9.785101 
L 159.176866 9.75239 
L 162.750959 9.642366 
L 162.750959 9.633449 
L 167.082885 9.529386 
L 167.082885 9.523425 
L 167.082885 9.514508 
L 170.31977 9.410446 
L 170.31977 9.404484 
L 170.31977 9.395568 
L 174.988905 9.294477 
L 174.988905 9.285561 
L 174.988905 9.279599 
L 179.711655 9.175537 
L 179.711655 9.169592 
L 179.711655 9.16662 
L 185.84404 9.059568 
L 185.84404 9.056596 
L 185.84404 9.050651 
L 190.368142 8.9436 
L 190.368142 8.940627 
L 190.368142 8.934683 
L 195.501078 8.827631 
L 195.501078 8.824659 
L 195.501078 8.821687 
L 199.650044 8.714635 
L 199.650044 8.711663 
L 199.650044 8.708691 
L 203.710766 8.598667 
L 203.710766 8.595694 
L 207.248016 8.485687 
L 207.248016 8.467837 
L 210.262731 8.357813 
L 210.262731 8.351869 
L 213.618336 8.241861 
L 213.723432 8.229956 
L 216.035882 8.119949 
L 216.035882 8.116959 
L 218.698966 8.006952 
L 218.698966 7.995047 
L 222.302931 7.885039 
L 222.379589 7.876123 
L 224.72612 7.769071 
L 224.72612 7.766099 
L 224.72612 7.763126 
L 226.757725 7.659047 
L 226.757725 7.653103 
L 226.757725 7.65013 
L 228.95242 7.540106 
L 229.012618 7.522273 
L 230.759941 7.412249 
L 230.816305 7.406304 
L 233.137053 7.299253 
L 233.137053 7.29628 
L 233.188756 7.290336 
L 235.181059 7.180312 
L 235.276982 7.165451 
L 236.903595 7.055427 
L 236.993708 7.049482 
L 238.651837 6.939458 
L 238.736399 6.933514 
L 241.00422 6.82349 
L 241.08186 6.817545 
L 242.443001 6.707522 
L 242.51667 6.698605 
L 243.985113 6.588598 
L 244.089528 6.576692 
L 245.773998 6.466685 
L 245.871853 6.454779 
L 247.819953 6.344755 
L 247.819953 6.332866 
L 249.553742 6.222842 
L 249.639044 6.210953 
L 251.584264 6.100929 
L 251.689855 6.08904 
L 253.964466 5.981988 
L 253.964466 5.979016 
L 254.03714 5.973072 
L 257.700775 5.863065 
L 257.764217 5.857103 
L 260.014249 5.747096 
L 260.014249 5.744124 
L 263.688808 5.6341 
L 263.722829 5.628155 
L 268.716345 5.518131 
L 268.716345 5.512187 
L 277.159489 5.402163 
L 277.159489 5.399191 
L 312.327062 5.321879 
L 312.327062 5.318906 
" style="fill:none;stroke:#ff7f0e;stroke-linecap:round;stroke-width:1.5;"/>
   </g>
   <g id="line2d_59">
    <path clip-path="url(#pf5a74ed049)" d="M -1 111.344915 
L 60.695336 111.344915 
L 60.695336 111.234908 
L 60.695336 78.24691 
L 79.744264 78.24691 
L 79.744264 78.136887 
L 79.744264 56.168695 
L 90.88717 56.168695 
L 90.88717 56.058671 
L 90.88717 41.322015 
L 98.793195 41.322015 
L 98.793195 41.211991 
L 98.793195 31.265642 
L 104.925576 31.265642 
L 104.925576 31.155634 
L 104.925576 24.578246 
L 109.936102 24.578246 
L 109.936102 24.468239 
L 109.936102 20.266676 
L 114.172435 20.266676 
L 114.172435 20.156669 
L 114.172435 17.37346 
L 117.842119 17.37346 
L 117.842119 17.263453 
L 117.842119 15.526932 
L 121.079008 15.526932 
L 121.079008 15.416908 
L 121.079008 14.165067 
L 123.974504 14.165067 
L 123.974504 14.055043 
L 123.974504 13.174886 
L 126.593799 13.174886 
L 126.593799 13.064862 
L 126.593799 12.482064 
L 128.985025 12.482064 
L 128.985025 12.37204 
L 128.985025 11.896278 
L 131.184744 11.896278 
L 131.184744 11.78627 
L 131.184744 11.468104 
L 133.221366 11.468104 
L 133.221366 11.358081 
L 133.221366 11.158855 
L 135.117416 11.158855 
L 135.117416 11.048831 
L 135.117416 10.941797 
L 136.89105 10.941797 
L 136.89105 10.831773 
L 136.89105 10.769322 
L 138.557123 10.769322 
L 138.557123 10.659315 
L 138.557123 10.60578 
L 141.613803 10.501718 
L 141.613803 10.495773 
L 141.613803 10.382777 
L 144.36427 10.29952 
L 144.36427 10.272753 
L 144.36427 10.195441 
L 148.033955 10.085417 
L 148.033955 10.034872 
L 151.270848 9.936754 
L 151.270848 9.924848 
L 151.270848 9.895125 
L 154.166338 9.811868 
L 154.166338 9.785101 
L 154.166338 9.773212 
L 158.40268 9.666161 
L 158.40268 9.663188 
L 158.40268 9.633449 
L 163.4132 9.523425 
L 163.4132 9.493703 
L 167.649535 9.407473 
L 167.649535 9.383679 
L 167.649535 9.380706 
L 172.28359 9.282571 
L 172.28359 9.270682 
L 172.28359 9.26771 
L 177.451605 9.157686 
L 177.451605 9.148769 
L 184.051116 9.038746 
L 184.051116 9.035773 
L 188.594507 8.925766 
L 188.594507 8.922794 
L 194.2517 8.81277 
L 194.2517 8.809798 
L 199.119829 8.702746 
L 199.119829 8.699774 
L 199.119829 8.687885 
L 203.407096 8.577861 
L 203.407096 8.571916 
L 207.114934 8.461892 
L 207.114934 8.455948 
L 209.782697 8.345924 
L 209.782697 8.337007 
L 213.512833 8.226983 
L 213.618336 8.20915 
L 216.035882 8.099126 
L 216.035882 8.096154 
L 218.523368 7.98613 
L 218.523368 7.983157 
L 221.994148 7.873134 
L 222.071664 7.864217 
L 224.72612 7.757182 
L 224.72612 7.754193 
L 224.796318 7.748248 
L 226.887971 7.638241 
L 226.887971 7.635269 
L 228.95242 7.525245 
L 229.012618 7.516328 
L 230.70344 7.406304 
L 230.759941 7.40036 
L 233.137053 7.290336 
L 233.137053 7.284391 
L 235.229065 7.174368 
L 235.324823 7.144628 
L 237.395564 7.037593 
L 237.395564 7.034621 
L 237.484064 7.019743 
L 239.072054 6.909736 
L 239.072054 6.906747 
L 241.390205 6.79674 
L 241.466756 6.775917 
L 242.990823 6.665893 
L 243.063044 6.654004 
L 244.571677 6.54398 
L 244.673905 6.526147 
L 246.451795 6.416123 
L 246.515476 6.410178 
L 248.360594 6.300154 
L 248.449667 6.282321 
L 250.256643 6.172297 
L 250.339787 6.166352 
L 252.494758 6.059301 
L 252.494758 6.056328 
L 252.596927 6.044439 
L 255.35954 5.937388 
L 255.35954 5.934415 
L 255.382577 5.928471 
L 258.759892 5.818447 
L 258.759892 5.815475 
L 261.026899 5.705468 
L 261.08313 5.696534 
L 265.880651 5.586527 
L 265.927784 5.577593 
L 271.066181 5.467586 
L 271.066181 5.464614 
L 282.41229 5.35459 
L 282.41229 5.351618 
L 312.324164 5.321879 
L 312.324164 5.318906 
" style="fill:none;stroke:#1f77b4;stroke-linecap:round;stroke-width:1.5;"/>
   </g>
   <g id="patch_3">
    <path d="M 48.11375 287.048906 
L 48.11375 5.318906 
" style="fill:none;stroke:#000000;stroke-linecap:square;stroke-linejoin:miter;stroke-width:0.8;"/>
   </g>
   <g id="patch_4">
    <path d="M 48.11375 287.048906 
L 324.908648 287.048906 
" style="fill:none;stroke:#000000;stroke-linecap:square;stroke-linejoin:miter;stroke-width:0.8;"/>
   </g>
  </g>
  <g id="legend_1">
   <g id="text_14">
    <!-- variable -->
    <g style="fill:#262626;" transform="translate(349.89995 146.967403)scale(0.096 -0.096)">
     <defs>
      <path d="M 3116 1747 
Q 3116 2381 2855 2742 
Q 2594 3103 2138 3103 
Q 1681 3103 1420 2742 
Q 1159 2381 1159 1747 
Q 1159 1113 1420 752 
Q 1681 391 2138 391 
Q 2594 391 2855 752 
Q 3116 1113 3116 1747 
z
M 1159 2969 
Q 1341 3281 1617 3432 
Q 1894 3584 2278 3584 
Q 2916 3584 3314 3078 
Q 3713 2572 3713 1747 
Q 3713 922 3314 415 
Q 2916 -91 2278 -91 
Q 1894 -91 1617 61 
Q 1341 213 1159 525 
L 1159 0 
L 581 0 
L 581 4863 
L 1159 4863 
L 1159 2969 
z
" id="DejaVuSans-62" transform="scale(0.015625)"/>
     </defs>
     <use xlink:href="#DejaVuSans-76"/>
     <use x="59.179688" xlink:href="#DejaVuSans-61"/>
     <use x="120.458984" xlink:href="#DejaVuSans-72"/>
     <use x="161.572266" xlink:href="#DejaVuSans-69"/>
     <use x="189.355469" xlink:href="#DejaVuSans-61"/>
     <use x="250.634766" xlink:href="#DejaVuSans-62"/>
     <use x="314.111328" xlink:href="#DejaVuSans-6c"/>
     <use x="341.894531" xlink:href="#DejaVuSans-65"/>
    </g>
   </g>
   <g id="line2d_60">
    <path d="M 337.09715 160.682691 
L 343.53715 160.682691 
" style="fill:none;stroke:#1f77b4;stroke-linecap:round;stroke-width:1.5;"/>
   </g>
   <g id="line2d_61"/>
   <g id="text_15">
    <!-- cbender -->
    <g style="fill:#262626;" transform="translate(348.68915 165.190691)scale(0.1288 -0.1288)">
     <defs>
      <path d="M 3122 3366 
L 3122 2828 
Q 2878 2963 2633 3030 
Q 2388 3097 2138 3097 
Q 1578 3097 1268 2742 
Q 959 2388 959 1747 
Q 959 1106 1268 751 
Q 1578 397 2138 397 
Q 2388 397 2633 464 
Q 2878 531 3122 666 
L 3122 134 
Q 2881 22 2623 -34 
Q 2366 -91 2075 -91 
Q 1284 -91 818 406 
Q 353 903 353 1747 
Q 353 2603 823 3093 
Q 1294 3584 2113 3584 
Q 2378 3584 2631 3529 
Q 2884 3475 3122 3366 
z
" id="DejaVuSans-63" transform="scale(0.015625)"/>
      <path d="M 2906 2969 
L 2906 4863 
L 3481 4863 
L 3481 0 
L 2906 0 
L 2906 525 
Q 2725 213 2448 61 
Q 2172 -91 1784 -91 
Q 1150 -91 751 415 
Q 353 922 353 1747 
Q 353 2572 751 3078 
Q 1150 3584 1784 3584 
Q 2172 3584 2448 3432 
Q 2725 3281 2906 2969 
z
M 947 1747 
Q 947 1113 1208 752 
Q 1469 391 1925 391 
Q 2381 391 2643 752 
Q 2906 1113 2906 1747 
Q 2906 2381 2643 2742 
Q 2381 3103 1925 3103 
Q 1469 3103 1208 2742 
Q 947 2381 947 1747 
z
" id="DejaVuSans-64" transform="scale(0.015625)"/>
     </defs>
     <use xlink:href="#DejaVuSans-63"/>
     <use x="54.980469" xlink:href="#DejaVuSans-62"/>
     <use x="118.457031" xlink:href="#DejaVuSans-65"/>
     <use x="179.980469" xlink:href="#DejaVuSans-6e"/>
     <use x="243.359375" xlink:href="#DejaVuSans-64"/>
     <use x="306.835938" xlink:href="#DejaVuSans-65"/>
     <use x="368.359375" xlink:href="#DejaVuSans-72"/>
    </g>
   </g>
   <g id="line2d_62">
    <path d="M 337.09715 179.588116 
L 343.53715 179.588116 
" style="fill:none;stroke:#ff7f0e;stroke-linecap:round;stroke-width:1.5;"/>
   </g>
   <g id="line2d_63"/>
   <g id="text_16">
    <!-- umi -->
    <g style="fill:#262626;" transform="translate(348.68915 184.096116)scale(0.1288 -0.1288)">
     <defs>
      <path d="M 3328 2828 
Q 3544 3216 3844 3400 
Q 4144 3584 4550 3584 
Q 5097 3584 5394 3201 
Q 5691 2819 5691 2113 
L 5691 0 
L 5113 0 
L 5113 2094 
Q 5113 2597 4934 2840 
Q 4756 3084 4391 3084 
Q 3944 3084 3684 2787 
Q 3425 2491 3425 1978 
L 3425 0 
L 2847 0 
L 2847 2094 
Q 2847 2600 2669 2842 
Q 2491 3084 2119 3084 
Q 1678 3084 1418 2786 
Q 1159 2488 1159 1978 
L 1159 0 
L 581 0 
L 581 3500 
L 1159 3500 
L 1159 2956 
Q 1356 3278 1631 3431 
Q 1906 3584 2284 3584 
Q 2666 3584 2933 3390 
Q 3200 3197 3328 2828 
z
" id="DejaVuSans-6d" transform="scale(0.015625)"/>
     </defs>
     <use xlink:href="#DejaVuSans-75"/>
     <use x="63.378906" xlink:href="#DejaVuSans-6d"/>
     <use x="160.791016" xlink:href="#DejaVuSans-69"/>
    </g>
   </g>
  </g>
 </g>
 <defs>
  <clipPath id="pf5a74ed049">
   <rect height="281.73" width="276.794898" x="48.11375" y="5.318906"/>
  </clipPath>
 </defs>
</svg>
