<?xml version="1.0" encoding="utf-8" standalone="no"?>
<!DOCTYPE svg PUBLIC "-//W3C//DTD SVG 1.1//EN"
  "http://www.w3.org/Graphics/SVG/1.1/DTD/svg11.dtd">
<svg height="326.447656pt" version="1.1" viewBox="0 0 413.02475 326.447656" width="413.02475pt" xmlns="http://www.w3.org/2000/svg" xmlns:xlink="http://www.w3.org/1999/xlink">
 <metadata>
  <rdf:RDF xmlns:cc="http://creativecommons.org/ns#" xmlns:dc="http://purl.org/dc/elements/1.1/" xmlns:rdf="http://www.w3.org/1999/02/22-rdf-syntax-ns#">
   <cc:Work>
    <dc:type rdf:resource="http://purl.org/dc/dcmitype/StillImage"/>
    <dc:date>2023-02-20T14:44:51.837051</dc:date>
    <dc:format>image/svg+xml</dc:format>
    <dc:creator>
     <cc:Agent>
      <dc:title>Matplotlib v3.4.3, https://matplotlib.org/</dc:title>
     </cc:Agent>
    </dc:creator>
   </cc:Work>
  </rdf:RDF>
 </metadata>
 <defs>
  <style type="text/css">*{stroke-linecap:butt;stroke-linejoin:round;}</style>
 </defs>
 <g id="figure_1">
  <g id="patch_1">
   <path d="M 0 326.447656 
L 413.02475 326.447656 
L 413.02475 0 
L 0 0 
z
" style="fill:none;"/>
  </g>
  <g id="axes_1">
   <g id="patch_2">
    <path d="M 48.11375 287.048906 
L 325.566915 287.048906 
L 325.566915 5.318906 
L 48.11375 5.318906 
z
" style="fill:none;"/>
   </g>
   <g id="matplotlib.axis_1">
    <g id="xtick_1">
     <g id="line2d_1">
      <path clip-path="url(#pc43ae33d07)" d="M 60.725257 287.048906 
L 60.725257 5.318906 
" style="fill:none;stroke:#cccccc;stroke-linecap:round;stroke-width:0.8;"/>
     </g>
     <g id="line2d_2">
      <defs>
       <path d="M 0 0 
L 0 4.8 
" id="mc03ee89eaf" style="stroke:#000000;"/>
      </defs>
      <g>
       <use style="stroke:#000000;" x="60.725257" xlink:href="#mc03ee89eaf" y="287.048906"/>
      </g>
     </g>
     <g id="text_1">
      <!-- $\mathdefault{10^{0}}$ -->
      <g transform="translate(48.405257 305.986719)scale(0.14 -0.14)">
       <defs>
        <path d="M 794 531 
L 1825 531 
L 1825 4091 
L 703 3866 
L 703 4441 
L 1819 4666 
L 2450 4666 
L 2450 531 
L 3481 531 
L 3481 0 
L 794 0 
L 794 531 
z
" id="DejaVuSans-31" transform="scale(0.015625)"/>
        <path d="M 2034 4250 
Q 1547 4250 1301 3770 
Q 1056 3291 1056 2328 
Q 1056 1369 1301 889 
Q 1547 409 2034 409 
Q 2525 409 2770 889 
Q 3016 1369 3016 2328 
Q 3016 3291 2770 3770 
Q 2525 4250 2034 4250 
z
M 2034 4750 
Q 2819 4750 3233 4129 
Q 3647 3509 3647 2328 
Q 3647 1150 3233 529 
Q 2819 -91 2034 -91 
Q 1250 -91 836 529 
Q 422 1150 422 2328 
Q 422 3509 836 4129 
Q 1250 4750 2034 4750 
z
" id="DejaVuSans-30" transform="scale(0.015625)"/>
       </defs>
       <use transform="translate(0 0.765625)" xlink:href="#DejaVuSans-31"/>
       <use transform="translate(63.623047 0.765625)" xlink:href="#DejaVuSans-30"/>
       <use transform="translate(128.203125 39.046875)scale(0.7)" xlink:href="#DejaVuSans-30"/>
      </g>
     </g>
    </g>
    <g id="xtick_2">
     <g id="line2d_3">
      <path clip-path="url(#pc43ae33d07)" d="M 173.300396 287.048906 
L 173.300396 5.318906 
" style="fill:none;stroke:#cccccc;stroke-linecap:round;stroke-width:0.8;"/>
     </g>
     <g id="line2d_4">
      <g>
       <use style="stroke:#000000;" x="173.300396" xlink:href="#mc03ee89eaf" y="287.048906"/>
      </g>
     </g>
     <g id="text_2">
      <!-- $\mathdefault{10^{1}}$ -->
      <g transform="translate(160.980396 305.986719)scale(0.14 -0.14)">
       <use transform="translate(0 0.684375)" xlink:href="#DejaVuSans-31"/>
       <use transform="translate(63.623047 0.684375)" xlink:href="#DejaVuSans-30"/>
       <use transform="translate(128.203125 38.965625)scale(0.7)" xlink:href="#DejaVuSans-31"/>
      </g>
     </g>
    </g>
    <g id="xtick_3">
     <g id="line2d_5">
      <path clip-path="url(#pc43ae33d07)" d="M 285.875534 287.048906 
L 285.875534 5.318906 
" style="fill:none;stroke:#cccccc;stroke-linecap:round;stroke-width:0.8;"/>
     </g>
     <g id="line2d_6">
      <g>
       <use style="stroke:#000000;" x="285.875534" xlink:href="#mc03ee89eaf" y="287.048906"/>
      </g>
     </g>
     <g id="text_3">
      <!-- $\mathdefault{10^{2}}$ -->
      <g transform="translate(273.555534 305.986719)scale(0.14 -0.14)">
       <defs>
        <path d="M 1228 531 
L 3431 531 
L 3431 0 
L 469 0 
L 469 531 
Q 828 903 1448 1529 
Q 2069 2156 2228 2338 
Q 2531 2678 2651 2914 
Q 2772 3150 2772 3378 
Q 2772 3750 2511 3984 
Q 2250 4219 1831 4219 
Q 1534 4219 1204 4116 
Q 875 4013 500 3803 
L 500 4441 
Q 881 4594 1212 4672 
Q 1544 4750 1819 4750 
Q 2544 4750 2975 4387 
Q 3406 4025 3406 3419 
Q 3406 3131 3298 2873 
Q 3191 2616 2906 2266 
Q 2828 2175 2409 1742 
Q 1991 1309 1228 531 
z
" id="DejaVuSans-32" transform="scale(0.015625)"/>
       </defs>
       <use transform="translate(0 0.765625)" xlink:href="#DejaVuSans-31"/>
       <use transform="translate(63.623047 0.765625)" xlink:href="#DejaVuSans-30"/>
       <use transform="translate(128.203125 39.046875)scale(0.7)" xlink:href="#DejaVuSans-32"/>
      </g>
     </g>
    </g>
    <g id="xtick_4">
     <g id="line2d_7">
      <defs>
       <path d="M 0 0 
L 0 3.2 
" id="m38c4091785" style="stroke:#000000;stroke-width:0.8;"/>
      </defs>
      <g>
       <use style="stroke:#000000;stroke-width:0.8;" x="49.815599" xlink:href="#m38c4091785" y="287.048906"/>
      </g>
     </g>
    </g>
    <g id="xtick_5">
     <g id="line2d_8">
      <g>
       <use style="stroke:#000000;stroke-width:0.8;" x="55.574102" xlink:href="#m38c4091785" y="287.048906"/>
      </g>
     </g>
    </g>
    <g id="xtick_6">
     <g id="line2d_9">
      <g>
       <use style="stroke:#000000;stroke-width:0.8;" x="94.613751" xlink:href="#m38c4091785" y="287.048906"/>
      </g>
     </g>
    </g>
    <g id="xtick_7">
     <g id="line2d_10">
      <g>
       <use style="stroke:#000000;stroke-width:0.8;" x="114.437249" xlink:href="#m38c4091785" y="287.048906"/>
      </g>
     </g>
    </g>
    <g id="xtick_8">
     <g id="line2d_11">
      <g>
       <use style="stroke:#000000;stroke-width:0.8;" x="128.502244" xlink:href="#m38c4091785" y="287.048906"/>
      </g>
     </g>
    </g>
    <g id="xtick_9">
     <g id="line2d_12">
      <g>
       <use style="stroke:#000000;stroke-width:0.8;" x="139.411902" xlink:href="#m38c4091785" y="287.048906"/>
      </g>
     </g>
    </g>
    <g id="xtick_10">
     <g id="line2d_13">
      <g>
       <use style="stroke:#000000;stroke-width:0.8;" x="148.325742" xlink:href="#m38c4091785" y="287.048906"/>
      </g>
     </g>
    </g>
    <g id="xtick_11">
     <g id="line2d_14">
      <g>
       <use style="stroke:#000000;stroke-width:0.8;" x="155.862286" xlink:href="#m38c4091785" y="287.048906"/>
      </g>
     </g>
    </g>
    <g id="xtick_12">
     <g id="line2d_15">
      <g>
       <use style="stroke:#000000;stroke-width:0.8;" x="162.390738" xlink:href="#m38c4091785" y="287.048906"/>
      </g>
     </g>
    </g>
    <g id="xtick_13">
     <g id="line2d_16">
      <g>
       <use style="stroke:#000000;stroke-width:0.8;" x="168.14924" xlink:href="#m38c4091785" y="287.048906"/>
      </g>
     </g>
    </g>
    <g id="xtick_14">
     <g id="line2d_17">
      <g>
       <use style="stroke:#000000;stroke-width:0.8;" x="207.188889" xlink:href="#m38c4091785" y="287.048906"/>
      </g>
     </g>
    </g>
    <g id="xtick_15">
     <g id="line2d_18">
      <g>
       <use style="stroke:#000000;stroke-width:0.8;" x="227.012387" xlink:href="#m38c4091785" y="287.048906"/>
      </g>
     </g>
    </g>
    <g id="xtick_16">
     <g id="line2d_19">
      <g>
       <use style="stroke:#000000;stroke-width:0.8;" x="241.077383" xlink:href="#m38c4091785" y="287.048906"/>
      </g>
     </g>
    </g>
    <g id="xtick_17">
     <g id="line2d_20">
      <g>
       <use style="stroke:#000000;stroke-width:0.8;" x="251.987041" xlink:href="#m38c4091785" y="287.048906"/>
      </g>
     </g>
    </g>
    <g id="xtick_18">
     <g id="line2d_21">
      <g>
       <use style="stroke:#000000;stroke-width:0.8;" x="260.90088" xlink:href="#m38c4091785" y="287.048906"/>
      </g>
     </g>
    </g>
    <g id="xtick_19">
     <g id="line2d_22">
      <g>
       <use style="stroke:#000000;stroke-width:0.8;" x="268.437424" xlink:href="#m38c4091785" y="287.048906"/>
      </g>
     </g>
    </g>
    <g id="xtick_20">
     <g id="line2d_23">
      <g>
       <use style="stroke:#000000;stroke-width:0.8;" x="274.965876" xlink:href="#m38c4091785" y="287.048906"/>
      </g>
     </g>
    </g>
    <g id="xtick_21">
     <g id="line2d_24">
      <g>
       <use style="stroke:#000000;stroke-width:0.8;" x="280.724378" xlink:href="#m38c4091785" y="287.048906"/>
      </g>
     </g>
    </g>
    <g id="xtick_22">
     <g id="line2d_25">
      <g>
       <use style="stroke:#000000;stroke-width:0.8;" x="319.764027" xlink:href="#m38c4091785" y="287.048906"/>
      </g>
     </g>
    </g>
    <g id="text_4">
     <!-- value -->
     <g style="fill:#262626;" transform="translate(167.719395 323.536094)scale(0.14 -0.14)">
      <defs>
       <path d="M 191 3500 
L 800 3500 
L 1894 563 
L 2988 3500 
L 3597 3500 
L 2284 0 
L 1503 0 
L 191 3500 
z
" id="DejaVuSans-76" transform="scale(0.015625)"/>
       <path d="M 2194 1759 
Q 1497 1759 1228 1600 
Q 959 1441 959 1056 
Q 959 750 1161 570 
Q 1363 391 1709 391 
Q 2188 391 2477 730 
Q 2766 1069 2766 1631 
L 2766 1759 
L 2194 1759 
z
M 3341 1997 
L 3341 0 
L 2766 0 
L 2766 531 
Q 2569 213 2275 61 
Q 1981 -91 1556 -91 
Q 1019 -91 701 211 
Q 384 513 384 1019 
Q 384 1609 779 1909 
Q 1175 2209 1959 2209 
L 2766 2209 
L 2766 2266 
Q 2766 2663 2505 2880 
Q 2244 3097 1772 3097 
Q 1472 3097 1187 3025 
Q 903 2953 641 2809 
L 641 3341 
Q 956 3463 1253 3523 
Q 1550 3584 1831 3584 
Q 2591 3584 2966 3190 
Q 3341 2797 3341 1997 
z
" id="DejaVuSans-61" transform="scale(0.015625)"/>
       <path d="M 603 4863 
L 1178 4863 
L 1178 0 
L 603 0 
L 603 4863 
z
" id="DejaVuSans-6c" transform="scale(0.015625)"/>
       <path d="M 544 1381 
L 544 3500 
L 1119 3500 
L 1119 1403 
Q 1119 906 1312 657 
Q 1506 409 1894 409 
Q 2359 409 2629 706 
Q 2900 1003 2900 1516 
L 2900 3500 
L 3475 3500 
L 3475 0 
L 2900 0 
L 2900 538 
Q 2691 219 2414 64 
Q 2138 -91 1772 -91 
Q 1169 -91 856 284 
Q 544 659 544 1381 
z
M 1991 3584 
L 1991 3584 
z
" id="DejaVuSans-75" transform="scale(0.015625)"/>
       <path d="M 3597 1894 
L 3597 1613 
L 953 1613 
Q 991 1019 1311 708 
Q 1631 397 2203 397 
Q 2534 397 2845 478 
Q 3156 559 3463 722 
L 3463 178 
Q 3153 47 2828 -22 
Q 2503 -91 2169 -91 
Q 1331 -91 842 396 
Q 353 884 353 1716 
Q 353 2575 817 3079 
Q 1281 3584 2069 3584 
Q 2775 3584 3186 3129 
Q 3597 2675 3597 1894 
z
M 3022 2063 
Q 3016 2534 2758 2815 
Q 2500 3097 2075 3097 
Q 1594 3097 1305 2825 
Q 1016 2553 972 2059 
L 3022 2063 
z
" id="DejaVuSans-65" transform="scale(0.015625)"/>
      </defs>
      <use xlink:href="#DejaVuSans-76"/>
      <use x="59.179688" xlink:href="#DejaVuSans-61"/>
      <use x="120.458984" xlink:href="#DejaVuSans-6c"/>
      <use x="148.242188" xlink:href="#DejaVuSans-75"/>
      <use x="211.621094" xlink:href="#DejaVuSans-65"/>
     </g>
    </g>
   </g>
   <g id="matplotlib.axis_2">
    <g id="ytick_1">
     <g id="line2d_26">
      <path clip-path="url(#pc43ae33d07)" d="M 48.11375 287.048906 
L 325.566915 287.048906 
" style="fill:none;stroke:#cccccc;stroke-linecap:round;stroke-width:0.8;"/>
     </g>
     <g id="line2d_27">
      <defs>
       <path d="M 0 0 
L -4.8 0 
" id="mcc634d9565" style="stroke:#000000;"/>
      </defs>
      <g>
       <use style="stroke:#000000;" x="48.11375" xlink:href="#mcc634d9565" y="287.048906"/>
      </g>
     </g>
     <g id="text_5">
      <!-- 0.0 -->
      <g transform="translate(17.549375 292.367812)scale(0.14 -0.14)">
       <defs>
        <path d="M 684 794 
L 1344 794 
L 1344 0 
L 684 0 
L 684 794 
z
" id="DejaVuSans-2e" transform="scale(0.015625)"/>
       </defs>
       <use xlink:href="#DejaVuSans-30"/>
       <use x="63.623047" xlink:href="#DejaVuSans-2e"/>
       <use x="95.410156" xlink:href="#DejaVuSans-30"/>
      </g>
     </g>
    </g>
    <g id="ytick_2">
     <g id="line2d_28">
      <path clip-path="url(#pc43ae33d07)" d="M 48.11375 230.702906 
L 325.566915 230.702906 
" style="fill:none;stroke:#cccccc;stroke-linecap:round;stroke-width:0.8;"/>
     </g>
     <g id="line2d_29">
      <g>
       <use style="stroke:#000000;" x="48.11375" xlink:href="#mcc634d9565" y="230.702906"/>
      </g>
     </g>
     <g id="text_6">
      <!-- 0.2 -->
      <g transform="translate(17.549375 236.021812)scale(0.14 -0.14)">
       <use xlink:href="#DejaVuSans-30"/>
       <use x="63.623047" xlink:href="#DejaVuSans-2e"/>
       <use x="95.410156" xlink:href="#DejaVuSans-32"/>
      </g>
     </g>
    </g>
    <g id="ytick_3">
     <g id="line2d_30">
      <path clip-path="url(#pc43ae33d07)" d="M 48.11375 174.356906 
L 325.566915 174.356906 
" style="fill:none;stroke:#cccccc;stroke-linecap:round;stroke-width:0.8;"/>
     </g>
     <g id="line2d_31">
      <g>
       <use style="stroke:#000000;" x="48.11375" xlink:href="#mcc634d9565" y="174.356906"/>
      </g>
     </g>
     <g id="text_7">
      <!-- 0.4 -->
      <g transform="translate(17.549375 179.675812)scale(0.14 -0.14)">
       <defs>
        <path d="M 2419 4116 
L 825 1625 
L 2419 1625 
L 2419 4116 
z
M 2253 4666 
L 3047 4666 
L 3047 1625 
L 3713 1625 
L 3713 1100 
L 3047 1100 
L 3047 0 
L 2419 0 
L 2419 1100 
L 313 1100 
L 313 1709 
L 2253 4666 
z
" id="DejaVuSans-34" transform="scale(0.015625)"/>
       </defs>
       <use xlink:href="#DejaVuSans-30"/>
       <use x="63.623047" xlink:href="#DejaVuSans-2e"/>
       <use x="95.410156" xlink:href="#DejaVuSans-34"/>
      </g>
     </g>
    </g>
    <g id="ytick_4">
     <g id="line2d_32">
      <path clip-path="url(#pc43ae33d07)" d="M 48.11375 118.010906 
L 325.566915 118.010906 
" style="fill:none;stroke:#cccccc;stroke-linecap:round;stroke-width:0.8;"/>
     </g>
     <g id="line2d_33">
      <g>
       <use style="stroke:#000000;" x="48.11375" xlink:href="#mcc634d9565" y="118.010906"/>
      </g>
     </g>
     <g id="text_8">
      <!-- 0.6 -->
      <g transform="translate(17.549375 123.329812)scale(0.14 -0.14)">
       <defs>
        <path d="M 2113 2584 
Q 1688 2584 1439 2293 
Q 1191 2003 1191 1497 
Q 1191 994 1439 701 
Q 1688 409 2113 409 
Q 2538 409 2786 701 
Q 3034 994 3034 1497 
Q 3034 2003 2786 2293 
Q 2538 2584 2113 2584 
z
M 3366 4563 
L 3366 3988 
Q 3128 4100 2886 4159 
Q 2644 4219 2406 4219 
Q 1781 4219 1451 3797 
Q 1122 3375 1075 2522 
Q 1259 2794 1537 2939 
Q 1816 3084 2150 3084 
Q 2853 3084 3261 2657 
Q 3669 2231 3669 1497 
Q 3669 778 3244 343 
Q 2819 -91 2113 -91 
Q 1303 -91 875 529 
Q 447 1150 447 2328 
Q 447 3434 972 4092 
Q 1497 4750 2381 4750 
Q 2619 4750 2861 4703 
Q 3103 4656 3366 4563 
z
" id="DejaVuSans-36" transform="scale(0.015625)"/>
       </defs>
       <use xlink:href="#DejaVuSans-30"/>
       <use x="63.623047" xlink:href="#DejaVuSans-2e"/>
       <use x="95.410156" xlink:href="#DejaVuSans-36"/>
      </g>
     </g>
    </g>
    <g id="ytick_5">
     <g id="line2d_34">
      <path clip-path="url(#pc43ae33d07)" d="M 48.11375 61.664906 
L 325.566915 61.664906 
" style="fill:none;stroke:#cccccc;stroke-linecap:round;stroke-width:0.8;"/>
     </g>
     <g id="line2d_35">
      <g>
       <use style="stroke:#000000;" x="48.11375" xlink:href="#mcc634d9565" y="61.664906"/>
      </g>
     </g>
     <g id="text_9">
      <!-- 0.8 -->
      <g transform="translate(17.549375 66.983812)scale(0.14 -0.14)">
       <defs>
        <path d="M 2034 2216 
Q 1584 2216 1326 1975 
Q 1069 1734 1069 1313 
Q 1069 891 1326 650 
Q 1584 409 2034 409 
Q 2484 409 2743 651 
Q 3003 894 3003 1313 
Q 3003 1734 2745 1975 
Q 2488 2216 2034 2216 
z
M 1403 2484 
Q 997 2584 770 2862 
Q 544 3141 544 3541 
Q 544 4100 942 4425 
Q 1341 4750 2034 4750 
Q 2731 4750 3128 4425 
Q 3525 4100 3525 3541 
Q 3525 3141 3298 2862 
Q 3072 2584 2669 2484 
Q 3125 2378 3379 2068 
Q 3634 1759 3634 1313 
Q 3634 634 3220 271 
Q 2806 -91 2034 -91 
Q 1263 -91 848 271 
Q 434 634 434 1313 
Q 434 1759 690 2068 
Q 947 2378 1403 2484 
z
M 1172 3481 
Q 1172 3119 1398 2916 
Q 1625 2713 2034 2713 
Q 2441 2713 2670 2916 
Q 2900 3119 2900 3481 
Q 2900 3844 2670 4047 
Q 2441 4250 2034 4250 
Q 1625 4250 1398 4047 
Q 1172 3844 1172 3481 
z
" id="DejaVuSans-38" transform="scale(0.015625)"/>
       </defs>
       <use xlink:href="#DejaVuSans-30"/>
       <use x="63.623047" xlink:href="#DejaVuSans-2e"/>
       <use x="95.410156" xlink:href="#DejaVuSans-38"/>
      </g>
     </g>
    </g>
    <g id="ytick_6">
     <g id="line2d_36">
      <path clip-path="url(#pc43ae33d07)" d="M 48.11375 5.318906 
L 325.566915 5.318906 
" style="fill:none;stroke:#cccccc;stroke-linecap:round;stroke-width:0.8;"/>
     </g>
     <g id="line2d_37">
      <g>
       <use style="stroke:#000000;" x="48.11375" xlink:href="#mcc634d9565" y="5.318906"/>
      </g>
     </g>
     <g id="text_10">
      <!-- 1.0 -->
      <g transform="translate(17.549375 10.637812)scale(0.14 -0.14)">
       <use xlink:href="#DejaVuSans-31"/>
       <use x="63.623047" xlink:href="#DejaVuSans-2e"/>
       <use x="95.410156" xlink:href="#DejaVuSans-30"/>
      </g>
     </g>
    </g>
    <g id="text_11">
     <!-- Proportion -->
     <g style="fill:#262626;" transform="translate(10.637812 182.298437)rotate(-90)scale(0.14 -0.14)">
      <defs>
       <path d="M 1259 4147 
L 1259 2394 
L 2053 2394 
Q 2494 2394 2734 2622 
Q 2975 2850 2975 3272 
Q 2975 3691 2734 3919 
Q 2494 4147 2053 4147 
L 1259 4147 
z
M 628 4666 
L 2053 4666 
Q 2838 4666 3239 4311 
Q 3641 3956 3641 3272 
Q 3641 2581 3239 2228 
Q 2838 1875 2053 1875 
L 1259 1875 
L 1259 0 
L 628 0 
L 628 4666 
z
" id="DejaVuSans-50" transform="scale(0.015625)"/>
       <path d="M 2631 2963 
Q 2534 3019 2420 3045 
Q 2306 3072 2169 3072 
Q 1681 3072 1420 2755 
Q 1159 2438 1159 1844 
L 1159 0 
L 581 0 
L 581 3500 
L 1159 3500 
L 1159 2956 
Q 1341 3275 1631 3429 
Q 1922 3584 2338 3584 
Q 2397 3584 2469 3576 
Q 2541 3569 2628 3553 
L 2631 2963 
z
" id="DejaVuSans-72" transform="scale(0.015625)"/>
       <path d="M 1959 3097 
Q 1497 3097 1228 2736 
Q 959 2375 959 1747 
Q 959 1119 1226 758 
Q 1494 397 1959 397 
Q 2419 397 2687 759 
Q 2956 1122 2956 1747 
Q 2956 2369 2687 2733 
Q 2419 3097 1959 3097 
z
M 1959 3584 
Q 2709 3584 3137 3096 
Q 3566 2609 3566 1747 
Q 3566 888 3137 398 
Q 2709 -91 1959 -91 
Q 1206 -91 779 398 
Q 353 888 353 1747 
Q 353 2609 779 3096 
Q 1206 3584 1959 3584 
z
" id="DejaVuSans-6f" transform="scale(0.015625)"/>
       <path d="M 1159 525 
L 1159 -1331 
L 581 -1331 
L 581 3500 
L 1159 3500 
L 1159 2969 
Q 1341 3281 1617 3432 
Q 1894 3584 2278 3584 
Q 2916 3584 3314 3078 
Q 3713 2572 3713 1747 
Q 3713 922 3314 415 
Q 2916 -91 2278 -91 
Q 1894 -91 1617 61 
Q 1341 213 1159 525 
z
M 3116 1747 
Q 3116 2381 2855 2742 
Q 2594 3103 2138 3103 
Q 1681 3103 1420 2742 
Q 1159 2381 1159 1747 
Q 1159 1113 1420 752 
Q 1681 391 2138 391 
Q 2594 391 2855 752 
Q 3116 1113 3116 1747 
z
" id="DejaVuSans-70" transform="scale(0.015625)"/>
       <path d="M 1172 4494 
L 1172 3500 
L 2356 3500 
L 2356 3053 
L 1172 3053 
L 1172 1153 
Q 1172 725 1289 603 
Q 1406 481 1766 481 
L 2356 481 
L 2356 0 
L 1766 0 
Q 1100 0 847 248 
Q 594 497 594 1153 
L 594 3053 
L 172 3053 
L 172 3500 
L 594 3500 
L 594 4494 
L 1172 4494 
z
" id="DejaVuSans-74" transform="scale(0.015625)"/>
       <path d="M 603 3500 
L 1178 3500 
L 1178 0 
L 603 0 
L 603 3500 
z
M 603 4863 
L 1178 4863 
L 1178 4134 
L 603 4134 
L 603 4863 
z
" id="DejaVuSans-69" transform="scale(0.015625)"/>
       <path d="M 3513 2113 
L 3513 0 
L 2938 0 
L 2938 2094 
Q 2938 2591 2744 2837 
Q 2550 3084 2163 3084 
Q 1697 3084 1428 2787 
Q 1159 2491 1159 1978 
L 1159 0 
L 581 0 
L 581 3500 
L 1159 3500 
L 1159 2956 
Q 1366 3272 1645 3428 
Q 1925 3584 2291 3584 
Q 2894 3584 3203 3211 
Q 3513 2838 3513 2113 
z
" id="DejaVuSans-6e" transform="scale(0.015625)"/>
      </defs>
      <use xlink:href="#DejaVuSans-50"/>
      <use x="58.552734" xlink:href="#DejaVuSans-72"/>
      <use x="97.416016" xlink:href="#DejaVuSans-6f"/>
      <use x="158.597656" xlink:href="#DejaVuSans-70"/>
      <use x="222.074219" xlink:href="#DejaVuSans-6f"/>
      <use x="283.255859" xlink:href="#DejaVuSans-72"/>
      <use x="324.369141" xlink:href="#DejaVuSans-74"/>
      <use x="363.578125" xlink:href="#DejaVuSans-69"/>
      <use x="391.361328" xlink:href="#DejaVuSans-6f"/>
      <use x="452.542969" xlink:href="#DejaVuSans-6e"/>
     </g>
    </g>
   </g>
   <g id="line2d_38">
    <path clip-path="url(#pc43ae33d07)" d="M -1 46.341285 
L 60.725257 46.341285 
L 60.725257 46.231261 
L 60.725257 37.60812 
L 94.613751 37.60812 
L 94.613751 37.498097 
L 94.613751 33.805008 
L 114.437245 33.805008 
L 114.437245 33.695 
L 114.437245 31.643286 
L 128.50225 31.643286 
L 128.50225 31.533262 
L 128.50225 29.98705 
L 139.411902 29.98705 
L 139.411902 29.877026 
L 139.411902 28.565706 
L 148.325746 28.565706 
L 148.325746 28.455699 
L 148.325746 27.153296 
L 155.862283 27.153296 
L 155.862283 27.043289 
L 155.862283 25.734942 
L 162.390738 25.734942 
L 162.390738 25.624918 
L 162.390738 24.197646 
L 168.14924 24.197646 
L 168.14924 24.087622 
L 168.14924 22.853615 
L 173.300396 22.853615 
L 173.300396 22.743608 
L 173.300396 21.497711 
L 177.960183 21.497711 
L 177.960183 21.387687 
L 177.960183 20.24587 
L 182.214232 20.24587 
L 182.214232 20.135846 
L 182.214232 19.047546 
L 186.127584 19.047546 
L 186.127584 18.937523 
L 186.127584 17.905729 
L 189.750783 17.905729 
L 189.750783 17.795705 
L 189.750783 16.856086 
L 193.1239 16.856086 
L 193.1239 16.746062 
L 193.1239 15.827248 
L 196.279237 15.827248 
L 196.279237 15.717224 
L 196.279237 14.837066 
L 199.24322 14.837066 
L 199.24322 14.727059 
L 199.24322 13.936103 
L 202.037733 13.936103 
L 202.037733 13.826079 
L 202.037733 13.115424 
L 204.681126 13.115424 
L 204.681126 13.0054 
L 204.681126 12.336356 
L 207.188894 12.336356 
L 207.188894 12.226349 
L 207.188894 11.720847 
L 209.574273 11.720847 
L 209.574273 11.610823 
L 209.574273 11.066682 
L 211.848681 11.066682 
L 211.848681 10.956658 
L 211.848681 10.454145 
L 214.021957 10.454145 
L 214.021957 10.344121 
L 214.021957 9.981354 
L 216.102729 9.981354 
L 216.102729 9.87133 
L 216.102729 9.526397 
L 218.098551 9.526397 
L 218.098551 9.41639 
L 218.098551 9.11903 
L 220.016081 9.11903 
L 220.016081 9.009023 
L 220.016081 8.756264 
L 221.861238 8.756264 
L 221.861238 8.646256 
L 221.861238 8.378636 
L 223.63928 8.378636 
L 223.63928 8.268612 
L 223.63928 8.069387 
L 225.354921 8.069387 
L 225.354921 7.959379 
L 225.354921 7.783932 
L 227.012384 7.783932 
L 227.012384 7.673908 
L 227.012384 7.554984 
L 228.615512 7.554984 
L 228.615512 7.444961 
L 228.615512 7.352787 
L 230.167722 7.352787 
L 230.167722 7.242763 
L 230.167722 7.150573 
L 231.672174 7.150573 
L 231.672174 7.040566 
L 231.672174 6.992993 
L 233.131703 6.992993 
L 233.131703 6.882969 
L 233.131703 6.850257 
L 234.548936 6.850257 
L 234.548936 6.740233 
L 234.548936 6.7224 
L 237.265788 6.615348 
L 237.265788 6.612376 
L 237.265788 6.514258 
L 239.839571 6.404234 
L 239.839571 6.31206 
L 242.284628 6.246637 
L 242.284628 6.202036 
L 242.284628 6.166352 
L 245.737166 6.056328 
L 245.737166 6.005783 
L 248.961913 5.922526 
L 248.961913 5.895759 
L 248.961913 5.880898 
L 251.987037 5.776819 
L 251.987037 5.770874 
L 251.987037 5.723301 
L 257.527766 5.61625 
L 257.527766 5.613277 
L 257.527766 5.586527 
L 264.056224 5.497309 
L 264.056224 5.476503 
L 264.056224 5.473531 
L 282.327502 5.366479 
L 282.327502 5.363507 
L 282.327502 5.360535 
L 312.955407 5.321879 
L 312.955407 5.318906 
" style="fill:none;stroke:#ff7f0e;stroke-linecap:round;stroke-width:1.5;"/>
   </g>
   <g id="line2d_39">
    <path clip-path="url(#pc43ae33d07)" d="M -1 39.749036 
L 60.725257 39.749036 
L 60.725257 39.639012 
L 60.725257 34.937925 
L 94.613751 34.937925 
L 94.613751 34.827901 
L 94.613751 32.651301 
L 114.437245 32.651301 
L 114.437245 32.541277 
L 114.437245 31.087239 
L 128.50225 31.087239 
L 128.50225 30.977215 
L 128.50225 29.582655 
L 139.411902 29.582655 
L 139.411902 29.472631 
L 139.411902 28.247541 
L 148.325746 28.247541 
L 148.325746 28.137533 
L 148.325746 26.876759 
L 155.862283 26.876759 
L 155.862283 26.766752 
L 155.862283 25.491116 
L 162.390738 25.491116 
L 162.390738 25.381092 
L 162.390738 23.986532 
L 168.14924 23.986532 
L 168.14924 23.876508 
L 168.14924 22.663323 
L 173.300396 22.663323 
L 173.300396 22.553299 
L 173.300396 21.307403 
L 177.960183 21.307403 
L 177.960183 21.197379 
L 177.960183 20.049617 
L 182.214232 20.049617 
L 182.214232 19.939593 
L 182.214232 18.884005 
L 186.127584 18.884005 
L 186.127584 18.773981 
L 186.127584 17.751105 
L 189.750783 17.751105 
L 189.750783 17.641081 
L 189.750783 16.728211 
L 193.1239 16.728211 
L 193.1239 16.618204 
L 193.1239 15.711279 
L 196.279237 15.711279 
L 196.279237 15.601256 
L 196.279237 14.733004 
L 199.24322 14.733004 
L 199.24322 14.62298 
L 199.24322 13.840957 
L 202.037733 13.840957 
L 202.037733 13.730933 
L 202.037733 13.026206 
L 204.681126 13.026206 
L 204.681126 12.916199 
L 204.681126 12.267978 
L 207.188894 12.267978 
L 207.188894 12.157954 
L 207.188894 11.658396 
L 209.574273 11.658396 
L 209.574273 11.548389 
L 209.574273 11.01612 
L 211.848681 11.01612 
L 211.848681 10.906113 
L 211.848681 10.400611 
L 214.021957 10.400611 
L 214.021957 10.290587 
L 214.021957 9.948643 
L 216.102729 9.948643 
L 216.102729 9.838619 
L 216.102729 9.478824 
L 218.098551 9.478824 
L 218.098551 9.368817 
L 218.098551 9.083346 
L 220.016081 9.083346 
L 220.016081 8.973339 
L 220.016081 8.726541 
L 221.861238 8.726541 
L 221.861238 8.616517 
L 221.861238 8.345924 
L 223.63928 8.345924 
L 223.63928 8.2359 
L 223.63928 8.039664 
L 225.354921 8.039664 
L 225.354921 7.92964 
L 225.354921 7.754193 
L 227.012384 7.754193 
L 227.012384 7.644186 
L 227.012384 7.537134 
L 228.615512 7.537134 
L 228.615512 7.42711 
L 228.615512 7.334937 
L 230.167722 7.334937 
L 230.167722 7.224913 
L 230.167722 7.135711 
L 231.672174 7.135711 
L 231.672174 7.025687 
L 231.672174 6.975142 
L 233.131703 6.975142 
L 233.131703 6.865118 
L 233.131703 6.832424 
L 234.548936 6.832424 
L 234.548936 6.7224 
L 234.548936 6.707522 
L 237.265788 6.600487 
L 237.265788 6.597514 
L 237.265788 6.496407 
L 239.839571 6.389372 
L 239.839571 6.3864 
L 239.839571 6.303127 
L 242.284628 6.240692 
L 242.284628 6.193119 
L 242.284628 6.160408 
L 245.737166 6.053356 
L 245.737166 6.050384 
L 245.737166 6.002811 
L 248.961913 5.916582 
L 248.961913 5.892787 
L 248.961913 5.877926 
L 251.987037 5.773846 
L 251.987037 5.767902 
L 251.987037 5.720329 
L 257.527766 5.61625 
L 257.527766 5.610305 
L 257.527766 5.586527 
L 264.056224 5.497309 
L 264.056224 5.476503 
L 264.056224 5.473531 
L 282.327502 5.363507 
L 282.327502 5.360535 
L 312.955407 5.321879 
L 312.955407 5.318906 
" style="fill:none;stroke:#1f77b4;stroke-linecap:round;stroke-width:1.5;"/>
   </g>
   <g id="patch_3">
    <path d="M 48.11375 287.048906 
L 48.11375 5.318906 
" style="fill:none;stroke:#000000;stroke-linecap:square;stroke-linejoin:miter;stroke-width:0.8;"/>
   </g>
   <g id="patch_4">
    <path d="M 48.11375 287.048906 
L 325.566915 287.048906 
" style="fill:none;stroke:#000000;stroke-linecap:square;stroke-linejoin:miter;stroke-width:0.8;"/>
   </g>
  </g>
  <g id="legend_1">
   <g id="text_12">
    <!-- variable -->
    <g style="fill:#262626;" transform="translate(349.89995 146.967403)scale(0.096 -0.096)">
     <defs>
      <path d="M 3116 1747 
Q 3116 2381 2855 2742 
Q 2594 3103 2138 3103 
Q 1681 3103 1420 2742 
Q 1159 2381 1159 1747 
Q 1159 1113 1420 752 
Q 1681 391 2138 391 
Q 2594 391 2855 752 
Q 3116 1113 3116 1747 
z
M 1159 2969 
Q 1341 3281 1617 3432 
Q 1894 3584 2278 3584 
Q 2916 3584 3314 3078 
Q 3713 2572 3713 1747 
Q 3713 922 3314 415 
Q 2916 -91 2278 -91 
Q 1894 -91 1617 61 
Q 1341 213 1159 525 
L 1159 0 
L 581 0 
L 581 4863 
L 1159 4863 
L 1159 2969 
z
" id="DejaVuSans-62" transform="scale(0.015625)"/>
     </defs>
     <use xlink:href="#DejaVuSans-76"/>
     <use x="59.179688" xlink:href="#DejaVuSans-61"/>
     <use x="120.458984" xlink:href="#DejaVuSans-72"/>
     <use x="161.572266" xlink:href="#DejaVuSans-69"/>
     <use x="189.355469" xlink:href="#DejaVuSans-61"/>
     <use x="250.634766" xlink:href="#DejaVuSans-62"/>
     <use x="314.111328" xlink:href="#DejaVuSans-6c"/>
     <use x="341.894531" xlink:href="#DejaVuSans-65"/>
    </g>
   </g>
   <g id="line2d_40">
    <path d="M 337.09715 160.682691 
L 343.53715 160.682691 
" style="fill:none;stroke:#1f77b4;stroke-linecap:round;stroke-width:1.5;"/>
   </g>
   <g id="line2d_41"/>
   <g id="text_13">
    <!-- cbender -->
    <g style="fill:#262626;" transform="translate(348.68915 165.190691)scale(0.1288 -0.1288)">
     <defs>
      <path d="M 3122 3366 
L 3122 2828 
Q 2878 2963 2633 3030 
Q 2388 3097 2138 3097 
Q 1578 3097 1268 2742 
Q 959 2388 959 1747 
Q 959 1106 1268 751 
Q 1578 397 2138 397 
Q 2388 397 2633 464 
Q 2878 531 3122 666 
L 3122 134 
Q 2881 22 2623 -34 
Q 2366 -91 2075 -91 
Q 1284 -91 818 406 
Q 353 903 353 1747 
Q 353 2603 823 3093 
Q 1294 3584 2113 3584 
Q 2378 3584 2631 3529 
Q 2884 3475 3122 3366 
z
" id="DejaVuSans-63" transform="scale(0.015625)"/>
      <path d="M 2906 2969 
L 2906 4863 
L 3481 4863 
L 3481 0 
L 2906 0 
L 2906 525 
Q 2725 213 2448 61 
Q 2172 -91 1784 -91 
Q 1150 -91 751 415 
Q 353 922 353 1747 
Q 353 2572 751 3078 
Q 1150 3584 1784 3584 
Q 2172 3584 2448 3432 
Q 2725 3281 2906 2969 
z
M 947 1747 
Q 947 1113 1208 752 
Q 1469 391 1925 391 
Q 2381 391 2643 752 
Q 2906 1113 2906 1747 
Q 2906 2381 2643 2742 
Q 2381 3103 1925 3103 
Q 1469 3103 1208 2742 
Q 947 2381 947 1747 
z
" id="DejaVuSans-64" transform="scale(0.015625)"/>
     </defs>
     <use xlink:href="#DejaVuSans-63"/>
     <use x="54.980469" xlink:href="#DejaVuSans-62"/>
     <use x="118.457031" xlink:href="#DejaVuSans-65"/>
     <use x="179.980469" xlink:href="#DejaVuSans-6e"/>
     <use x="243.359375" xlink:href="#DejaVuSans-64"/>
     <use x="306.835938" xlink:href="#DejaVuSans-65"/>
     <use x="368.359375" xlink:href="#DejaVuSans-72"/>
    </g>
   </g>
   <g id="line2d_42">
    <path d="M 337.09715 179.588116 
L 343.53715 179.588116 
" style="fill:none;stroke:#ff7f0e;stroke-linecap:round;stroke-width:1.5;"/>
   </g>
   <g id="line2d_43"/>
   <g id="text_14">
    <!-- umi -->
    <g style="fill:#262626;" transform="translate(348.68915 184.096116)scale(0.1288 -0.1288)">
     <defs>
      <path d="M 3328 2828 
Q 3544 3216 3844 3400 
Q 4144 3584 4550 3584 
Q 5097 3584 5394 3201 
Q 5691 2819 5691 2113 
L 5691 0 
L 5113 0 
L 5113 2094 
Q 5113 2597 4934 2840 
Q 4756 3084 4391 3084 
Q 3944 3084 3684 2787 
Q 3425 2491 3425 1978 
L 3425 0 
L 2847 0 
L 2847 2094 
Q 2847 2600 2669 2842 
Q 2491 3084 2119 3084 
Q 1678 3084 1418 2786 
Q 1159 2488 1159 1978 
L 1159 0 
L 581 0 
L 581 3500 
L 1159 3500 
L 1159 2956 
Q 1356 3278 1631 3431 
Q 1906 3584 2284 3584 
Q 2666 3584 2933 3390 
Q 3200 3197 3328 2828 
z
" id="DejaVuSans-6d" transform="scale(0.015625)"/>
     </defs>
     <use xlink:href="#DejaVuSans-75"/>
     <use x="63.378906" xlink:href="#DejaVuSans-6d"/>
     <use x="160.791016" xlink:href="#DejaVuSans-69"/>
    </g>
   </g>
  </g>
 </g>
 <defs>
  <clipPath id="pc43ae33d07">
   <rect height="281.73" width="277.453165" x="48.11375" y="5.318906"/>
  </clipPath>
 </defs>
</svg>
